<svg xmlns="http://www.w3.org/2000/svg" xmlns:xlink="http://www.w3.org/1999/xlink" width="65.949" height="66.847" viewBox="0 0 65.949 66.847"><defs><clipPath id="a"><path d="M695,289.5h7.524v7.09H695Zm0,0" transform="translate(-695 -289.5)" fill="#302e2e"/></clipPath><clipPath id="b"><path d="M695,496h7.524v7.09H695Zm0,0" transform="translate(-695 -496)" fill="#302e2e"/></clipPath></defs><g transform="translate(-606.051 -289.5)"><path d="M694.156,386.177H672.473A4.093,4.093,0,0,1,668.4,382.1V364.522a4.1,4.1,0,0,1,4.071-4.112h21.683a4.11,4.11,0,0,1,4.109,4.112V382.1A4.1,4.1,0,0,1,694.156,386.177Zm-20.94-8.144a.487.487,0,0,1-.234-.04.621.621,0,0,1-.353-.861l1.41-3.524v-.04l2.543-6.344v-.04a.392.392,0,0,1,.157-.2.385.385,0,0,1,.2-.156h.039a.354.354,0,0,1,.2-.039.491.491,0,0,1,.234.039h.04a.39.39,0,0,1,.2.156.4.4,0,0,1,.157.2v.04l2.543,6.344v.04l1.41,3.524a.658.658,0,1,1-1.214.509l-1.252-3.132h-4.188l-1.252,3.132A.7.7,0,0,1,673.215,378.033Zm14.913.038h-3.484a.618.618,0,0,1-.626-.626.628.628,0,0,1,.626-.666h2.818v-8.733h-2.818a.618.618,0,0,1-.626-.626.629.629,0,0,1,.626-.666h6.928a.66.66,0,0,1,.665.666.652.652,0,0,1-.665.626h-2.818v8.733h2.818a.659.659,0,0,1,.665.666.652.652,0,0,1-.665.626Zm-9.355-4.895-1.6-3.955-1.566,3.955Zm0,0" transform="translate(-44.308 -50.39)" fill="#302e2e" fill-rule="evenodd"/><path d="M706.4,325.489a.686.686,0,0,1-.666-.666V310.059a.686.686,0,0,1,.666-.664.652.652,0,0,1,.626.664v14.764A.653.653,0,0,1,706.4,325.489Zm0,0" transform="translate(-70.834 -14.138)" fill="#302e2e" fill-rule="evenodd"/><g transform="translate(631.791 289.5)" clip-path="url(#a)"><path d="M699.285,296.587a3.544,3.544,0,1,1,0-7.087,3.544,3.544,0,0,1,0,7.087Zm0,0" transform="translate(-695.514 -289.5)" fill="#302e2e" fill-rule="evenodd"/></g><path d="M730.337,346.741a.686.686,0,0,1-.665-.666v-6.109a.665.665,0,1,1,1.331,0v6.109A.686.686,0,0,1,730.337,346.741Zm0,0" transform="translate(-87.848 -35.39)" fill="#302e2e" fill-rule="evenodd"/><path d="M723.319,326.495a3.544,3.544,0,1,1,3.523-3.564A3.543,3.543,0,0,1,723.319,326.495Zm0,0" transform="translate(-80.83 -21.252)" fill="#302e2e" fill-rule="evenodd"/><path d="M754.275,331.354a.686.686,0,0,1-.666-.666v-9.555a3.493,3.493,0,0,1,3.484-3.485h4.148a.666.666,0,0,1,0,1.332h-4.148a2.146,2.146,0,0,0-2.152,2.153v9.555A.686.686,0,0,1,754.275,331.354Zm0,0" transform="translate(-104.858 -20.003)" fill="#302e2e" fill-rule="evenodd"/><path d="M781.246,314.819a3.524,3.524,0,1,1,3.523-3.525A3.543,3.543,0,0,1,781.246,314.819Zm0,0" transform="translate(-121.966 -12.983)" fill="#302e2e" fill-rule="evenodd"/><path d="M665.347,331.354a.66.66,0,0,1-.666-.666v-9.555a2.146,2.146,0,0,0-2.152-2.153h-4.149a.666.666,0,0,1,0-1.332h4.149a3.459,3.459,0,0,1,3.444,3.485v9.555A.652.652,0,0,1,665.347,331.354Zm0,0" transform="translate(-36.714 -20.003)" fill="#302e2e" fill-rule="evenodd"/><path d="M641.355,314.819a3.524,3.524,0,1,1,3.522-3.525A3.509,3.509,0,0,1,641.355,314.819Zm0,0" transform="translate(-22.584 -12.983)" fill="#302e2e" fill-rule="evenodd"/><path d="M779.956,379.565h-12.29A.686.686,0,0,1,767,378.9a.652.652,0,0,1,.666-.627h12.29a.618.618,0,0,1,.626.627A.652.652,0,0,1,779.956,379.565Zm0,0" transform="translate(-114.374 -63.084)" fill="#302e2e" fill-rule="evenodd"/><path d="M812.992,375.347a3.544,3.544,0,1,1,3.56-3.564A3.569,3.569,0,0,1,812.992,375.347Zm0,0" transform="translate(-144.553 -55.967)" fill="#302e2e" fill-rule="evenodd"/><path d="M771.344,404.059h-3.678a.66.66,0,0,1-.666-.666.653.653,0,0,1,.666-.627h3.678a.619.619,0,0,1,.626.627A.629.629,0,0,1,771.344,404.059Zm0,0" transform="translate(-114.374 -80.489)" fill="#302e2e" fill-rule="evenodd"/><path d="M783.237,399.841a3.544,3.544,0,1,1,3.562-3.563A3.567,3.567,0,0,1,783.237,399.841Zm0,0" transform="translate(-123.409 -73.374)" fill="#302e2e" fill-rule="evenodd"/><path d="M779.956,428.417h-12.29a.66.66,0,0,1-.666-.666.653.653,0,0,1,.666-.626h12.29a.618.618,0,0,1,.626.626A.628.628,0,0,1,779.956,428.417Zm0,0" transform="translate(-114.374 -97.799)" fill="#302e2e" fill-rule="evenodd"/><path d="M812.992,424.2a3.544,3.544,0,1,1,3.56-3.564A3.568,3.568,0,0,1,812.992,424.2Zm0,0" transform="translate(-144.553 -90.684)" fill="#302e2e" fill-rule="evenodd"/><path d="M706.4,461.044a.653.653,0,0,1-.666-.626V445.654a.661.661,0,0,1,.666-.666.629.629,0,0,1,.626.666v14.764A.619.619,0,0,1,706.4,461.044Zm0,0" transform="translate(-70.834 -110.493)" fill="#302e2e" fill-rule="evenodd"/><g transform="translate(631.791 349.257)" clip-path="url(#b)"><path d="M699.285,503.1a3.544,3.544,0,1,1,0-7.087,3.544,3.544,0,0,1,0,7.087Zm0,0" transform="translate(-695.514 -496.006)" fill="#302e2e" fill-rule="evenodd"/></g><path d="M730.337,452.39a.653.653,0,0,1-.665-.627v-6.109a.665.665,0,1,1,1.331,0v6.109A.653.653,0,0,1,730.337,452.39Zm0,0" transform="translate(-87.848 -110.493)" fill="#302e2e" fill-rule="evenodd"/><path d="M723.319,473.187a3.544,3.544,0,1,1,3.523-3.564A3.543,3.543,0,0,1,723.319,473.187Zm0,0" transform="translate(-80.83 -125.494)" fill="#302e2e" fill-rule="evenodd"/><path d="M761.241,458.656h-4.148a3.46,3.46,0,0,1-3.484-3.447v-9.555a.666.666,0,0,1,1.332,0v9.555a2.172,2.172,0,0,0,2.152,2.153h4.148a.66.66,0,0,1,.666.666A.653.653,0,0,1,761.241,458.656Zm0,0" transform="translate(-104.858 -110.493)" fill="#302e2e" fill-rule="evenodd"/><path d="M781.246,484.825a3.544,3.544,0,1,1,3.523-3.524A3.567,3.567,0,0,1,781.246,484.825Zm0,0" transform="translate(-121.966 -133.766)" fill="#302e2e" fill-rule="evenodd"/><path d="M662.529,458.656h-4.149a.629.629,0,0,1-.666-.627.638.638,0,0,1,.666-.666h4.149a2.172,2.172,0,0,0,2.152-2.153v-9.555a.638.638,0,0,1,.666-.666.629.629,0,0,1,.626.666v9.555A3.426,3.426,0,0,1,662.529,458.656Zm0,0" transform="translate(-36.714 -110.493)" fill="#302e2e" fill-rule="evenodd"/><path d="M641.355,484.825a3.544,3.544,0,1,1,3.522-3.524A3.534,3.534,0,0,1,641.355,484.825Zm0,0" transform="translate(-22.584 -133.766)" fill="#302e2e" fill-rule="evenodd"/><path d="M638.885,379.565H626.6a.652.652,0,0,1-.666-.626.66.66,0,0,1,.666-.666h12.29a.628.628,0,0,1,.626.666A.618.618,0,0,1,638.885,379.565Zm0,0" transform="translate(-14.126 -63.084)" fill="#302e2e" fill-rule="evenodd"/><path d="M609.573,375.347a3.544,3.544,0,0,1,0-7.089,3.544,3.544,0,1,1,0,7.089Zm0,0" transform="translate(0 -55.967)" fill="#302e2e" fill-rule="evenodd"/><path d="M660.032,404.059h-3.678a.653.653,0,0,1-.666-.627.687.687,0,0,1,.666-.666h3.678a.653.653,0,0,1,.626.666A.619.619,0,0,1,660.032,404.059Zm0,0" transform="translate(-35.273 -80.489)" fill="#302e2e" fill-rule="evenodd"/><path d="M639.327,399.841a3.544,3.544,0,0,1,0-7.087,3.544,3.544,0,1,1,0,7.087Zm0,0" transform="translate(-21.144 -73.374)" fill="#302e2e" fill-rule="evenodd"/><path d="M638.885,428.457H626.6a.666.666,0,0,1,0-1.332h12.29a.667.667,0,0,1,0,1.332Zm0,0" transform="translate(-14.126 -97.799)" fill="#302e2e" fill-rule="evenodd"/><path d="M609.573,424.3a3.525,3.525,0,1,1,3.562-3.524A3.533,3.533,0,0,1,609.573,424.3Zm0,0" transform="translate(0 -90.779)" fill="#302e2e" fill-rule="evenodd"/></g></svg>