<svg xmlns="http://www.w3.org/2000/svg" xmlns:xlink="http://www.w3.org/1999/xlink" width="134.76" height="55.129" viewBox="0 0 134.76 55.129"><defs><clipPath id="a"><path d="M604.5,357.75H739.26v55.129H604.5Zm0,0" transform="translate(-604.5 -357.75)" fill="#302e2e"/></clipPath></defs><g transform="translate(-604.5 -357.75)"><path d="M70.205,113.22A21.764,21.764,0,1,1,48.44,91.371,21.806,21.806,0,0,1,70.205,113.22Zm0,0" transform="translate(585.915 272.1)" fill="#302e2e" stroke="#000" stroke-linejoin="round" stroke-miterlimit="10" stroke-width="3.086"/><path d="M186.177,93.466a20.328,20.328,0,0,0,0,39.512,21.85,21.85,0,1,1,0-39.512Zm0,0" transform="translate(532.405 272.1)" fill="#302e2e" stroke="#000" stroke-linejoin="round" stroke-miterlimit="10" stroke-width="3.086"/><g transform="translate(604.5 357.75)" clip-path="url(#a)"><path d="M711.821,357.77H631.964a27.561,27.561,0,0,0,0,55.122h79.856a27.561,27.561,0,0,0,0-55.122ZM606.308,385.33a25.738,25.738,0,0,1,25.657-25.758h39.03v51.515h-39.03A25.736,25.736,0,0,1,606.308,385.33Zm105.513,25.757H672.79V359.572h39.031a25.758,25.758,0,0,1,0,51.515Zm0,0" transform="translate(-604.505 -357.758)" fill="#302e2e"/></g></g></svg>