<svg xmlns="http://www.w3.org/2000/svg" xmlns:xlink="http://www.w3.org/1999/xlink" width="49.715" height="63" viewBox="0 0 49.715 63"><defs><clipPath id="a"><path d="M629.25,290h31.432v51.222H629.25Zm0,0" transform="translate(-629.25 -290)" fill="#302e2e"/></clipPath><clipPath id="b"><path d="M689,442h33.349v21.365H689Zm0,0" transform="translate(-689 -442)" fill="#302e2e"/></clipPath></defs><g transform="translate(-629.25 -290)"><path d="M647.733,442.353h-6.761a.706.706,0,0,1,0-1.411h6.761a.706.706,0,0,1,0,1.411" transform="translate(-8.001 -109.596)" fill="#302e2e"/><path d="M664.912,310.526H640.972a.707.707,0,0,1,0-1.413h23.941a.707.707,0,0,1,0,1.413" transform="translate(-8.001 -13.878)" fill="#302e2e"/><g transform="translate(629.25 290)" clip-path="url(#a)"><path d="M639.771,341.074h-6.018A4.469,4.469,0,0,1,629.3,336.6V294.554a4.466,4.466,0,0,1,4.449-4.476h22.455a4.466,4.466,0,0,1,4.449,4.476V325.6a.7.7,0,1,1-1.4,0V294.554a3.06,3.06,0,0,0-3.045-3.065H633.754a3.059,3.059,0,0,0-3.045,3.065V336.6a3.059,3.059,0,0,0,3.045,3.065h6.018a.706.706,0,0,1,0,1.412" transform="translate(-629.29 -290.057)" fill="#302e2e"/></g><path d="M679.779,301.114h-5.936a.706.706,0,0,1,0-1.411h5.936a.706.706,0,0,1,0,1.411" transform="translate(-31.869 -7.045)" fill="#302e2e"/><path d="M681.437,428.049a1.311,1.311,0,1,0,1.3,1.311A1.309,1.309,0,0,0,681.437,428.049Zm0,4.035a2.724,2.724,0,1,1,2.708-2.724,2.719,2.719,0,0,1-2.708,2.724" transform="translate(-35.927 -99.21)" fill="#302e2e"/><path d="M668.728,418.6a2.383,2.383,0,0,0-2.372,2.387v13.738a2.383,2.383,0,0,0,2.372,2.387h25.6a2.383,2.383,0,0,0,2.372-2.387V420.991a2.383,2.383,0,0,0-2.372-2.387Zm25.6,19.925h-25.6a3.794,3.794,0,0,1-3.779-3.8V420.991a3.794,3.794,0,0,1,3.779-3.8h25.6a3.8,3.8,0,0,1,3.778,3.8v13.738a3.794,3.794,0,0,1-3.778,3.8" transform="translate(-25.921 -92.352)" fill="#302e2e"/><g transform="translate(645.616 331.635)" clip-path="url(#b)"><path d="M719.969,463.363H692.484a2.846,2.846,0,0,1-2.836-2.85v-4.658a.7.7,0,1,1,1.407,0v4.658a1.437,1.437,0,0,0,1.428,1.439h27.486a1.437,1.437,0,0,0,1.431-1.439V444.878a1.435,1.435,0,0,0-1.431-1.439h-4.632a.706.706,0,0,1,0-1.411h4.632a2.845,2.845,0,0,1,2.835,2.851v15.635a2.845,2.845,0,0,1-2.835,2.85" transform="translate(-689.471 -442.02)" fill="#302e2e"/></g><path d="M749.5,428.049a.443.443,0,0,0-.44.445v1.733a.442.442,0,0,0,.44.443h3.123a.443.443,0,0,0,.441-.443v-1.733a.444.444,0,0,0-.441-.445Zm3.123,4.035H749.5a1.853,1.853,0,0,1-1.845-1.856v-1.733a1.853,1.853,0,0,1,1.845-1.857h3.123a1.853,1.853,0,0,1,1.845,1.857v1.733a1.853,1.853,0,0,1-1.845,1.856" transform="translate(-85.97 -99.21)" fill="#302e2e"/><path d="M650.526,367.142a.706.706,0,0,1-.7-.706v-6.672a.7.7,0,1,1,1.407,0v6.672a.707.707,0,0,1-.705.706" transform="translate(-14.938 -50.143)" fill="#302e2e"/><path d="M652.918,364.211h-2.392a.706.706,0,0,1,0-1.411h2.392a1.165,1.165,0,0,0,0-2.329h-2.392a.706.706,0,0,1,0-1.411h2.392a2.576,2.576,0,0,1,0,5.152" transform="translate(-14.938 -50.143)" fill="#302e2e"/><path d="M674.676,367.141a.693.693,0,0,1-.22-.037.706.706,0,0,1-.448-.89l2.194-6.671a.706.706,0,0,1,.651-.485.7.7,0,0,1,.673.449l2.57,6.673a.7.7,0,1,1-1.311.509l-1.864-4.835-1.58,4.8a.7.7,0,0,1-.665.485" transform="translate(-32.472 -50.142)" fill="#302e2e"/><path d="M680.512,376.809h-3.2a.706.706,0,0,1,0-1.411h3.2a.706.706,0,0,1,0,1.411" transform="translate(-34.39 -62.006)" fill="#302e2e"/><path d="M709.237,374.548a.706.706,0,0,1-.7-.706v-3.875a.7.7,0,1,1,1.4,0v3.875a.7.7,0,0,1-.7.706" transform="translate(-57.568 -57.548)" fill="#302e2e"/><path d="M701.909,363.265a.688.688,0,0,1-.5-.209l-2.781-2.794a.709.709,0,0,1,0-1,.7.7,0,0,1,.993,0l2.284,2.294,2.118-2.129a.7.7,0,0,1,.993,0,.712.712,0,0,1,0,1l-2.615,2.627a.691.691,0,0,1-.5.209" transform="translate(-50.228 -50.141)" fill="#302e2e"/><path d="M688.041,472.51a.706.706,0,0,1,0-1.412h0a.706.706,0,0,1,0,1.412Zm3.751,0a.706.706,0,0,1,0-1.412h0a.706.706,0,0,1,0,1.412Zm3.749,0a.706.706,0,0,1,0-1.412h0a.706.706,0,0,1,0,1.412Zm3.752,0a.706.706,0,0,1-.005-1.412h.005a.706.706,0,0,1,0,1.412Zm3.749,0a.706.706,0,0,1,0-1.412h0a.706.706,0,0,1,0,1.412Zm3.749,0a.706.706,0,0,1,0-1.412h0a.706.706,0,0,1,0,1.412" transform="translate(-42.175 -131.493)" fill="#302e2e"/><path d="M712.462,504.691a.707.707,0,0,1,0-1.414h0a.707.707,0,0,1,0,1.414Zm3.75,0a.707.707,0,0,1-.005-1.414h.005a.707.707,0,0,1,0,1.414Zm3.749,0a.707.707,0,0,1-.005-1.414h.005a.707.707,0,0,1,0,1.414Zm3.752,0a.707.707,0,0,1-.005-1.414h.005a.707.707,0,0,1,0,1.414Zm3.749,0a.707.707,0,0,1-.005-1.414h.005a.707.707,0,0,1,0,1.414Zm3.751,0a.707.707,0,0,1,0-1.414h0a.707.707,0,0,1,0,1.414" transform="translate(-59.908 -154.858)" fill="#302e2e"/><path d="M699.128,432.084a.707.707,0,0,1,0-1.413,1.311,1.311,0,0,0,0-2.621.706.706,0,0,1,0-1.412,2.724,2.724,0,0,1,0,5.447" transform="translate(-50.228 -99.21)" fill="#302e2e"/></g></svg>