<svg xmlns="http://www.w3.org/2000/svg" width="52.297" height="52.398" viewBox="0 0 52.297 52.398"><g transform="translate(-608.119 -292.918)"><path d="M651.967,328.272a8.423,8.423,0,0,0-5.463,2.009l-1.669-1.669q.443-.484.837-1.006t.739-1.08q.345-.557.637-1.143t.529-1.2q.237-.612.416-1.241t.3-1.275q.121-.644.181-1.3t.061-1.308q0-.655-.061-1.308t-.181-1.3q-.119-.643-.3-1.274t-.416-1.241q-.237-.611-.529-1.2t-.637-1.144q-.344-.557-.739-1.079t-.837-1.007l1.647-1.646q.207.173.424.334t.445.307q.227.145.463.277c.158.088.318.17.481.248s.327.149.494.215.337.129.508.185.345.106.518.152.351.084.527.118.354.062.534.084.358.039.538.05.359.016.539.015.36-.006.54-.019.359-.029.537-.053.356-.052.534-.087.352-.075.526-.122.346-.1.517-.154.34-.119.507-.186.331-.142.493-.219.322-.162.479-.251.311-.182.462-.28.3-.2.443-.309.285-.22.422-.337.271-.237.4-.363.255-.254.377-.388.238-.27.351-.41.22-.285.323-.432.2-.3.3-.452.182-.311.266-.47.162-.322.236-.486.142-.332.2-.5.12-.34.172-.513.1-.346.139-.522.077-.352.106-.53.053-.356.071-.536.03-.358.037-.538.007-.36,0-.54-.015-.36-.031-.539-.038-.358-.067-.536-.06-.355-.1-.531-.084-.35-.134-.524-.106-.344-.167-.514-.128-.336-.2-.5-.149-.328-.231-.489-.169-.317-.261-.472-.189-.306-.291-.455-.208-.293-.32-.435-.227-.28-.346-.414-.244-.265-.373-.392-.26-.249-.4-.367-.276-.231-.419-.341-.291-.214-.441-.313-.3-.195-.459-.284-.315-.175-.476-.255-.325-.154-.492-.224-.335-.133-.505-.192-.342-.113-.515-.16-.349-.09-.525-.126-.354-.068-.532-.093-.357-.045-.537-.059-.359-.022-.539-.024-.361,0-.54.01-.36.025-.538.045-.357.047-.535.08-.354.069-.528.113-.348.092-.52.146-.342.114-.51.179-.334.136-.5.211-.325.157-.482.243-.313.176-.466.272-.3.2-.448.3-.289.215-.428.33-.274.233-.406.356-.26.251-.383.382-.242.266-.356.4-.225.281-.331.427-.207.3-.3.448-.187.308-.274.466-.167.319-.243.482-.146.329-.212.5-.125.337-.18.509-.1.346-.147.52-.081.351-.113.528-.059.355-.08.535-.036.358-.046.538-.014.359-.011.539.009.36.023.54.033.358.058.537.056.355.092.532.078.352.125.525.1.346.159.516.121.339.191.506.143.33.223.492.164.321.254.477.185.309.284.459.2.3.313.441.222.284.34.42l-1.651,1.651q-.484-.441-1.007-.836t-1.079-.74q-.558-.345-1.144-.637t-1.2-.529q-.612-.236-1.241-.416t-1.274-.3q-.644-.12-1.3-.181t-1.308-.06q-.655,0-1.308.06t-1.3.181q-.644.121-1.274.3t-1.242.416q-.61.237-1.2.529t-1.143.637q-.557.346-1.08.74t-1.006.836l-1.624-1.638c.115-.139.227-.282.333-.428s.208-.3.305-.448.189-.308.276-.466.169-.32.246-.483.148-.33.215-.5.127-.338.182-.51.1-.346.15-.522.083-.351.116-.529.06-.356.081-.536.038-.36.048-.54.015-.361.014-.542-.009-.362-.022-.542-.031-.36-.056-.539-.055-.357-.091-.535-.077-.353-.124-.527-.1-.347-.157-.519-.121-.34-.19-.507-.143-.333-.223-.494-.164-.323-.253-.48-.184-.311-.283-.462-.2-.3-.312-.443-.222-.285-.34-.423-.24-.27-.367-.4-.256-.255-.39-.376-.272-.238-.414-.35-.287-.22-.436-.323-.3-.2-.455-.3-.313-.181-.472-.265-.324-.161-.489-.234-.334-.14-.5-.2-.341-.12-.515-.171-.348-.1-.524-.136-.354-.075-.532-.1-.357-.052-.537-.07-.361-.029-.541-.035-.362-.006-.542,0-.362.017-.541.035-.359.039-.538.069-.355.063-.532.1-.351.086-.525.137-.346.108-.515.17-.337.13-.5.2-.328.151-.489.234-.318.172-.473.265-.306.191-.455.294-.293.21-.435.323-.281.228-.415.35-.264.246-.39.376-.249.262-.367.4-.231.278-.34.422-.213.292-.313.443-.194.3-.283.461-.175.317-.254.479-.154.327-.222.495-.132.336-.191.508-.111.344-.158.518-.088.351-.124.527-.066.356-.091.535-.043.359-.056.539-.02.361-.022.542,0,.361.013.542.026.36.048.54.048.358.081.536.071.355.115.53.094.349.15.521.115.343.182.511.137.335.214.5.159.324.246.484.179.313.276.466.2.3.3.449.218.288.334.428.235.274.359.406.252.259.385.381.269.242.409.357.283.224.43.33.3.206.45.3.31.186.469.272.321.166.485.242.331.145.5.21.34.125.513.179.346.1.522.145.353.08.53.112.357.058.537.078.359.035.54.044.361.012.542.008.361-.011.541-.026.36-.034.539-.059.356-.058.534-.095.353-.08.526-.128.347-.1.518-.162.339-.124.505-.194.331-.145.493-.227.321-.165.477-.257.31-.186.459-.287.3-.205.441-.315.284-.224.42-.343l1.637,1.637q-.441.484-.836,1.007t-.739,1.08q-.346.557-.638,1.143t-.528,1.2q-.237.611-.417,1.241t-.3,1.275q-.119.643-.181,1.3t-.06,1.308q0,.655.06,1.308t.181,1.3q.121.644.3,1.275t.417,1.241q.236.612.528,1.2t.638,1.143q.344.558.739,1.08t.836,1.007l-1.66,1.637c-.139-.115-.281-.226-.428-.333s-.295-.208-.448-.305-.308-.189-.466-.276-.32-.169-.483-.246-.33-.148-.5-.215-.338-.127-.51-.182-.346-.105-.522-.15-.352-.083-.529-.116-.357-.06-.536-.081-.36-.038-.54-.048-.362-.015-.542-.014-.362.009-.542.022-.36.031-.539.056-.357.055-.535.091-.353.077-.527.124-.348.1-.519.157-.34.121-.507.19-.333.144-.494.223-.323.164-.48.253-.311.184-.463.283-.3.2-.442.312-.286.222-.423.34-.27.241-.4.367-.255.256-.376.39-.238.272-.35.414-.22.287-.323.436-.2.3-.294.455-.182.313-.265.473-.161.323-.234.489-.141.334-.2.5-.119.341-.17.514-.1.348-.137.525-.074.354-.1.532-.051.357-.069.537-.029.361-.035.541-.007.362,0,.542.017.361.034.541.04.359.069.538.063.355.1.532.086.351.137.525.108.346.17.514.13.338.2.5.151.328.234.489.172.318.265.473.191.306.294.455.21.293.323.435.228.281.35.415.246.264.375.39.263.249.4.367.278.231.422.34.292.213.442.313.305.194.462.283.317.175.479.254.327.153.494.222.336.132.508.191.344.111.518.157.35.089.527.125.356.066.535.091.359.043.539.056.361.02.542.022.361,0,.542-.013.36-.025.54-.047.358-.048.536-.081.355-.071.53-.115.349-.094.521-.15.343-.115.511-.182.334-.137.5-.214.324-.159.482-.246.314-.179.467-.276.3-.2.448-.305.289-.217.429-.333.274-.235.4-.359.26-.252.382-.385.242-.269.357-.409.224-.283.33-.43.206-.3.3-.45.186-.31.272-.469.166-.321.242-.485.145-.331.21-.5.124-.339.179-.512.1-.346.145-.522.08-.353.111-.531.058-.356.078-.536.035-.359.044-.54.011-.361.008-.542-.011-.361-.026-.541-.034-.36-.06-.539-.057-.356-.094-.534-.08-.353-.128-.526-.1-.347-.162-.518-.124-.339-.194-.505-.145-.332-.227-.493-.166-.321-.257-.477-.186-.31-.287-.46-.206-.3-.315-.441-.224-.284-.343-.42l1.659-1.66q.484.442,1.007.836t1.079.74q.557.345,1.143.637t1.2.529q.61.236,1.241.416t1.274.3q.644.121,1.3.181t1.307.06q.655,0,1.308-.06t1.3-.181q.644-.12,1.274-.3t1.241-.416q.611-.237,1.2-.529t1.144-.637q.557-.346,1.079-.74t1.007-.836l1.669,1.674q-.154.181-.3.371c-.1.126-.187.255-.276.387s-.173.265-.253.4-.157.275-.23.416-.142.283-.207.428-.126.291-.183.439-.109.3-.157.449-.091.3-.131.456-.074.308-.105.464-.057.312-.079.469-.039.314-.053.471-.022.316-.026.474,0,.317,0,.475.014.316.028.474.031.315.054.472.049.314.08.469.068.309.107.462.085.305.133.456.1.3.158.448.119.294.184.439.134.286.208.427.151.279.232.415.165.27.255.4.181.26.276.386.2.249.3.37.209.237.318.352.222.226.338.334.235.213.356.314.246.2.374.293.257.185.389.272.267.17.4.249.276.155.418.227.284.139.43.2.292.123.441.178.3.106.45.153.3.09.458.127.308.072.464.1.313.055.47.075.314.037.473.048.316.019.474.022.317,0,.475,0,.316-.017.474-.032.314-.035.471-.059.313-.053.468-.085.309-.07.461-.111.3-.087.455-.137.3-.1.446-.163.293-.121.437-.187.285-.137.425-.212.278-.153.413-.236.268-.168.4-.258.259-.184.384-.281.247-.2.366-.3.236-.211.35-.322.223-.225.33-.341.211-.237.312-.359.2-.249.29-.377.183-.259.269-.392.168-.269.246-.406.153-.278.223-.42.136-.285.2-.431.12-.292.175-.441.1-.3.149-.452.086-.3.122-.459.069-.309.1-.465.051-.313.07-.47.034-.315.044-.473.017-.316.017-.474,0-.317-.009-.475-.02-.316-.036-.473-.037-.314-.063-.471-.055-.313-.089-.467-.073-.308-.116-.461-.09-.3-.141-.453-.107-.3-.167-.445-.123-.292-.191-.435-.14-.284-.216-.423-.156-.276-.24-.41-.171-.267-.262-.4-.185-.256-.283-.38-.2-.246-.305-.365-.214-.234-.325-.346-.226-.221-.344-.327-.238-.209-.362-.308-.251-.195-.38-.287-.26-.18-.394-.265-.27-.165-.409-.242-.28-.15-.422-.219-.287-.134-.433-.195-.294-.118-.443-.17-.3-.1-.453-.146-.306-.083-.46-.119-.31-.066-.466-.092-.313-.049-.47-.067-.315-.031-.474-.039-.317-.014-.475-.014Zm0-33.871a7.122,7.122,0,0,1,1.384.135c.228.045.452.1.675.168s.441.145.655.235a7.126,7.126,0,0,1,1.226.654q.289.193.559.414c.179.147.351.3.515.467s.321.336.468.515.286.367.415.559.249.392.358.6.208.414.3.629.167.433.235.655.123.447.169.675.08.457.1.688.035.463.035.7-.012.463-.034.695-.057.46-.1.689a7.124,7.124,0,0,1-.4,1.33,6.946,6.946,0,0,1-.3.63q-.165.307-.357.6t-.415.559a6.915,6.915,0,0,1-.467.516q-.247.246-.515.467c-.18.147-.366.286-.559.415s-.392.248-.6.358-.414.208-.629.3-.433.166-.655.234a6.856,6.856,0,0,1-.675.169q-.341.068-.688.1t-.7.035c-.232,0-.464-.011-.695-.034s-.461-.057-.689-.1a6.914,6.914,0,0,1-.675-.169q-.333-.1-.655-.234c-.214-.088-.424-.188-.629-.3s-.4-.229-.6-.357a6.942,6.942,0,0,1-.559-.415,6.76,6.76,0,0,1-.515-.467q-.247-.247-.468-.515t-.415-.559q-.193-.289-.357-.6a6.936,6.936,0,0,1-.3-.63,6.76,6.76,0,0,1-.234-.655,6.909,6.909,0,0,1-.169-.674c-.046-.229-.08-.458-.1-.689s-.035-.462-.035-.694.012-.464.035-.695.058-.461.1-.688.1-.452.169-.674.146-.441.235-.655.188-.424.3-.629.229-.4.358-.6.267-.379.414-.559.3-.351.467-.515.336-.32.514-.467.366-.285.558-.415.392-.248.6-.357a6.908,6.908,0,0,1,.629-.3q.321-.133.654-.235t.674-.17c.228-.045.457-.08.688-.1S651.735,294.4,651.967,294.4Zm-42.323,7.091c0-.232.011-.464.033-.7s.057-.461.1-.688.1-.453.168-.675.145-.441.234-.655.188-.425.3-.63a7.123,7.123,0,0,1,.771-1.156c.147-.18.3-.352.467-.516s.336-.32.515-.467a6.837,6.837,0,0,1,.559-.415,6.918,6.918,0,0,1,.6-.358q.307-.164.629-.3c.215-.09.433-.167.655-.235a6.861,6.861,0,0,1,.675-.169q.341-.068.688-.1t.695-.034c.233,0,.464.011.7.034s.461.057.688.1.453.1.675.169.441.145.655.234a6.954,6.954,0,0,1,.63.3,6.849,6.849,0,0,1,.6.357,6.946,6.946,0,0,1,.559.414c.18.148.352.3.516.468s.32.335.467.516.286.365.415.558.248.392.358.6a7.116,7.116,0,0,1,.7,1.959q.068.343.1.689t.035.695c0,.232-.012.464-.034.7s-.057.461-.1.688-.1.453-.169.675-.145.441-.234.655-.188.424-.3.63-.229.4-.358.6-.268.379-.415.559-.3.351-.467.515-.336.32-.515.467-.367.286-.559.415-.392.249-.6.358-.415.208-.63.3a6.806,6.806,0,0,1-.655.235c-.222.068-.447.123-.674.169s-.458.079-.689.1-.462.034-.695.034-.464-.012-.694-.035-.461-.058-.688-.1a6.927,6.927,0,0,1-.674-.169c-.222-.068-.44-.145-.654-.235s-.424-.188-.629-.3a6.9,6.9,0,0,1-.6-.358q-.289-.193-.558-.414a6.778,6.778,0,0,1-.515-.467,6.936,6.936,0,0,1-.467-.514,6.865,6.865,0,0,1-.415-.558c-.129-.193-.249-.392-.358-.6s-.208-.414-.3-.629-.167-.432-.235-.654-.124-.447-.17-.674-.08-.457-.1-.687S609.644,301.724,609.644,301.492Zm7.091,42.3c-.232,0-.464-.011-.7-.033s-.461-.057-.688-.1-.453-.1-.675-.168-.441-.145-.655-.234-.425-.188-.63-.3a7.132,7.132,0,0,1-1.156-.771c-.18-.147-.352-.3-.516-.467s-.32-.336-.468-.515-.285-.366-.415-.559-.248-.392-.357-.6a6.919,6.919,0,0,1-.3-.629c-.09-.215-.167-.433-.235-.655s-.124-.447-.17-.675-.08-.457-.1-.688-.034-.462-.034-.695.011-.464.034-.7.057-.461.1-.688.1-.453.169-.675.145-.441.234-.655.188-.425.3-.63a7.068,7.068,0,0,1,1.239-1.672c.164-.164.336-.32.515-.467s.366-.286.558-.415.392-.248.6-.358a6.924,6.924,0,0,1,.63-.3,7.071,7.071,0,0,1,1.33-.4q.342-.068.689-.1c.23-.023.463-.035.695-.035s.464.011.7.034a7.12,7.12,0,0,1,1.364.271q.333.1.655.234c.215.09.424.188.629.3s.4.229.6.357.379.268.558.415a6.922,6.922,0,0,1,.516.467c.164.164.32.336.467.515s.286.367.415.559.249.392.358.6.208.415.3.63.167.432.235.655.123.447.169.675.08.458.1.689.034.463.034.695-.012.464-.035.694-.058.461-.1.688a6.913,6.913,0,0,1-.169.674c-.068.222-.146.44-.235.654s-.188.424-.3.629-.229.4-.358.6-.267.379-.414.558a6.778,6.778,0,0,1-.467.515,7.121,7.121,0,0,1-1.073.882q-.289.193-.6.358c-.2.109-.414.208-.628.3s-.432.167-.654.235-.447.124-.674.17-.457.08-.687.1S616.967,343.792,616.735,343.792Zm4.752-24.7q0-.632.059-1.26t.183-1.248a12.526,12.526,0,0,1,.305-1.225q.182-.6.423-1.189a12.614,12.614,0,0,1,.537-1.141q.3-.558.647-1.083t.75-1.015q.4-.488.845-.936t.934-.849q.488-.4,1.013-.753t1.081-.65q.557-.3,1.141-.541t1.187-.427q.6-.184,1.224-.308a12.481,12.481,0,0,1,1.248-.186q.628-.063,1.26-.064t1.26.06q.628.062,1.248.184t1.224.306q.606.182,1.189.423t1.142.538q.557.3,1.083.648t1.014.751q.489.4.936.846t.848.934q.4.488.753,1.013t.65,1.082q.3.557.54,1.141t.426,1.188q.183.6.307,1.224t.186,1.247q.062.629.062,1.26a12.6,12.6,0,0,1-.061,1.26q-.062.629-.185,1.248t-.305,1.225q-.184.6-.425,1.188t-.539,1.142q-.3.557-.648,1.082t-.751,1.014q-.4.489-.847.936t-.935.847q-.488.4-1.013.752t-1.082.649q-.557.3-1.141.54t-1.188.425a12.525,12.525,0,0,1-1.224.306q-.62.123-1.248.186t-1.26.062c-.42,0-.84-.021-1.258-.063s-.834-.1-1.246-.186-.82-.185-1.222-.307-.8-.263-1.185-.424-.769-.341-1.139-.538-.731-.414-1.081-.648-.686-.484-1.012-.75-.637-.548-.934-.845-.58-.608-.847-.932-.517-.662-.751-1.011-.451-.709-.65-1.08-.378-.749-.54-1.138-.3-.782-.427-1.185-.226-.81-.309-1.222-.145-.827-.187-1.246S621.487,319.516,621.487,319.1Zm30.481,24.7c-.232,0-.464-.011-.7-.033s-.461-.057-.688-.1-.453-.1-.675-.168-.44-.145-.655-.234-.425-.188-.63-.3-.4-.229-.6-.357a6.885,6.885,0,0,1-.559-.414c-.18-.147-.352-.3-.516-.467s-.32-.336-.468-.515-.285-.366-.415-.559-.248-.392-.357-.6a6.854,6.854,0,0,1-.3-.629c-.09-.215-.167-.433-.235-.655s-.124-.447-.17-.675-.08-.457-.1-.688-.034-.462-.034-.695.011-.464.034-.7.057-.461.1-.688.1-.453.169-.675.145-.441.234-.655.188-.425.3-.63a7.068,7.068,0,0,1,1.239-1.672c.164-.164.336-.32.515-.467s.366-.286.558-.415.392-.248.6-.358a6.924,6.924,0,0,1,.63-.3,7.071,7.071,0,0,1,1.33-.4q.342-.068.689-.1c.23-.023.463-.035.695-.035s.464.011.7.034a7.117,7.117,0,0,1,1.364.271q.333.1.655.234c.215.09.424.188.629.3s.4.229.6.357.379.268.558.415a6.934,6.934,0,0,1,.516.467c.164.164.32.336.467.515s.286.367.415.559.248.392.358.6.208.415.3.63.167.432.235.655.123.447.169.675.08.458.1.689.034.463.034.695-.012.464-.035.694-.057.461-.1.688a6.843,6.843,0,0,1-.169.674c-.068.222-.145.44-.235.655s-.187.424-.3.629-.228.4-.357.6-.267.379-.414.559-.3.351-.467.516-.336.32-.515.467-.365.285-.558.415-.392.248-.6.357a6.92,6.92,0,0,1-.628.3q-.322.133-.655.235t-.674.17c-.227.046-.457.08-.687.1S652.2,343.792,651.967,343.792Zm0,0" fill="#302e2e"/><path d="M705.57,366.813h-7.346a1.889,1.889,0,0,0-.374.036,1.939,1.939,0,0,0-.359.109,1.97,1.97,0,0,0-.331.177,1.864,1.864,0,0,0-.291.239,1.887,1.887,0,0,0-.237.29,1.916,1.916,0,0,0-.177.331,1.911,1.911,0,0,0-.145.733v13.905a1.884,1.884,0,0,0,.036.374,1.911,1.911,0,0,0,.109.36,1.876,1.876,0,0,0,.177.331,1.84,1.84,0,0,0,.237.291,1.865,1.865,0,0,0,.29.238,1.937,1.937,0,0,0,.332.178,1.916,1.916,0,0,0,.733.147h7.346a1.908,1.908,0,0,0,1.064-.325,1.833,1.833,0,0,0,.291-.238,1.95,1.95,0,0,0,.415-.622,1.981,1.981,0,0,0,.109-.36,1.907,1.907,0,0,0,.036-.374V368.727a1.918,1.918,0,0,0-.036-.374,1.955,1.955,0,0,0-.109-.359,1.918,1.918,0,0,0-.705-.859,1.963,1.963,0,0,0-.331-.177,1.935,1.935,0,0,0-.359-.109A1.888,1.888,0,0,0,705.57,366.813Zm-7.346,1.342h7.346a.565.565,0,0,1,.4.167.572.572,0,0,1,.124.186.566.566,0,0,1,.044.219v10.291h-8.5V368.727a.575.575,0,0,1,.045-.221.565.565,0,0,1,.126-.186A.581.581,0,0,1,698,368.2.559.559,0,0,1,698.224,368.155Zm7.346,15.054h-7.346a.573.573,0,0,1-.407-.169.546.546,0,0,1-.123-.187.569.569,0,0,1-.043-.22v-2.278h8.5v2.278a.571.571,0,0,1-.358.536A.553.553,0,0,1,705.57,383.209Zm0,0" transform="translate(-67.557 -56.606)" fill="#302e2e"/><path d="M718.666,428.331a.652.652,0,0,1-.051.257.666.666,0,0,1-.145.219.694.694,0,0,1-.218.145.672.672,0,0,1-.514,0,.7.7,0,0,1-.218-.145.668.668,0,0,1-.145-.219.669.669,0,0,1,0-.514.664.664,0,0,1,.145-.218.656.656,0,0,1,.218-.145.669.669,0,0,1,.514,0,.671.671,0,0,1,.414.62Zm0,0" transform="translate(-83.655 -103.218)" fill="#302e2e"/><path d="M638.128,310.131h-1.181a2.06,2.06,0,0,0-.792.159,2.1,2.1,0,0,0-.357.191,2.076,2.076,0,0,0-.314.258,2,2,0,0,0-.258.314,2.037,2.037,0,0,0-.192.358,2.089,2.089,0,0,0-.159.792v1.342h-.81a.672.672,0,0,0-.474.2.663.663,0,0,0-.145.218.672.672,0,0,0,0,.514.653.653,0,0,0,.145.218.682.682,0,0,0,.218.146.674.674,0,0,0,.257.051h.81v3.65a.67.67,0,0,0,.051.257.649.649,0,0,0,.146.217.676.676,0,0,0,.218.146.668.668,0,0,0,.731-.146.645.645,0,0,0,.145-.217.665.665,0,0,0,.051-.257v-3.668h.81a.673.673,0,0,0,.257-.051.67.67,0,0,0,.363-.363.674.674,0,0,0-.145-.732.684.684,0,0,0-.217-.145.67.67,0,0,0-.257-.051h-.81v-1.342a.718.718,0,0,1,.056-.28.734.734,0,0,1,.394-.394.718.718,0,0,1,.28-.056h1.181a.669.669,0,0,0,.257-.051.651.651,0,0,0,.217-.145.682.682,0,0,0,.146-.218.683.683,0,0,0,0-.514.682.682,0,0,0-.146-.218.651.651,0,0,0-.217-.145.67.67,0,0,0-.257-.051Zm0,0" transform="translate(-19.362 -13.172)" fill="#302e2e"/><path d="M632.982,461.336H628.2a2.067,2.067,0,0,0-.388.037,2.011,2.011,0,0,0-.374.113,1.968,1.968,0,0,0-.344.183,2.115,2.115,0,0,0-.3.247,2.039,2.039,0,0,0-.249.3,1.955,1.955,0,0,0-.186.343,2.04,2.04,0,0,0-.115.373,1.99,1.99,0,0,0-.041.388v4.77a1.982,1.982,0,0,0,.153.765,1.952,1.952,0,0,0,.185.346,2.034,2.034,0,0,0,.248.3,1.971,1.971,0,0,0,.3.248,1.942,1.942,0,0,0,.345.185,1.989,1.989,0,0,0,.765.153h4.779a1.99,1.99,0,0,0,1.109-.339,1.909,1.909,0,0,0,.3-.249,2.008,2.008,0,0,0,.432-.648,2.01,2.01,0,0,0,.152-.764v-4.77a2.016,2.016,0,0,0-.154-.76,1.97,1.97,0,0,0-.433-.644,1.94,1.94,0,0,0-.3-.247,1.993,1.993,0,0,0-.718-.3A2.052,2.052,0,0,0,632.982,461.336Zm.653,6.765a.646.646,0,0,1-.048.251.638.638,0,0,1-.141.213.63.63,0,0,1-.213.143.641.641,0,0,1-.25.05H628.2a.645.645,0,0,1-.251-.05.662.662,0,0,1-.356-.356.645.645,0,0,1-.05-.251v-4.779a.64.64,0,0,1,.05-.25.631.631,0,0,1,.143-.213.653.653,0,0,1,.464-.189h4.779a.632.632,0,0,1,.247.052.655.655,0,0,1,.4.6Zm0,0" transform="translate(-13.853 -129.015)" fill="#302e2e"/><path d="M637.838,470.82a2.192,2.192,0,0,0-.423.04,2.164,2.164,0,0,0-.407.124,2.129,2.129,0,0,0-.375.2,2.149,2.149,0,0,0-.8.971,2.181,2.181,0,0,0-.124.407,2.246,2.246,0,0,0-.042.423,2.122,2.122,0,0,0,.042.422,2.172,2.172,0,0,0,.122.407,2.15,2.15,0,0,0,.8.973,2.08,2.08,0,0,0,.375.2,2.181,2.181,0,0,0,.829.165,2.248,2.248,0,0,0,.423-.042,2.192,2.192,0,0,0,.781-.324,2.172,2.172,0,0,0,.96-1.8,2.175,2.175,0,0,0-.042-.421,2.262,2.262,0,0,0-.123-.4,2.233,2.233,0,0,0-.2-.373,2.16,2.16,0,0,0-.6-.6,2.235,2.235,0,0,0-.373-.2,2.26,2.26,0,0,0-.4-.123A2.185,2.185,0,0,0,637.838,470.82Zm0,2.984a.821.821,0,0,1-.584-.238.825.825,0,0,1-.244-.581.822.822,0,0,1,.822-.826.825.825,0,0,1,.583.24.819.819,0,0,1,.179.9.829.829,0,0,1-.442.445A.824.824,0,0,1,637.838,473.8Zm0,0" transform="translate(-21.103 -136.28)" fill="#302e2e"/><path d="M785.837,465.128l-3.959-2.2a1.9,1.9,0,0,0-.218-.1,1.846,1.846,0,0,0-.71-.133,1.874,1.874,0,0,0-.479.068,1.887,1.887,0,0,0-.229.08,1.775,1.775,0,0,0-.216.109,1.656,1.656,0,0,0-.2.136,1.883,1.883,0,0,0-.34.344,1.867,1.867,0,0,0-.134.2,1.913,1.913,0,0,0-.106.218,2.05,2.05,0,0,0-.077.229,1.945,1.945,0,0,0-.047.238,1.792,1.792,0,0,0-.015.242v4.4a1.787,1.787,0,0,0,.015.241,1.878,1.878,0,0,0,.047.238,1.987,1.987,0,0,0,.077.229,1.838,1.838,0,0,0,.106.218,1.978,1.978,0,0,0,.134.2,1.866,1.866,0,0,0,.159.183,1.911,1.911,0,0,0,.181.161,1.777,1.777,0,0,0,.2.136,2.091,2.091,0,0,0,.216.109,2.053,2.053,0,0,0,.229.08,1.959,1.959,0,0,0,.479.069,1.813,1.813,0,0,0,.241-.014,1.919,1.919,0,0,0,.238-.044,2.115,2.115,0,0,0,.23-.075,1.9,1.9,0,0,0,.218-.1l3.959-2.2a1.863,1.863,0,0,0,.7-.685,1.869,1.869,0,0,0,.192-.456,1.865,1.865,0,0,0-.5-1.825A1.877,1.877,0,0,0,785.837,465.128Zm-.653,2.086-3.959,2.2a.5.5,0,0,1-.124.048.509.509,0,0,1-.132.016.539.539,0,0,1-.133-.018.521.521,0,0,1-.123-.052.535.535,0,0,1-.106-.08.517.517,0,0,1-.082-.106.538.538,0,0,1-.053-.123.532.532,0,0,1-.02-.132V464.56a.547.547,0,0,1,.018-.133.589.589,0,0,1,.052-.124.513.513,0,0,1,.082-.107.544.544,0,0,1,.107-.081.52.52,0,0,1,.123-.051.51.51,0,0,1,.134-.018.548.548,0,0,1,.133.016.543.543,0,0,1,.124.05l3.959,2.2a.473.473,0,0,1,.108.083.523.523,0,0,1,.134.234.511.511,0,0,1,.018.134.516.516,0,0,1-.07.261.533.533,0,0,1-.082.109A.542.542,0,0,1,785.183,467.213Zm0,0" transform="translate(-130.985 -130.056)" fill="#302e2e"/><path d="M775.122,319.815a.685.685,0,0,0,.021.232.659.659,0,0,0,.1.21.673.673,0,0,0,.164.165.68.68,0,0,0,.21.1,13.493,13.493,0,0,0,3.508.532,5.033,5.033,0,0,0,5.444-5.592l.717-1.2a.47.47,0,0,0,.031-.067.944.944,0,0,0-1.029-1.315l-.975.165a2.481,2.481,0,0,0-2.724-.34,2.33,2.33,0,0,0-.931.726,2.294,2.294,0,0,0-.3.515,2.328,2.328,0,0,0-.158.574,7.074,7.074,0,0,1-2.385-1.892.679.679,0,0,0-.675-.318.67.67,0,0,0-.542.448,4.843,4.843,0,0,0,.313,4.29,3.636,3.636,0,0,0,1.342,1.217,2.937,2.937,0,0,1-1.562.917.655.655,0,0,0-.218.074.633.633,0,0,0-.18.142.653.653,0,0,0-.121.195A.681.681,0,0,0,775.122,319.815Zm1.911-3.5a2.9,2.9,0,0,1-.408-1.95c1.047.921,2.577,1.879,3.472,1.579a.688.688,0,0,0,.221-.124.679.679,0,0,0,.16-.2.659.659,0,0,0,.08-.241.691.691,0,0,0-.013-.253,1.01,1.01,0,0,1-.032-.375,1.048,1.048,0,0,1,.327-.663,1.055,1.055,0,0,1,.317-.2,1.162,1.162,0,0,1,.367-.12,1.141,1.141,0,0,1,.386.01,1.16,1.16,0,0,1,.361.137,1.131,1.131,0,0,1,.294.25.669.669,0,0,0,.631.232l.483-.08-.385.644a.654.654,0,0,0-.089.4,4.425,4.425,0,0,1-1.244,3.472c-.895.774-2.308,1.029-4.156.77a5.026,5.026,0,0,0,1.181-1.324.635.635,0,0,0,.064-.153.649.649,0,0,0,.025-.165.631.631,0,0,0-.017-.166.7.7,0,0,0-.058-.157.673.673,0,0,0-.1-.138.658.658,0,0,0-.125-.11.72.72,0,0,0-.149-.076.668.668,0,0,0-.164-.036,2.239,2.239,0,0,1-1.436-.967Zm0,0" transform="translate(-127.929 -14.848)" fill="#302e2e"/></g></svg>