<svg xmlns="http://www.w3.org/2000/svg" xmlns:xlink="http://www.w3.org/1999/xlink" width="56.464" height="48.258" viewBox="0 0 56.464 48.258"><defs><clipPath id="a"><path d="M604.5,307h56.464v48.258H604.5Zm0,0" fill="#302e2e"/></clipPath></defs><g transform="translate(-604.5 -307)" clip-path="url(#a)"><path d="M644.036,332.551a3.449,3.449,0,1,1,3.466-3.45A3.458,3.458,0,0,1,644.036,332.551Zm-11.552,0a3.449,3.449,0,1,1,3.466-3.45A3.458,3.458,0,0,1,632.483,332.551Zm-11.553,0a3.449,3.449,0,1,1,3.466-3.45A3.458,3.458,0,0,1,620.931,332.551Zm12.461-25.3c-15.538-.305-28.328,9.224-28.566,21.283a18.29,18.29,0,0,0,3.937,11.516h0c4.426,5.659-.4,15.386-.4,15.386l14.26-6.113a35.372,35.372,0,0,0,9.91,1.6c15.538.305,28.328-9.223,28.566-21.283s-12.163-22.082-27.7-22.387" transform="translate(-0.243 -0.182)" fill="#302e2e" fill-rule="evenodd"/></g></svg>