<svg xmlns="http://www.w3.org/2000/svg" xmlns:xlink="http://www.w3.org/1999/xlink" width="51" height="41.396" viewBox="0 0 51 41.396"><defs><clipPath id="a"><path d="M604.5,386h6.513v13.026H604.5Zm0,0" transform="translate(-604.5 -386)" fill="#302e2e"/></clipPath><clipPath id="b"><path d="M806,386h6.513v13.026H806Zm0,0" transform="translate(-806 -386)" fill="#302e2e"/></clipPath><clipPath id="c"><path d="M709,311.25h4.857v4.8H709Zm0,0" transform="translate(-709 -311.25)" fill="#302e2e"/></clipPath><clipPath id="d"><path d="M705,469h8.169v6.568H705Zm0,0" transform="translate(-705 -469)" fill="#302e2e"/></clipPath></defs><g transform="translate(-604.5 -311.25)"><path d="M670.922,382.1a1.592,1.592,0,1,1,1.594-1.592A1.593,1.593,0,0,1,670.922,382.1Zm-7.172,5.166c-2.2,0-3.984-1.426-3.984-3.184h7.969C667.735,385.84,665.951,387.266,663.75,387.266Zm-7.172-5.166a1.592,1.592,0,1,1,1.594-1.592A1.593,1.593,0,0,1,656.579,382.1Zm13.547-9.553h-12.75a9.553,9.553,0,1,0,0,19.106h12.75a9.553,9.553,0,1,0,0-19.106" transform="translate(-33.75 -47.764)" fill="#302e2e"/><path d="M646.875,375.545h-4.781a15.921,15.921,0,1,1,0-31.842h9.562a15.914,15.914,0,0,1,15.938,15.921H666A14.353,14.353,0,0,0,651.656,345.3h-9.562a14.329,14.329,0,1,0,0,28.658h4.781v1.592" transform="translate(-16.875 -25.288)" fill="#302e2e"/><g transform="translate(604.5 327.753)" clip-path="url(#a)"><path d="M610.875,399.71a6.368,6.368,0,1,1,0-12.737V399.71" transform="translate(-604.5 -386.758)" fill="#302e2e"/></g><g transform="translate(648.987 327.753)" clip-path="url(#b)"><path d="M806.625,399.71a6.368,6.368,0,1,0,0-12.737V399.71" transform="translate(-806.487 -386.758)" fill="#302e2e"/></g><path d="M709.922,364.914c0,1.759-1.783,3.185-3.984,3.185s-3.984-1.426-3.984-3.185,1.783-3.184,3.984-3.184,3.984,1.426,3.984,3.184" transform="translate(-75.937 -39.335)" fill="#302e2e"/><g transform="translate(627.571 311.25)" clip-path="url(#c)"><path d="M713.953,313.639a2.391,2.391,0,1,1-2.391-2.389,2.39,2.39,0,0,1,2.391,2.389" transform="translate(-709.134 -311.25)" fill="#302e2e"/></g><g transform="translate(626.688 346.078)" clip-path="url(#d)"><path d="M713.532,473.086c0,1.759-1.783,3.185-3.984,3.185s-3.984-1.426-3.984-3.185,1.783-3.184,3.984-3.184,3.984,1.426,3.984,3.184" transform="translate(-705.439 -469.703)" fill="#302e2e"/></g><path d="M717.985,336.433h-1.594V322.07h1.594v14.363" transform="translate(-87.188 -8.431)" fill="#302e2e"/></g></svg>