<svg xmlns="http://www.w3.org/2000/svg" xmlns:xlink="http://www.w3.org/1999/xlink" width="41.553" height="41.553" viewBox="0 0 41.553 41.553"><defs><clipPath id="a"><path d="M662,289.5h20.866v32.109H662Zm0,0" transform="translate(-662 -289.5)" fill="#302e2e"/></clipPath><clipPath id="b"><path d="M604.5,432h41.553v15.92H604.5Zm0,0" transform="translate(-604.5 -432)" fill="#302e2e"/></clipPath></defs><g transform="translate(-604.5 -289.5)"><g transform="translate(614.843 289.5)" clip-path="url(#a)"><path d="M674.422,315.282V291.33a1.827,1.827,0,0,0-.535-1.3,1.839,1.839,0,0,0-2.591,0,1.827,1.827,0,0,0-.535,1.3v23.952l-5.441-5.441a1.829,1.829,0,0,0-2.592,2.582l8.637,8.637a1.744,1.744,0,0,0,2.454,0l8.637-8.637a1.829,1.829,0,0,0-2.592-2.582C677.9,311.79,674.422,315.282,674.422,315.282Zm0,0" transform="translate(-662.158 -289.5)" fill="#302e2e" fill-rule="evenodd"/></g><g transform="translate(604.5 315.133)" clip-path="url(#b)"><path d="M604.5,445.136a3.429,3.429,0,0,0,1.019,2.444,3.464,3.464,0,0,0,2.444,1.019H642.59a3.429,3.429,0,0,0,2.444-1.019,3.464,3.464,0,0,0,1.019-2.444V434.659a1.833,1.833,0,0,0-1.831-1.831,1.868,1.868,0,0,0-1.3.535,1.826,1.826,0,0,0-.535,1.3v8.558a1.727,1.727,0,0,1-1.731,1.731H609.892a1.727,1.727,0,0,1-1.731-1.731v-8.558a1.868,1.868,0,0,0-.535-1.3,1.832,1.832,0,0,0-3.126,1.3Zm0,0" transform="translate(-604.5 -432.679)" fill="#302e2e" fill-rule="evenodd"/></g></g></svg>