<svg xmlns="http://www.w3.org/2000/svg" xmlns:xlink="http://www.w3.org/1999/xlink" width="61.114" height="46.174" viewBox="0 0 61.114 46.174"><defs><clipPath id="a"><path d="M604.5,445h40.082v3.175H604.5Zm0,0" transform="translate(-604.5 -445)" fill="#302e2e"/></clipPath><clipPath id="b"><path d="M760,351.477h19.974v37.234H760Zm0,0" transform="translate(-760 -351.477)" fill="#302e2e"/></clipPath></defs><g transform="translate(-604.5 -317.684)"><path d="M624.894,348.157a.613.613,0,0,1-.617-.61V321.224a.616.616,0,0,1,.617-.613h42.89a.615.615,0,0,1,.612.613v4.208q1.474.011,2.941.093v-4.3a3.547,3.547,0,0,0-3.553-3.54h-42.89a3.548,3.548,0,0,0-3.558,3.54v26.323a3.547,3.547,0,0,0,3.558,3.536h32.022v-2.927Zm21.63-29.483a.685.685,0,1,1-.69.687.687.687,0,0,1,.69-.687" transform="translate(-12.382)" fill="#302e2e"/><g transform="translate(604.5 351.368)" clip-path="url(#a)"><path d="M643.247,445.906v.14a1.125,1.125,0,0,1-1.128,1.122H625.795a1.123,1.123,0,0,1-1.127-1.122v-.14H604.5a2.794,2.794,0,0,0,2.8,2.787h37.234v-2.787h-1.288" transform="translate(-604.5 -445.666)" fill="#302e2e"/></g><path d="M681.46,344.813h-32.1a2.086,2.086,0,0,0-2.091,2.077v4.969a2.085,2.085,0,0,0,2.091,2.076h26.627v-1.071H649.364a1.011,1.011,0,0,1-1.011-1.006V346.89a1.011,1.011,0,0,1,1.011-1.006h30.321c1.116-.148,2.24-.267,3.359-.349a2.084,2.084,0,0,0-1.583-.722" transform="translate(-31.457 -19.952)" fill="#302e2e"/><path d="M665.587,354.393l.808.458-.808.459a.38.38,0,0,0-.112.516l.343.575a.388.388,0,0,0,.519.112l.807-.458v.8a.391.391,0,0,0,.4.4h.635a.391.391,0,0,0,.4-.4v-.8l.807.458a.389.389,0,0,0,.52-.112l.343-.575a.377.377,0,0,0-.118-.516l-.8-.459.8-.458a.365.365,0,0,0,.118-.516l-.343-.574a.4.4,0,0,0-.52-.113l-.807.458v-.8a.391.391,0,0,0-.4-.4h-.635a.391.391,0,0,0-.4.4v.8l-.807-.458a.4.4,0,0,0-.519.113l-.343.574a.367.367,0,0,0,.112.516" transform="translate(-44.798 -25.564)" fill="#302e2e"/><path d="M691.581,354.393l.807.458-.807.459a.38.38,0,0,0-.113.516l.344.575a.386.386,0,0,0,.519.112l.807-.458v.8a.391.391,0,0,0,.4.4h.631a.394.394,0,0,0,.406-.4v-.8l.8.458a.386.386,0,0,0,.519-.112l.347-.575a.381.381,0,0,0-.117-.516l-.8-.459.8-.458a.368.368,0,0,0,.117-.516l-.347-.574a.394.394,0,0,0-.519-.113l-.8.458v-.8a.394.394,0,0,0-.406-.4h-.631a.391.391,0,0,0-.4.4v.8l-.807-.458a.4.4,0,0,0-.519.113l-.344.574a.368.368,0,0,0,.113.516" transform="translate(-63.914 -25.564)" fill="#302e2e"/><path d="M717.57,354.393l.808.458-.808.459a.381.381,0,0,0-.117.516l.347.575a.386.386,0,0,0,.519.112l.807-.458v.8a.391.391,0,0,0,.4.4h.633a.394.394,0,0,0,.405-.4v-.8l.8.458a.386.386,0,0,0,.519-.112l.347-.575a.381.381,0,0,0-.118-.516l-.8-.459.8-.458a.369.369,0,0,0,.118-.516l-.347-.574a.394.394,0,0,0-.519-.113l-.8.458v-.8a.394.394,0,0,0-.405-.4h-.633a.391.391,0,0,0-.4.4v.8l-.807-.458a.394.394,0,0,0-.519.113l-.347.574a.369.369,0,0,0,.117.516" transform="translate(-83.026 -25.564)" fill="#302e2e"/><path d="M746.556,352.845a.391.391,0,0,0-.4-.4h-.632a.394.394,0,0,0-.406.4v.8l-.8-.458a.394.394,0,0,0-.519.113l-.347.574a.369.369,0,0,0,.118.516l.8.458-.8.459a.381.381,0,0,0-.118.516l.347.575a.386.386,0,0,0,.519.112l.8-.458v.8a.394.394,0,0,0,.406.4h.632a.391.391,0,0,0,.4-.4v-.8l.121.066v-1.468a3.029,3.029,0,0,1,.257-1.219l-.378.214v-.8" transform="translate(-102.142 -25.564)" fill="#302e2e"/><path d="M711.114,388.142l-1.08-1.072-5.735,5.707-2.882-2.869-1.081,1.071,3.963,3.945,6.815-6.782" transform="translate(-70.481 -51.029)" fill="#302e2e"/><g transform="translate(645.64 326.625)" clip-path="url(#b)"><path d="M778.694,352.4a54.675,54.675,0,0,0-16.228,0,1.781,1.781,0,0,0-1.783,1.774V386.4a1.781,1.781,0,0,0,1.783,1.774,43.24,43.24,0,0,0,16.228,0,1.778,1.778,0,0,0,1.783-1.774V354.178A1.778,1.778,0,0,0,778.694,352.4Zm-11.472,1.282h6.717a.483.483,0,1,1,0,.966h-6.717a.483.483,0,1,1,0-.966Zm12.042,30.786a.57.57,0,0,1-.569.571H762.467a.57.57,0,0,1-.569-.571V356.207a.566.566,0,0,1,.569-.566h16.228a.566.566,0,0,1,.569.566v28.263" transform="translate(-760.503 -351.713)" fill="#302e2e"/></g><path d="M779.444,408.994h8.523a.913.913,0,0,0,.912-.913V401.66a.912.912,0,0,0-.912-.911h-.477v-2.617a3.788,3.788,0,0,0-7.575,0v2.617h-.471a.913.913,0,0,0-.917.911v6.421A.914.914,0,0,0,779.444,408.994Zm1.966-10.862a2.294,2.294,0,0,1,4.588,0v2.617h-4.588Zm1.8,6.1a1.025,1.025,0,1,1,.968,0l.491,3.369h-1.954l.5-3.369" transform="translate(-127.985 -56.392)" fill="#302e2e"/></g></svg>