<svg xmlns="http://www.w3.org/2000/svg" xmlns:xlink="http://www.w3.org/1999/xlink" width="37.584" height="37.502" viewBox="0 0 37.584 37.502">
  <defs>
    <clipPath id="clipPath">
      <path id="Tracé_1995" data-name="Tracé 1995" d="M604.5,290h37.584v37.5H604.5Zm0,0" transform="translate(-604.5 -290)" fill="#302e2e"/>
    </clipPath>
  </defs>
  <g id="_79" data-name="79" transform="translate(-604.5 -290)">
    <path id="Tracé_1993" data-name="Tracé 1993" d="M624.9,446.973v-6.246h6.246l0,6.246Zm6.246-7.5H624.9a1.252,1.252,0,0,0-1.25,1.25v6.246a1.252,1.252,0,0,0,1.25,1.249h6.246a1.251,1.251,0,0,0,1.249-1.249v-6.246a1.252,1.252,0,0,0-1.249-1.25" transform="translate(-16.029 -125.104)"/>
    <g id="Groupe_790" data-name="Groupe 790" transform="translate(604.5 290)" clipPath="url(#clipPath)">
      <path id="Tracé_1994" data-name="Tracé 1994" d="M640.541,309.85l-.912.91-2.721-2.72.91-.913a.645.645,0,0,1,.91,0l1.813,1.813A.648.648,0,0,1,640.541,309.85Zm-2.7,2.7-2.721-2.721.908-.91,2.723,2.723Zm-7.991,7.993-.92-.92,7.113-7.108.917.918Zm2.023-9.233h-23v-5h23.736v4.258Zm-3.021,10a1.338,1.338,0,0,1-.159.056l-2.8.561a.129.129,0,0,1-.115-.034.131.131,0,0,1-.034-.115l.561-2.8a1.194,1.194,0,0,1,.056-.159Zm-.8-2.569-.92-.92,7.11-7.11.922.925Zm7.688,6.312a1.252,1.252,0,0,1-1.25,1.25H607a1.252,1.252,0,0,1-1.25-1.25V296.32h29.983V307.45l-1.874,1.874v-3.009a1.252,1.252,0,0,0-1.25-1.249H608.872a1.252,1.252,0,0,0-1.25,1.249v5a1.252,1.252,0,0,0,1.25,1.249H630.62L625.8,317.38a2.633,2.633,0,0,0-.722,1.354l-.562,2.8a1.376,1.376,0,0,0-.015.4h-5.634a.624.624,0,1,0,0,1.249h7s.007,0,.009,0a1.513,1.513,0,0,0,.256-.024l2.8-.561a2.622,2.622,0,0,0,1.354-.725l5.444-5.444Zm-29.983-32.481a1.252,1.252,0,0,1,1.25-1.25h27.484a1.252,1.252,0,0,1,1.25,1.25v2.5H605.749Zm33.862,13.671a1.89,1.89,0,0,0-2.63-.036V292.573a2.5,2.5,0,0,0-2.5-2.5H607a2.5,2.5,0,0,0-2.5,2.5v32.481a2.5,2.5,0,0,0,2.5,2.5h27.484a2.5,2.5,0,0,0,2.5-2.5v-9.879l4.443-4.441a1.9,1.9,0,0,0,0-2.677l-1.813-1.813" transform="translate(-604.5 -290.062)" fill="#302e2e"/>
    </g>
    <path id="Tracé_1996" data-name="Tracé 1996" d="M651.094,344.871a.626.626,0,0,0,.625-.625V342.56l1.354,2.032a.62.62,0,0,0,.52.278.659.659,0,0,0,.18-.027.626.626,0,0,0,.445-.6V340.5a.625.625,0,0,0-1.25,0v1.686l-1.354-2.032a.625.625,0,0,0-1.144.346v3.748a.626.626,0,0,0,.625.625" transform="translate(-38.474 -41.741)"/>
    <path id="Tracé_1997" data-name="Tracé 1997" d="M681.742,344.872h1.874a.625.625,0,0,0,0-1.25h-1.25V343a.625.625,0,1,0,0-1.25v-.624h1.25a.625.625,0,0,0,0-1.25h-1.874a.626.626,0,0,0-.625.625v3.748a.626.626,0,0,0,.625.625" transform="translate(-64.124 -41.743)"/>
    <path id="Tracé_1998" data-name="Tracé 1998" d="M708.378,344.846a.623.623,0,0,0,.7-.252l.73-1.1.729,1.1a.62.62,0,0,0,.52.278.665.665,0,0,0,.181-.027.626.626,0,0,0,.444-.6V340.5a.624.624,0,1,0-1.249,0v1.686l-.105-.159a.65.65,0,0,0-1.039,0l-.105.159V340.5a.624.624,0,1,0-1.249,0v3.748a.625.625,0,0,0,.444.6" transform="translate(-86.569 -41.743)"/>
    <path id="Tracé_1999" data-name="Tracé 1999" d="M740.14,343.623H739.2a.625.625,0,0,0,0,1.25h.937a1.562,1.562,0,0,0,0-3.123.312.312,0,1,1,0-.624h.937a.625.625,0,1,0,0-1.25h-.937a1.562,1.562,0,1,0,0,3.123.312.312,0,0,1,0,.624" transform="translate(-112.216 -41.743)"/>
    <path id="Tracé_2000" data-name="Tracé 2000" d="M621.073,305.4h-.625a.625.625,0,0,0,0,1.249h.625a.625.625,0,1,0,0-1.249" transform="translate(-12.825 -12.887)"/>
    <path id="Tracé_2001" data-name="Tracé 2001" d="M640.227,305.4H639.6a.625.625,0,1,0,0,1.249h.625a.625.625,0,0,0,0-1.249" transform="translate(-28.855 -12.887)"/>
    <path id="Tracé_2002" data-name="Tracé 2002" d="M659.382,305.4h-.625a.625.625,0,0,0,0,1.249h.625a.625.625,0,1,0,0-1.249" transform="translate(-44.888 -12.887)"/>
    <path id="Tracé_2003" data-name="Tracé 2003" d="M762.107,305.4h-3.748a.625.625,0,1,0,0,1.249h3.748a.625.625,0,0,0,0-1.249" transform="translate(-128.249 -12.887)"/>
    <path id="Tracé_2004" data-name="Tracé 2004" d="M689.4,440.727h7.5a.625.625,0,1,0,0-1.25h-7.5a.625.625,0,0,0,0,1.25" transform="translate(-70.535 -125.104)"/>
    <path id="Tracé_2005" data-name="Tracé 2005" d="M689.4,456.05h4.373a.625.625,0,1,0,0-1.249H689.4a.625.625,0,1,0,0,1.249" transform="translate(-70.535 -137.929)"/>
    <path id="Tracé_2006" data-name="Tracé 2006" d="M689.4,471.374h3.748a.624.624,0,1,0,0-1.249H689.4a.624.624,0,1,0,0,1.249" transform="translate(-70.535 -150.755)"/>
  </g>
</svg>
