<svg xmlns="http://www.w3.org/2000/svg" width="42.114" height="38.216" viewBox="0 0 42.114 38.216"><g transform="translate(-610.84 -306.302)"><path d="M719.959,408.812c-.679-.823-1.769-.993-3.2-.993H701.936c-.666,0-.8-.281-.8-.735,0-.5.572-.64.71-.668H716.2a1.412,1.412,0,0,0,1.325-1.039l2.38-9.814a1.014,1.014,0,0,0-1.007-1.28H699.485l-.378-1.543a1.414,1.414,0,0,0-1.324-1.04h-3.77a.505.505,0,0,0,0,1.011h3.77a.4.4,0,0,1,.342.269l3.073,12.587a1.692,1.692,0,0,0,.738,3.263h14.827c1.369,0,2.049.175,2.417.625a.5.5,0,0,0,.391.184.5.5,0,0,0,.32-.115A.507.507,0,0,0,719.959,408.812Zm-7.012-9.937-.38,2.949H706.1l-.4-2.949Zm-7.384-1.009-.347-2.561,8.191.013-.329,2.549h-7.514Zm11.782,3.96h-3.76l.38-2.949h4.091Zm-4.908,1.01-.33,2.57H706.59l-.351-2.57Zm-7.354-1.01h-3.758l-.719-2.949h4.075Zm.137,1.01.353,2.57H702.2l-.63-2.57Zm10.98,2.57h-3.073l.331-2.57H717.1l-.557,2.3A.4.4,0,0,1,716.2,405.406Zm2.722-10.081-.618,2.541H714.1l.326-2.548Zm-14.727-.021.348,2.56H700.36l-.628-2.568Zm0,0" transform="translate(-67.12 -69.336)" fill="#302e2e"/><path d="M729.752,485.039a2.3,2.3,0,1,0,2.3,2.3A2.3,2.3,0,0,0,729.752,485.039Zm0,3.116a.817.817,0,1,1,.818-.817A.817.817,0,0,1,729.752,488.155Zm0,0" transform="translate(-94.681 -145.121)" fill="#302e2e"/><path d="M806.146,485.039a2.3,2.3,0,1,0,2.3,2.3A2.3,2.3,0,0,0,806.146,485.039Zm0,3.116a.817.817,0,1,1,.818-.817A.816.816,0,0,1,806.146,488.155Zm0,0" transform="translate(-156.708 -145.121)" fill="#302e2e"/><path d="M695.41,408.733a6.91,6.91,0,0,0,1.317-1.8l-.931-3.813h-3.033a1.785,1.785,0,0,1-.793-.192,2.6,2.6,0,0,0,.253.456C694.091,406.059,692.961,411.134,695.41,408.733Zm0,0" transform="translate(-65.871 -78.454)" fill="#302e2e"/><path d="M631.735,337.972a15.207,15.207,0,0,1-6.174.391c-1.133-1.37-1.973-2.5.478-4.224,2.964-2.091.2-3.44-2.064-3.768s-3.369-5.168-4.638-7.447-2.312,1.5-3.2,2.774c-.616.886-2.483.223-3.578-.27a15.318,15.318,0,0,1,13.578-17.473c-.325,1.578-.553,4.189,1.2,5.088,2.573,1.322,1.405.974-2.253,1.654s-2.054,3.7.943,5.32c.71.383,1,.725,1.064,1.057h3.579a2.715,2.715,0,0,1,2.578,2.026l.138.558h2.084c1.144-1.4,1.405-4.644-1.771-3.822-3.856,1-.046-4.215,2.039-4.235a3.727,3.727,0,0,0,3.459-2.573,15.317,15.317,0,0,1,3.843,10.63h1.547a16.9,16.9,0,1,0-12.4,15.8A3.13,3.13,0,0,1,631.735,337.972Zm0,0" fill="#302e2e"/><path d="M642.326,351.336c1.155-.979,2.094-1.065,2.61-2.916s-2.26-.882-3.474.01a3.34,3.34,0,0,0-.944,3.632C640.985,353.058,641.173,352.316,642.326,351.336Zm0,0" transform="translate(-23.932 -33.341)" fill="#302e2e"/></g></svg>