<svg xmlns="http://www.w3.org/2000/svg" xmlns:xlink="http://www.w3.org/1999/xlink" width="23.611" height="23.611" viewBox="0 0 23.611 23.611"><defs><clipPath id="a"><path d="M604.5,289.5h23.611v23.611H604.5Zm0,0" transform="translate(-604.5 -289.5)" fill="#302e2e"/></clipPath></defs><g transform="translate(-604.5 -289.5)"><g transform="translate(604.5 289.5)" clip-path="url(#a)"><path d="M605.642,290.262a.381.381,0,0,0-.381.381v21.327a.381.381,0,0,0,.381.381h21.327a.381.381,0,0,0,.381-.381V290.642a.381.381,0,0,0-.381-.381Zm21.327,22.85H605.642a1.143,1.143,0,0,1-1.142-1.142V290.642a1.143,1.143,0,0,1,1.142-1.142h21.327a1.143,1.143,0,0,1,1.142,1.142v21.327a1.143,1.143,0,0,1-1.142,1.142" transform="translate(-604.5 -289.5)" fill="#302e2e"/></g><path d="M626.855,313.889v-1a.782.782,0,0,1,.228-.62.87.87,0,0,1,.593-.2.964.964,0,0,1,.612.184.6.6,0,0,1,.236.494.231.231,0,0,1-.055.18.256.256,0,0,1-.177.049c-.152,0-.229-.049-.231-.147,0-.032-.006-.058-.009-.081a.506.506,0,0,0-.028-.089.309.309,0,0,0-.06-.092.262.262,0,0,0-.107-.064.461.461,0,0,0-.167-.027c-.248,0-.373.135-.373.41v1q0,.411.379.411a.438.438,0,0,0,.19-.036.225.225,0,0,0,.111-.1.577.577,0,0,0,.046-.119.783.783,0,0,0,.016-.127c.008-.1.083-.146.226-.146a.267.267,0,0,1,.18.048.233.233,0,0,1,.056.18.634.634,0,0,1-.236.515.941.941,0,0,1-.615.193.87.87,0,0,1-.592-.2.786.786,0,0,1-.226-.62" transform="translate(-20.07 -20.267)" fill="#302e2e"/><path d="M647.459,313.889q0,.411.371.411c.248,0,.373-.137.373-.411v-1c0-.275-.125-.41-.373-.41s-.371.135-.371.41Zm-.463,0v-1a.781.781,0,0,1,.226-.622.883.883,0,0,1,.607-.2.9.9,0,0,1,.609.2.777.777,0,0,1,.226.622v1a.778.778,0,0,1-.226.622.906.906,0,0,1-.609.2.893.893,0,0,1-.607-.2.782.782,0,0,1-.226-.622" transform="translate(-38.152 -20.267)" fill="#302e2e"/><path d="M668.219,314.539V312.22a.119.119,0,0,1,.068-.109.329.329,0,0,1,.164-.037.342.342,0,0,1,.195.046.57.57,0,0,1,.15.2l.686,1.335v-1.439a.114.114,0,0,1,.068-.106.345.345,0,0,1,.164-.036.348.348,0,0,1,.164.036.114.114,0,0,1,.067.106v2.323a.118.118,0,0,1-.069.107.319.319,0,0,1-.162.039.275.275,0,0,1-.266-.146l-.765-1.435v1.435a.12.12,0,0,1-.07.107.319.319,0,0,1-.162.039.314.314,0,0,1-.164-.039.121.121,0,0,1-.068-.107" transform="translate(-57.206 -20.267)" fill="#302e2e"/><path d="M688.652,312.275a.255.255,0,0,1,.037-.14.118.118,0,0,1,.109-.061h1.5a.117.117,0,0,1,.109.061.258.258,0,0,1,.037.14.261.261,0,0,1-.039.146.123.123,0,0,1-.107.061h-.519v2.057a.121.121,0,0,1-.07.107.31.31,0,0,1-.16.039.315.315,0,0,1-.164-.039.121.121,0,0,1-.067-.107v-2.057H688.8a.126.126,0,0,1-.107-.061.264.264,0,0,1-.038-.146" transform="translate(-75.551 -20.267)" fill="#302e2e"/><path d="M706.141,313.557h.614l-.309-1.1Zm-.74.726a.268.268,0,0,1,.008-.039L706.1,312a.178.178,0,0,1,.1-.1.459.459,0,0,1,.19-.037.419.419,0,0,1,.192.042.183.183,0,0,1,.107.116l.687,2.248a.2.2,0,0,1,.006.036.162.162,0,0,1-.1.135.372.372,0,0,1-.195.057c-.089,0-.14-.03-.158-.092l-.135-.475h-.761l-.133.475c-.019.062-.077.092-.176.092a.456.456,0,0,1-.223-.058.173.173,0,0,1-.106-.147" transform="translate(-90.588 -20.07)" fill="#302e2e"/><path d="M728.527,313.889v-1a.782.782,0,0,1,.228-.62.871.871,0,0,1,.594-.2.96.96,0,0,1,.61.184.6.6,0,0,1,.236.494.238.238,0,0,1-.054.18.264.264,0,0,1-.178.049c-.152,0-.228-.049-.231-.147a.566.566,0,0,0-.009-.081.36.36,0,0,0-.028-.089.284.284,0,0,0-.058-.092.266.266,0,0,0-.107-.064.475.475,0,0,0-.169-.027c-.248,0-.372.135-.372.41v1q0,.411.379.411a.447.447,0,0,0,.19-.036.222.222,0,0,0,.11-.1.5.5,0,0,0,.046-.119.555.555,0,0,0,.016-.127c.008-.1.084-.146.228-.146a.269.269,0,0,1,.18.048.238.238,0,0,1,.055.18.631.631,0,0,1-.236.515.938.938,0,0,1-.614.193.866.866,0,0,1-.591-.2.781.781,0,0,1-.226-.62" transform="translate(-111.35 -20.267)" fill="#302e2e"/><path d="M747.273,312.275a.258.258,0,0,1,.037-.14.12.12,0,0,1,.109-.061h1.506a.119.119,0,0,1,.109.061.271.271,0,0,1,.036.14.26.26,0,0,1-.039.146.12.12,0,0,1-.105.061H748.4v2.057a.12.12,0,0,1-.069.107.318.318,0,0,1-.162.039.314.314,0,0,1-.164-.039.122.122,0,0,1-.067-.107v-2.057h-.524a.125.125,0,0,1-.107-.061.264.264,0,0,1-.039-.146" transform="translate(-128.18 -20.267)" fill="#302e2e"/><path d="M776.25,313.889v-1.673a.116.116,0,0,1,.069-.106.351.351,0,0,1,.163-.036.346.346,0,0,1,.164.036.113.113,0,0,1,.069.106v1.673c0,.274.129.411.391.411s.39-.137.39-.411v-1.673a.113.113,0,0,1,.068-.106.348.348,0,0,1,.164-.036.354.354,0,0,1,.164.036.114.114,0,0,1,.067.106v1.673a.769.769,0,0,1-.233.62,1.076,1.076,0,0,1-1.241,0,.772.772,0,0,1-.234-.622" transform="translate(-154.195 -20.267)" fill="#302e2e"/><path d="M796.832,314.116a.27.27,0,0,1,.061-.165.179.179,0,0,1,.141-.085.183.183,0,0,1,.1.045,1.191,1.191,0,0,1,.115.1.527.527,0,0,0,.159.1.565.565,0,0,0,.226.045.479.479,0,0,0,.284-.079.263.263,0,0,0,.114-.232.312.312,0,0,0-.062-.19.482.482,0,0,0-.162-.14c-.069-.037-.143-.073-.223-.107s-.162-.073-.244-.116a1.411,1.411,0,0,1-.223-.144.562.562,0,0,1-.164-.214.774.774,0,0,1,.014-.646.574.574,0,0,1,.205-.228.934.934,0,0,1,.272-.12,1.248,1.248,0,0,1,.309-.037,1.772,1.772,0,0,1,.2.012,1.6,1.6,0,0,1,.218.043.456.456,0,0,1,.189.091.187.187,0,0,1,.073.147.347.347,0,0,1-.049.165.154.154,0,0,1-.137.085.646.646,0,0,1-.172-.068.737.737,0,0,0-.318-.067.512.512,0,0,0-.3.073.232.232,0,0,0-.1.2.238.238,0,0,0,.085.182.676.676,0,0,0,.211.125c.085.033.176.071.273.12a2.233,2.233,0,0,1,.274.161.676.676,0,0,1,.213.247.814.814,0,0,1,.085.381.7.7,0,0,1-.234.565.9.9,0,0,1-.613.2,1.147,1.147,0,0,1-.58-.138c-.161-.094-.241-.195-.241-.3" transform="translate(-172.673 -20.109)" fill="#302e2e"/><path d="M627.616,355.125h7.236V353.6h-7.236Zm7.617.762h-8a.381.381,0,0,1-.381-.381v-2.285a.381.381,0,0,1,.381-.381h8a.381.381,0,0,1,.381.381v2.285a.381.381,0,0,1-.381.381" transform="translate(-20.07 -56.866)" fill="#302e2e"/><path d="M627.616,399.832h17.518v-1.523H627.616Zm17.9.762H627.236a.382.382,0,0,1-.381-.381v-2.285a.382.382,0,0,1,.381-.381h18.279a.382.382,0,0,1,.381.381v2.285a.382.382,0,0,1-.381.381" transform="translate(-20.07 -97.003)" fill="#302e2e"/><path d="M627.616,447.209h17.518V443.02H627.616Zm17.9.762H627.236a.381.381,0,0,1-.381-.381v-4.951a.382.382,0,0,1,.381-.381h18.279a.382.382,0,0,1,.381.381v4.951a.381.381,0,0,1-.381.381" transform="translate(-20.07 -137.144)" fill="#302e2e"/><path d="M728.214,355.125h7.236V353.6h-7.236Zm7.617.762h-8a.381.381,0,0,1-.381-.381v-2.285a.381.381,0,0,1,.381-.381h8a.381.381,0,0,1,.381.381v2.285a.381.381,0,0,1-.381.381" transform="translate(-110.386 -56.866)" fill="#302e2e"/></g></svg>