<svg xmlns="http://www.w3.org/2000/svg" xmlns:xlink="http://www.w3.org/1999/xlink" width="28.233" height="55.037" viewBox="0 0 28.233 55.037"><defs><clipPath id="a"><path d="M660.75,289.5h28.233v42.767H660.75Zm0,0" transform="translate(-660.75 -289.5)" fill="#302e2e"/></clipPath><clipPath id="b"><path d="M678,478h20.013v10.126H678Zm0,0" transform="translate(-678 -478)" fill="#302e2e"/></clipPath></defs><g transform="translate(-660.75 -289.5)"><g transform="translate(660.75 289.5)" clip-path="url(#a)"><path d="M674.936,289.5c-7.769,0-14.088,6.949-14.088,15.489a17.089,17.089,0,0,0,.341,3.4,23.807,23.807,0,0,0,1.577,4.4c6.172,13.173,10.69,18.537,10.88,18.759a1.7,1.7,0,0,0,2.579,0c.19-.223,4.707-5.586,10.88-18.759a23.807,23.807,0,0,0,1.591-4.474,14.5,14.5,0,0,0,.328-3.332C689.024,296.449,682.7,289.5,674.936,289.5Zm10.42,18.231a21.05,21.05,0,0,1-1.323,3.62,108.812,108.812,0,0,1-9.1,16.271,108.9,108.9,0,0,1-9.1-16.271,19.864,19.864,0,0,1-1.3-3.533,13.819,13.819,0,0,1-.293-2.829c0-6.668,4.8-12.091,10.7-12.091s10.7,5.424,10.7,12.091A11.481,11.481,0,0,1,685.356,307.731Zm0,0" transform="translate(-660.825 -289.5)" fill="#302e2e"/></g><path d="M696.669,318.859a7.3,7.3,0,1,0,7.291,7.3A7.3,7.3,0,0,0,696.669,318.859Zm0,11.2a3.9,3.9,0,1,1,3.9-3.9A3.905,3.905,0,0,1,696.669,330.064Zm0,0" transform="translate(-21.808 -22.364)" fill="#302e2e"/><g transform="translate(664.86 334.411)" clip-path="url(#b)"><path d="M688.117,478.141c-4.8,0-9.965,1.579-9.965,5.046s5.165,5.046,9.965,5.046,9.965-1.579,9.965-5.046S692.916,478.141,688.117,478.141Zm0,6.694c-3.835,0-6.089-1.1-6.527-1.648.438-.543,2.693-1.648,6.527-1.648s6.089,1.1,6.528,1.648C694.206,483.731,691.952,484.835,688.117,484.835Zm0,0" transform="translate(-678.116 -478.107)" fill="#302e2e"/></g></g></svg>