<svg xmlns="http://www.w3.org/2000/svg" xmlns:xlink="http://www.w3.org/1999/xlink" width="40.89" height="35.617" viewBox="0 0 40.89 35.617"><defs><clipPath id="a"><path d="M698,305.25h3.749v3.7H698Zm0,0" transform="translate(-698 -305.25)" fill="#302e2e"/></clipPath><clipPath id="b"><path d="M716,305.25h3.749v3.7H716Zm0,0" transform="translate(-716 -305.25)" fill="#302e2e"/></clipPath><clipPath id="c"><path d="M754,496h7.855v1.562H754Zm0,0" transform="translate(-754 -496)" fill="#302e2e"/></clipPath></defs><g transform="translate(-605.045 -305.25)"><path d="M621.5,391.666a.231.231,0,0,1,.03-.315,1.44,1.44,0,0,1,.136-.112c.089-.07.179-.139.268-.207l.567-.43c.385-.293.769-.586,1.156-.876q.819-.613,1.635-1.232a.234.234,0,0,1,.324.038.229.229,0,0,1-.039.322q-.825.629-1.649,1.262-.571.439-1.147.872l-.549.418c-.091.068-.18.137-.273.2a1.565,1.565,0,0,1-.178.121.245.245,0,0,1-.1.022.231.231,0,0,1-.181-.087" transform="translate(-13.479 -68.343)" fill="#302e2e"/><path d="M621.481,383.32a.238.238,0,0,1-.1-.04.119.119,0,0,1-.022-.017.217.217,0,0,1-.071-.118.505.505,0,0,1,.013-.2c.015-.09.033-.179.05-.267.038-.193.077-.386.116-.579.083-.414.167-.826.25-1.232.151-.741.3-1.482.448-2.193l.047-.229c0-.008,0-.015.005-.023a.237.237,0,0,1,.088-.15.231.231,0,0,1,.37.213q-.241,1.222-.483,2.444-.121.618-.245,1.236-.058.289-.116.579c-.02.1-.041.2-.063.3a.556.556,0,0,1-.064.182l-.013.017a.232.232,0,0,1-.176.084h-.031" transform="translate(-13.337 -59.945)" fill="#302e2e"/><path d="M627.108,356.654a.234.234,0,0,1-.038,0,.23.23,0,0,1-.182-.136.228.228,0,0,1,.047-.252c-.026.029-.025.029,0,0a.236.236,0,0,1,.046-.036.831.831,0,0,1,.116-.056c.082-.035.165-.067.248-.1.232-.095.465-.185.7-.28.441-.176.88-.358,1.32-.538.492-.2.979-.412,1.469-.618s1.009-.418,1.514-.623q1.511-.615,3.027-1.22c.509-.2,1.021-.4,1.534-.591.466-.176.928-.36,1.39-.546l.172-.07a.234.234,0,0,1,.3.12.231.231,0,0,1-.121.3c-.425.172-.851.345-1.274.522-.484.2-.964.417-1.449.617-1.02.423-2.044.833-3.068,1.246q-.762.306-1.526.607c-.491.193-.985.379-1.476.571q-.694.272-1.385.552l-.669.272c-.184.075-.367.155-.554.222-.029.01-.056.021-.083.028h0l-.02,0-.011,0h-.025" transform="translate(-17.928 -38.05)" fill="#302e2e"/><path d="M621.758,386.707c-.055-.121.03-.245.086-.349s.112-.2.17-.307l.373-.651q.359-.626.724-1.247.41-.7.816-1.407a.231.231,0,0,1,.4.233c-.327.571-.649,1.143-.973,1.715-.213.375-.424.751-.639,1.125-.1.183-.21.366-.317.549-.052.09-.1.179-.159.266s-.116.2-.236.211l-.028,0a.235.235,0,0,1-.215-.141" transform="translate(-13.714 -63.568)" fill="#302e2e"/><path d="M634.015,357.755a.232.232,0,0,1-.138-.269.267.267,0,0,1,.137-.162c.073-.045.149-.082.2-.107.6-.317,1.195-.648,1.769-.951.861-.453,1.713-.925,2.564-1.4.924-.511,1.856-1.009,2.787-1.506.322-.172.644-.344.968-.511.306-.158.615-.312.894-.458l.237-.125.05-.027.013-.006.01-.006.024-.013.428-.227.114-.061a.812.812,0,0,1,.085-.045.236.236,0,0,1,.292.089.229.229,0,0,1-.076.315c-.1.057-.2.107-.295.16l-.612.333c-.446.243-.886.5-1.332.742q-.709.387-1.422.767c-.453.243-.905.488-1.331.711l-.192.1c-.412.218-.828.43-1.239.645l-.017.008q-.64.338-1.278.681c-.405.218-.809.441-1.217.656-.246.13-.492.261-.736.393-.121.066-.241.132-.363.2a.539.539,0,0,1-.24.09.193.193,0,0,1-.081-.017" transform="translate(-23.679 -38.293)" fill="#302e2e"/><path d="M656.621,361.046a.4.4,0,0,1,.117-.277c.068-.094.139-.186.21-.278l.437-.565.915-1.193c.628-.82,1.253-1.644,1.885-2.461q.467-.6.942-1.2c.268-.336.531-.676.794-1.016l.705-.912a.234.234,0,0,1,.323-.042.23.23,0,0,1,.042.322q-.364.475-.73.949c-.586.758-1.152,1.529-1.735,2.288-.63.82-1.269,1.633-1.9,2.45q-.44.566-.879,1.133l-.427.555c-.066.086-.133.172-.2.257a.4.4,0,0,1-.235.183l-.034,0a.235.235,0,0,1-.227-.2" transform="translate(-42.366 -39.274)" fill="#302e2e"/><path d="M610.226,354.367h0a.228.228,0,0,1-.075-.012.183.183,0,0,1-.063-.035.227.227,0,0,1,0-.364l.029-.018a.3.3,0,0,1,.095-.032c.059-.012.119-.022.179-.033l.377-.063c.257-.042.515-.085.772-.126.537-.086,1.073-.177,1.609-.264,1.081-.176,2.163-.344,3.245-.513q1.6-.248,3.2-.49.771-.117,1.543-.225c.481-.067.962-.142,1.441-.214.346-.052.69-.112,1.037-.165l.863-.13.031,0a.23.23,0,1,1,.059.455l-.84.135c-.35.057-.7.105-1.052.161-.465.074-.93.147-1.4.227q-.8.139-1.6.268-1.592.256-3.184.506-1.626.257-3.255.5l-1.589.236-.758.112-.377.055-.17.023a.707.707,0,0,1-.1.011h-.017" transform="translate(-4.067 -38.136)" fill="#302e2e"/><path d="M613.029,367.121c-.569-.435-1.145-.859-1.714-1.294q-.36-.275-.717-.552l-.332-.258c-.045-.036-.09-.07-.134-.107a.433.433,0,0,1-.065-.065l-.013-.02a.182.182,0,0,1-.015-.031.229.229,0,0,1,.161-.307.335.335,0,0,1,.285.1l.256.191.593.449q.557.424,1.107.855c.293.229.587.455.882.681a.228.228,0,0,1-.144.4.242.242,0,0,1-.15-.052" transform="translate(-4.09 -48.656)" fill="#302e2e"/><path d="M638.073,385.668l-.173-.114c-.162-.107-.326-.209-.478-.31l-.349-.228-.018-.012c-.116-.076-.231-.151-.321-.211l-.37-.243c-.474-.311-.952-.616-1.421-.926l-.008,0-.007,0-.03-.02-.027-.018-.174-.114c-.124-.082-.249-.165-.372-.248a1.094,1.094,0,0,1-.167-.12l0,0c-.01-.009-.018-.019-.023-.024a.215.215,0,0,1-.04-.079.23.23,0,0,1,.038-.2.226.226,0,0,1,.182-.091h.04a.13.13,0,0,1,.044.013.6.6,0,0,1,.117.063l.237.151c.18.117.362.234.538.35l.023.015.124.082.009.006.378.25.333.22.025.017h0c.134.087.267.176.375.247l.344.226.354.232.337.222.337.222.131.087.019.012.172.113.047.031.007,0,.006,0h0a.236.236,0,0,1,.1.131.228.228,0,0,1-.022.177.243.243,0,0,1-.206.117.2.2,0,0,1-.109-.031" transform="translate(-23.854 -63.621)" fill="#302e2e"/><path d="M635.926,409.7q0-.732,0-1.464.005-1.311.009-2.621,0-1.465.011-2.928.007-1.4.013-2.808t.013-2.813c0-.445,0-.889.007-1.333,0-.212,0-.423,0-.635,0-.089,0-.179,0-.268a.738.738,0,0,1,0-.094.262.262,0,0,1,.017-.082.231.231,0,0,1,.212-.14.229.229,0,0,1,.2.114.211.211,0,0,1,.029.085,1.233,1.233,0,0,1,0,.126c0,.1,0,.2,0,.3,0,.225,0,.449,0,.674q0,.7-.006,1.406c-.005.947-.007,1.9-.012,2.843s-.008,1.877-.012,2.815q-.008,1.451-.015,2.9-.008,1.3-.015,2.594,0,.667-.007,1.333a.231.231,0,0,1-.462,0" transform="translate(-25.368 -73.323)" fill="#302e2e"/><path d="M793.4,400.151a.233.233,0,0,1-.231-.229q-.007-.832-.014-1.663-.011-1.274-.021-2.548-.013-1.36-.023-2.719-.014-1.433-.024-2.866-.01-1.466-.022-2.935-.01-1.427-.022-2.854,0-.328,0-.655c0-.1,0-.2,0-.3,0-.047,0-.094,0-.141a.157.157,0,0,1,0-.027.244.244,0,0,1,.029-.084.234.234,0,0,1,.4,0,.225.225,0,0,1,.025.063c0,.011,0,.021.006.031h0a1.286,1.286,0,0,1,.005.135c0,.1,0,.2,0,.294q0,.335.006.668.005.724.011,1.448.01,1.426.022,2.852.01,1.451.023,2.9c.007.945.011,1.89.019,2.834q.01,1.3.019,2.594.007,1.153.016,2.307,0,.331,0,.662a.232.232,0,0,1-.23.229h0" transform="translate(-154.434 -63.885)" fill="#302e2e"/><path d="M636.321,477.687h-.01a.226.226,0,0,1-.142-.07.229.229,0,0,1,.031-.343.155.155,0,0,1,.025-.015.077.077,0,0,1,.027-.013l.008,0,.03-.009.015,0h.031c.411-.023.823-.033,1.234-.042q.9-.022,1.8-.04,1.824-.036,3.649-.078l3.6-.073,3.621-.068q1.826-.035,3.652-.068l3.565-.061q1.8-.03,3.592-.054c.566-.007,1.13-.018,1.7-.021.505,0,1.009-.011,1.514-.02a.231.231,0,0,1,.225.234.234.234,0,0,1-.237.224c-.51.01-1.019.021-1.529.037-.581.018-1.161.029-1.742.044q-1.818.047-3.636.082l-3.59.073-3.642.07-3.6.068q-1.806.035-3.613.062t-3.609.06q-.87.016-1.741.027c-.281,0-.563.008-.844.008h-.189c-.063,0-.125,0-.188-.007" transform="translate(-25.516 -140.843)" fill="#302e2e"/><path d="M637.3,482.215h.012Zm0,0" transform="translate(-26.501 -145.371)" fill="#302e2e"/><path d="M636.057,478.91a.374.374,0,0,1-.1-.327.244.244,0,0,1,.407-.221h0a.363.363,0,0,1,.069.319.238.238,0,0,1-.24.277.215.215,0,0,1-.138-.049" transform="translate(-25.391 -142.15)" fill="#302e2e"/><path d="M717.978,391.85a.123.123,0,0,1,.013-.024.228.228,0,0,1,.065-.071c.031-.024.063-.046.1-.068.095-.064.192-.125.288-.186.2-.125.393-.256.589-.385.4-.264.808-.521,1.212-.782q1.248-.807,2.5-1.609t2.525-1.624c.838-.536,1.674-1.076,2.513-1.612l2.4-1.535,1.223-.782a.23.23,0,1,1,.232.4l-1.591,1.029q-1.213.784-2.426,1.569l-2.488,1.606c-.841.544-1.683,1.083-2.525,1.624s-1.669,1.069-2.5,1.607q-.5.324-1.006.641c-.165.1-.33.207-.493.315-.07.046-.142.092-.213.136-.029.017-.058.036-.088.049a.22.22,0,0,1-.075.023l-.029,0a.232.232,0,0,1-.213-.319" transform="translate(-92.756 -63.983)" fill="#302e2e"/><path d="M668.907,402.869c-.1-.049-.191-.106-.287-.16l-.624-.362-1.321-.773q-1.326-.78-2.651-1.566t-2.661-1.577c-.809-.479-1.616-.962-2.427-1.441l-.72-.428a.23.23,0,1,1,.232-.4c.677.4,1.358.794,2.037,1.192q1.308.766,2.614,1.536,1.324.777,2.647,1.555t2.643,1.567l.542.326c.077.047.156.093.219.138a.231.231,0,0,1,.1.19.234.234,0,0,1-.169.221.194.194,0,0,1-.06.01.229.229,0,0,1-.114-.031" transform="translate(-43.584 -74.659)" fill="#302e2e"/><path d="M644.971,323.513h-.007a.2.2,0,0,1-.041,0,.155.155,0,0,1-.046-.013.229.229,0,0,1-.028-.41l.012-.006a.239.239,0,0,1,.1-.024c.194-.014.389-.013.583-.015.255,0,.511-.008.766-.011l1.55-.022q1.591-.024,3.182-.045l3.2-.042,3.25-.043q1.587-.021,3.175-.042,1.615-.02,3.23-.035c1.022-.011,2.045-.025,3.068-.035.843-.009,1.686-.015,2.529-.027.135,0,.27-.011.4-.006.284.012.306.15.305.273s-.181.184-.307.186c-.615.008-1.229.015-1.843.026q-1.495.024-2.988.045c-1.073.015-2.146.034-3.219.049q-1.585.024-3.17.041l-3.234.041c-1.068.012-2.135.027-3.2.04l-3.18.038q-1.564.02-3.129.036l-.564.006-.232,0c-.055,0-.11,0-.165-.005" transform="translate(-32.603 -14.361)" fill="#302e2e"/><path d="M644.438,330.949q.011-1.063.02-2.126c.007-.869.019-1.737.026-2.605,0-.22,0-.439.006-.658,0-.107,0-.215,0-.323a.309.309,0,0,1,.021-.123.233.233,0,0,1,.3-.122.241.241,0,0,1,.139.181.665.665,0,0,1,0,.1c0,.111,0,.222,0,.333,0,.2,0,.409-.008.614-.006.443-.009.886-.014,1.329-.01.852-.017,1.7-.029,2.555,0,.282-.006.565-.009.847a.231.231,0,0,1-.462,0" transform="translate(-32.36 -16.2)" fill="#302e2e"/><path d="M784.381,335.169a.232.232,0,0,1-.229-.231c0-.418.008-.837.013-1.257q.01-1.271.023-2.543.015-1.378.025-2.755.014-1.361.031-2.722.007-.614.013-1.228c0-.208,0-.416.006-.625,0-.147,0-.3.007-.443v-.02a.184.184,0,0,1,.008-.051v0l.006-.019,0-.006a.231.231,0,0,1,.436.034v0l0,.019v.008a.216.216,0,0,1,0,.022v.043c0,.087,0,.175,0,.263q0,.321-.008.641-.007.606-.013,1.213-.012,1.356-.024,2.711-.016,1.393-.032,2.786-.013,1.278-.029,2.557c0,.441-.009.881-.015,1.322v.054a.233.233,0,0,1-.232.228h0" transform="translate(-147.131 -14.684)" fill="#302e2e"/><g transform="translate(621.64 305.25)" clip-path="url(#a)"><path d="M698.382,309.175a.229.229,0,0,1-.07-.161.244.244,0,0,1,.064-.163l-.018.022-.007.01-.008.012v0l0-.006a.9.9,0,0,1,.146-.167c.078-.08.156-.157.235-.235l.518-.517q.529-.528,1.068-1.047c.259-.25.525-.492.784-.741.162-.156.324-.314.486-.471a.233.233,0,0,1,.326-.006.23.23,0,0,1,.006.324c-.6.588-1.181,1.191-1.782,1.778-.266.261-.536.518-.8.776-.125.119-.25.24-.375.359-.062.06-.125.12-.188.178a.5.5,0,0,1-.082.068.218.218,0,0,1-.139.049.237.237,0,0,1-.164-.065" transform="translate(-698.257 -305.574)" fill="#302e2e"/></g><g transform="translate(624.854 305.25)" clip-path="url(#b)"><path d="M719.6,308.774l-1.077-1.062c-.649-.641-1.3-1.281-1.943-1.927a1.3,1.3,0,0,1-.119-.126.174.174,0,0,1-.025-.036h0c-.006-.012-.011-.024-.013-.03-.036-.083-.061-.113,0-.174.05-.047.166-.14.22-.137a.2.2,0,0,1,.085.02h0l.015.008h0l.006,0,.034.023c.032.026.061.055.091.084.071.068.142.139.212.209l.5.492q.5.493.991.987.61.609,1.22,1.218l.133.132a.231.231,0,0,1-.01.325.227.227,0,0,1-.154.061.248.248,0,0,1-.171-.071" transform="translate(-716.32 -305.275)" fill="#302e2e"/></g><path d="M786.12,375.484a.241.241,0,0,1-.147-.08l-.01-.013-.094-.1-.012-.012,0,0-.031-.033-.018-.02h0c-.079-.087-.158-.174-.229-.255s-.164-.185-.237-.266l-.018-.02h0l-.013-.015c-.192-.212-.379-.427-.571-.64-.071-.079-.139-.159-.209-.238a.71.71,0,0,1-.08-.1.232.232,0,0,1,.342-.3.539.539,0,0,1,.071.072l.087.1.006.008.008.009c.211.234.418.469.625.7.16.181.319.36.478.542.088.1.23.246.319.347.059.073,0,.205-.092.279a.23.23,0,0,1-.143.049h-.029" transform="translate(-147.346 -55.925)" fill="#302e2e"/><path d="M636.143,439.844a.266.266,0,0,1-.02-.3.249.249,0,0,1,.034-.046l.006-.006.03-.028.023-.015.012-.008c.172-.116.352-.221.53-.328l.747-.445,1.536-.912q1.563-.923,3.128-1.842l3.122-1.834c1.045-.613,2.091-1.226,3.142-1.831.832-.48,1.661-.967,2.489-1.453a.273.273,0,0,1,.369.1.27.27,0,0,1-.095.366c-.855.5-1.711,1.008-2.562,1.52-1.026.618-2.059,1.223-3.089,1.833q-1.589.942-3.182,1.875-1.539.9-3.08,1.809l-1.516.885c-.244.142-.488.284-.732.425-.176.1-.35.2-.532.3l-.029.015-.013.007a.246.246,0,0,1-.1.022.282.282,0,0,1-.216-.1" transform="translate(-25.499 -103.105)" fill="#302e2e"/><path d="M730.361,439.6l-2-1.183c-.469-.278-.941-.549-1.409-.826l-1.438-.852q-1.481-.878-2.967-1.753t-2.951-1.749l-1.448-.861c-.388-.232-.78-.46-1.163-.7a.322.322,0,0,1-.061-.049.225.225,0,0,1-.044-.06l-.006-.01a.191.191,0,0,1-.017-.047.249.249,0,0,1-.008-.038.259.259,0,0,1,.024-.151.264.264,0,0,1,.151-.135.228.228,0,0,1,.142-.011.093.093,0,0,1,.027.007.488.488,0,0,1,.111.052c.061.036.123.071.184.105.227.129.45.263.674.395q.709.416,1.416.836,1.482.877,2.963,1.755,1.5.886,2.995,1.779c.473.282.95.563,1.424.844s.955.572,1.432.857c.441.264.885.524,1.326.789l.839.5.1.059a.269.269,0,0,1,.078.371.265.265,0,0,1-.223.119.292.292,0,0,1-.15-.041" transform="translate(-91.84 -103.436)" fill="#302e2e"/><path d="M740.4,342.42a.233.233,0,0,1-.231-.229q0-.94,0-1.883c0-.873,0-1.747,0-2.62q0-1.4,0-2.8c0-.246,0-.493,0-.74,0-.114,0-.228,0-.342a1.783,1.783,0,0,1,.005-.212.2.2,0,0,1,.031-.1.231.231,0,0,1,.4,0,.2.2,0,0,1,.032.106,1.678,1.678,0,0,1,0,.177c0,.107,0,.213,0,.32q0,.352,0,.705,0,.705,0,1.41,0,1.393,0,2.788c0,.843,0,1.686,0,2.53,0,.22,0,.441,0,.661a.232.232,0,0,1-.229.231h0" transform="translate(-110.995 -23.107)" fill="#302e2e"/><path d="M740.355,332.961a.237.237,0,0,1-.138-.18.231.231,0,0,1,.016-.121.234.234,0,0,1,.03-.05l.02-.023a.3.3,0,0,1,.047-.036.219.219,0,0,1,.056-.023.275.275,0,0,1,.048-.008c.043,0,.086,0,.129-.006l.332-.011.721-.02,1.469-.038c.94-.024,1.881-.041,2.822-.063l.419-.011a.229.229,0,1,1,0,.459q-1.274.037-2.549.073-1.456.041-2.912.073l-.312.006h-.074a.273.273,0,0,1-.121-.022" transform="translate(-111.038 -22.279)" fill="#302e2e"/><path d="M773.42,341.82a.233.233,0,0,1-.231-.23c0-.387,0-.775-.008-1.162q-.018-1.438-.023-2.875-.007-1.355-.012-2.709c0-.386,0-.771-.006-1.156,0-.185,0-.37,0-.556,0-.116,0-.232,0-.347a.238.238,0,0,1,.007-.042v0a.176.176,0,0,1,.022-.052l-.013.026-.007.02a.234.234,0,0,1,.22-.159.226.226,0,0,1,.182.09.22.22,0,0,1,.031.055.072.072,0,0,1,.006.017.348.348,0,0,1,.009.043v.022c.009.128.006.257.006.386,0,.2,0,.406,0,.609q0,.659.008,1.318.008,1.36.019,2.719c0,.483.008.966.008,1.449,0,.467,0,.934,0,1.4,0,.3,0,.605,0,.907a.232.232,0,0,1-.23.229h0" transform="translate(-138.081 -22.446)" fill="#302e2e"/><path d="M746.114,382.669c-.891,0-1.781,0-2.671-.006-.484,0-.969-.01-1.453-.01s-.944,0-1.416-.012c-.054,0-.11,0-.164-.005a.256.256,0,0,1-.181-.07.376.376,0,0,1-.059-.287c0-.019.013.026.024.009a.212.212,0,0,1,.036-.047.228.228,0,0,1,.1-.059.577.577,0,0,1,.111-.01c.111,0,.222,0,.333,0l.721,0c.479,0,.957.009,1.436.01s.974,0,1.46.008c.456,0,.912.015,1.368.017.118,0,.578.023.7.024s.107.126.107.252-.067.215-.45.186h0" transform="translate(-110.996 -63.188)" fill="#302e2e"/><path d="M656,339.341a.232.232,0,0,1-.222-.167h0v-.007a.621.621,0,0,1-.009-.129c0-.107,0-.214,0-.32,0-.2.006-.394.008-.591q.007-.609.018-1.217.012-.752.021-1.5v-.022a.231.231,0,0,1,.462-.014q-.009.74-.018,1.483-.007.611-.015,1.222c0,.2-.006.394-.008.591,0,.109,0,.219,0,.328a1.065,1.065,0,0,1-.009.156.233.233,0,0,1-.22.191H656" transform="translate(-41.669 -24.56)" fill="#302e2e"/><path d="M658.027,338.972q-.247-.533-.49-1.069c-.268-.589-.533-1.18-.8-1.768-.064-.141-.131-.28-.195-.421-.029-.064-.059-.128-.086-.192a.328.328,0,0,1-.034-.178l0-.02,0-.011h0a.186.186,0,0,1,.021-.048.225.225,0,0,1,.112-.1.239.239,0,0,1,.121-.016l.011,0a.2.2,0,0,1,.1.045h0a.8.8,0,0,1,.169.292c.063.139.124.277.185.416.114.256.232.51.349.766q.372.817.739,1.637.111.246.221.492a.229.229,0,0,1-.211.317.238.238,0,0,1-.215-.142" transform="translate(-42.201 -24.559)" fill="#302e2e"/><path d="M669.868,338.614a.234.234,0,0,1-.232-.225q-.005-.612-.006-1.225,0-.591-.006-1.182c0-.209,0-.417,0-.625,0-.093,0-.186,0-.278a1.04,1.04,0,0,1,.007-.132c0,.01,0,.02,0,.03l0,.031a.482.482,0,0,1,0-.064v0a.178.178,0,0,1,.027-.082.238.238,0,0,1,.2-.117.223.223,0,0,1,.084.015.182.182,0,0,1,.034.015.281.281,0,0,1,.068.057.223.223,0,0,1,.047.109.192.192,0,0,1,0,.026,1.1,1.1,0,0,1,.006.117c0,.1,0,.2,0,.293q0,.325,0,.65,0,.616,0,1.232,0,.564,0,1.127a.233.233,0,0,1-.227.234h0" transform="translate(-53.049 -24.227)" fill="#302e2e"/><path d="M674.364,338.419a.232.232,0,0,1-.232-.228c0-.333,0-.665,0-1,0-.626,0-1.253,0-1.88,0-.134,0-.268,0-.4a1.049,1.049,0,0,1,.008-.163c0,.009,0,.019,0,.028s0,.016,0,.024a.316.316,0,0,1,0-.064l0-.023a.189.189,0,0,1,.038-.078.235.235,0,0,1,.182-.091.225.225,0,0,1,.184.089.3.3,0,0,1,.038.076.232.232,0,0,1,.008.032.251.251,0,0,1,0,.04v-.031a.5.5,0,0,1,.006.077c0,.057,0,.114,0,.17,0,.184,0,.368,0,.552,0,.343,0,.686,0,1.029,0,.422,0,.844,0,1.266,0,.114,0,.229,0,.343a.233.233,0,0,1-.23.232h0" transform="translate(-56.745 -24.063)" fill="#302e2e"/><path d="M674.633,334.891h-.1a.582.582,0,0,1-.068,0,.231.231,0,0,1-.183-.318.237.237,0,0,1,.231-.142l.116,0,.374,0c.261,0,.521,0,.782,0,.221,0,.443,0,.665,0a.229.229,0,1,1,0,.459c-.372,0-.743.011-1.114.011l-.309,0-.293,0h-.1" transform="translate(-56.862 -23.961)" fill="#302e2e"/><path d="M675.288,349.791a.235.235,0,0,1-.2-.295.242.242,0,0,1,.167-.16.508.508,0,0,1,.112-.013c.064,0,.128,0,.192,0,.148,0,.3,0,.444,0,.2,0,.4,0,.6,0l.279,0a.229.229,0,1,1-.006.458c-.348,0-.7,0-1.044,0-.128,0-.255,0-.383,0a1.4,1.4,0,0,1-.162-.007" transform="translate(-57.527 -36.204)" fill="#302e2e"/><path d="M682.331,364.078a.229.229,0,0,1-.029-.458l.194-.007c.19-.007.379-.022.568-.026h.027a1.146,1.146,0,0,1,.147,0,.23.23,0,0,1,.192.177.173.173,0,0,1,0,.031.224.224,0,0,1,0,.062.133.133,0,0,1-.006.024v.006a.265.265,0,0,1-.026.054.248.248,0,0,1-.063.063.28.28,0,0,1-.125.043.942.942,0,0,1-.121.007c-.1,0-.207,0-.279.006l-.151,0c-.106,0-.212.006-.318.011h-.01" transform="translate(-63.29 -47.921)" fill="#302e2e"/><path d="M718.051,338.748a1.327,1.327,0,0,1-.952-.587c-.1-.19-.262-.566.04-.655a.233.233,0,0,1,.277.17c.1.663.958.719,1.485.582.561-.246.975-.574.869-1.246-.192-1.257-1.562-.709-2.248-1.364A1.532,1.532,0,0,1,718.7,333.1a1.678,1.678,0,0,1,1.211.6c.146.183.435.479.225.706a.234.234,0,0,1-.326-.012,1.281,1.281,0,0,0-1.292-.822,1.152,1.152,0,0,0-.937,1.22c.117.769.832.725,1.432.863a1.508,1.508,0,0,1,1.183,1.112,1.445,1.445,0,0,1-.728,1.7,1.757,1.757,0,0,1-1.029.3,2.586,2.586,0,0,1-.386-.03" transform="translate(-91.939 -22.881)" fill="#302e2e"/><path d="M708.573,339.076a.232.232,0,0,1-.194-.262q.118-.62.24-1.241c.165-.835.322-1.671.488-2.506q.1-.486.192-.974c.029-.145.058-.291.088-.435a1.29,1.29,0,0,1,.059-.252c0,.009-.006.019-.01.028s0,.017-.006.025a.243.243,0,0,1,.141-.177.231.231,0,0,1,.308.278l.006-.029c0,.033-.009.064-.015.1-.017.086-.032.174-.049.259-.039.207-.08.413-.121.621q-.127.647-.252,1.294-.229,1.164-.461,2.328-.075.378-.151.754a.236.236,0,0,1-.227.2.2.2,0,0,1-.036,0" transform="translate(-84.883 -23.012)" fill="#302e2e"/><path d="M716.838,334.59l0,.028c0-.009,0-.018,0-.028" transform="translate(-91.833 -24.102)" fill="#302e2e"/><path d="M689.464,339.665q-.084-.63-.172-1.26c-.128-.91-.244-1.823-.36-2.735l-.084-.669c-.013-.107-.027-.213-.041-.319a1.369,1.369,0,0,1-.015-.177v.014c0,.01,0,.019,0,.028a.231.231,0,0,1,.351-.245.25.25,0,0,1,.1.166l0-.021c0-.009-.006-.019-.008-.028a1.151,1.151,0,0,1,.038.2c.015.108.029.218.043.326.03.216.059.432.088.649.061.45.118.9.176,1.35s.122.925.177,1.388c.022.184.042.367.066.55.012.094.026.188.037.282.018.155.038.309.059.463a.232.232,0,0,1-.209.25h-.022a.234.234,0,0,1-.229-.209" transform="translate(-68.796 -23.835)" fill="#302e2e"/><path d="M692.93,340.149a.254.254,0,0,1-.031-.207c.013-.059.031-.119.048-.178.034-.112.071-.225.107-.338.073-.231.143-.462.213-.693.15-.488.3-.977.457-1.462.147-.451.3-.9.449-1.351q.118-.366.234-.733c.041-.131.082-.261.124-.391a.234.234,0,0,1,.292-.145.231.231,0,0,1,.146.29c-.133.425-.27.85-.4,1.276-.141.462-.275.926-.42,1.388-.149.479-.306.956-.463,1.433-.07.214-.14.427-.208.641-.03.095-.059.191-.092.285s-.07.225-.19.27a.212.212,0,0,1-.077.014.23.23,0,0,1-.192-.1" transform="translate(-72.162 -24.143)" fill="#302e2e"/><path d="M703.07,339.491c-.12-.63-.252-1.257-.372-1.888-.183-.955-.354-1.913-.531-2.869-.02-.112-.041-.224-.061-.336a.506.506,0,0,1-.015-.121.247.247,0,0,1,.054-.139.233.233,0,0,1,.217-.08.229.229,0,0,1,.179.149.576.576,0,0,1,.022.083c.015.074.029.148.044.222.043.22.084.441.127.661.091.481.187.96.28,1.44s.184.964.269,1.448c.063.361.125.723.193,1.084.015.08.029.16.043.239a.232.232,0,0,1-.171.277.236.236,0,0,1-.05.006.23.23,0,0,1-.227-.176" transform="translate(-79.72 -23.662)" fill="#302e2e"/><path d="M680,373.478l-3.137-.024-.663-.005-.326,0c-.071,0-.142,0-.212-.008a.232.232,0,0,1-.215-.241.227.227,0,0,1,.153-.2.488.488,0,0,1,.165-.018c.484-.008.968,0,1.452,0h1.576c1.055,0,2.109,0,3.163,0,.514,0,1.027,0,1.541.013s1,.019,1.5.022c.289,0,.577,0,.866,0a.23.23,0,0,1,.219.241.234.234,0,0,1-.243.218h-.488c-.227,0-.454,0-.682,0-.508,0-1.017.011-1.525.013l-.9,0q-1.122,0-2.243-.01" transform="translate(-57.834 -55.63)" fill="#302e2e"/><path d="M678.98,382.432h-.462c-.508,0-1.017,0-1.525,0-.988,0-1.976-.011-2.964-.015-.232,0-.463,0-.694,0h-.757c-.467,0-.935,0-1.4,0-.713,0-1.428-.006-2.142-.008h-.089a.229.229,0,1,1,.021-.458q1.029,0,2.059,0,1.42,0,2.84,0c.485,0,.971,0,1.455-.006s.983,0,1.474,0q.764,0,1.527,0h.55c.33,0,.662,0,.994,0l.284.006c.056,0,.112,0,.162.007h.015a.231.231,0,0,1,.22.239.227.227,0,0,1-.123.192.22.22,0,0,1-.081.024l-.012,0c-.089,0-.177.007-.266.009h-.056c-.2,0-.4.006-.6.006h-.432" transform="translate(-52.312 -62.999)" fill="#302e2e"/><path d="M670.715,392.123c-.525,0-1.05-.006-1.574-.008h-1.1l-.161,0a.34.34,0,0,1-.142-.026.243.243,0,0,1-.05-.033.23.23,0,0,1-.006-.344.371.371,0,0,1,.261-.066h.054c.237,0,.475,0,.711,0l.777-.006c.529,0,1.057-.01,1.585-.012,1.07,0,2.14-.012,3.211-.015l3.252,0c1.077,0,2.154,0,3.231,0,1.038,0,2.077.008,3.115.013.589,0,1.179,0,1.768,0a.231.231,0,0,1,.22.24.234.234,0,0,1-.241.218q-1.029,0-2.059.01c-1.051.007-2.1.018-3.152.022-1.072,0-2.143.014-3.214.014-1.086,0-2.172,0-3.258,0s-2.149,0-3.224-.006" transform="translate(-51.39 -70.934)" fill="#302e2e"/><path d="M683.185,401.228c-1.059,0-2.117-.016-3.176-.022-.377,0-.753,0-1.129,0-.181,0-.361,0-.541,0-.078,0-.154,0-.231-.006l-.026,0a.218.218,0,0,1-.133-.053h0a.235.235,0,0,1-.083-.185.225.225,0,0,1,.1-.176s0,0,.025-.017a.217.217,0,0,1,.064-.022,1.666,1.666,0,0,1,.249-.013h1.1c.514,0,1.028,0,1.542,0q1.6-.01,3.208-.007t3.2.009c.509,0,1.018,0,1.527.012s.991.014,1.486.015l.984,0a.229.229,0,1,1-.017.458H690.7c-.4,0-.8,0-1.194,0-.515,0-1.031.011-1.547.013h-.73c-.266,0-.531,0-.8,0l-1.37,0-1.88,0" transform="translate(-59.82 -78.42)" fill="#302e2e"/><path d="M694.914,410.267a1.43,1.43,0,0,1-.169-.006.245.245,0,0,1-.142-.05.233.233,0,0,1,.005-.363.348.348,0,0,1,.188-.05c.122-.006.245-.01.367-.011.24,0,.482,0,.722-.006l1.47-.02c.5-.008,1.006-.019,1.509-.025s1.024-.01,1.536-.013c.429,0,.858-.01,1.286-.01.375,0,.749-.006,1.123-.011a.229.229,0,1,1-.006.459c-.445.006-.89.012-1.335.023-.5.012-1,.015-1.493.025-1.007.019-2.014.021-3.022.033l-1.176.013c-.19,0-.381.008-.571.01h-.292" transform="translate(-73.5 -85.805)" fill="#302e2e"/><path d="M712.194,420.2c-.16-.284.148-.4.386-.387a14.6,14.6,0,0,1,1.816-.023.232.232,0,0,1,.223.238c-.029.25-.275.234-.492.218a1.517,1.517,0,0,0-.2-.007,9.423,9.423,0,0,0-1.173.026,1.053,1.053,0,0,0-.174.016,1.245,1.245,0,0,1-.165.016.259.259,0,0,1-.223-.1" transform="translate(-87.983 -94.077)" fill="#302e2e"/><path d="M609.559,411.1c-.469-.248.73-1.233.945-1.439a.23.23,0,1,1,.276.368l.022-.016a5.288,5.288,0,0,0-.858.9.345.345,0,0,1-.274.22.212.212,0,0,1-.112-.033" transform="translate(-3.62 -85.722)" fill="#302e2e"/><path d="M609.487,431.172a4.606,4.606,0,0,1-4.255-3.86,5.429,5.429,0,0,1-.1-2.315c.054-.264.158-.933.547-.593a.267.267,0,0,1,.015.278,3.925,3.925,0,0,0-.17,1.472c.17,2.439,1.451,4.345,4.029,4.563a.231.231,0,0,1-.029.458l-.034,0" transform="translate(0 -97.803)" fill="#302e2e"/><path d="M804.256,440.148a9.289,9.289,0,0,0-1.345-.565c-.211-.044-.494-.219-.326-.453.112-.142.271-.078.4-.01.425.159.855.3,1.264.5.176.082.457.209.326.445a.237.237,0,0,1-.2.115.21.21,0,0,1-.114-.032" transform="translate(-162.232 -109.908)" fill="#302e2e"/><path d="M805.665,459.338c-.02-.349.476-.271.69-.351a5.735,5.735,0,0,0,1.995-.741,4.417,4.417,0,0,0,1.656-1.948,5.016,5.016,0,0,0-.469-4.253,8.224,8.224,0,0,0-.968-1.144,1.822,1.822,0,0,0-.278-.186.231.231,0,0,1-.023-.345c.431-.352,1.414,1.121,1.666,1.435a5.463,5.463,0,0,1,.455,4.791,5.035,5.035,0,0,1-2.068,2.209,6.733,6.733,0,0,1-1.837.626c-.153.008-.378.1-.556.1a.241.241,0,0,1-.263-.2" transform="translate(-164.803 -119.167)" fill="#302e2e"/><path d="M740.984,487.3c-.3-.158-1.421-.909-1.183-1.289a.237.237,0,0,1,.409.048,2.551,2.551,0,0,0,.37.407,3.486,3.486,0,0,0,.639.433.234.234,0,0,1-.117.434.23.23,0,0,1-.118-.033" transform="translate(-110.672 -148.409)" fill="#302e2e"/><g transform="translate(631.638 339.305)" clip-path="url(#c)"><path d="M760.5,497.9a25.6,25.6,0,0,1-2.852-.22,8.528,8.528,0,0,1-2.49-.626c-.235-.084-.63-.361-.319-.6.167-.1.278.056.414.124a9.137,9.137,0,0,0,2.849.669,22.158,22.158,0,0,0,3.214.191c.271-.026.537-.091.8-.142a.234.234,0,0,1,.285.16.232.232,0,0,1-.162.282,5.592,5.592,0,0,1-1.367.17c-.126,0-.25,0-.376-.013" transform="translate(-754.594 -496.346)" fill="#302e2e"/></g><path d="M782.136,327.511a.095.095,0,0,1,.19.01.1.1,0,0,1-.1.089.1.1,0,0,1-.089-.1" transform="translate(-145.475 -18.214)" fill="#302e2e"/><path d="M781.493,341.237a.1.1,0,0,1-.091-.1q.009-.587.015-1.174.008-.629.015-1.257c.006-.424.011-.849.017-1.273s.011-.849.016-1.273.011-.875.017-1.314c.006-.423.012-.847.017-1.271s.012-.822.017-1.234c0-.2.006-.4.008-.6,0-.1,0-.2,0-.3,0-.084,0-.168,0-.252a.282.282,0,0,1,0-.033l0-.012.005-.013a.1.1,0,0,1,.079-.053.094.094,0,0,1,.086.043l.011.022a.25.25,0,0,1,.006.082c0,.043,0,.086,0,.129,0,.1,0,.2,0,.294,0,.2-.006.393-.008.59q-.008.617-.016,1.234c-.005.427-.011.854-.016,1.28s-.011.857-.017,1.286-.012.854-.017,1.28-.01.853-.017,1.28-.011.845-.017,1.266q-.008.591-.016,1.182c0,.033,0,.065,0,.1a.1.1,0,0,1-.1.089h-.005" transform="translate(-144.872 -21.22)" fill="#302e2e"/><path d="M788.061,381.185c-.1-.122-.206-.241-.3-.364a.1.1,0,0,1-.024-.1.1.1,0,0,1,.115-.063.1.1,0,0,1,.052.033c.1.126.207.243.3.369a.1.1,0,0,1-.076.158.092.092,0,0,1-.069-.033" transform="translate(-150.07 -61.941)" fill="#302e2e"/><path d="M790.444,390.077a.1.1,0,1,1,.09.1.1.1,0,0,1-.09-.1" transform="translate(-152.3 -69.61)" fill="#302e2e"/><path d="M791,406.682a.1.1,0,0,1-.091-.1q-.005-.546-.009-1.094c-.005-.565-.013-1.129-.018-1.694q-.009-.874-.017-1.747t-.015-1.736q-.007-.881-.015-1.764t-.014-1.747c0-.578-.01-1.156-.014-1.734,0-.562-.01-1.126-.013-1.688,0-.1,0-.2,0-.294,0-.039,0-.079,0-.117a.266.266,0,0,1,0-.043l0-.014a.1.1,0,0,1,.177-.014.094.094,0,0,1,.008.026.4.4,0,0,1,0,.066c0,.064,0,.128,0,.193,0,.134,0,.268,0,.4,0,.282,0,.564.008.847q.007.858.015,1.716c0,.584.01,1.169.015,1.752s.01,1.153.015,1.729q.008.892.015,1.784t.015,1.765q.006.853.01,1.706.005.742.011,1.483c0,.076,0,.151,0,.226a.1.1,0,0,1-.1.091h0" transform="translate(-152.583 -71.955)" fill="#302e2e"/><path d="M791.4,472.081a.1.1,0,0,1,.1-.089.1.1,0,0,1,.089.1.1.1,0,0,1-.1.089.1.1,0,0,1-.09-.1" transform="translate(-153.083 -136.974)" fill="#302e2e"/><path d="M782.007,474.6a.095.095,0,0,1,.19.01.1.1,0,0,1-.1.089.1.1,0,0,1-.089-.1" transform="translate(-145.369 -139.04)" fill="#302e2e"/><path d="M689.91,474.827a.1.1,0,1,1,0-.191c.452-.008.9-.019,1.357-.029.656-.013,1.313-.03,1.97-.043l2.029-.043,2.049-.044,2.04-.045,1.041-.024c.352-.008.705-.017,1.057-.022s.705-.015,1.057-.022l1.008-.02c.688-.014,1.377-.028,2.065-.036h.131a.486.486,0,0,1,.084,0,.1.1,0,0,1,.08.1.1.1,0,0,1-.05.082.093.093,0,0,1-.023.009.329.329,0,0,1-.065,0l-.129.005-.25.007-.532.013-1.029.024-2.024.043-2.109.041-2.077.039-2.029.041-2.052.042-1.964.038-1.526.031-.113,0h0" transform="translate(-69.637 -138.874)" fill="#302e2e"/><path d="M683.058,359.98a.1.1,0,0,1,.1-.089.094.094,0,1,1-.1.089" transform="translate(-64.085 -44.886)" fill="#302e2e"/><path d="M656.778,367.429a.1.1,0,0,1-.015-.135q.36-.442.718-.885.389-.48.78-.96c.27-.329.536-.663.806-.992s.538-.66.806-.99.529-.646.792-.969l.261-.319.132-.162c.034-.042.069-.084.1-.116a.1.1,0,0,1,.029-.024.1.1,0,0,1,.107.009.1.1,0,0,1,.033.1.073.073,0,0,1-.012.026h0l0,0c-.019.03-.043.058-.066.087l-.092.114-.193.236-.394.484q-.4.495-.8.987l-.8.981c-.265.324-.531.647-.8.972l-.783.959-.472.579a.1.1,0,0,1-.076.036.1.1,0,0,1-.059-.02" transform="translate(-42.468 -46.508)" fill="#302e2e"/><path d="M655.526,393.6a.1.1,0,0,1,.1-.089.1.1,0,0,1,.089.1.1.1,0,0,1-.1.089.1.1,0,0,1-.089-.1" transform="translate(-41.469 -72.501)" fill="#302e2e"/><path d="M642.848,385.471a.251.251,0,0,1-.062-.036c-.034-.022-.068-.045-.1-.068l-.253-.166-.486-.323-.975-.648-.41-.271a.1.1,0,1,1,.109-.158l.921.609.989.653.227.151.094.063a.155.155,0,0,1,.066.061.1.1,0,0,1-.015.105.093.093,0,0,1-.07.031.129.129,0,0,1-.032,0" transform="translate(-29.14 -64.514)" fill="#302e2e"/><path d="M617.608,366.71a.1.1,0,0,1,.1-.089.1.1,0,0,1,.089.1.1.1,0,0,1-.19-.011" transform="translate(-10.32 -50.414)" fill="#302e2e"/><path d="M620.459,369.107l-.011-.009-.152-.118-.014-.01,0,0h0l-.017-.013-.01-.008-.069-.054-.154-.118-.015-.013-.082-.063-.211-.163-.031-.024-.005,0,0,0-.153-.118,0,0,0,0-.069-.054-.009-.007-.077-.059,0,0-.007-.005c-.1-.075-.194-.153-.292-.229l-.006,0,0,0a.1.1,0,0,1-.028-.041.1.1,0,0,1,.011-.084.1.1,0,0,1,.085-.042.09.09,0,0,1,.049.017l.006.005,0,0,.1.077.077.059.015.012h0c.18.139.36.281.539.419.226.174.45.349.674.524a.1.1,0,0,1,.008.135.1.1,0,0,1-.065.032h-.006a.1.1,0,0,1-.064-.024" transform="translate(-11.481 -51.422)" fill="#302e2e"/><path d="M628.4,375.034a.1.1,0,0,1,.1-.089.095.095,0,1,1-.1.089" transform="translate(-19.183 -57.252)" fill="#302e2e"/><path d="M630.5,362.8a.1.1,0,0,1-.039-.167l.011-.007a.809.809,0,0,1,.084-.038l.14-.056.3-.122.586-.232c.416-.163.832-.328,1.249-.49l1.211-.471c.4-.155.8-.308,1.194-.464s.773-.3,1.161-.453l.217-.085a.1.1,0,0,1,.127.048.1.1,0,0,1-.049.127c-.385.15-.769.3-1.154.455q-.6.235-1.2.473l-1.207.478c-.406.16-.812.321-1.22.478s-.8.313-1.2.465l-.114.043a.264.264,0,0,1-.065.021l.012,0,0,0a.111.111,0,0,1-.034.006l-.02,0" transform="translate(-20.852 -45.145)" fill="#302e2e"/><path d="M667.827,359.269a.1.1,0,0,1,.19.01.1.1,0,0,1-.1.089.094.094,0,0,1-.089-.1" transform="translate(-51.573 -44.302)" fill="#302e2e"/><path d="M717.8,310.437a.1.1,0,1,1,.09.1.1.1,0,0,1-.09-.1" transform="translate(-92.622 -4.188)" fill="#302e2e"/><path d="M721.2,314.024l-.647-.63c-.28-.273-.561-.545-.84-.82l-.077-.077a.108.108,0,0,1-.038-.084.1.1,0,0,1,.077-.089.121.121,0,0,1,.112.047l.1.1.206.2.424.416.735.723.073.071a.1.1,0,0,1,.008.135.1.1,0,0,1-.074.032.084.084,0,0,1-.061-.024" transform="translate(-94.103 -5.809)" fill="#302e2e"/><path d="M768.238,327.224a.1.1,0,0,1-.1-.093.1.1,0,0,1,.093-.1l.918-.013.543-.007.289,0h.128c.024,0,.047,0,.067,0a.1.1,0,0,1,.064.027.1.1,0,0,1,.017.116.1.1,0,0,1-.07.047h-.011l-.05,0-.136,0-.293,0-.556.006-.9.008h0" transform="translate(-133.978 -17.874)" fill="#302e2e"/></g></svg>