<svg xmlns="http://www.w3.org/2000/svg" xmlns:xlink="http://www.w3.org/1999/xlink" width="66" height="53.555" viewBox="0 0 66 53.555"><defs><clipPath id="a"><path d="M700.281,482h11.342v4.769H700.281Zm0,0" transform="translate(-700.281 -482)" fill="#302e2e"/></clipPath><clipPath id="b"><path d="M701,311.25h10.857v5.643H701Zm0,0" transform="translate(-701 -311.25)" fill="#302e2e"/></clipPath><clipPath id="c"><path d="M604.5,351h7.857v26H604.5Zm0,0" transform="translate(-604.5 -351)" fill="#302e2e"/></clipPath><clipPath id="d"><path d="M811.164,352.242h6.953v23.931h-6.953Zm0,0" transform="translate(-811.164 -352.242)" fill="#302e2e"/></clipPath></defs><g transform="translate(-604.5 -311.25)"><g transform="translate(631.866 360.036)" clipPath="url(#a)"><path d="M709.826,482.172h-9.181a5.671,5.671,0,0,0,11.182,0h-2" transform="translate(-700.541 -482.123)" fill="#302e2e"/></g><g transform="translate(632.071 311.25)" clipPath="url(#b)"><path d="M703.661,316.238a16.338,16.338,0,0,1,6.581,0c.343.07.683.151,1.018.242s.667.2,1,.307a5.307,5.307,0,1,0-10.608,0c.328-.112.66-.215,1-.307s.675-.172,1.018-.242" transform="translate(-701.463 -311.284)" fill="#302e2e"/></g><path d="M684.619,369.139a20.978,20.978,0,0,1-3.717-4.229c-1.749-2.824-.667-13.22-.636-13.513l-.011-.081,0-.086c.007-.19.01-.367.01-.539a16.43,16.43,0,0,0-10.139-15.452q-.479-.184-.971-.337t-.975-.262a14.391,14.391,0,0,0-6.517,0q-.494.114-.975.262t-.97.337a16.428,16.428,0,0,0-10.139,15.452c0,.172,0,.349.009.539l0,.086-.012.081c.033.309,1.111,10.693-.636,13.513a20.944,20.944,0,0,1-3.718,4.229,9.363,9.363,0,0,0-1.886,3.071,5.437,5.437,0,0,0-.522,2.357h44.313a4.93,4.93,0,0,0-.551-2.359,9.9,9.9,0,0,0-1.959-3.069" transform="translate(-27.361 -16.44)" fill="#302e2e"/><path d="M634.2,382.078a1.614,1.614,0,0,0,.378-2.252,10.871,10.871,0,0,1-.168-12.361,1.616,1.616,0,0,0-2.682-1.8,14.1,14.1,0,0,0,.219,16.037,1.618,1.618,0,0,0,2.253.378" transform="translate(-17.737 -38.357)" fill="#302e2e"/><g transform="translate(604.5 322.607)" clipPath="url(#c)"><path d="M608.417,363.937a17.2,17.2,0,0,1,2.772-9.388,1.958,1.958,0,0,0-3.288-2.129,21.193,21.193,0,0,0,.655,23.986,1.958,1.958,0,0,0,3.166-2.3,17.147,17.147,0,0,1-3.306-10.164" transform="translate(-604.5 -351.376)" fill="#302e2e"/></g><path d="M792.29,364.675a1.613,1.613,0,0,0-.406,2.247,10.874,10.874,0,0,1,.1,12.232,1.615,1.615,0,0,0,2.685,1.8,14.1,14.1,0,0,0-.132-15.869,1.617,1.617,0,0,0-2.249-.406" transform="translate(-133.639 -37.955)" fill="#302e2e"/><g transform="translate(663.547 322.962)" clipPath="url(#d)"><path d="M815.213,353.334a1.958,1.958,0,0,0-3.321,2.076,17.291,17.291,0,0,1,.237,17.913,1.958,1.958,0,0,0,3.375,1.987,21.2,21.2,0,0,0-.29-21.975" transform="translate(-811.47 -352.366)" fill="#302e2e"/></g></g></svg>