<svg xmlns="http://www.w3.org/2000/svg" xmlns:xlink="http://www.w3.org/1999/xlink" width="43.25" height="10.672" viewBox="0 0 43.25 10.672"><defs><clipPath id="a"><path d="M604.5,376.5h10.953v10.672H604.5Zm0,0" transform="translate(-604.5 -376.5)" fill="#302e2e"/></clipPath><clipPath id="b"><path d="M691,376.5h10.859v10.672H691Zm0,0" transform="translate(-691 -376.5)" fill="#302e2e"/></clipPath><clipPath id="c"><path d="M777,376.5h10.953v10.672H777Zm0,0" transform="translate(-777 -376.5)" fill="#302e2e"/></clipPath></defs><g transform="translate(-604.5 -376.5)"><g transform="translate(604.5 376.5)" clipPath="url(#a)"><path d="M615.313,381.836a5.18,5.18,0,0,1-.026.523,5.062,5.062,0,0,1-.078.518c-.034.172-.078.341-.129.508s-.111.331-.179.493a5.355,5.355,0,0,1-.816,1.344c-.112.135-.231.264-.356.388a5.214,5.214,0,0,1-.394.352c-.137.11-.279.215-.426.312s-.3.187-.455.269-.317.157-.48.224-.331.125-.5.176-.341.093-.515.127-.349.059-.524.077-.353.026-.53.026-.354-.009-.53-.026-.351-.043-.524-.077-.345-.077-.515-.127-.336-.11-.5-.176-.323-.142-.48-.224-.307-.172-.455-.269-.289-.2-.426-.312a5.213,5.213,0,0,1-.394-.352c-.125-.124-.244-.253-.356-.388a5.2,5.2,0,0,1-.316-.421,5.09,5.09,0,0,1-.273-.449,5.164,5.164,0,0,1-.227-.473c-.068-.162-.127-.325-.179-.493s-.094-.336-.129-.508a5.078,5.078,0,0,1-.078-.518,5.2,5.2,0,0,1,0-1.046,5.079,5.079,0,0,1,.078-.518c.034-.172.078-.341.129-.508s.111-.331.179-.493a5.164,5.164,0,0,1,.227-.473,5.085,5.085,0,0,1,.273-.449,5.2,5.2,0,0,1,.316-.421c.112-.135.231-.264.356-.388s.256-.241.394-.352.279-.215.426-.312.3-.187.455-.27.317-.156.48-.224.331-.125.5-.176.341-.093.515-.127.349-.059.524-.077.353-.026.53-.026.354.009.53.026.351.043.524.077.345.077.515.127.336.11.5.176.323.142.48.224.307.173.455.27.289.2.426.312.268.228.394.352.244.253.356.388a5.2,5.2,0,0,1,.316.421,5.285,5.285,0,0,1,.5.922c.068.162.127.325.179.493s.094.336.129.508a5.062,5.062,0,0,1,.078.518A5.18,5.18,0,0,1,615.313,381.836Zm0,0" transform="translate(-604.5 -376.5)" fill="#302e2e"/></g><g transform="translate(620.695 376.5)" clipPath="url(#b)"><path d="M701.938,381.836a5.2,5.2,0,0,1-.026.523,5.078,5.078,0,0,1-.078.518c-.034.172-.078.341-.129.508s-.111.331-.179.493a5.164,5.164,0,0,1-.227.473,5.09,5.09,0,0,1-.273.449,5.2,5.2,0,0,1-.316.421c-.112.135-.231.264-.356.388a5.2,5.2,0,0,1-.394.352c-.137.11-.279.215-.426.312s-.3.187-.455.269-.317.157-.48.224-.331.125-.5.176-.341.093-.515.127-.349.059-.524.077-.353.026-.53.026-.354-.009-.53-.026-.351-.043-.524-.077-.345-.077-.515-.127-.336-.11-.5-.176-.323-.142-.48-.224-.307-.172-.455-.269-.289-.2-.426-.312a5.2,5.2,0,0,1-.394-.352c-.125-.124-.244-.253-.356-.388a5.232,5.232,0,0,1-.316-.421,5.3,5.3,0,0,1-.5-.922c-.068-.162-.127-.325-.179-.493s-.094-.336-.129-.508a5.062,5.062,0,0,1-.078-.518,5.187,5.187,0,0,1,0-1.046,5.062,5.062,0,0,1,.078-.518c.034-.172.078-.341.129-.508s.111-.331.179-.493a5.3,5.3,0,0,1,.5-.922,5.232,5.232,0,0,1,.316-.421c.112-.135.231-.264.356-.388s.256-.241.394-.352.279-.215.426-.312.3-.187.455-.27.317-.156.48-.224.331-.125.5-.176.341-.093.515-.127.349-.059.524-.077.353-.026.53-.026.354.009.53.026.351.043.524.077.345.077.515.127.336.11.5.176.323.142.48.224.307.173.455.27.289.2.426.312.268.228.394.352.244.253.356.388a5.2,5.2,0,0,1,.316.421,5.085,5.085,0,0,1,.273.449,5.164,5.164,0,0,1,.227.473c.068.162.127.325.179.493s.094.336.129.508a5.079,5.079,0,0,1,.078.518A5.2,5.2,0,0,1,701.938,381.836Zm0,0" transform="translate(-691.102 -376.5)" fill="#302e2e"/></g><g transform="translate(636.797 376.5)" clipPath="url(#c)"><path d="M788.563,381.836a5.2,5.2,0,0,1-.026.523,5.078,5.078,0,0,1-.078.518c-.034.172-.078.341-.129.508s-.111.331-.179.493a5.164,5.164,0,0,1-.227.473,5.09,5.09,0,0,1-.273.449,5.2,5.2,0,0,1-.316.421q-.169.2-.356.388a5.2,5.2,0,0,1-.394.352c-.137.11-.279.215-.426.312s-.3.187-.455.269-.317.157-.48.224-.331.125-.5.176-.341.093-.515.127-.349.059-.524.077-.353.026-.53.026-.354-.009-.53-.026-.351-.043-.524-.077-.345-.077-.515-.127-.336-.11-.5-.176-.323-.142-.48-.224-.307-.172-.455-.269-.289-.2-.426-.312a5.2,5.2,0,0,1-.394-.352c-.125-.124-.244-.253-.356-.388a5.232,5.232,0,0,1-.316-.421,5.3,5.3,0,0,1-.5-.922c-.068-.162-.127-.325-.179-.493s-.094-.336-.129-.508a5.062,5.062,0,0,1-.078-.518,5.187,5.187,0,0,1,0-1.046,5.062,5.062,0,0,1,.078-.518c.034-.172.078-.341.129-.508s.111-.331.179-.493a5.3,5.3,0,0,1,.5-.922,5.232,5.232,0,0,1,.316-.421c.112-.135.231-.264.356-.388s.256-.241.394-.352.279-.215.426-.312.3-.187.455-.27.317-.156.48-.224.331-.125.5-.176.341-.093.515-.127.349-.059.524-.077.353-.026.53-.026.354.009.53.026.351.043.524.077.345.077.515.127.336.11.5.176.323.142.48.224.307.173.455.27.289.2.426.312.268.228.394.352.244.253.356.388a5.2,5.2,0,0,1,.316.421,5.085,5.085,0,0,1,.273.449,5.164,5.164,0,0,1,.227.473c.068.162.127.325.179.493s.094.336.129.508a5.079,5.079,0,0,1,.078.518A5.2,5.2,0,0,1,788.563,381.836Zm0,0" transform="translate(-777.61 -376.5)" fill="#302e2e"/></g></g></svg>