<svg xmlns="http://www.w3.org/2000/svg" xmlns:xlink="http://www.w3.org/1999/xlink" width="51.092" height="54.64" viewBox="0 0 51.092 54.64"><defs><clipPath id="a"><path d="M663.092,289.5H612v54.64h51.092Zm0,0" transform="translate(-612 -289.5)" fill="#302e2e"/></clipPath></defs><g clipPath="url(#a)"><path d="M639.04,330.346c-1.854-.692-3.669-1.49-5.46-2.365a36.842,36.842,0,0,0,5.259,2.856c.457.2.916.4,1.382.582.234.092.464.178.7.277l.714.26.073.025a.891.891,0,0,0-.1.091,1.921,1.921,0,0,0-.243.343,4.222,4.222,0,0,0-.32.764c-.023.065-.044.132-.064.2l-.048.2-.1.4c-.055.268-.092.535-.137.8s-.059.536-.086.807-.038.536-.05.809-.02.535-.023.808l.008.8c0,.536.045,1.071.082,1.607s.1,1.071.166,1.606a25.89,25.89,0,0,0,.59,3.164c.074-1.071.044-2.143.042-3.213l-.073-3.18-.022-.793v-.789c-.014-.536,0-1.053,0-1.578l.029-.785.029-.391.017-.2.027-.191c.018-.128.027-.262.054-.387s.05-.256.085-.377a1.884,1.884,0,0,1,.136-.357,1.015,1.015,0,0,1,.082-.136c.892.312,1.8.6,2.714.851a25.7,25.7,0,0,0,2.974.628,5.233,5.233,0,0,0,1.606-.06,4.1,4.1,0,0,0,1.518-.616,3.167,3.167,0,0,0,1.1-1.26,3.518,3.518,0,0,0,.333-1.607,6.506,6.506,0,0,0-.747-2.761c.052-.045.1-.088.149-.138a3.087,3.087,0,0,0,.312-.356,2.4,2.4,0,0,0,.407-.868,2.258,2.258,0,0,0,.023-.954,2.946,2.946,0,0,0-.117-.452c-.053-.144-.121-.28-.178-.419a.2.2,0,0,0-.078-.091.2.2,0,0,0-.115-.031c-.741.023-1.483.059-2.224.09s-1.484.077-2.227.125c.743.048,1.484.087,2.227.123.69.031,1.383.063,2.074.086.032.086.066.178.091.259a2.411,2.411,0,0,1,.072.38,1.714,1.714,0,0,1-.067.743,1.867,1.867,0,0,1-.356.653,2.338,2.338,0,0,1-.261.273,1.829,1.829,0,0,1-.289.217.317.317,0,0,0-.124.4,6.581,6.581,0,0,1,.687,2.715,2.588,2.588,0,0,1-.286,1.257,2.586,2.586,0,0,1-.856.964,4.06,4.06,0,0,1-2.6.536,27.873,27.873,0,0,1-2.877-.58c-.955-.232-1.9-.509-2.844-.806S639.966,330.687,639.04,330.346ZM651.672,323a3.6,3.6,0,0,0,.036-.725,6.693,6.693,0,0,0-.055-.7c-.025-.234-.052-.466-.084-.7s-.063-.471-.1-.689a.377.377,0,0,1,0-.08.381.381,0,0,1,.036-.149.388.388,0,0,1,.09-.124.393.393,0,0,1,.131-.08.4.4,0,0,1,.152-.024h.019c.272.011.574,0,.859,0a7.861,7.861,0,0,0,.86-.053,5.308,5.308,0,0,0,.843-.145,2.556,2.556,0,0,0,.81-.357,1.627,1.627,0,0,1-.626.742,3.074,3.074,0,0,1-.892.415,4.6,4.6,0,0,1-.948.178c-.178.016-.339.025-.509.027v.291a5.751,5.751,0,0,1-.052.765,3.539,3.539,0,0,1-.178.748A1.788,1.788,0,0,1,651.672,323Zm-34.811-5.973c.113.347.224.691.341,1.037v-.011c.28.98.644,1.928,1.015,2.865l1.143,2.795a20.9,20.9,0,0,1,.973,2.785,8.319,8.319,0,0,1-.031,2.856A24.076,24.076,0,0,1,618.528,335a42.658,42.658,0,0,1-2.827,5.306,25.92,25.92,0,0,0,3.369-5.05c.119-.225.23-.454.337-.684s.225-.459.322-.695l.294-.713c.093-.237.179-.479.27-.714a17.026,17.026,0,0,0,.8-2.978,8.441,8.441,0,0,0,.01-3.155,18.493,18.493,0,0,0-1.1-2.885c-.409-.931-.862-1.827-1.3-2.733-.222-.452-.442-.9-.652-1.36s-.42-.908-.608-1.373v-.01q-.179-.391-.372-.782l.15.112h4.284c.036.09.073.178.113.266.1.211.2.425.3.63a10.633,10.633,0,0,0,.678,1.119,6.02,6.02,0,0,0,.566,1.607,4,4,0,0,0,.517.764,2.31,2.31,0,0,0,.784.6,1.627,1.627,0,0,0,1.021.127,1.414,1.414,0,0,0,.241-.062,1.566,1.566,0,0,0,.227-.093,1.491,1.491,0,0,0,.215-.117,1.355,1.355,0,0,0,.5-.566,1.3,1.3,0,0,0,.1-.477,1.559,1.559,0,0,0-.243-.846,1.951,1.951,0,0,1-.052.8.861.861,0,0,1-.416.527,1.536,1.536,0,0,1-.655.178,1.067,1.067,0,0,1-.605-.148,1.8,1.8,0,0,1-.511-.448,3.957,3.957,0,0,1-.418-.623,8.946,8.946,0,0,1-.616-1.448l-.018-.054a.221.221,0,0,0-.052-.088c-.3-.322-.6-.669-.893-1.014l-.456-.517-.117-.128h4.586a4.4,4.4,0,0,0,2.08-1.339c.063.06.123.123.188.178l.032.031a.158.158,0,0,0,.125.043c.276-.025.553-.059.83-.092.12-.013.239-.029.358-.045.025.032.046.066.071.1a6.6,6.6,0,0,0,1.628,1.556,3.778,3.778,0,0,0,1.036.465c.073.019.15.035.224.048l.019.01a6.35,6.35,0,0,0,4.945,1.389h.057l20.777-1.121s2.256-.046,2.256-1.391c2.078-.357,2.13-2.678,2.13-2.678a72.294,72.294,0,0,0,.235-12.343,1.857,1.857,0,0,0-1.589-1.757l-.576-.1a2,2,0,0,0-.193-.314,2.933,2.933,0,0,0-1.169-.9,6.378,6.378,0,0,0-1.406-.426q-.7-.152-1.41-.27-1.419-.241-2.842-.4c-.95-.1-1.9-.193-2.856-.264q-1.371-.092-2.742-.138l-.021-.025a13.924,13.924,0,0,0-2.892-3.272,18.313,18.313,0,0,0-4-2.522,20.47,20.47,0,0,0-4.5-1.5,17.343,17.343,0,0,0-4.746-.343,21.714,21.714,0,0,0-4.675.831,19.16,19.16,0,0,0-4.347,1.906,17.241,17.241,0,0,0-3.7,2.934,15.164,15.164,0,0,0-2.678,3.851,17.972,17.972,0,0,1,6.686-6.242,21.054,21.054,0,0,1,8.765-2.478,15.909,15.909,0,0,1,2.278,0c2.066.473,5.684,2,9.176,6.876q-2.02.068-4.034.27c1.9.15,3.8.226,5.7.334.948.057,1.9.094,2.842.161l2.837.178c1.9.109,3.783.264,5.668.443q.714.073,1.41.152a6.313,6.313,0,0,1,1.352.279,2.82,2.82,0,0,1,1.143.7,1.574,1.574,0,0,1,.128.151,81.694,81.694,0,0,0-8.237-.937c-4.348-.253-10.737-.373-10.737-.373s-4.347-.739-4.347,8.247c0,10.047,2.687,10.737,2.687,10.737h3.214a37.97,37.97,0,0,1,4.413-2.381l10.443-.237,2.08,1.885-22.834,1.114s-2.406-2.174-2.258-9.529-.41-9.684,1.892-10.71a3.278,3.278,0,0,0-.892-.011,34.5,34.5,0,0,0-11.9,2.54h-.013l-.062.032a23.2,23.2,0,0,0-2.248,1.111v3.4s-.019.212.268.307a.7.7,0,0,0,.335.141l1.195-.032c.05.477.115.952.2,1.428a21.153,21.153,0,0,0,.884,3.331,17.927,17.927,0,0,0,1.45,3.147c.135.232.28.461.43.684a2.552,2.552,0,0,1-1.389.739,39.887,39.887,0,0,1-4.957.2,11.786,11.786,0,0,1-.209-2.071,4.672,4.672,0,0,1,.134-1.13,1.5,1.5,0,0,1,.48-.828.325.325,0,0,1,.088-.059l.092-.056c.073-.021.133-.046.215-.067l.275-.048.14-.025h.135a2.4,2.4,0,0,1,1.072.128,3.26,3.26,0,0,1,1.676,1.571,2.79,2.79,0,0,0-.425-1.218,2.582,2.582,0,0,0-.99-.928,2.691,2.691,0,0,0-1.357-.316h-.178l-.178.021-.339.044a2.951,2.951,0,0,0-.379.115l-.178.1a.852.852,0,0,0-.178.113,1.547,1.547,0,0,0-.284.282l-.12.157-.091.166a1.848,1.848,0,0,0-.143.341,2.038,2.038,0,0,0-.092.345,4.135,4.135,0,0,0-.022,1.345,5.852,5.852,0,0,0,.689,2.028c-.985,0-1.71-.011-1.71-.011s-1.7-.64-3.106-3.569a50.887,50.887,0,0,1-.6-5.275v-.452c.059.013.122.025.188.036l6.677-.178a.925.925,0,0,1-.141-.358v-3.821l.128-.08c.178-.113.7-.387,1.314-.7l-7.419.357c.044-.471.025-1.555-1.13-1.585-1.478-.038-1.582.067-1.7,1.963a40.442,40.442,0,0,0,.227,8.389C613.557,312.576,614.309,315.024,616.862,317.022ZM661.182,302l1.119.329c.4,10.976-.989,11.715-.989,11.715C661.8,310.931,661.182,302,661.182,302Zm-32.246,9.893c-.5-1.318-.939-2.665-1.369-4.024q-.36-1.14-.713-2.289l1.546.055a2.023,2.023,0,0,1,1.931,2.108l.381,6.289a7.29,7.29,0,0,0,.849,2.857,8.813,8.813,0,0,1-.864-1.206A23.826,23.826,0,0,1,628.936,311.892Zm-1.658,1.061c-.473-1-.893-2.025-1.294-3.064s-.758-2.1-1.112-3.161l-.406-1.237,1.905.07c.086.843.22,1.684.38,2.518a26.927,26.927,0,0,0,1.179,4.192,15.682,15.682,0,0,0,1.883,3.648c-.084-.01-.168-.023-.252-.031-.237-.029-.473-.057-.713-.08-.287-.456-.562-.911-.819-1.375S627.515,313.453,627.277,312.953Zm0,0" transform="translate(-612.541 -289.739)" fill="#302e2e"/></g></svg>