<svg xmlns="http://www.w3.org/2000/svg" xmlns:xlink="http://www.w3.org/1999/xlink" width="66.029" height="56.594" viewBox="0 0 66.029 56.594"><defs><clipPath id="a"><path d="M604.5,294h66.029v56.594H604.5Zm0,0" transform="translate(-604.5 -294)" fill="#302e2e"/></clipPath></defs><g transform="translate(-604.5 -294)"><path d="M713.669,347.185q.762,0,1.492-.01c.884-.01,1.625-.02,2.1,0-.02-.077-.045-.16-.078-.252a2.77,2.77,0,0,0-.524-.877,3.31,3.31,0,0,0-1.012-.752,3.587,3.587,0,0,0-1.606-.312,3.378,3.378,0,0,0-2.3.838,4.02,4.02,0,0,0-.683.872,3.732,3.732,0,0,0-.269.552c.265-.01.571-.02.91-.026l1.966-.036" transform="translate(-76.913 -38.194)" fill="#302e2e"/><path d="M637.228,340.332a5.123,5.123,0,0,0,.869-.539,1.871,1.871,0,0,0,.675-1.487,2.373,2.373,0,0,0-.28-1.152,2.736,2.736,0,0,0-.791-.9,4.344,4.344,0,0,0-1.255-.614,6.491,6.491,0,0,0-3.134-.06,9.376,9.376,0,0,0-1.367.412c.026.44.036.9.036,1.383.046,1.235.09,2.309.142,3.219a4.5,4.5,0,0,0,.612.176,6.453,6.453,0,0,0,1.048.13,13.133,13.133,0,0,0,2.44-.18,5.975,5.975,0,0,0,1.006-.387" transform="translate(-16.01 -31.282)" fill="#302e2e"/><path d="M787.909,347.185c.508,0,1.007,0,1.492-.01.888-.01,1.621-.02,2.1,0-.02-.077-.045-.16-.076-.252a2.842,2.842,0,0,0-.526-.877,3.291,3.291,0,0,0-1.012-.752,3.577,3.577,0,0,0-1.606-.312,3.389,3.389,0,0,0-2.3.838,4.023,4.023,0,0,0-.68.872,3.788,3.788,0,0,0-.272.552c.267-.01.573-.02.912-.026l1.966-.036" transform="translate(-130.631 -38.194)" fill="#302e2e"/><g transform="translate(604.5 294)" clipPath="url(#a)"><path d="M653.7,333.014l8.989,8.036-3.061,2.693-8.989-8.033-3.964,11.852L632.9,317.142l34.185,12.448Zm-20.977-21.448a1.943,1.943,0,0,1-.52.621,2.763,2.763,0,0,1-.843.44,3.657,3.657,0,0,1-1.141.166,3.376,3.376,0,0,1-1.168-.2,3.846,3.846,0,0,1-.939-.487,2.575,2.575,0,0,1-.655-.685,1.493,1.493,0,0,1-.247-.794.61.61,0,0,1,.161-.464.913.913,0,0,1,.521-.166.7.7,0,0,1,.689.3,3,3,0,0,1,.262.446l0,0c.055.095.115.188.179.28a.991.991,0,0,0,.228.236,1.2,1.2,0,0,0,.357.172,2.486,2.486,0,0,0,1.229-.009,1.2,1.2,0,0,0,.38-.189.678.678,0,0,0,.186-.208.375.375,0,0,0,.053-.164.612.612,0,0,0-.21-.5,2.214,2.214,0,0,0-.662-.371c-.291-.106-.609-.2-.949-.292a5.958,5.958,0,0,1-1.029-.364,2.578,2.578,0,0,1-.839-.6,1.494,1.494,0,0,1-.36-1.036,2.1,2.1,0,0,1,.1-.579,1.869,1.869,0,0,1,.393-.691,2.364,2.364,0,0,1,.812-.57,3.175,3.175,0,0,1,1.316-.237,3.824,3.824,0,0,1,1.142.158,2.618,2.618,0,0,1,.883.454,1.945,1.945,0,0,1,.754,1.572c0,.391-.273.626-.731.626a.757.757,0,0,1-.488-.14.7.7,0,0,1-.222-.388l-.007-.051c0-.021-.007-.086-.018-.19a.686.686,0,0,0-.133-.3,1.167,1.167,0,0,0-.409-.316,2.014,2.014,0,0,0-.855-.14,1.427,1.427,0,0,0-.593.1.987.987,0,0,0-.322.231.641.641,0,0,0-.138.249,1.013,1.013,0,0,0-.035.213.371.371,0,0,0,.181.341,2.985,2.985,0,0,0,.685.325q.447.154.958.294a5.477,5.477,0,0,1,1.035.4,2.564,2.564,0,0,1,.839.682,1.723,1.723,0,0,1,.35,1.115A1.5,1.5,0,0,1,632.722,311.567Zm-6.028-2.349a.821.821,0,0,1-.793.317c-.739,0-1.616.014-2.608.036-.481.014-.951.027-1.4.043-.358.01-.711.029-1.062.053a2.435,2.435,0,0,0,.121.562,1.663,1.663,0,0,0,.411.638,2.042,2.042,0,0,0,.744.435,3.523,3.523,0,0,0,1.146.164,2.11,2.11,0,0,0,.561-.077,4.185,4.185,0,0,0,.636-.221,1.994,1.994,0,0,0,.892-.824.679.679,0,0,1,.525-.27.847.847,0,0,1,.486.125.694.694,0,0,1,.3.4.641.641,0,0,1-.133.566l-.066.094-.068.1L626,311.9v-.128l-.056.048a4.082,4.082,0,0,1-.783.511,4.389,4.389,0,0,1-1.908.444,4.57,4.57,0,0,1-1.756-.309,3.632,3.632,0,0,1-1.237-.809,3.1,3.1,0,0,1-.723-1.142,3.773,3.773,0,0,1-.226-1.281,3.35,3.35,0,0,1,.259-1.289,3.483,3.483,0,0,1,.766-1.136,3.878,3.878,0,0,1,1.227-.8,4.658,4.658,0,0,1,3.174-.059,3.983,3.983,0,0,1,1.143.632,2.906,2.906,0,0,1,.737.867,1.981,1.981,0,0,1,.262.952A1.5,1.5,0,0,1,626.694,309.218Zm-11.067.835q1.142.717,2.316,1.424a.57.57,0,0,1,.237.507.668.668,0,0,1-.175.372.758.758,0,0,1-.41.229c-.187.035-.4-.018-.982-.385l-4.074-2.585c-.021.838-.03,1.47-.025,1.838a4.43,4.43,0,0,1-.021.825.613.613,0,0,1-.262.4.82.82,0,0,1-.457.136.774.774,0,0,1-.467-.142.557.557,0,0,1-.216-.473c.023-.461.043-.9.059-1.321s.037-.82.061-1.19c.025-.354.018-1.128-.02-2.3-.028-.931-.063-1.627-.11-2.073a.65.65,0,0,1-.381-.176.481.481,0,0,1,.005-.758l.3-.231a.365.365,0,0,0,0-.069,1.39,1.39,0,0,1-.015-.14.624.624,0,0,1,.587-.709h.011c.469,0,.628.217.687.349l.009.049a8.593,8.593,0,0,1,.922-.209,6.939,6.939,0,0,1,2.763.069,3.9,3.9,0,0,1,1.292.562,2.828,2.828,0,0,1,.883.957,2.541,2.541,0,0,1,.294,1.349,2.163,2.163,0,0,1-.806,1.682,3.89,3.89,0,0,1-.784.517,4.5,4.5,0,0,1-.943.356,8.743,8.743,0,0,1-1.017.174,3.749,3.749,0,0,1-.739.049Zm17.888-2.11a3.466,3.466,0,0,1,.766-1.136,3.866,3.866,0,0,1,1.227-.8,4.658,4.658,0,0,1,3.174-.059,3.983,3.983,0,0,1,1.143.632,2.916,2.916,0,0,1,.738.867,1.993,1.993,0,0,1,.262.952,1.506,1.506,0,0,1-.183.823.817.817,0,0,1-.793.317c-.74,0-1.617.014-2.609.036-.481.014-.951.027-1.4.043-.359.01-.711.029-1.062.053a2.413,2.413,0,0,0,.121.562,1.672,1.672,0,0,0,.411.638,2.048,2.048,0,0,0,.744.435,3.524,3.524,0,0,0,1.147.164,2.114,2.114,0,0,0,.559-.077,4.19,4.19,0,0,0,.636-.221,1.994,1.994,0,0,0,.892-.824.679.679,0,0,1,.525-.27.876.876,0,0,1,.486.125.688.688,0,0,1,.3.4.642.642,0,0,1-.133.566l-.066.094c-.022.034-.046.067-.07.1l-.384.543v-.128l-.056.048a4.082,4.082,0,0,1-.783.511,4.386,4.386,0,0,1-1.907.444,4.571,4.571,0,0,1-1.758-.309,3.617,3.617,0,0,1-1.236-.809,3.1,3.1,0,0,1-.725-1.142,3.773,3.773,0,0,1-.226-1.281A3.366,3.366,0,0,1,633.515,307.943Zm8.062-2.25a.862.862,0,0,1,.929-.024.575.575,0,0,1,.294.393l0,.075c0,.067,0,.14,0,.219,0,.038,0,.077.007.118a2.559,2.559,0,0,1,.556-.421,2.533,2.533,0,0,1,.658-.262,2.885,2.885,0,0,1,.624-.076,3.294,3.294,0,0,1,1.086.2,1.989,1.989,0,0,1,.72.473,1.691,1.691,0,0,1,.382.658,2.441,2.441,0,0,1,.106.727,1.739,1.739,0,0,1-.446,1.177l-.5.573v-.25a1.415,1.415,0,0,1-.495.084c-.711,0-1.071-.181-1.071-.54a.618.618,0,0,1,.14-.427.743.743,0,0,1,.317-.215,2.287,2.287,0,0,1,.309-.083.773.773,0,0,0,.2-.057.234.234,0,0,0,.1-.078.328.328,0,0,0,.034-.184,1.113,1.113,0,0,0-.047-.314.629.629,0,0,0-.135-.235.673.673,0,0,0-.249-.158,1.071,1.071,0,0,0-.951.111,1.6,1.6,0,0,0-.415.555,4.077,4.077,0,0,0-.294.855,9.772,9.772,0,0,0-.172,1.018c-.038.353-.066.7-.081,1.038s-.029.65-.038.922l-.035.681a.592.592,0,0,1-.273.468.861.861,0,0,1-.964,0,.571.571,0,0,1-.25-.491c0-.154,0-.327.011-.521s.011-.417.011-.693q0-.717-.053-1.884c-.038-.8-.117-1.787-.234-2.931A.566.566,0,0,1,641.576,305.694Zm6.119.3a.669.669,0,0,1,.473-.17.843.843,0,0,1,.439.132,1.049,1.049,0,0,1,.318.282l.042.038,0,.021a3.515,3.515,0,0,1,.144.419c.055.186.124.405.205.654s.163.528.256.829.183.594.287.9.2.593.307.879.21.54.314.763c.088.188.168.344.24.472.065-.113.135-.258.212-.426.1-.218.2-.468.312-.75s.218-.582.33-.889c.161-.4.3-.795.429-1.179l.468-1.441a1.992,1.992,0,0,1,.095-.25h0a.912.912,0,0,1,.308-.419.874.874,0,0,1,.53-.2.652.652,0,0,1,.461.19.69.69,0,0,1,.187.523l-.013.076-.092.25.007,0c-.064.194-.152.468-.265.824s-.249.758-.4,1.186-.325.869-.513,1.316a12.864,12.864,0,0,1-.587,1.234,5.147,5.147,0,0,1-.64.938,1.108,1.108,0,0,1-.819.443,1.4,1.4,0,0,1-1.161-.833c-.115-.207-.233-.437-.357-.687s-.249-.541-.373-.863c-.122-.29-.236-.586-.346-.883s-.219-.6-.323-.9c-.1-.332-.19-.612-.278-.847l-.038-.1c-.073-.193-.135-.36-.192-.5a1.505,1.505,0,0,1-.137-.568A.606.606,0,0,1,647.695,305.992Zm7.041,1.951a3.489,3.489,0,0,1,.766-1.136,3.865,3.865,0,0,1,1.227-.8,4.658,4.658,0,0,1,3.174-.059,3.983,3.983,0,0,1,1.143.632,2.89,2.89,0,0,1,.737.867,1.969,1.969,0,0,1,.263.952,1.509,1.509,0,0,1-.183.823.823.823,0,0,1-.793.317c-.739,0-1.615.014-2.609.036-.481.014-.951.027-1.4.043-.357.01-.711.029-1.062.053a2.378,2.378,0,0,0,.122.562,1.675,1.675,0,0,0,.41.638,2.049,2.049,0,0,0,.745.435,3.513,3.513,0,0,0,1.146.164,2.123,2.123,0,0,0,.561-.077,4.212,4.212,0,0,0,.635-.221,1.994,1.994,0,0,0,.892-.824.679.679,0,0,1,.525-.27.873.873,0,0,1,.486.125.689.689,0,0,1,.3.4.638.638,0,0,1-.133.566l-.066.094c-.022.034-.047.067-.07.1l-.384.543v-.128c-.018.016-.038.032-.055.048a4.094,4.094,0,0,1-.784.511,4.282,4.282,0,0,1-.924.329,4.225,4.225,0,0,1-.984.115,4.576,4.576,0,0,1-1.758-.309,3.627,3.627,0,0,1-1.236-.809,3.086,3.086,0,0,1-.723-1.142,3.748,3.748,0,0,1-.226-1.281A3.37,3.37,0,0,1,654.736,307.943Zm13.639,18.866-10.71-3.9c6.168-2.253,10.547-7.627,10.547-13.887,0-8.275-7.632-15.044-16.961-15.044h-29.74c-9.329,0-16.961,6.769-16.961,15.044s7.632,15.044,16.961,15.044h10.871l11.147,24.617a3.413,3.413,0,0,0,3.144,1.886c.054,0,.106,0,.16,0a3.341,3.341,0,0,0,3.092-2.149l2.337-6.987,4.96,4.432a3.7,3.7,0,0,0,4.793.017l3.061-2.693a2.774,2.774,0,0,0,.019-4.254l-4.96-4.434,7.892-2.017a3.109,3.109,0,0,0,2.445-2.727,3,3,0,0,0-2.1-2.945" transform="translate(-604.536 -293.983)" fill="#302e2e"/></g><path d="M667.864,346.049a3.3,3.3,0,0,0-1.014-.752,3.574,3.574,0,0,0-1.6-.312,3.386,3.386,0,0,0-2.3.838,4.085,4.085,0,0,0-.682.872,3.963,3.963,0,0,0-.27.552c.267-.01.573-.02.912-.026l1.966-.036q.762,0,1.492-.01c.889-.01,1.621-.02,2.1,0-.02-.077-.045-.16-.078-.252a2.8,2.8,0,0,0-.524-.877" transform="translate(-41.601 -38.194)" fill="#302e2e"/></g></svg>