<svg xmlns="http://www.w3.org/2000/svg" xmlns:xlink="http://www.w3.org/1999/xlink" width="58.301" height="34.053" viewBox="0 0 58.301 34.053"><defs><clipPath id="a"><path d="M805,341h6.625v34.053H805Zm0,0" transform="translate(-805 -341)" fill="#302e2e"/></clipPath><clipPath id="b"><path d="M610,341h6.625v34.053H610Zm0,0" transform="translate(-610 -341)" fill="#302e2e"/></clipPath></defs><g transform="translate(-610 -341)"><path d="M673.161,374.944a16.689,16.689,0,1,1,16.662-16.688A16.695,16.695,0,0,1,673.161,374.944Zm0-31.358a14.669,14.669,0,1,0,14.645,14.669A14.674,14.674,0,0,0,673.161,343.586Zm0,0" transform="translate(-34.177 -0.416)" fill="#302e2e"/><path d="M699.7,388.85a1.026,1.026,0,0,1-.466-.114,1.011,1.011,0,0,1-.542-.9V372.161a1.009,1.009,0,0,1,1.587-.828l11.18,7.84a1.01,1.01,0,0,1,0,1.654l-11.18,7.839A1.01,1.01,0,0,1,699.7,388.85Zm1.009-14.749v11.8l8.414-5.9Zm0,0" transform="translate(-65.188 -22.161)" fill="#302e2e"/><path d="M788.3,387.115a1.01,1.01,0,0,1-.918-1.429l.827-1.822a21.989,21.989,0,0,0-.791-19.668,1.009,1.009,0,1,1,1.763-.981,24.015,24.015,0,0,1,.863,21.486l-.827,1.822A1.006,1.006,0,0,1,788.3,387.115Zm0,0" transform="translate(-130.305 -15.946)" fill="#302e2e"/><g transform="translate(661.676 341)" clipPath="url(#a)"><path d="M807.716,375.362a1.01,1.01,0,0,1-.917-1.429,34.509,34.509,0,0,0-1.241-30.867,1.009,1.009,0,1,1,1.763-.982,36.54,36.54,0,0,1,1.314,32.686A1.009,1.009,0,0,1,807.716,375.362Zm0,0" transform="translate(-805.316 -341.416)" fill="#302e2e"/></g><path d="M638.054,387.115a1.008,1.008,0,0,1-.918-.593l-.827-1.822a24.016,24.016,0,0,1,.863-21.485,1.009,1.009,0,1,1,1.763.981,22,22,0,0,0-.791,19.669l.827,1.822a1.01,1.01,0,0,1-.5,1.337A1,1,0,0,1,638.054,387.115Zm0,0" transform="translate(-17.774 -15.946)" fill="#302e2e"/><g transform="translate(610 341)" clipPath="url(#b)"><path d="M614.311,375.358a1.01,1.01,0,0,1-.919-.593,36.542,36.542,0,0,1,1.314-32.685,1.009,1.009,0,1,1,1.762.982,34.511,34.511,0,0,0-1.239,30.868,1.01,1.01,0,0,1-.5,1.337A1,1,0,0,1,614.311,375.358Zm0,0" transform="translate(-610.116 -341.412)" fill="#302e2e"/></g></g></svg>