<svg xmlns="http://www.w3.org/2000/svg" xmlns:xlink="http://www.w3.org/1999/xlink" width="38.74" height="47.202" viewBox="0 0 38.74 47.202"><defs><clipPath id="a"><path d="M632,441h38.74v17.524H632Zm0,0" transform="translate(-632 -441)" fill="#302e2e"/></clipPath></defs><g transform="translate(-632 -306.361)"><path d="M670.2,319.586a1.472,1.472,0,0,0-.746-.909,9.618,9.618,0,0,0-.245-2.853,11.444,11.444,0,0,0-.868-2.4,11.663,11.663,0,0,0-1.757-2.567,12.516,12.516,0,0,0-2.726-2.32c-9.241-5.878-22,1.075-21.009,10.147a1.463,1.463,0,0,0-.74.905,3.692,3.692,0,1,0,0,7.367,1.552,1.552,0,0,0,1.52,1.116,1.536,1.536,0,0,0,1.6-1.468v-6.661a1.407,1.407,0,0,0-.606-1.126,11.317,11.317,0,0,1,3.256-6.221,12.438,12.438,0,0,1,11.361-2.731,11.99,11.99,0,0,1,5.038,2.884,11.093,11.093,0,0,1,3.405,6.069c-.944.7-.605,1.31-.605,7.787a1.425,1.425,0,0,0,.723,1.2v.565a1.875,1.875,0,0,1-.294,1.011c-2.088,3.264-2.226,3.6-5.381,4.609-.994.317-2.114.455-3.246.732a1.644,1.644,0,1,0,.362,1.431c.765-.187,1.552-.3,2.292-.524,4.07-1.242,5.4-1.979,7.556-6.1a2.736,2.736,0,0,0,.311-1.263v-.364a1.466,1.466,0,0,0,.8-.941,3.69,3.69,0,1,0,0-7.363" transform="translate(-4.805)" fill="#302e2e"/><g transform="translate(632 336.039)" clip-path="url(#a)"><path d="M651.549,449.018c1.307-1.838,2.445-3.419,3.56-5.015,1.307-1.87,2.624-2.475,4.688-1.777,2.623.888,5.22,1.88,7.759,2.989a4.989,4.989,0,0,1,3.268,5.174c-.069,1.242,0,2.488-.017,3.732-.044,3.427-1.6,5.022-4.987,5.04-4.371.027-8.742.009-13.114.009-5.08,0-10.162.012-15.24-.008-3.634-.017-5.165-1.573-5.185-5.2-.008-1.185.059-2.372-.015-3.552a5.072,5.072,0,0,1,3.41-5.276c2.543-1.1,5.152-2.057,7.78-2.93,2.241-.747,2.935-.412,4.323,1.537,1.194,1.679,2.4,3.353,3.77,5.272" transform="translate(-632.198 -441.656)" fill="#302e2e"/></g><path d="M696.217,340.78a15.116,15.116,0,0,1-4.448,10.085,6.889,6.889,0,0,1-9.62,0c-3.737-3.66-4.916-8.313-4.337-13.338a6.44,6.44,0,0,1,4.584-5.578c3.992-1.31,7.858-1.44,11.371,1.36,2.052,1.632,2.52,3.874,2.45,7.468" transform="translate(-35.605 -19.252)" fill="#302e2e"/></g></svg>