<svg xmlns="http://www.w3.org/2000/svg" xmlns:xlink="http://www.w3.org/1999/xlink" width="70" height="59.394" viewBox="0 0 70 59.394"><defs><clipPath id="a"><path d="M604.5,348h51.061v46.97H604.5Zm0,0" transform="translate(-604.5 -348)" fill="#302e2e"/></clipPath><clipPath id="b"><path d="M667,307h51.061v46.97H667Zm0,0" transform="translate(-667 -307)" fill="#302e2e"/></clipPath></defs><g transform="translate(-604.5 -307)"><g transform="translate(604.5 319.424)" clip-path="url(#a)"><path d="M617.843,348.2,604.7,362.829l5.1-.4s-.549,8.475,3.332,15.665a30.634,30.634,0,0,0,9.568,11.076c1.957,1.622,8.345,5.446,17.853,5.844s15.009-3.4,15.009-3.4l-3.179-6.211s-7.337,4.008-15.009,2.57-9.629-3.794-11.983-5.324c-2.384-1.529-8.438-9.179-8.834-17.195l2.445,2.234Zm0,0" transform="translate(-604.639 -348.141)" fill="#302e2e"/></g><g transform="translate(623.439 307)" clip-path="url(#b)"><path d="M705.164,354.089l13.144-14.625-5.1.4s.549-8.475-3.332-15.665a30.864,30.864,0,0,0-9.537-11.107c-1.957-1.622-8.346-5.446-17.853-5.844s-15.04,3.4-15.04,3.4l3.18,6.242s7.337-4.008,15.009-2.57,9.629,3.763,11.983,5.323c2.384,1.531,8.438,9.18,8.834,17.2L704,334.6Zm0,0" transform="translate(-667.307 -307.151)" fill="#302e2e"/></g></g></svg>