<svg xmlns="http://www.w3.org/2000/svg" xmlns:xlink="http://www.w3.org/1999/xlink" width="43.365" height="33.087" viewBox="0 0 43.365 33.087"><defs><clipPath id="a"><path d="M604.5,316.5h43.365v33.087H604.5Zm0,0" transform="translate(-604.5 -316.5)" fill="#302e2e"/></clipPath></defs><g transform="translate(-604.5 -316.5)"><path d="M672.479,359.395l4.426-4.414c-.076-.124-.158-.246-.241-.364l-4.535,4.522Zm0,0" transform="translate(-54.933 -30.961)" fill="#302e2e"/><path d="M668.487,355.742l4.637-4.626c-.09-.112-.183-.219-.281-.323l-4.706,4.694Zm0,0" transform="translate(-51.691 -27.855)" fill="#302e2e"/><path d="M666.266,348.716l4.011-4c-.117-.086-.236-.169-.358-.247l-3.653,3.643v.6Zm0,0" transform="translate(-50.171 -22.718)" fill="#302e2e"/><path d="M666.266,345.416l3.222-3.213c-.132-.073-.265-.14-.4-.2l-2.82,2.812Zm0,0" transform="translate(-50.171 -20.713)" fill="#302e2e"/><path d="M666.266,342.546l2.337-2.331c-.147-.057-.3-.108-.45-.155l-1.887,1.882Zm0,0" transform="translate(-50.171 -19.136)" fill="#302e2e"/><path d="M666.266,340.2l1.343-1.34c-.168-.038-.339-.069-.51-.1l-.833.831Zm0,0" transform="translate(-50.171 -18.086)" fill="#302e2e"/><path d="M666.266,352.393l4.716-4.7c-.1-.1-.209-.2-.318-.288l-4.4,4.387Zm0,0" transform="translate(-50.171 -25.101)" fill="#302e2e"/><path d="M666.474,338.365c-.07-.005-.139-.007-.208-.01v.219Zm0,0" transform="translate(-50.171 -17.752)" fill="#302e2e"/><path d="M676.475,363.418l4.123-4.112c-.062-.139-.127-.275-.2-.409l-4.277,4.266Zm0,0" transform="translate(-58.179 -34.439)" fill="#302e2e"/><path d="M684.475,372.8l3.186-3.177c-.022-.176-.048-.35-.082-.521l-3.453,3.443Zm0,0" transform="translate(-64.677 -42.727)" fill="#302e2e"/><path d="M680.475,367.861l3.718-3.707c-.044-.155-.092-.309-.145-.459l-3.923,3.912Zm0,0" transform="translate(-61.428 -38.335)" fill="#302e2e"/><path d="M692.467,384.913l1.476-1.473a6.962,6.962,0,0,0,.171-.773l-2,1.991Zm0,0" transform="translate(-71.169 -53.746)" fill="#302e2e"/><path d="M688.468,378.383l2.479-2.473c.007-.125.011-.25.011-.377,0-.078,0-.155-.006-.232l-2.834,2.827Zm0,0" transform="translate(-67.92 -47.762)" fill="#302e2e"/><path d="M696.328,393.449a7.169,7.169,0,0,0,.455-.824l-.67.667Zm0,0" transform="translate(-74.415 -61.834)" fill="#302e2e"/><g transform="translate(604.5 316.5)" clipPath="url(#a)"><path d="M645.71,349.469H607.36a2.426,2.426,0,0,1-2.426-2.42V318.812a2.427,2.427,0,0,1,2.426-2.421H645.71a2.427,2.427,0,0,1,2.426,2.421v28.237A2.425,2.425,0,0,1,645.71,349.469ZM607.36,317.36a1.456,1.456,0,0,0-1.456,1.452v28.237a1.456,1.456,0,0,0,1.456,1.452H645.71a1.456,1.456,0,0,0,1.456-1.452V318.812a1.456,1.456,0,0,0-1.456-1.452Zm0,0" transform="translate(-604.853 -316.411)" fill="#302e2e"/></g><path d="M736.68,367.145h1.863v6.081H736.68Zm0,0" transform="translate(-107.366 -41.137)" fill="#302e2e"/><path d="M752.078,369.848h1.862v5.574h-1.862Zm0,0" transform="translate(-119.873 -43.333)" fill="#302e2e"/><path d="M767.469,375.25h1.863v4.56h-1.863Zm0,0" transform="translate(-132.375 -47.721)" fill="#302e2e"/><path d="M782.867,361.746h1.862v7.095h-1.862Zm0,0" transform="translate(-144.882 -36.752)" fill="#302e2e"/><path d="M798.262,361.746h1.863v7.095h-1.863Zm0,0" transform="translate(-157.387 -36.752)" fill="#302e2e"/><path d="M659.451,421.727l-9.781,4.793-3.56-2.149-6.421,2.911-10.4.916-4.1,2.9h34.23Zm0,0" transform="translate(-16.807 -85.473)" fill="#302e2e"/><path d="M633.729,352.591a7.175,7.175,0,0,1-.27-14.345v7.1h0l6.013,4.382A7.193,7.193,0,0,1,633.729,352.591Zm0,0" transform="translate(-17.898 -17.664)" fill="#302e2e"/></g></svg>