<svg xmlns="http://www.w3.org/2000/svg" xmlns:xlink="http://www.w3.org/1999/xlink" width="35.509" height="35.509" viewBox="0 0 35.509 35.509"><defs><clipPath id="a"><path d="M755,289.5h12.374v12.682H755Zm0,0" transform="translate(-755 -289.5)" fill="#302e2e"/></clipPath><clipPath id="b"><path d="M604.5,438h12.374v12.682H604.5Zm0,0" transform="translate(-604.5 -438)" fill="#302e2e"/></clipPath></defs><g transform="translate(-604.5 -289.5)"><path d="M659.542,351.425a6.789,6.789,0,0,0,2.063-4.277h-4.1a7,7,0,0,0,.65,2.316,7.025,7.025,0,0,0,1.392,1.961Zm0,0" transform="translate(-44.853 -48.786)" fill="#302e2e"/><path d="M631.5,314.682v-13.73a1.844,1.844,0,0,0-.034-.364,1.881,1.881,0,0,0-.785-1.193,1.886,1.886,0,0,0-1.033-.325H615.923a1.872,1.872,0,0,0-.367.036,1.893,1.893,0,0,0-.353.107,1.875,1.875,0,0,0-.844.694,1.809,1.809,0,0,0-.174.325,1.864,1.864,0,0,0-.142.72v13.73a1.8,1.8,0,0,0,.039.363,1.873,1.873,0,0,0,.518.951,1.816,1.816,0,0,0,.285.23,1.861,1.861,0,0,0,.674.274,1.9,1.9,0,0,0,.364.034h13.725a1.863,1.863,0,0,0,.361-.037,1.865,1.865,0,0,0,1.495-1.815Zm-3.814-1.945a.769.769,0,0,1,.144.016.784.784,0,0,1,.138.044.771.771,0,0,1,.127.07.762.762,0,0,1,.2.2.762.762,0,0,1,.069.128.781.781,0,0,1,.043.138.771.771,0,0,1,.016.144.747.747,0,0,1-.014.145.729.729,0,0,1-.11.268.751.751,0,0,1-.2.205.745.745,0,0,1-.268.111.743.743,0,0,1-.145.014,8.451,8.451,0,0,1-1.308-.1,8.314,8.314,0,0,1-1.277-.3,8.4,8.4,0,0,1-1.215-.493,8.534,8.534,0,0,1-1.125-.675,8.32,8.32,0,0,1-4.889,1.565.743.743,0,0,1-.145-.014.756.756,0,0,1-.139-.042.736.736,0,0,1-.129-.068.762.762,0,0,1-.2-.2.76.76,0,0,1-.068-.129.715.715,0,0,1-.042-.139.743.743,0,0,1-.014-.145.766.766,0,0,1,.016-.144.74.74,0,0,1,.044-.138.808.808,0,0,1,.069-.127.755.755,0,0,1,.2-.2.754.754,0,0,1,.266-.113.769.769,0,0,1,.144-.017,7.013,7.013,0,0,0,3.715-1.071,8.564,8.564,0,0,1-2.139-3.769,8.432,8.432,0,0,1-.254-1.436h-1.315a.691.691,0,0,1-.141-.02.736.736,0,0,1-.134-.046.739.739,0,0,1-.23-.163.75.75,0,0,1-.088-.111.774.774,0,0,1-.065-.126.756.756,0,0,1-.04-.136.725.725,0,0,1,0-.282.772.772,0,0,1,.04-.136.828.828,0,0,1,.065-.126.785.785,0,0,1,.088-.111.758.758,0,0,1,.108-.093.739.739,0,0,1,.122-.071.734.734,0,0,1,.275-.066h4.144v-2.852a.767.767,0,0,1,.017-.144.785.785,0,0,1,.112-.265.749.749,0,0,1,.092-.112.714.714,0,0,1,.111-.093.733.733,0,0,1,.127-.07.745.745,0,0,1,.137-.044.724.724,0,0,1,.143-.018.693.693,0,0,1,.146.014.748.748,0,0,1,.14.042.783.783,0,0,1,.129.069.7.7,0,0,1,.113.093.709.709,0,0,1,.093.113.744.744,0,0,1,.069.129.718.718,0,0,1,.043.14.748.748,0,0,1,.014.145v2.852h4.168a.786.786,0,0,1,.14.02.758.758,0,0,1,.134.046.772.772,0,0,1,.123.071.786.786,0,0,1,.107.093.732.732,0,0,1,.152.237.707.707,0,0,1,.04.136.758.758,0,0,1,0,.282.763.763,0,0,1-.105.262.706.706,0,0,1-.088.111.715.715,0,0,1-.23.163.714.714,0,0,1-.134.046.689.689,0,0,1-.14.02h-1.334a8.395,8.395,0,0,1-2.37,5.2,6.871,6.871,0,0,0,3.714,1.071Zm0,0" transform="translate(-8.076 -8.099)" fill="#302e2e"/><path d="M728,397.328H716.245v.508a3.263,3.263,0,0,1-.018.327,3.32,3.32,0,0,1-.13.641c-.032.1-.069.207-.111.308a3.191,3.191,0,0,1-.141.3,3.272,3.272,0,0,1-.169.281,3.212,3.212,0,0,1-.2.263c-.069.084-.143.165-.22.243s-.159.15-.243.22-.172.134-.263.195a3.144,3.144,0,0,1-.281.169q-.144.077-.3.141c-.1.041-.2.079-.309.111s-.21.059-.317.08a3.375,3.375,0,0,1-.651.065h-.483v11.763a1.9,1.9,0,0,0,.035.363,1.865,1.865,0,0,0,.279.669,1.816,1.816,0,0,0,.232.281,1.885,1.885,0,0,0,.282.231,1.848,1.848,0,0,0,.322.171,1.873,1.873,0,0,0,.712.138H728a1.842,1.842,0,0,0,.709-.141,1.817,1.817,0,0,0,.32-.171,1.848,1.848,0,0,0,.511-.511,1.817,1.817,0,0,0,.171-.321,1.86,1.86,0,0,0,.106-.347,1.831,1.831,0,0,0,.035-.362V399.207a1.847,1.847,0,0,0-.031-.365,1.867,1.867,0,0,0-.1-.352,1.837,1.837,0,0,0-.169-.325,1.86,1.86,0,0,0-.512-.519,1.85,1.85,0,0,0-1.038-.318ZM725.17,411.84a.75.75,0,0,1-.141.037.742.742,0,0,1-.145.009.746.746,0,0,1-.283-.065.732.732,0,0,1-.127-.072.7.7,0,0,1-.111-.095.751.751,0,0,1-.091-.114.8.8,0,0,1-.067-.129l-.892-2.47h-4.326l-.9,2.47a.736.736,0,0,1-.111.193.754.754,0,0,1-.163.152.75.75,0,0,1-.689.084.685.685,0,0,1-.129-.062.752.752,0,0,1-.114-.086.728.728,0,0,1-.221-.652.728.728,0,0,1,.037-.138l3.755-10.178a.752.752,0,0,1,.106-.2.737.737,0,0,1,.16-.16.75.75,0,0,1,.425-.144.774.774,0,0,1,.23.037.77.77,0,0,1,.376.264.778.778,0,0,1,.113.2L725.6,410.9a.786.786,0,0,1,.038.139.719.719,0,0,1,.009.144.733.733,0,0,1-.139.4.772.772,0,0,1-.1.108.786.786,0,0,1-.116.086.75.75,0,0,1-.13.062Zm0,0" transform="translate(-91.329 -91.253)" fill="#302e2e"/><path d="M758.719,439.268h3.211l-1.616-4.358Zm0,0" transform="translate(-130.513 -123.058)" fill="#302e2e"/><g transform="translate(627.635 289.5)" clipPath="url(#a)"><path d="M767.561,301.008q0-.285-.014-.569t-.042-.569q-.028-.283-.07-.565t-.1-.562q-.056-.279-.125-.556t-.152-.549q-.083-.273-.178-.541t-.205-.532q-.109-.263-.231-.52t-.256-.509q-.134-.252-.281-.5c-.1-.163-.2-.324-.305-.481s-.215-.313-.328-.465-.23-.3-.351-.449-.244-.291-.372-.432-.258-.279-.393-.413-.272-.265-.413-.393-.284-.252-.431-.372-.3-.238-.449-.351-.308-.223-.466-.328-.318-.207-.481-.3-.328-.192-.5-.281-.337-.175-.509-.256-.345-.158-.521-.231-.352-.141-.531-.205-.359-.123-.541-.178-.365-.106-.549-.152-.37-.088-.556-.125-.374-.07-.562-.1-.376-.052-.565-.07-.378-.032-.568-.042-.379-.014-.569-.014a.766.766,0,0,0-.144.017.742.742,0,0,0-.139.044.7.7,0,0,0-.127.07.728.728,0,0,0-.112.093.713.713,0,0,0-.092.112.748.748,0,0,0-.068.127.714.714,0,0,0-.043.139.786.786,0,0,0-.016.144.769.769,0,0,0,.014.145.74.74,0,0,0,.11.268.742.742,0,0,0,.333.273.709.709,0,0,0,.139.041.687.687,0,0,0,.145.014q.482,0,.963.046t.954.138q.474.091.936.227t.911.316q.448.179.876.4t.834.483q.405.261.784.56t.727.632q.348.333.664.7t.594.759q.279.393.519.812t.44.857q.2.439.355.9t.269.925q.112.469.18.947t.088.959h-2.54a.735.735,0,0,0-.146.013.717.717,0,0,0-.141.041.737.737,0,0,0-.13.069.767.767,0,0,0-.114.093.778.778,0,0,0-.093.113.74.74,0,0,0-.068.13.709.709,0,0,0-.042.141.753.753,0,0,0-.013.146.762.762,0,0,0,.017.144.754.754,0,0,0,.044.139.74.74,0,0,0,.07.127.76.76,0,0,0,.092.112.753.753,0,0,0,.112.092.732.732,0,0,0,.128.068.712.712,0,0,0,.139.043.771.771,0,0,0,.144.016h3.308a.747.747,0,0,0,.145-.013.775.775,0,0,0,.14-.042.688.688,0,0,0,.129-.068.733.733,0,0,0,.114-.093.71.71,0,0,0,.092-.112.69.69,0,0,0,.069-.129.756.756,0,0,0,.043-.139.739.739,0,0,0,.014-.145.67.67,0,0,0-.03-.139A.777.777,0,0,0,767.561,301.008Zm0,0" transform="translate(-755.179 -289.414)" fill="#302e2e"/></g><g transform="translate(604.5 312.327)" clipPath="url(#b)"><path d="M616.09,449.74q-.481,0-.96-.048t-.952-.139q-.472-.092-.934-.228t-.909-.316q-.447-.179-.874-.4t-.832-.481q-.4-.261-.783-.558t-.726-.63q-.348-.332-.664-.7t-.594-.756q-.279-.392-.521-.808t-.441-.855q-.2-.437-.358-.892t-.273-.922q-.114-.467-.184-.944t-.094-.957h2.568a.837.837,0,0,0,.144-.016.745.745,0,0,0,.138-.044.737.737,0,0,0,.127-.068.75.75,0,0,0,.112-.092.788.788,0,0,0,.092-.112.767.767,0,0,0,.113-.265.727.727,0,0,0,.017-.144.688.688,0,0,0-.014-.145.717.717,0,0,0-.042-.14.727.727,0,0,0-.068-.129.7.7,0,0,0-.092-.113.764.764,0,0,0-.113-.093.74.74,0,0,0-.269-.111.727.727,0,0,0-.145-.014h-3.338a.757.757,0,0,0-.143.016.736.736,0,0,0-.374.206.74.74,0,0,0-.089.113.709.709,0,0,0-.065.128.7.7,0,0,0-.04.138.722.722,0,0,0-.011.144.647.647,0,0,0,.02.108,1.081,1.081,0,0,0-.02.139q0,.285.014.569t.042.568q.028.284.07.566c.028.187.06.375.1.561s.079.371.125.555.1.367.152.549.115.362.179.54.132.356.2.531.15.349.231.521.166.341.256.509.183.333.281.5.2.323.3.481.214.313.328.465.229.3.35.449.244.291.372.431.258.279.392.413.272.265.413.393.284.252.431.372.3.237.448.35.307.223.465.328.318.207.48.3.328.192.5.281.337.175.508.256.345.158.52.231.352.142.531.206.358.124.54.179.365.106.548.153.369.088.555.125.374.07.561.1.376.052.565.071.378.033.568.043.38.014.569.015a.745.745,0,0,0,.146-.012.721.721,0,0,0,.271-.109.693.693,0,0,0,.113-.093.709.709,0,0,0,.093-.114.685.685,0,0,0,.067-.13.822.822,0,0,0,.036-.432.718.718,0,0,0-.043-.14.693.693,0,0,0-.069-.129.744.744,0,0,0-.207-.2.752.752,0,0,0-.129-.068.705.705,0,0,0-.141-.041A.728.728,0,0,0,616.09,449.74Zm0,0" transform="translate(-604.499 -438.529)" fill="#302e2e"/></g></g></svg>