<svg xmlns="http://www.w3.org/2000/svg" xmlns:xlink="http://www.w3.org/1999/xlink" width="1920" zoomAndPan="magnify" viewBox="0 0 1440 809.999993" height="1080" preserveAspectRatio="xMidYMid meet" version="1.0"><defs><clipPath id="5c15fa39bd"><path d="M 604.5 455 L 835.5 455 L 835.5 463 L 604.5 463 Z M 604.5 455 " clip-rule="nonzero"/></clipPath><clipPath id="9390b8e71b"><path d="M 777.164062 380.378906 L 829.988281 380.378906 L 829.988281 483 L 777.164062 483 Z M 777.164062 380.378906 " clip-rule="nonzero"/></clipPath><clipPath id="661edadbb3"><path d="M 827.304688 380.378906 L 779.847656 380.378906 C 778.363281 380.378906 777.164062 381.574219 777.164062 383.046875 L 777.164062 480.339844 C 777.164062 481.8125 778.363281 483.007812 779.847656 483.007812 L 827.304688 483.007812 C 828.789062 483.007812 829.988281 481.8125 829.988281 480.339844 L 829.988281 383.046875 C 829.988281 381.574219 828.789062 380.378906 827.304688 380.378906 M 796.066406 385.375 L 811.085938 385.375 C 812.242188 385.226562 812.078125 383.695312 812.078125 383.695312 L 812.078125 382.492188 C 812.078125 382.039062 812.253906 381.726562 812.496094 381.507812 L 826.191406 381.507812 C 827.605469 381.507812 828.753906 382.648438 828.753906 384.054688 L 828.753906 479.335938 C 828.753906 480.738281 827.605469 481.878906 826.191406 481.878906 L 780.957031 481.878906 C 779.542969 481.878906 778.398438 480.738281 778.398438 479.335938 L 778.398438 384.054688 C 778.398438 382.648438 779.542969 381.507812 780.957031 381.507812 L 794.65625 381.507812 C 794.898438 381.726562 795.074219 382.039062 795.074219 382.492188 L 795.074219 383.695312 C 795.074219 383.695312 794.941406 385.203125 796.066406 385.375 " clip-rule="nonzero"/></clipPath><clipPath id="2d522771c2"><path d="M 827.304688 380.378906 L 779.847656 380.378906 C 778.367188 380.378906 777.164062 381.574219 777.164062 383.046875 L 777.164062 480.339844 C 777.164062 481.8125 778.367188 483.007812 779.847656 483.007812 L 827.304688 483.007812 C 828.789062 483.007812 829.988281 481.8125 829.988281 480.339844 L 829.988281 383.046875 C 829.988281 381.574219 828.789062 380.378906 827.304688 380.378906 M 796.070312 385.375 L 811.085938 385.375 C 812.242188 385.226562 812.078125 383.695312 812.078125 383.695312 L 812.078125 382.492188 C 812.078125 382.039062 812.253906 381.726562 812.496094 381.507812 L 826.195312 381.507812 C 827.605469 381.507812 828.753906 382.648438 828.753906 384.054688 L 828.753906 479.335938 C 828.753906 480.738281 827.605469 481.878906 826.195312 481.878906 L 780.957031 481.878906 C 779.542969 481.878906 778.398438 480.738281 778.398438 479.335938 L 778.398438 384.054688 C 778.398438 382.648438 779.542969 381.507812 780.957031 381.507812 L 794.65625 381.507812 C 794.898438 381.726562 795.074219 382.039062 795.074219 382.492188 L 795.074219 383.695312 C 795.074219 383.695312 794.941406 385.203125 796.070312 385.375 " clip-rule="nonzero"/></clipPath><linearGradient x1="0.00000896552" gradientTransform="matrix(52.826611, 0, 0, -52.462627, 777.16315, 431.693156)" y1="0" x2="0.999993" gradientUnits="userSpaceOnUse" y2="0" id="a2545d7c25"><stop stop-opacity="1" stop-color="rgb(4.299927%, 4.299927%, 4.699707%)" offset="0"/><stop stop-opacity="1" stop-color="rgb(4.499817%, 4.490662%, 5.090332%)" offset="0.00390625"/><stop stop-opacity="1" stop-color="rgb(4.699707%, 4.681396%, 5.480957%)" offset="0.0078125"/><stop stop-opacity="1" stop-color="rgb(5.081177%, 4.890442%, 5.871582%)" offset="0.0117188"/><stop stop-opacity="1" stop-color="rgb(5.462646%, 5.099487%, 6.262207%)" offset="0.015625"/><stop stop-opacity="1" stop-color="rgb(5.680847%, 5.52063%, 6.703186%)" offset="0.0195312"/><stop stop-opacity="1" stop-color="rgb(5.899048%, 5.943298%, 7.144165%)" offset="0.0234375"/><stop stop-opacity="1" stop-color="rgb(6.111145%, 6.134033%, 7.484436%)" offset="0.0273438"/><stop stop-opacity="1" stop-color="rgb(6.324768%, 6.324768%, 7.824707%)" offset="0.03125"/><stop stop-opacity="1" stop-color="rgb(6.515503%, 6.712341%, 8.215332%)" offset="0.0351562"/><stop stop-opacity="1" stop-color="rgb(6.706238%, 7.099915%, 8.605957%)" offset="0.0390625"/><stop stop-opacity="1" stop-color="rgb(7.096863%, 7.293701%, 8.996582%)" offset="0.0429688"/><stop stop-opacity="1" stop-color="rgb(7.487488%, 7.487488%, 9.387207%)" offset="0.046875"/><stop stop-opacity="1" stop-color="rgb(7.63092%, 7.827759%, 9.593201%)" offset="0.0507812"/><stop stop-opacity="1" stop-color="rgb(7.775879%, 8.169556%, 9.799194%)" offset="0.0546875"/><stop stop-opacity="1" stop-color="rgb(7.98645%, 8.358765%, 10.174561%)" offset="0.0585938"/><stop stop-opacity="1" stop-color="rgb(8.198547%, 8.5495%, 10.549927%)" offset="0.0625"/><stop stop-opacity="1" stop-color="rgb(8.415222%, 8.790588%, 10.990906%)" offset="0.0664062"/><stop stop-opacity="1" stop-color="rgb(8.631897%, 9.031677%, 11.431885%)" offset="0.0703125"/><stop stop-opacity="1" stop-color="rgb(9.014893%, 9.414673%, 11.819458%)" offset="0.0742188"/><stop stop-opacity="1" stop-color="rgb(9.399414%, 9.799194%, 12.208557%)" offset="0.078125"/><stop stop-opacity="1" stop-color="rgb(9.596252%, 9.996033%, 12.550354%)" offset="0.0820312"/><stop stop-opacity="1" stop-color="rgb(9.793091%, 10.194397%, 12.893677%)" offset="0.0859375"/><stop stop-opacity="1" stop-color="rgb(9.996033%, 10.585022%, 13.284302%)" offset="0.0898438"/><stop stop-opacity="1" stop-color="rgb(10.198975%, 10.975647%, 13.674927%)" offset="0.09375"/><stop stop-opacity="1" stop-color="rgb(10.577393%, 11.164856%, 14.065552%)" offset="0.0976562"/><stop stop-opacity="1" stop-color="rgb(10.955811%, 11.355591%, 14.456177%)" offset="0.101562"/><stop stop-opacity="1" stop-color="rgb(11.177063%, 11.59668%, 14.897156%)" offset="0.105469"/><stop stop-opacity="1" stop-color="rgb(11.399841%, 11.837769%, 15.338135%)" offset="0.109375"/><stop stop-opacity="1" stop-color="rgb(11.608887%, 12.17804%, 15.72876%)" offset="0.113281"/><stop stop-opacity="1" stop-color="rgb(11.819458%, 12.518311%, 16.119385%)" offset="0.117188"/><stop stop-opacity="1" stop-color="rgb(12.008667%, 12.709045%, 16.51001%)" offset="0.121094"/><stop stop-opacity="1" stop-color="rgb(12.199402%, 12.89978%, 16.900635%)" offset="0.125"/><stop stop-opacity="1" stop-color="rgb(12.539673%, 13.290405%, 17.242432%)" offset="0.128906"/><stop stop-opacity="1" stop-color="rgb(12.88147%, 13.68103%, 17.585754%)" offset="0.132812"/><stop stop-opacity="1" stop-color="rgb(13.072205%, 13.871765%, 17.773438%)" offset="0.140625"/><stop stop-opacity="1" stop-color="rgb(13.502502%, 14.480591%, 18.4021%)" offset="0.144531"/><stop stop-opacity="1" stop-color="rgb(13.743591%, 14.898682%, 18.843079%)" offset="0.148438"/><stop stop-opacity="1" stop-color="rgb(14.120483%, 15.110779%, 19.233704%)" offset="0.152344"/><stop stop-opacity="1" stop-color="rgb(14.498901%, 15.324402%, 19.624329%)" offset="0.15625"/><stop stop-opacity="1" stop-color="rgb(14.698792%, 15.515137%, 20.014954%)" offset="0.160156"/><stop stop-opacity="1" stop-color="rgb(14.898682%, 15.705872%, 20.405579%)" offset="0.164062"/><stop stop-opacity="1" stop-color="rgb(15.092468%, 16.096497%, 20.796204%)" offset="0.167969"/><stop stop-opacity="1" stop-color="rgb(15.287781%, 16.487122%, 21.186829%)" offset="0.171875"/><stop stop-opacity="1" stop-color="rgb(15.493774%, 16.693115%, 21.577454%)" offset="0.175781"/><stop stop-opacity="1" stop-color="rgb(15.699768%, 16.899109%, 21.968079%)" offset="0.179688"/><stop stop-opacity="1" stop-color="rgb(16.075134%, 17.230225%, 22.314453%)" offset="0.183594"/><stop stop-opacity="1" stop-color="rgb(16.4505%, 17.562866%, 22.662354%)" offset="0.1875"/><stop stop-opacity="1" stop-color="rgb(16.690063%, 17.796326%, 23.095703%)" offset="0.191406"/><stop stop-opacity="1" stop-color="rgb(16.931152%, 18.031311%, 23.530579%)" offset="0.195312"/><stop stop-opacity="1" stop-color="rgb(17.120361%, 18.414307%, 23.921204%)" offset="0.199219"/><stop stop-opacity="1" stop-color="rgb(17.30957%, 18.798828%, 24.311829%)" offset="0.203125"/><stop stop-opacity="1" stop-color="rgb(17.651367%, 18.995667%, 24.702454%)" offset="0.207031"/><stop stop-opacity="1" stop-color="rgb(17.993164%, 19.194031%, 25.093079%)" offset="0.210938"/><stop stop-opacity="1" stop-color="rgb(18.183899%, 19.396973%, 25.483704%)" offset="0.214844"/><stop stop-opacity="1" stop-color="rgb(18.374634%, 19.599915%, 25.874329%)" offset="0.21875"/><stop stop-opacity="1" stop-color="rgb(18.565369%, 19.978333%, 26.086426%)" offset="0.222656"/><stop stop-opacity="1" stop-color="rgb(18.756104%, 20.35675%, 26.298523%)" offset="0.226562"/><stop stop-opacity="1" stop-color="rgb(18.995667%, 20.596313%, 26.71814%)" offset="0.230469"/><stop stop-opacity="1" stop-color="rgb(19.236755%, 20.837402%, 27.137756%)" offset="0.234375"/><stop stop-opacity="1" stop-color="rgb(19.618225%, 21.217346%, 27.478027%)" offset="0.238281"/><stop stop-opacity="1" stop-color="rgb(19.999695%, 21.598816%, 27.818298%)" offset="0.242188"/><stop stop-opacity="1" stop-color="rgb(20.199585%, 21.798706%, 28.208923%)" offset="0.246094"/><stop stop-opacity="1" stop-color="rgb(20.399475%, 22.000122%, 28.599548%)" offset="0.25"/><stop stop-opacity="1" stop-color="rgb(20.599365%, 22.341919%, 28.990173%)" offset="0.253906"/><stop stop-opacity="1" stop-color="rgb(20.799255%, 22.685242%, 29.380798%)" offset="0.257812"/><stop stop-opacity="1" stop-color="rgb(21.180725%, 22.872925%, 29.771423%)" offset="0.261719"/><stop stop-opacity="1" stop-color="rgb(21.562195%, 23.062134%, 30.162048%)" offset="0.265625"/><stop stop-opacity="1" stop-color="rgb(21.780396%, 23.301697%, 30.603027%)" offset="0.269531"/><stop stop-opacity="1" stop-color="rgb(21.998596%, 23.542786%, 31.044006%)" offset="0.273438"/><stop stop-opacity="1" stop-color="rgb(22.207642%, 23.933411%, 31.434631%)" offset="0.277344"/><stop stop-opacity="1" stop-color="rgb(22.418213%, 24.324036%, 31.825256%)" offset="0.28125"/><stop stop-opacity="1" stop-color="rgb(22.561646%, 24.514771%, 32.165527%)" offset="0.285156"/><stop stop-opacity="1" stop-color="rgb(22.706604%, 24.705505%, 32.505798%)" offset="0.289062"/><stop stop-opacity="1" stop-color="rgb(23.097229%, 25.09613%, 32.896423%)" offset="0.292969"/><stop stop-opacity="1" stop-color="rgb(23.487854%, 25.486755%, 33.287048%)" offset="0.296875"/><stop stop-opacity="1" stop-color="rgb(23.292542%, 25.292969%, 33.093262%)" offset="0.304688"/><stop stop-opacity="1" stop-color="rgb(23.098755%, 25.099182%, 32.723999%)" offset="0.3125"/><stop stop-opacity="1" stop-color="rgb(22.898865%, 24.899292%, 32.511902%)" offset="0.316406"/><stop stop-opacity="1" stop-color="rgb(22.698975%, 24.699402%, 32.475281%)" offset="0.320312"/><stop stop-opacity="1" stop-color="rgb(22.694397%, 24.499512%, 32.330322%)" offset="0.324219"/><stop stop-opacity="1" stop-color="rgb(22.689819%, 24.299622%, 32.18689%)" offset="0.328125"/><stop stop-opacity="1" stop-color="rgb(22.544861%, 24.299622%, 31.993103%)" offset="0.335938"/><stop stop-opacity="1" stop-color="rgb(22.399902%, 24.111938%, 31.599426%)" offset="0.339844"/><stop stop-opacity="1" stop-color="rgb(22.399902%, 23.924255%, 31.399536%)" offset="0.34375"/><stop stop-opacity="1" stop-color="rgb(22.198486%, 23.912048%, 31.221008%)" offset="0.347656"/><stop stop-opacity="1" stop-color="rgb(21.998596%, 23.899841%, 31.04248%)" offset="0.351562"/><stop stop-opacity="1" stop-color="rgb(21.798706%, 23.698425%, 30.821228%)" offset="0.355469"/><stop stop-opacity="1" stop-color="rgb(21.598816%, 23.498535%, 30.599976%)" offset="0.359375"/><stop stop-opacity="1" stop-color="rgb(21.598816%, 23.298645%, 30.589294%)" offset="0.363281"/><stop stop-opacity="1" stop-color="rgb(21.598816%, 23.098755%, 30.580139%)" offset="0.367188"/><stop stop-opacity="1" stop-color="rgb(21.398926%, 23.098755%, 30.389404%)" offset="0.371094"/><stop stop-opacity="1" stop-color="rgb(21.199036%, 23.098755%, 30.198669%)" offset="0.375"/><stop stop-opacity="1" stop-color="rgb(21.199036%, 22.90802%, 29.998779%)" offset="0.378906"/><stop stop-opacity="1" stop-color="rgb(21.199036%, 22.717285%, 29.798889%)" offset="0.382812"/><stop stop-opacity="1" stop-color="rgb(21.017456%, 22.70813%, 29.61731%)" offset="0.390625"/><stop stop-opacity="1" stop-color="rgb(20.794678%, 22.549438%, 29.217529%)" offset="0.394531"/><stop stop-opacity="1" stop-color="rgb(20.755005%, 22.399902%, 28.999329%)" offset="0.398438"/><stop stop-opacity="1" stop-color="rgb(20.576477%, 22.198486%, 28.985596%)" offset="0.402344"/><stop stop-opacity="1" stop-color="rgb(20.399475%, 21.998596%, 28.973389%)" offset="0.40625"/><stop stop-opacity="1" stop-color="rgb(20.396423%, 21.995544%, 28.782654%)" offset="0.414062"/><stop stop-opacity="1" stop-color="rgb(20.196533%, 21.795654%, 28.396606%)" offset="0.417969"/><stop stop-opacity="1" stop-color="rgb(19.999695%, 21.598816%, 28.199768%)" offset="0.421875"/><stop stop-opacity="1" stop-color="rgb(19.999695%, 21.598816%, 28.015137%)" offset="0.429688"/><stop stop-opacity="1" stop-color="rgb(19.799805%, 21.398926%, 27.682495%)" offset="0.433594"/><stop stop-opacity="1" stop-color="rgb(19.599915%, 21.199036%, 27.536011%)" offset="0.4375"/><stop stop-opacity="1" stop-color="rgb(19.398499%, 20.999146%, 27.500916%)" offset="0.441406"/><stop stop-opacity="1" stop-color="rgb(19.198608%, 20.799255%, 27.467346%)" offset="0.445312"/><stop stop-opacity="1" stop-color="rgb(19.198608%, 20.793152%, 27.276611%)" offset="0.453125"/><stop stop-opacity="1" stop-color="rgb(19.00177%, 20.593262%, 26.89209%)" offset="0.457031"/><stop stop-opacity="1" stop-color="rgb(18.804932%, 20.399475%, 26.699829%)" offset="0.460938"/><stop stop-opacity="1" stop-color="rgb(18.80188%, 20.399475%, 26.498413%)" offset="0.464844"/><stop stop-opacity="1" stop-color="rgb(18.798828%, 20.399475%, 26.298523%)" offset="0.46875"/><stop stop-opacity="1" stop-color="rgb(18.6203%, 20.199585%, 26.119995%)" offset="0.472656"/><stop stop-opacity="1" stop-color="rgb(18.443298%, 19.999695%, 25.942993%)" offset="0.476562"/><stop stop-opacity="1" stop-color="rgb(18.4021%, 19.799805%, 25.720215%)" offset="0.480469"/><stop stop-opacity="1" stop-color="rgb(18.360901%, 19.599915%, 25.498962%)" offset="0.484375"/><stop stop-opacity="1" stop-color="rgb(18.179321%, 19.589233%, 25.489807%)" offset="0.492188"/><stop stop-opacity="1" stop-color="rgb(17.999268%, 19.389343%, 25.289917%)" offset="0.5"/><stop stop-opacity="1" stop-color="rgb(17.799377%, 19.198608%, 24.899292%)" offset="0.503906"/><stop stop-opacity="1" stop-color="rgb(17.599487%, 19.198608%, 24.699402%)" offset="0.507813"/><stop stop-opacity="1" stop-color="rgb(17.599487%, 18.998718%, 24.517822%)" offset="0.511719"/><stop stop-opacity="1" stop-color="rgb(17.599487%, 18.798828%, 24.336243%)" offset="0.515625"/><stop stop-opacity="1" stop-color="rgb(17.448425%, 18.598938%, 24.118042%)" offset="0.519531"/><stop stop-opacity="1" stop-color="rgb(17.298889%, 18.399048%, 23.899841%)" offset="0.523437"/><stop stop-opacity="1" stop-color="rgb(17.098999%, 18.386841%, 23.886108%)" offset="0.527344"/><stop stop-opacity="1" stop-color="rgb(16.899109%, 18.374634%, 23.873901%)" offset="0.53125"/><stop stop-opacity="1" stop-color="rgb(16.899109%, 18.186951%, 23.683167%)" offset="0.539063"/><stop stop-opacity="1" stop-color="rgb(16.705322%, 17.999268%, 23.295593%)" offset="0.542969"/><stop stop-opacity="1" stop-color="rgb(16.511536%, 17.999268%, 23.098755%)" offset="0.546875"/><stop stop-opacity="1" stop-color="rgb(16.505432%, 17.799377%, 22.914124%)" offset="0.550781"/><stop stop-opacity="1" stop-color="rgb(16.499329%, 17.599487%, 22.731018%)" offset="0.554687"/><stop stop-opacity="1" stop-color="rgb(16.323853%, 17.468262%, 22.583008%)" offset="0.5625"/><stop stop-opacity="1" stop-color="rgb(16.108704%, 17.301941%, 22.401428%)" offset="0.570313"/><stop stop-opacity="1" stop-color="rgb(15.882874%, 17.08374%, 22.177124%)" offset="0.578125"/><stop stop-opacity="1" stop-color="rgb(15.699768%, 16.702271%, 21.792603%)" offset="0.582031"/><stop stop-opacity="1" stop-color="rgb(15.699768%, 16.505432%, 21.598816%)" offset="0.585937"/><stop stop-opacity="1" stop-color="rgb(15.499878%, 16.50238%, 21.411133%)" offset="0.589844"/><stop stop-opacity="1" stop-color="rgb(15.299988%, 16.499329%, 21.224976%)" offset="0.59375"/><stop stop-opacity="1" stop-color="rgb(15.299988%, 16.320801%, 21.034241%)" offset="0.601563"/><stop stop-opacity="1" stop-color="rgb(15.098572%, 16.1026%, 20.620728%)" offset="0.605469"/><stop stop-opacity="1" stop-color="rgb(14.898682%, 16.061401%, 20.399475%)" offset="0.609375"/><stop stop-opacity="1" stop-color="rgb(14.698792%, 15.879822%, 20.39032%)" offset="0.613281"/><stop stop-opacity="1" stop-color="rgb(14.498901%, 15.699768%, 20.381165%)" offset="0.617187"/><stop stop-opacity="1" stop-color="rgb(14.498901%, 15.499878%, 20.19043%)" offset="0.621094"/><stop stop-opacity="1" stop-color="rgb(14.498901%, 15.299988%, 19.999695%)" offset="0.625"/><stop stop-opacity="1" stop-color="rgb(14.308167%, 15.299988%, 19.799805%)" offset="0.628906"/><stop stop-opacity="1" stop-color="rgb(14.117432%, 15.299988%, 19.599915%)" offset="0.632813"/><stop stop-opacity="1" stop-color="rgb(14.108276%, 15.118408%, 19.418335%)" offset="0.640625"/><stop stop-opacity="1" stop-color="rgb(13.899231%, 14.89563%, 19.017029%)" offset="0.644531"/><stop stop-opacity="1" stop-color="rgb(13.699341%, 14.855957%, 18.798828%)" offset="0.648437"/><stop stop-opacity="1" stop-color="rgb(13.699341%, 14.677429%, 18.786621%)" offset="0.65625"/><stop stop-opacity="1" stop-color="rgb(13.499451%, 14.299011%, 18.583679%)" offset="0.660156"/><stop stop-opacity="1" stop-color="rgb(13.299561%, 14.099121%, 18.392944%)" offset="0.664063"/><stop stop-opacity="1" stop-color="rgb(13.299561%, 14.099121%, 18.196106%)" offset="0.667969"/><stop stop-opacity="1" stop-color="rgb(13.299561%, 14.099121%, 17.999268%)" offset="0.671875"/><stop stop-opacity="1" stop-color="rgb(13.09967%, 13.91449%, 17.814636%)" offset="0.675781"/><stop stop-opacity="1" stop-color="rgb(12.89978%, 13.731384%, 17.630005%)" offset="0.679687"/><stop stop-opacity="1" stop-color="rgb(12.89978%, 13.7146%, 17.483521%)" offset="0.6875"/><stop stop-opacity="1" stop-color="rgb(12.69989%, 13.499451%, 17.301941%)" offset="0.691406"/><stop stop-opacity="1" stop-color="rgb(12.5%, 13.299561%, 17.268372%)" offset="0.695313"/><stop stop-opacity="1" stop-color="rgb(12.493896%, 13.09967%, 17.077637%)" offset="0.699219"/><stop stop-opacity="1" stop-color="rgb(12.489319%, 12.89978%, 16.886902%)" offset="0.703125"/><stop stop-opacity="1" stop-color="rgb(12.34436%, 12.89978%, 16.693115%)" offset="0.710937"/><stop stop-opacity="1" stop-color="rgb(12.011719%, 12.712097%, 16.311646%)" offset="0.71875"/><stop stop-opacity="1" stop-color="rgb(11.811829%, 12.512207%, 15.933228%)" offset="0.726563"/><stop stop-opacity="1" stop-color="rgb(11.599731%, 12.348938%, 15.701294%)" offset="0.730469"/><stop stop-opacity="1" stop-color="rgb(11.399841%, 12.199402%, 15.661621%)" offset="0.734375"/><stop stop-opacity="1" stop-color="rgb(11.399841%, 11.999512%, 15.470886%)" offset="0.738281"/><stop stop-opacity="1" stop-color="rgb(11.399841%, 11.799622%, 15.280151%)" offset="0.742187"/><stop stop-opacity="1" stop-color="rgb(11.199951%, 11.799622%, 15.089417%)" offset="0.746094"/><stop stop-opacity="1" stop-color="rgb(11.000061%, 11.799622%, 14.898682%)" offset="0.75"/><stop stop-opacity="1" stop-color="rgb(10.998535%, 11.608887%, 14.707947%)" offset="0.757813"/><stop stop-opacity="1" stop-color="rgb(10.798645%, 11.408997%, 14.328003%)" offset="0.761719"/><stop stop-opacity="1" stop-color="rgb(10.598755%, 11.399841%, 14.137268%)" offset="0.765625"/><stop stop-opacity="1" stop-color="rgb(10.577393%, 11.198425%, 13.917542%)" offset="0.769531"/><stop stop-opacity="1" stop-color="rgb(10.55603%, 10.998535%, 13.699341%)" offset="0.773437"/><stop stop-opacity="1" stop-color="rgb(10.377502%, 10.798645%, 13.687134%)" offset="0.777344"/><stop stop-opacity="1" stop-color="rgb(10.198975%, 10.598755%, 13.674927%)" offset="0.78125"/><stop stop-opacity="1" stop-color="rgb(10.195923%, 10.595703%, 13.484192%)" offset="0.789063"/><stop stop-opacity="1" stop-color="rgb(9.996033%, 10.395813%, 13.096619%)" offset="0.792969"/><stop stop-opacity="1" stop-color="rgb(9.799194%, 10.198975%, 12.89978%)" offset="0.796875"/><stop stop-opacity="1" stop-color="rgb(9.614563%, 10.198975%, 12.715149%)" offset="0.804687"/><stop stop-opacity="1" stop-color="rgb(9.414673%, 9.999084%, 12.384033%)" offset="0.808594"/><stop stop-opacity="1" stop-color="rgb(9.399414%, 9.799194%, 12.237549%)" offset="0.8125"/><stop stop-opacity="1" stop-color="rgb(9.199524%, 9.599304%, 12.202454%)" offset="0.816406"/><stop stop-opacity="1" stop-color="rgb(8.999634%, 9.399414%, 12.168884%)" offset="0.820313"/><stop stop-opacity="1" stop-color="rgb(8.999634%, 9.393311%, 11.978149%)" offset="0.828125"/><stop stop-opacity="1" stop-color="rgb(8.802795%, 9.19342%, 11.593628%)" offset="0.832031"/><stop stop-opacity="1" stop-color="rgb(8.605957%, 8.999634%, 11.399841%)" offset="0.835937"/><stop stop-opacity="1" stop-color="rgb(8.602905%, 8.999634%, 11.212158%)" offset="0.84375"/><stop stop-opacity="1" stop-color="rgb(8.398438%, 8.799744%, 10.83374%)" offset="0.847656"/><stop stop-opacity="1" stop-color="rgb(8.198547%, 8.599854%, 10.643005%)" offset="0.851563"/><stop stop-opacity="1" stop-color="rgb(8.180237%, 8.398438%, 10.601807%)" offset="0.855469"/><stop stop-opacity="1" stop-color="rgb(8.161926%, 8.198547%, 10.562134%)" offset="0.859375"/><stop stop-opacity="1" stop-color="rgb(7.980347%, 8.189392%, 10.371399%)" offset="0.867187"/><stop stop-opacity="1" stop-color="rgb(7.798767%, 7.989502%, 9.989929%)" offset="0.875"/><stop stop-opacity="1" stop-color="rgb(7.649231%, 7.798767%, 9.608459%)" offset="0.882813"/><stop stop-opacity="1" stop-color="rgb(7.499695%, 7.649231%, 9.228516%)" offset="0.890625"/><stop stop-opacity="1" stop-color="rgb(7.299805%, 7.299805%, 8.996582%)" offset="0.894531"/><stop stop-opacity="1" stop-color="rgb(7.099915%, 7.099915%, 8.955383%)" offset="0.898437"/><stop stop-opacity="1" stop-color="rgb(6.898499%, 7.087708%, 8.764648%)" offset="0.902344"/><stop stop-opacity="1" stop-color="rgb(6.698608%, 7.0755%, 8.575439%)" offset="0.90625"/><stop stop-opacity="1" stop-color="rgb(6.698608%, 6.886292%, 8.38623%)" offset="0.914063"/><stop stop-opacity="1" stop-color="rgb(6.504822%, 6.698608%, 8.004761%)" offset="0.921875"/><stop stop-opacity="1" stop-color="rgb(6.304932%, 6.498718%, 7.667542%)" offset="0.925781"/><stop stop-opacity="1" stop-color="rgb(6.298828%, 6.298828%, 7.522583%)" offset="0.929687"/><stop stop-opacity="1" stop-color="rgb(6.123352%, 6.123352%, 7.510376%)" offset="0.9375"/><stop stop-opacity="1" stop-color="rgb(5.908203%, 5.908203%, 7.28302%)" offset="0.941406"/><stop stop-opacity="1" stop-color="rgb(5.86853%, 5.86853%, 7.067871%)" offset="0.945313"/><stop stop-opacity="1" stop-color="rgb(5.683899%, 5.683899%, 6.88324%)" offset="0.953125"/><stop stop-opacity="1" stop-color="rgb(5.499268%, 5.499268%, 6.50177%)" offset="0.957031"/><stop stop-opacity="1" stop-color="rgb(5.499268%, 5.499268%, 6.306458%)" offset="0.960937"/><stop stop-opacity="1" stop-color="rgb(5.299377%, 5.299377%, 6.115723%)" offset="0.964844"/><stop stop-opacity="1" stop-color="rgb(5.099487%, 5.099487%, 5.924988%)" offset="0.96875"/><stop stop-opacity="1" stop-color="rgb(5.099487%, 4.920959%, 5.911255%)" offset="0.976563"/><stop stop-opacity="1" stop-color="rgb(4.899597%, 4.702759%, 5.680847%)" offset="0.980469"/><stop stop-opacity="1" stop-color="rgb(4.699707%, 4.663086%, 5.462646%)" offset="0.984375"/><stop stop-opacity="1" stop-color="rgb(4.690552%, 4.481506%, 5.281067%)" offset="0.992187"/><stop stop-opacity="1" stop-color="rgb(4.490662%, 4.299927%, 4.899597%)" offset="0.996094"/><stop stop-opacity="1" stop-color="rgb(4.299927%, 4.299927%, 4.699707%)" offset="1"/></linearGradient></defs><path fill="#12191f" d="M 814.4375 452.390625 C 814.4375 454.34375 812.84375 455.929688 810.875 455.929688 L 629.117188 455.929688 C 627.148438 455.929688 625.550781 454.34375 625.550781 452.390625 L 625.550781 330.542969 C 625.550781 328.589844 627.148438 327.003906 629.117188 327.003906 L 810.875 327.003906 C 812.84375 327.003906 814.4375 328.589844 814.4375 330.542969 L 814.4375 452.390625 " fill-opacity="1" fill-rule="nonzero"/><path fill="#050606" d="M 812.027344 449.765625 L 627.964844 449.765625 L 627.964844 333.175781 L 812.027344 333.175781 L 812.027344 449.765625 " fill-opacity="1" fill-rule="nonzero"/><path fill="#ffffff" d="M 810.375 448.027344 L 629.613281 448.027344 L 629.613281 335.109375 L 810.375 335.109375 L 810.375 448.027344 " fill-opacity="1" fill-rule="nonzero"/><path fill="#b8d2da" d="M 810.375 445.230469 L 810.375 441.195312 L 629.613281 441.195312 L 629.613281 445.230469 L 810.375 445.230469 " fill-opacity="1" fill-rule="nonzero"/><path fill="#3f399b" d="M 810.375 389.308594 L 810.375 345.320312 L 629.613281 345.320312 L 629.613281 389.308594 L 810.375 389.308594 " fill-opacity="1" fill-rule="nonzero"/><path fill="#494eaa" d="M 629.613281 345.320312 L 629.613281 389.308594 L 722.601562 389.308594 L 694.15625 345.320312 L 629.613281 345.320312 " fill-opacity="1" fill-rule="nonzero"/><path fill="#ffffff" d="M 665.480469 363.984375 C 669.453125 363.984375 672.675781 367.183594 672.675781 371.128906 C 672.675781 375.078125 669.453125 378.277344 665.480469 378.277344 C 661.503906 378.277344 658.285156 375.078125 658.285156 371.128906 C 658.285156 367.183594 661.503906 363.984375 665.480469 363.984375 Z M 655.515625 380.378906 L 675.445312 380.378906 C 676.960938 380.378906 678.191406 379.160156 678.191406 377.652344 L 678.191406 364.609375 C 678.191406 363.105469 676.960938 361.882812 675.445312 361.882812 L 655.515625 361.882812 C 654 361.882812 652.769531 363.105469 652.769531 364.609375 L 652.769531 377.652344 C 652.769531 379.160156 654 380.378906 655.515625 380.378906 " fill-opacity="1" fill-rule="nonzero"/><path fill="#ffffff" d="M 663.042969 367.292969 L 663.042969 374.96875 L 669.382812 371.128906 Z M 663.042969 367.292969 " fill-opacity="1" fill-rule="nonzero"/><path fill="#ffffff" d="M 802.65625 363.496094 L 802.65625 371.132812 L 807.53125 367.316406 L 802.65625 363.496094 " fill-opacity="1" fill-rule="nonzero"/><path fill="#b8d2da" d="M 803.503906 393.761719 L 636.488281 393.761719 L 636.488281 391.363281 L 803.503906 391.363281 L 803.503906 393.761719 " fill-opacity="1" fill-rule="nonzero"/><path fill="#b8d2da" d="M 707.832031 403.222656 L 709.835938 405.214844 C 715.441406 399.652344 724.554688 399.652344 730.152344 405.214844 L 732.160156 403.222656 C 725.453125 396.566406 714.539062 396.558594 707.832031 403.222656 " fill-opacity="1" fill-rule="nonzero"/><path fill="#b8d2da" d="M 710.769531 406.824219 L 712.777344 408.816406 C 716.757812 404.863281 723.230469 404.863281 727.214844 408.816406 L 729.21875 406.824219 C 724.132812 401.769531 715.855469 401.769531 710.769531 406.824219 " fill-opacity="1" fill-rule="nonzero"/><path fill="#b8d2da" d="M 726.226562 410.570312 C 722.789062 407.15625 717.199219 407.160156 713.761719 410.574219 L 715.765625 412.566406 C 718.097656 410.25 721.890625 410.25 724.222656 412.566406 L 726.226562 410.570312 " fill-opacity="1" fill-rule="nonzero"/><path fill="#b8d2da" d="M 717.488281 415.246094 C 717.488281 416.621094 718.613281 417.734375 719.992188 417.734375 C 721.378906 417.734375 722.5 416.621094 722.5 415.246094 C 722.5 413.875 721.378906 412.757812 719.992188 412.757812 C 718.613281 412.757812 717.488281 413.875 717.488281 415.246094 " fill-opacity="1" fill-rule="nonzero"/><path fill="#b8d2da" d="M 780.25 401.738281 C 783.722656 401.738281 786.53125 404.535156 786.53125 407.980469 C 786.53125 411.429688 783.722656 414.222656 780.25 414.222656 C 776.777344 414.222656 773.964844 411.429688 773.964844 407.980469 C 773.964844 404.535156 776.777344 401.738281 780.25 401.738281 Z M 771.546875 416.058594 L 788.953125 416.058594 C 790.277344 416.058594 791.347656 414.992188 791.347656 413.675781 L 791.347656 402.285156 C 791.347656 400.972656 790.277344 399.90625 788.953125 399.90625 L 771.546875 399.90625 C 770.222656 399.90625 769.148438 400.972656 769.148438 402.285156 L 769.148438 413.675781 C 769.148438 414.992188 770.222656 416.058594 771.546875 416.058594 " fill-opacity="1" fill-rule="nonzero"/><path fill="#b8d2da" d="M 778.121094 404.628906 L 778.121094 411.332031 L 783.65625 407.980469 Z M 778.121094 404.628906 " fill-opacity="1" fill-rule="nonzero"/><path fill="#b8d2da" d="M 659.742188 403.578125 C 659.742188 402.089844 660.960938 400.878906 662.460938 400.878906 C 663.964844 400.878906 665.183594 402.089844 665.183594 403.578125 C 665.183594 405.070312 663.964844 406.28125 662.460938 406.28125 C 660.960938 406.28125 659.742188 405.070312 659.742188 403.578125 Z M 668.457031 408.179688 C 669.832031 405.984375 669.929688 403.105469 668.457031 400.757812 C 666.394531 397.46875 662.039062 396.46875 658.722656 398.515625 C 655.414062 400.566406 654.402344 404.894531 656.464844 408.179688 L 662.460938 417.734375 L 668.457031 408.179688 " fill-opacity="1" fill-rule="nonzero"/><path fill="#b8d2da" d="M 724.277344 420.5 L 704.632812 420.5 L 704.632812 419.589844 L 724.277344 419.589844 L 724.277344 420.5 " fill-opacity="1" fill-rule="nonzero"/><path fill="#b8d2da" d="M 735.355469 420.5 L 725.96875 420.5 L 725.96875 419.589844 L 735.355469 419.589844 L 735.355469 420.5 " fill-opacity="1" fill-rule="nonzero"/><path fill="#b8d2da" d="M 735.355469 427.5 L 715.710938 427.5 L 715.710938 426.59375 L 735.355469 426.59375 L 735.355469 427.5 " fill-opacity="1" fill-rule="nonzero"/><path fill="#b8d2da" d="M 714.019531 427.5 L 704.632812 427.5 L 704.632812 426.59375 L 714.019531 426.59375 L 714.019531 427.5 " fill-opacity="1" fill-rule="nonzero"/><path fill="#b8d2da" d="M 712.15625 431.003906 L 704.632812 431.003906 L 704.632812 430.09375 L 712.15625 430.09375 L 712.15625 431.003906 " fill-opacity="1" fill-rule="nonzero"/><path fill="#b8d2da" d="M 725.03125 431.003906 L 714.238281 431.003906 L 714.238281 430.09375 L 725.03125 430.09375 L 725.03125 431.003906 " fill-opacity="1" fill-rule="nonzero"/><path fill="#b8d2da" d="M 712.15625 424 L 704.632812 424 L 704.632812 423.09375 L 712.15625 423.09375 L 712.15625 424 " fill-opacity="1" fill-rule="nonzero"/><path fill="#b8d2da" d="M 720.75 424 L 713.363281 424 L 713.363281 423.09375 L 720.75 423.09375 L 720.75 424 " fill-opacity="1" fill-rule="nonzero"/><path fill="#b8d2da" d="M 735.355469 424 L 722.28125 424 L 722.28125 423.09375 L 735.355469 423.09375 L 735.355469 424 " fill-opacity="1" fill-rule="nonzero"/><path fill="#b8d2da" d="M 724.277344 433.617188 L 704.632812 433.617188 L 704.632812 432.707031 L 724.277344 432.707031 L 724.277344 433.617188 " fill-opacity="1" fill-rule="nonzero"/><path fill="#b8d2da" d="M 735.355469 433.617188 L 725.96875 433.617188 L 725.96875 432.707031 L 735.355469 432.707031 L 735.355469 433.617188 " fill-opacity="1" fill-rule="nonzero"/><path fill="#b8d2da" d="M 712.15625 437.117188 L 704.632812 437.117188 L 704.632812 436.210938 L 712.15625 436.210938 L 712.15625 437.117188 " fill-opacity="1" fill-rule="nonzero"/><path fill="#b8d2da" d="M 720.75 437.117188 L 713.363281 437.117188 L 713.363281 436.210938 L 720.75 436.210938 L 720.75 437.117188 " fill-opacity="1" fill-rule="nonzero"/><path fill="#b8d2da" d="M 730.664062 437.117188 L 722.28125 437.117188 L 722.28125 436.210938 L 730.664062 436.210938 L 730.664062 437.117188 " fill-opacity="1" fill-rule="nonzero"/><path fill="#b8d2da" d="M 784.53125 420.5 L 764.886719 420.5 L 764.886719 419.589844 L 784.53125 419.589844 L 784.53125 420.5 " fill-opacity="1" fill-rule="nonzero"/><path fill="#b8d2da" d="M 795.609375 420.5 L 786.222656 420.5 L 786.222656 419.589844 L 795.609375 419.589844 L 795.609375 420.5 " fill-opacity="1" fill-rule="nonzero"/><path fill="#b8d2da" d="M 795.609375 427.503906 L 775.964844 427.503906 L 775.964844 426.59375 L 795.609375 426.59375 L 795.609375 427.503906 " fill-opacity="1" fill-rule="nonzero"/><path fill="#b8d2da" d="M 774.273438 427.5 L 764.886719 427.5 L 764.886719 426.59375 L 774.273438 426.59375 L 774.273438 427.5 " fill-opacity="1" fill-rule="nonzero"/><path fill="#b8d2da" d="M 772.410156 431.003906 L 764.886719 431.003906 L 764.886719 430.09375 L 772.410156 430.09375 L 772.410156 431.003906 " fill-opacity="1" fill-rule="nonzero"/><path fill="#b8d2da" d="M 785.289062 431.003906 L 774.492188 431.003906 L 774.492188 430.09375 L 785.289062 430.09375 L 785.289062 431.003906 " fill-opacity="1" fill-rule="nonzero"/><path fill="#b8d2da" d="M 772.410156 424 L 764.886719 424 L 764.886719 423.09375 L 772.410156 423.09375 L 772.410156 424 " fill-opacity="1" fill-rule="nonzero"/><path fill="#b8d2da" d="M 781.003906 424 L 773.613281 424 L 773.613281 423.09375 L 781.003906 423.09375 L 781.003906 424 " fill-opacity="1" fill-rule="nonzero"/><path fill="#b8d2da" d="M 795.609375 424.003906 L 782.535156 424.003906 L 782.535156 423.09375 L 795.609375 423.09375 L 795.609375 424.003906 " fill-opacity="1" fill-rule="nonzero"/><path fill="#b8d2da" d="M 784.53125 433.617188 L 764.886719 433.617188 L 764.886719 432.707031 L 784.53125 432.707031 L 784.53125 433.617188 " fill-opacity="1" fill-rule="nonzero"/><path fill="#b8d2da" d="M 795.609375 433.617188 L 786.222656 433.617188 L 786.222656 432.707031 L 795.609375 432.707031 L 795.609375 433.617188 " fill-opacity="1" fill-rule="nonzero"/><path fill="#b8d2da" d="M 772.410156 437.117188 L 764.886719 437.117188 L 764.886719 436.210938 L 772.410156 436.210938 L 772.410156 437.117188 " fill-opacity="1" fill-rule="nonzero"/><path fill="#b8d2da" d="M 781.003906 437.117188 L 773.613281 437.117188 L 773.613281 436.210938 L 781.003906 436.210938 L 781.003906 437.117188 " fill-opacity="1" fill-rule="nonzero"/><path fill="#b8d2da" d="M 790.917969 437.117188 L 782.539062 437.117188 L 782.539062 436.210938 L 790.917969 436.210938 L 790.917969 437.117188 " fill-opacity="1" fill-rule="nonzero"/><path fill="#b8d2da" d="M 666.742188 420.5 L 647.097656 420.5 L 647.097656 419.589844 L 666.742188 419.589844 L 666.742188 420.5 " fill-opacity="1" fill-rule="nonzero"/><path fill="#b8d2da" d="M 677.820312 420.5 L 668.4375 420.5 L 668.4375 419.589844 L 677.820312 419.589844 L 677.820312 420.5 " fill-opacity="1" fill-rule="nonzero"/><path fill="#b8d2da" d="M 677.820312 427.5 L 658.179688 427.5 L 658.179688 426.59375 L 677.820312 426.59375 L 677.820312 427.5 " fill-opacity="1" fill-rule="nonzero"/><path fill="#b8d2da" d="M 656.484375 427.5 L 647.097656 427.5 L 647.097656 426.59375 L 656.484375 426.59375 L 656.484375 427.5 " fill-opacity="1" fill-rule="nonzero"/><path fill="#b8d2da" d="M 654.621094 431.003906 L 647.097656 431.003906 L 647.097656 430.09375 L 654.621094 430.09375 L 654.621094 431.003906 " fill-opacity="1" fill-rule="nonzero"/><path fill="#b8d2da" d="M 667.5 431.003906 L 656.703125 431.003906 L 656.703125 430.09375 L 667.5 430.09375 L 667.5 431.003906 " fill-opacity="1" fill-rule="nonzero"/><path fill="#b8d2da" d="M 654.621094 424 L 647.097656 424 L 647.097656 423.09375 L 654.621094 423.09375 L 654.621094 424 " fill-opacity="1" fill-rule="nonzero"/><path fill="#b8d2da" d="M 663.21875 424 L 655.828125 424 L 655.828125 423.09375 L 663.21875 423.09375 L 663.21875 424 " fill-opacity="1" fill-rule="nonzero"/><path fill="#b8d2da" d="M 677.820312 424 L 664.746094 424 L 664.746094 423.09375 L 677.820312 423.09375 L 677.820312 424 " fill-opacity="1" fill-rule="nonzero"/><path fill="#b8d2da" d="M 666.742188 433.617188 L 647.097656 433.617188 L 647.097656 432.707031 L 666.742188 432.707031 L 666.742188 433.617188 " fill-opacity="1" fill-rule="nonzero"/><path fill="#b8d2da" d="M 677.820312 433.617188 L 668.4375 433.617188 L 668.4375 432.707031 L 677.820312 432.707031 L 677.820312 433.617188 " fill-opacity="1" fill-rule="nonzero"/><path fill="#b8d2da" d="M 654.621094 437.117188 L 647.097656 437.117188 L 647.097656 436.210938 L 654.621094 436.210938 L 654.621094 437.117188 " fill-opacity="1" fill-rule="nonzero"/><path fill="#b8d2da" d="M 663.21875 437.117188 L 655.828125 437.117188 L 655.828125 436.210938 L 663.21875 436.210938 L 663.21875 437.117188 " fill-opacity="1" fill-rule="nonzero"/><path fill="#b8d2da" d="M 673.128906 437.117188 L 664.746094 437.117188 L 664.746094 436.210938 L 673.128906 436.210938 L 673.128906 437.117188 " fill-opacity="1" fill-rule="nonzero"/><path fill="#b8d2da" d="M 720.355469 344.984375 L 720.355469 335.109375 L 720.855469 335.109375 L 720.855469 344.984375 L 720.355469 344.984375 " fill-opacity="1" fill-rule="nonzero"/><path fill="#b8d2da" d="M 739.035156 344.984375 L 739.035156 335.109375 L 739.539062 335.109375 L 739.539062 344.984375 L 739.035156 344.984375 " fill-opacity="1" fill-rule="nonzero"/><path fill="#b8d2da" d="M 775.261719 344.984375 L 775.261719 335.109375 L 775.765625 335.109375 L 775.765625 344.984375 L 775.261719 344.984375 " fill-opacity="1" fill-rule="nonzero"/><path fill="#b8d2da" d="M 756.683594 344.984375 L 756.683594 335.109375 L 757.183594 335.109375 L 757.183594 344.984375 L 756.683594 344.984375 " fill-opacity="1" fill-rule="nonzero"/><path fill="#b8d2da" d="M 714.277344 340.765625 L 717.445312 340.765625 L 715.859375 342.609375 Z M 714.277344 340.765625 " fill-opacity="1" fill-rule="nonzero"/><path fill="#b8d2da" d="M 750.734375 340.765625 L 753.898438 340.765625 L 752.316406 342.609375 Z M 750.734375 340.765625 " fill-opacity="1" fill-rule="nonzero"/><path fill="#b8d2da" d="M 750.734375 340.765625 L 753.898438 340.765625 L 752.316406 342.609375 Z M 750.734375 340.765625 " fill-opacity="1" fill-rule="nonzero"/><path fill="#b8d2da" d="M 750.734375 340.765625 L 753.898438 340.765625 L 752.316406 342.609375 Z M 750.734375 340.765625 " fill-opacity="1" fill-rule="nonzero"/><path fill="#b8d2da" d="M 750.734375 340.765625 L 753.898438 340.765625 L 752.316406 342.609375 Z M 750.734375 340.765625 " fill-opacity="1" fill-rule="nonzero"/><path fill="#b8d2da" d="M 750.734375 340.765625 L 753.898438 340.765625 L 752.316406 342.609375 Z M 750.734375 340.765625 " fill-opacity="1" fill-rule="nonzero"/><path fill="#b8d2da" d="M 734.066406 340.765625 L 737.230469 340.765625 L 735.648438 342.609375 Z M 734.066406 340.765625 " fill-opacity="1" fill-rule="nonzero"/><path fill="#b8d2da" d="M 734.066406 340.765625 L 737.230469 340.765625 L 735.648438 342.609375 Z M 734.066406 340.765625 " fill-opacity="1" fill-rule="nonzero"/><path fill="#b8d2da" d="M 734.066406 340.765625 L 737.230469 340.765625 L 735.648438 342.609375 Z M 734.066406 340.765625 " fill-opacity="1" fill-rule="nonzero"/><path fill="#b8d2da" d="M 734.066406 340.765625 L 737.230469 340.765625 L 735.648438 342.609375 Z M 734.066406 340.765625 " fill-opacity="1" fill-rule="nonzero"/><path fill="#b8d2da" d="M 734.066406 340.765625 L 737.230469 340.765625 L 735.648438 342.609375 Z M 734.066406 340.765625 " fill-opacity="1" fill-rule="nonzero"/><path fill="#b8d2da" d="M 770.824219 340.765625 L 773.988281 340.765625 L 772.40625 342.609375 Z M 770.824219 340.765625 " fill-opacity="1" fill-rule="nonzero"/><path fill="#b8d2da" d="M 770.824219 340.765625 L 773.988281 340.765625 L 772.40625 342.609375 Z M 770.824219 340.765625 " fill-opacity="1" fill-rule="nonzero"/><path fill="#b8d2da" d="M 770.824219 340.765625 L 773.988281 340.765625 L 772.40625 342.609375 Z M 770.824219 340.765625 " fill-opacity="1" fill-rule="nonzero"/><path fill="#b8d2da" d="M 770.824219 340.765625 L 773.988281 340.765625 L 772.40625 342.609375 Z M 770.824219 340.765625 " fill-opacity="1" fill-rule="nonzero"/><path fill="#b8d2da" d="M 770.824219 340.765625 L 773.988281 340.765625 L 772.40625 342.609375 Z M 770.824219 340.765625 " fill-opacity="1" fill-rule="nonzero"/><path fill="#b8d2da" d="M 807.621094 342.144531 C 807.621094 342.53125 807.308594 342.84375 806.917969 342.84375 L 804.136719 342.84375 C 803.75 342.84375 803.429688 342.53125 803.429688 342.144531 L 803.429688 339.382812 C 803.429688 338.996094 803.75 338.683594 804.136719 338.683594 L 806.917969 338.683594 C 807.308594 338.683594 807.621094 338.996094 807.621094 339.382812 L 807.621094 342.144531 " fill-opacity="1" fill-rule="nonzero"/><path fill="#84aebc" d="M 805.585938 339.070312 C 805.070312 339.070312 804.648438 339.488281 804.648438 340.003906 C 804.648438 340.464844 804.980469 340.851562 805.417969 340.929688 L 805.417969 341.1875 L 805.351562 341.1875 L 805.351562 342.539062 L 805.820312 342.539062 L 805.824219 341.1875 L 805.761719 341.1875 L 805.761719 340.929688 C 806.199219 340.851562 806.535156 340.46875 806.535156 340.007812 C 806.539062 339.492188 806.113281 339.070312 805.59375 339.070312 C 805.589844 339.070312 805.589844 339.070312 805.585938 339.070312 M 805.589844 340.746094 C 805.175781 340.746094 804.847656 340.410156 804.847656 340.003906 C 804.847656 339.597656 805.175781 339.269531 805.585938 339.269531 C 805.589844 339.269531 805.589844 339.269531 805.59375 339.269531 C 806.003906 339.269531 806.335938 339.597656 806.335938 340.003906 C 806.335938 340.417969 806 340.746094 805.589844 340.746094 " fill-opacity="1" fill-rule="nonzero"/><path fill="#ffffff" d="M 805.464844 340.664062 C 805.054688 340.664062 804.71875 340.332031 804.71875 339.921875 C 804.722656 339.515625 805.054688 339.183594 805.464844 339.183594 C 805.878906 339.183594 806.210938 339.519531 806.210938 339.925781 C 806.207031 340.335938 805.875 340.664062 805.464844 340.664062 Z M 806.410156 339.925781 C 806.410156 339.410156 805.992188 338.988281 805.464844 338.988281 C 804.941406 338.988281 804.523438 339.40625 804.523438 339.921875 C 804.523438 340.386719 804.851562 340.769531 805.296875 340.847656 L 805.296875 341.105469 L 805.226562 341.105469 L 805.226562 342.460938 L 805.695312 342.460938 L 805.699219 341.105469 L 805.628906 341.105469 L 805.632812 340.847656 C 806.074219 340.769531 806.410156 340.386719 806.410156 339.925781 " fill-opacity="1" fill-rule="nonzero"/><path fill="#ffffff" d="M 778.527344 342.84375 L 802.582031 342.84375 L 802.582031 338.683594 L 778.527344 338.683594 L 778.527344 342.84375 " fill-opacity="1" fill-rule="nonzero"/><path fill="#b8d2da" d="M 778.523438 342.84375 L 778.523438 343.066406 L 802.804688 343.066406 L 802.804688 338.460938 L 778.300781 338.460938 L 778.300781 343.066406 L 778.523438 343.066406 L 778.523438 342.84375 L 778.75 342.84375 L 778.75 338.910156 L 802.355469 338.910156 L 802.355469 342.621094 L 778.523438 342.621094 L 778.523438 342.84375 L 778.75 342.84375 L 778.523438 342.84375 " fill-opacity="1" fill-rule="nonzero"/><path fill="#b8d2da" d="M 688.121094 445.230469 L 688.121094 396.78125 L 688.625 396.78125 L 688.625 445.230469 L 688.121094 445.230469 " fill-opacity="1" fill-rule="nonzero"/><path fill="#b8d2da" d="M 751.367188 445.230469 L 751.367188 396.78125 L 751.867188 396.78125 L 751.867188 445.230469 L 751.367188 445.230469 " fill-opacity="1" fill-rule="nonzero"/><path fill="#b72399" d="M 629.613281 389.308594 L 629.613281 345.320312 L 654.621094 345.320312 Z M 629.613281 389.308594 " fill-opacity="1" fill-rule="nonzero"/><g clip-path="url(#5c15fa39bd)"><path fill="#cfcece" d="M 611.988281 462.355469 C 610.75 462.390625 609.28125 461.597656 609.28125 461.597656 L 605.570312 460.015625 C 604.675781 459.523438 604.742188 458.832031 604.742188 458.832031 L 604.742188 457.25 C 604.742188 455.914062 606.296875 455.929688 606.296875 455.929688 L 833.691406 455.929688 C 833.691406 455.929688 835.25 455.914062 835.25 457.25 L 835.25 458.832031 C 835.25 458.832031 835.316406 459.523438 834.421875 460.015625 L 830.710938 461.597656 C 830.710938 461.597656 829.242188 462.390625 828.003906 462.355469 L 611.988281 462.355469 " fill-opacity="1" fill-rule="nonzero"/></g><path fill="#434648" d="M 719.996094 455.929688 L 704.375 455.929688 L 705.585938 458.605469 C 705.585938 458.605469 705.957031 459.621094 706.980469 459.714844 L 733.011719 459.714844 C 734.035156 459.621094 734.40625 458.605469 734.40625 458.605469 L 735.613281 455.929688 L 719.996094 455.929688 " fill-opacity="1" fill-rule="nonzero"/><g clip-path="url(#9390b8e71b)"><g clip-path="url(#661edadbb3)"><g clip-path="url(#2d522771c2)"><path fill="url(#a2545d7c25)" d="M 777.164062 483 L 777.164062 380.378906 L 829.988281 380.378906 L 829.988281 483 Z M 777.164062 483 " fill-rule="nonzero"/></g></g></g><path fill="#ffffff" d="M 826.195312 381.507812 L 812.496094 381.507812 C 812.253906 381.726562 812.082031 382.039062 812.082031 382.492188 L 812.082031 383.695312 C 812.082031 383.695312 812.242188 385.226562 811.085938 385.375 L 796.066406 385.375 C 794.941406 385.203125 795.074219 383.695312 795.074219 383.695312 L 795.074219 382.492188 C 795.074219 382.039062 794.898438 381.726562 794.65625 381.507812 L 780.957031 381.507812 C 779.542969 381.507812 778.398438 382.648438 778.398438 384.054688 L 778.398438 479.335938 C 778.398438 480.738281 779.542969 481.878906 780.957031 481.878906 L 826.195312 481.878906 C 827.609375 481.878906 828.753906 480.738281 828.753906 479.335938 L 828.753906 384.054688 C 828.753906 382.648438 827.609375 381.507812 826.195312 381.507812 " fill-opacity="1" fill-rule="nonzero"/><path fill="#231f20" d="M 809.988281 383.121094 C 809.988281 383.464844 809.707031 383.746094 809.359375 383.746094 L 797.789062 383.746094 C 797.441406 383.746094 797.160156 383.464844 797.160156 383.121094 C 797.160156 382.773438 797.441406 382.496094 797.789062 382.496094 L 809.359375 382.496094 C 809.707031 382.496094 809.988281 382.773438 809.988281 383.121094 " fill-opacity="1" fill-rule="nonzero"/><path fill="#363d4e" d="M 778.398438 473.777344 L 778.398438 479.335938 C 778.398438 480.738281 779.546875 481.878906 780.957031 481.878906 L 826.195312 481.878906 C 827.609375 481.878906 828.753906 480.738281 828.753906 479.335938 L 828.753906 473.777344 L 778.398438 473.777344 " fill-opacity="1" fill-rule="nonzero"/><path fill="#6975c2" d="M 778.398438 396.050781 L 778.398438 416.5625 L 828.867188 416.5625 L 828.867188 396.050781 L 778.398438 396.050781 " fill-opacity="1" fill-rule="nonzero"/><path fill="#6562b7" d="M 778.398438 406.507812 L 778.398438 416.5625 L 828.867188 416.5625 L 828.867188 406.507812 L 778.398438 406.507812 " fill-opacity="1" fill-rule="nonzero"/><path fill="#bdbcbc" d="M 788.476562 395.554688 L 788.476562 391.085938 L 788.703125 391.085938 L 788.703125 395.554688 L 788.476562 395.554688 " fill-opacity="1" fill-rule="nonzero"/><path fill="#bdbcbc" d="M 796.921875 395.554688 L 796.921875 391.085938 L 797.152344 391.085938 L 797.152344 395.554688 L 796.921875 395.554688 " fill-opacity="1" fill-rule="nonzero"/><path fill="#bdbcbc" d="M 813.308594 395.554688 L 813.308594 391.085938 L 813.535156 391.085938 L 813.535156 395.554688 L 813.308594 395.554688 " fill-opacity="1" fill-rule="nonzero"/><path fill="#bdbcbc" d="M 804.902344 395.554688 L 804.902344 391.085938 L 805.132812 391.085938 L 805.132812 395.554688 L 804.902344 395.554688 " fill-opacity="1" fill-rule="nonzero"/><path fill="#bdbcbc" d="M 785.726562 393.644531 L 787.15625 393.644531 L 786.441406 394.480469 Z M 785.726562 393.644531 " fill-opacity="1" fill-rule="nonzero"/><path fill="#bdbcbc" d="M 802.21875 393.644531 L 803.648438 393.644531 L 802.933594 394.480469 L 802.21875 393.644531 " fill-opacity="1" fill-rule="nonzero"/><path fill="#bdbcbc" d="M 802.21875 393.644531 L 803.648438 393.644531 L 802.933594 394.480469 L 802.21875 393.644531 " fill-opacity="1" fill-rule="nonzero"/><path fill="#bdbcbc" d="M 802.21875 393.644531 L 803.648438 393.644531 L 802.933594 394.480469 L 802.21875 393.644531 " fill-opacity="1" fill-rule="nonzero"/><path fill="#bdbcbc" d="M 802.21875 393.644531 L 803.648438 393.644531 L 802.933594 394.480469 L 802.21875 393.644531 " fill-opacity="1" fill-rule="nonzero"/><path fill="#bdbcbc" d="M 802.21875 393.644531 L 803.648438 393.644531 L 802.933594 394.480469 L 802.21875 393.644531 " fill-opacity="1" fill-rule="nonzero"/><path fill="#bdbcbc" d="M 794.675781 393.644531 L 796.105469 393.644531 L 795.390625 394.476562 L 794.675781 393.644531 " fill-opacity="1" fill-rule="nonzero"/><path fill="#bdbcbc" d="M 794.675781 393.644531 L 796.105469 393.644531 L 795.390625 394.476562 L 794.675781 393.644531 " fill-opacity="1" fill-rule="nonzero"/><path fill="#bdbcbc" d="M 794.675781 393.644531 L 796.105469 393.644531 L 795.390625 394.476562 L 794.675781 393.644531 " fill-opacity="1" fill-rule="nonzero"/><path fill="#bdbcbc" d="M 794.675781 393.644531 L 796.105469 393.644531 L 795.390625 394.476562 L 794.675781 393.644531 " fill-opacity="1" fill-rule="nonzero"/><path fill="#bdbcbc" d="M 794.675781 393.644531 L 796.105469 393.644531 L 795.390625 394.476562 L 794.675781 393.644531 " fill-opacity="1" fill-rule="nonzero"/><path fill="#bdbcbc" d="M 811.300781 393.644531 L 812.730469 393.644531 L 812.019531 394.480469 L 811.300781 393.644531 " fill-opacity="1" fill-rule="nonzero"/><path fill="#bdbcbc" d="M 811.300781 393.644531 L 812.730469 393.644531 L 812.019531 394.480469 L 811.300781 393.644531 " fill-opacity="1" fill-rule="nonzero"/><path fill="#bdbcbc" d="M 811.300781 393.644531 L 812.730469 393.644531 L 812.019531 394.480469 L 811.300781 393.644531 " fill-opacity="1" fill-rule="nonzero"/><path fill="#bdbcbc" d="M 811.300781 393.644531 L 812.730469 393.644531 L 812.019531 394.480469 L 811.300781 393.644531 " fill-opacity="1" fill-rule="nonzero"/><path fill="#bdbcbc" d="M 811.300781 393.644531 L 812.730469 393.644531 L 812.019531 394.480469 L 811.300781 393.644531 " fill-opacity="1" fill-rule="nonzero"/><path fill="#87d8f7" d="M 827.945312 394.269531 C 827.945312 394.445312 827.804688 394.585938 827.628906 394.585938 L 826.371094 394.585938 C 826.195312 394.585938 826.050781 394.445312 826.050781 394.269531 L 826.050781 393.019531 C 826.050781 392.84375 826.195312 392.703125 826.371094 392.703125 L 827.628906 392.703125 C 827.804688 392.703125 827.945312 392.84375 827.945312 393.019531 L 827.945312 394.269531 " fill-opacity="1" fill-rule="nonzero"/><path fill="#588ba2" d="M 827.023438 392.878906 C 826.789062 392.878906 826.597656 393.070312 826.597656 393.300781 C 826.597656 393.511719 826.75 393.683594 826.949219 393.71875 L 826.949219 393.835938 L 826.917969 393.835938 L 826.917969 394.449219 L 827.132812 394.449219 L 827.132812 393.835938 L 827.101562 393.835938 L 827.101562 393.71875 C 827.300781 393.683594 827.453125 393.511719 827.453125 393.304688 C 827.453125 393.066406 827.261719 392.878906 827.027344 392.878906 L 827.023438 392.878906 M 827.027344 393.636719 C 827.027344 393.636719 827.027344 393.636719 827.023438 393.636719 C 826.839844 393.636719 826.6875 393.488281 826.6875 393.300781 C 826.691406 393.117188 826.839844 392.96875 827.027344 392.96875 C 827.214844 392.96875 827.363281 393.117188 827.363281 393.300781 C 827.363281 393.488281 827.214844 393.636719 827.027344 393.636719 " fill-opacity="1" fill-rule="nonzero"/><path fill="#ffffff" d="M 826.96875 393.597656 C 826.785156 393.597656 826.632812 393.449219 826.632812 393.265625 C 826.632812 393.078125 826.785156 392.929688 826.972656 392.929688 C 827.15625 392.929688 827.308594 393.082031 827.308594 393.265625 C 827.308594 393.449219 827.15625 393.601562 826.96875 393.597656 Z M 827.398438 393.265625 C 827.398438 393.03125 827.210938 392.839844 826.972656 392.839844 C 826.734375 392.839844 826.542969 393.03125 826.542969 393.265625 C 826.542969 393.472656 826.695312 393.644531 826.894531 393.683594 L 826.894531 393.796875 L 826.863281 393.796875 L 826.863281 394.410156 L 827.078125 394.410156 L 827.078125 393.796875 L 827.046875 393.796875 L 827.046875 393.683594 C 827.246094 393.648438 827.398438 393.472656 827.398438 393.265625 " fill-opacity="1" fill-rule="nonzero"/><path fill="#ffffff" d="M 814.785156 394.585938 L 825.667969 394.585938 L 825.667969 392.703125 L 814.785156 392.703125 L 814.785156 394.585938 " fill-opacity="1" fill-rule="nonzero"/><path fill="#bdbcbc" d="M 814.785156 394.585938 L 814.785156 394.730469 L 825.8125 394.730469 L 825.8125 392.558594 L 814.636719 392.558594 L 814.636719 394.730469 L 814.785156 394.730469 L 814.785156 394.585938 L 814.929688 394.585938 L 814.929688 392.851562 L 825.519531 392.851562 L 825.519531 394.4375 L 814.785156 394.4375 L 814.785156 394.585938 L 814.929688 394.585938 L 814.785156 394.585938 " fill-opacity="1" fill-rule="nonzero"/><path fill="#ffffff" d="M 817.324219 404.324219 L 802.046875 404.324219 L 802.046875 404.027344 L 817.324219 404.027344 L 817.324219 404.324219 " fill-opacity="1" fill-rule="nonzero"/><path fill="#ffffff" d="M 825.945312 404.324219 L 818.644531 404.324219 L 818.644531 404.027344 L 825.945312 404.027344 L 825.945312 404.324219 " fill-opacity="1" fill-rule="nonzero"/><path fill="#ffffff" d="M 825.945312 406.492188 L 810.664062 406.492188 L 810.664062 406.195312 L 825.945312 406.195312 L 825.945312 406.492188 " fill-opacity="1" fill-rule="nonzero"/><path fill="#ffffff" d="M 809.351562 406.492188 L 802.050781 406.492188 L 802.050781 406.195312 L 809.351562 406.195312 L 809.351562 406.492188 " fill-opacity="1" fill-rule="nonzero"/><path fill="#ffffff" d="M 807.898438 407.574219 L 802.050781 407.574219 L 802.050781 407.28125 L 807.898438 407.28125 L 807.898438 407.574219 " fill-opacity="1" fill-rule="nonzero"/><path fill="#ffffff" d="M 817.914062 407.574219 L 808.835938 407.574219 L 808.835938 407.28125 L 817.914062 407.28125 L 817.914062 407.574219 " fill-opacity="1" fill-rule="nonzero"/><path fill="#ffffff" d="M 807.898438 405.40625 L 802.050781 405.40625 L 802.050781 405.113281 L 807.898438 405.113281 L 807.898438 405.40625 " fill-opacity="1" fill-rule="nonzero"/><path fill="#ffffff" d="M 814.585938 405.40625 L 808.835938 405.40625 L 808.835938 405.109375 L 814.585938 405.109375 L 814.585938 405.40625 " fill-opacity="1" fill-rule="nonzero"/><path fill="#ffffff" d="M 825.945312 405.40625 L 815.179688 405.40625 L 815.179688 405.113281 L 825.945312 405.113281 L 825.945312 405.40625 " fill-opacity="1" fill-rule="nonzero"/><path fill="#3bbec5" d="M 811.859375 410.105469 C 811.859375 410.773438 811.3125 411.316406 810.636719 411.316406 L 803.160156 411.316406 C 802.484375 411.316406 801.9375 410.773438 801.9375 410.105469 C 801.9375 409.433594 802.484375 408.890625 803.160156 408.890625 L 810.636719 408.890625 C 811.3125 408.890625 811.859375 409.433594 811.859375 410.105469 " fill-opacity="1" fill-rule="nonzero"/><path fill="#4397c6" d="M 811.089844 408.976562 C 811.148438 409.128906 811.175781 409.292969 811.175781 409.464844 C 811.175781 410.132812 810.707031 410.148438 810.125 410.148438 L 803.671875 410.148438 C 803.089844 410.148438 802.617188 410.132812 802.617188 409.464844 C 802.617188 409.292969 802.652344 409.128906 802.707031 408.976562 C 802.253906 409.15625 801.9375 409.59375 801.9375 410.105469 C 801.9375 410.773438 802.484375 411.316406 803.160156 411.316406 L 810.636719 411.316406 C 811.3125 411.316406 811.859375 410.773438 811.859375 410.105469 C 811.859375 409.59375 811.539062 409.15625 811.089844 408.976562 " fill-opacity="1" fill-rule="nonzero"/><path fill="#ffffff" d="M 786.851562 402.9375 L 783.707031 401.992188 L 784.46875 399.496094 L 787.613281 400.445312 Z M 788.679688 398.707031 L 782.644531 398.707031 C 782.378906 398.707031 782.164062 398.921875 782.164062 399.183594 L 782.164062 403.25 C 782.164062 403.515625 782.378906 403.726562 782.644531 403.726562 L 788.679688 403.726562 C 788.945312 403.726562 789.15625 403.515625 789.15625 403.25 L 789.15625 399.183594 C 789.15625 398.921875 788.945312 398.707031 788.679688 398.707031 " fill-opacity="1" fill-rule="nonzero"/><path fill="#ffffff" d="M 783.320312 403.316406 L 783.320312 404.476562 L 784.585938 403.316406 Z M 783.320312 403.316406 " fill-opacity="1" fill-rule="nonzero"/><path fill="#ffffff" d="M 785.058594 401.867188 L 786.347656 400.585938 L 784.785156 400.378906 Z M 785.058594 401.867188 " fill-opacity="1" fill-rule="nonzero"/><path fill="#ffffff" d="M 786.535156 401.71875 L 786.199219 402.054688 L 785.417969 401.277344 L 785.757812 400.945312 L 786.535156 401.71875 " fill-opacity="1" fill-rule="nonzero"/><path fill="#bdbcbc" d="M 824.761719 417.992188 L 782.507812 417.992188 L 782.507812 417.570312 L 824.761719 417.570312 L 824.761719 417.992188 " fill-opacity="1" fill-rule="nonzero"/><path fill="#87d8f7" d="M 801.582031 437.199219 L 787.457031 437.199219 L 787.457031 423.171875 L 801.582031 423.171875 L 801.582031 437.199219 " fill-opacity="1" fill-rule="nonzero"/><path fill="#b8d2da" d="M 813.933594 424.214844 L 803.507812 424.214844 L 803.507812 423.621094 L 813.933594 423.621094 L 813.933594 424.214844 " fill-opacity="1" fill-rule="nonzero"/><path fill="#b8d2da" d="M 819.8125 424.214844 L 814.832031 424.214844 L 814.832031 423.621094 L 819.8125 423.621094 L 819.8125 424.214844 " fill-opacity="1" fill-rule="nonzero"/><path fill="#b8d2da" d="M 819.8125 427.929688 L 809.386719 427.929688 L 809.386719 427.335938 L 819.8125 427.335938 L 819.8125 427.929688 " fill-opacity="1" fill-rule="nonzero"/><path fill="#b8d2da" d="M 808.488281 427.929688 L 803.507812 427.929688 L 803.507812 427.335938 L 808.488281 427.335938 L 808.488281 427.929688 " fill-opacity="1" fill-rule="nonzero"/><path fill="#b8d2da" d="M 807.5 429.789062 L 803.507812 429.789062 L 803.507812 429.195312 L 807.5 429.195312 L 807.5 429.789062 " fill-opacity="1" fill-rule="nonzero"/><path fill="#b8d2da" d="M 814.332031 429.789062 L 808.605469 429.789062 L 808.605469 429.195312 L 814.332031 429.195312 L 814.332031 429.789062 " fill-opacity="1" fill-rule="nonzero"/><path fill="#b8d2da" d="M 807.5 426.070312 L 803.507812 426.070312 L 803.507812 425.480469 L 807.5 425.480469 L 807.5 426.070312 " fill-opacity="1" fill-rule="nonzero"/><path fill="#b8d2da" d="M 812.0625 426.074219 L 808.140625 426.074219 L 808.140625 425.480469 L 812.0625 425.480469 L 812.0625 426.074219 " fill-opacity="1" fill-rule="nonzero"/><path fill="#b8d2da" d="M 819.8125 426.074219 L 812.871094 426.074219 L 812.871094 425.480469 L 819.8125 425.480469 L 819.8125 426.074219 " fill-opacity="1" fill-rule="nonzero"/><path fill="#b8d2da" d="M 813.933594 431.171875 L 803.507812 431.171875 L 803.507812 430.582031 L 813.933594 430.582031 L 813.933594 431.171875 " fill-opacity="1" fill-rule="nonzero"/><path fill="#b8d2da" d="M 819.8125 431.175781 L 814.832031 431.175781 L 814.832031 430.582031 L 819.8125 430.582031 L 819.8125 431.175781 " fill-opacity="1" fill-rule="nonzero"/><path fill="#b8d2da" d="M 819.8125 434.890625 L 809.386719 434.890625 L 809.386719 434.296875 L 819.8125 434.296875 L 819.8125 434.890625 " fill-opacity="1" fill-rule="nonzero"/><path fill="#b8d2da" d="M 808.488281 434.890625 L 803.507812 434.890625 L 803.507812 434.296875 L 808.488281 434.296875 L 808.488281 434.890625 " fill-opacity="1" fill-rule="nonzero"/><path fill="#b8d2da" d="M 807.5 436.75 L 803.507812 436.75 L 803.507812 436.15625 L 807.5 436.15625 L 807.5 436.75 " fill-opacity="1" fill-rule="nonzero"/><path fill="#b8d2da" d="M 814.332031 436.75 L 808.605469 436.75 L 808.605469 436.15625 L 814.332031 436.15625 L 814.332031 436.75 " fill-opacity="1" fill-rule="nonzero"/><path fill="#b8d2da" d="M 807.5 433.03125 L 803.507812 433.03125 L 803.507812 432.441406 L 807.5 432.441406 L 807.5 433.03125 " fill-opacity="1" fill-rule="nonzero"/><path fill="#b8d2da" d="M 812.0625 433.035156 L 808.140625 433.035156 L 808.140625 432.441406 L 812.0625 432.441406 L 812.0625 433.035156 " fill-opacity="1" fill-rule="nonzero"/><path fill="#b8d2da" d="M 819.8125 433.035156 L 812.871094 433.035156 L 812.871094 432.441406 L 819.8125 432.441406 L 819.8125 433.035156 " fill-opacity="1" fill-rule="nonzero"/><path fill="#87d8f7" d="M 801.582031 454.449219 L 787.457031 454.449219 L 787.457031 440.421875 L 801.582031 440.421875 L 801.582031 454.449219 " fill-opacity="1" fill-rule="nonzero"/><path fill="#b8d2da" d="M 813.933594 441.464844 L 803.507812 441.464844 L 803.507812 440.871094 L 813.933594 440.871094 L 813.933594 441.464844 " fill-opacity="1" fill-rule="nonzero"/><path fill="#b8d2da" d="M 819.8125 441.464844 L 814.832031 441.464844 L 814.832031 440.871094 L 819.8125 440.871094 L 819.8125 441.464844 " fill-opacity="1" fill-rule="nonzero"/><path fill="#b8d2da" d="M 819.8125 445.179688 L 809.386719 445.179688 L 809.386719 444.585938 L 819.8125 444.585938 L 819.8125 445.179688 " fill-opacity="1" fill-rule="nonzero"/><path fill="#b8d2da" d="M 808.488281 445.179688 L 803.507812 445.179688 L 803.507812 444.585938 L 808.488281 444.585938 L 808.488281 445.179688 " fill-opacity="1" fill-rule="nonzero"/><path fill="#b8d2da" d="M 807.5 447.039062 L 803.507812 447.039062 L 803.507812 446.445312 L 807.5 446.445312 L 807.5 447.039062 " fill-opacity="1" fill-rule="nonzero"/><path fill="#b8d2da" d="M 814.332031 447.039062 L 808.605469 447.039062 L 808.605469 446.445312 L 814.332031 446.445312 L 814.332031 447.039062 " fill-opacity="1" fill-rule="nonzero"/><path fill="#b8d2da" d="M 807.5 443.324219 L 803.507812 443.324219 L 803.507812 442.730469 L 807.5 442.730469 L 807.5 443.324219 " fill-opacity="1" fill-rule="nonzero"/><path fill="#b8d2da" d="M 812.0625 443.324219 L 808.140625 443.324219 L 808.140625 442.730469 L 812.0625 442.730469 L 812.0625 443.324219 " fill-opacity="1" fill-rule="nonzero"/><path fill="#b8d2da" d="M 819.8125 443.324219 L 812.871094 443.324219 L 812.871094 442.730469 L 819.8125 442.730469 L 819.8125 443.324219 " fill-opacity="1" fill-rule="nonzero"/><path fill="#b8d2da" d="M 813.933594 448.425781 L 803.507812 448.425781 L 803.507812 447.832031 L 813.933594 447.832031 L 813.933594 448.425781 " fill-opacity="1" fill-rule="nonzero"/><path fill="#b8d2da" d="M 819.8125 448.425781 L 814.832031 448.425781 L 814.832031 447.832031 L 819.8125 447.832031 L 819.8125 448.425781 " fill-opacity="1" fill-rule="nonzero"/><path fill="#b8d2da" d="M 819.8125 452.140625 L 809.386719 452.140625 L 809.386719 451.546875 L 819.8125 451.546875 L 819.8125 452.140625 " fill-opacity="1" fill-rule="nonzero"/><path fill="#b8d2da" d="M 808.488281 452.140625 L 803.507812 452.140625 L 803.507812 451.546875 L 808.488281 451.546875 L 808.488281 452.140625 " fill-opacity="1" fill-rule="nonzero"/><path fill="#b8d2da" d="M 807.5 454 L 803.507812 454 L 803.507812 453.40625 L 807.5 453.40625 L 807.5 454 " fill-opacity="1" fill-rule="nonzero"/><path fill="#b8d2da" d="M 814.332031 454 L 808.605469 454 L 808.605469 453.40625 L 814.332031 453.40625 L 814.332031 454 " fill-opacity="1" fill-rule="nonzero"/><path fill="#b8d2da" d="M 807.5 450.285156 L 803.507812 450.285156 L 803.507812 449.691406 L 807.5 449.691406 L 807.5 450.285156 " fill-opacity="1" fill-rule="nonzero"/><path fill="#b8d2da" d="M 812.0625 450.285156 L 808.140625 450.285156 L 808.140625 449.691406 L 812.0625 449.691406 L 812.0625 450.285156 " fill-opacity="1" fill-rule="nonzero"/><path fill="#b8d2da" d="M 819.8125 450.285156 L 812.871094 450.285156 L 812.871094 449.691406 L 819.8125 449.691406 L 819.8125 450.285156 " fill-opacity="1" fill-rule="nonzero"/><path fill="#87d8f7" d="M 801.582031 471.699219 L 787.457031 471.699219 L 787.457031 457.671875 L 801.582031 457.671875 L 801.582031 471.699219 " fill-opacity="1" fill-rule="nonzero"/><path fill="#b8d2da" d="M 813.933594 458.714844 L 803.507812 458.714844 L 803.507812 458.121094 L 813.933594 458.121094 L 813.933594 458.714844 " fill-opacity="1" fill-rule="nonzero"/><path fill="#b8d2da" d="M 819.8125 458.714844 L 814.832031 458.714844 L 814.832031 458.121094 L 819.8125 458.121094 L 819.8125 458.714844 " fill-opacity="1" fill-rule="nonzero"/><path fill="#b8d2da" d="M 819.8125 462.429688 L 809.386719 462.429688 L 809.386719 461.835938 L 819.8125 461.835938 L 819.8125 462.429688 " fill-opacity="1" fill-rule="nonzero"/><path fill="#b8d2da" d="M 808.488281 462.429688 L 803.507812 462.429688 L 803.507812 461.835938 L 808.488281 461.835938 L 808.488281 462.429688 " fill-opacity="1" fill-rule="nonzero"/><path fill="#b8d2da" d="M 807.5 464.289062 L 803.507812 464.289062 L 803.507812 463.695312 L 807.5 463.695312 L 807.5 464.289062 " fill-opacity="1" fill-rule="nonzero"/><path fill="#b8d2da" d="M 814.332031 464.289062 L 808.605469 464.289062 L 808.605469 463.695312 L 814.332031 463.695312 L 814.332031 464.289062 " fill-opacity="1" fill-rule="nonzero"/><path fill="#b8d2da" d="M 807.5 460.570312 L 803.507812 460.570312 L 803.507812 459.980469 L 807.5 459.980469 L 807.5 460.570312 " fill-opacity="1" fill-rule="nonzero"/><path fill="#b8d2da" d="M 812.0625 460.570312 L 808.140625 460.570312 L 808.140625 459.980469 L 812.0625 459.980469 L 812.0625 460.570312 " fill-opacity="1" fill-rule="nonzero"/><path fill="#b8d2da" d="M 819.8125 460.570312 L 812.871094 460.570312 L 812.871094 459.980469 L 819.8125 459.980469 L 819.8125 460.570312 " fill-opacity="1" fill-rule="nonzero"/><path fill="#b8d2da" d="M 813.933594 465.675781 L 803.507812 465.675781 L 803.507812 465.082031 L 813.933594 465.082031 L 813.933594 465.675781 " fill-opacity="1" fill-rule="nonzero"/><path fill="#b8d2da" d="M 819.8125 465.675781 L 814.832031 465.675781 L 814.832031 465.082031 L 819.8125 465.082031 L 819.8125 465.675781 " fill-opacity="1" fill-rule="nonzero"/><path fill="#b8d2da" d="M 819.8125 469.390625 L 809.386719 469.390625 L 809.386719 468.796875 L 819.8125 468.796875 L 819.8125 469.390625 " fill-opacity="1" fill-rule="nonzero"/><path fill="#b8d2da" d="M 808.488281 469.390625 L 803.507812 469.390625 L 803.507812 468.796875 L 808.488281 468.796875 L 808.488281 469.390625 " fill-opacity="1" fill-rule="nonzero"/><path fill="#b8d2da" d="M 807.5 471.25 L 803.507812 471.25 L 803.507812 470.65625 L 807.5 470.65625 L 807.5 471.25 " fill-opacity="1" fill-rule="nonzero"/><path fill="#b8d2da" d="M 814.332031 471.25 L 808.605469 471.25 L 808.605469 470.65625 L 814.332031 470.65625 L 814.332031 471.25 " fill-opacity="1" fill-rule="nonzero"/><path fill="#b8d2da" d="M 807.5 467.53125 L 803.507812 467.53125 L 803.507812 466.941406 L 807.5 466.941406 L 807.5 467.53125 " fill-opacity="1" fill-rule="nonzero"/><path fill="#b8d2da" d="M 812.0625 467.53125 L 808.140625 467.53125 L 808.140625 466.941406 L 812.0625 466.941406 L 812.0625 467.53125 " fill-opacity="1" fill-rule="nonzero"/><path fill="#b8d2da" d="M 819.8125 467.53125 L 812.871094 467.53125 L 812.871094 466.941406 L 819.8125 466.941406 L 819.8125 467.53125 " fill-opacity="1" fill-rule="nonzero"/><path fill="#6975c2" d="M 778.421875 479.5625 C 778.539062 480.855469 779.625 481.878906 780.957031 481.878906 L 826.195312 481.878906 C 827.53125 481.878906 828.613281 480.855469 828.730469 479.5625 L 778.421875 479.5625 " fill-opacity="1" fill-rule="nonzero"/><path fill="#ffffff" d="M 785.226562 476.402344 L 822.042969 476.402344 L 822.042969 475.808594 L 785.226562 475.808594 " fill-opacity="1" fill-rule="nonzero"/><path fill="#ffffff" d="M 792.503906 478.03125 L 798.46875 478.03125 L 798.46875 477.4375 L 792.503906 477.4375 " fill-opacity="1" fill-rule="nonzero"/><path fill="#ffffff" d="M 799.230469 478.03125 L 805.195312 478.03125 L 805.195312 477.4375 L 799.230469 477.4375 " fill-opacity="1" fill-rule="nonzero"/><path fill="#ffffff" d="M 805.953125 478.03125 L 807.96875 478.03125 L 807.96875 477.4375 L 805.953125 477.4375 " fill-opacity="1" fill-rule="nonzero"/><path fill="#ffffff" d="M 808.796875 478.03125 L 814.765625 478.03125 L 814.765625 477.4375 L 808.796875 477.4375 " fill-opacity="1" fill-rule="nonzero"/></svg>