<svg xmlns="http://www.w3.org/2000/svg" width="213.262" height="213.262" viewBox="0 0 213.262 213.262"><path d="M636,427.631A106.631,106.631,0,1,0,742.631,321,106.632,106.632,0,0,0,636,427.631" transform="translate(-636 -321)" fill="#2e445a"/><path d="M680.021,435.877a53.917,53.917,0,0,0,48.3,32.931v-6.021a47.933,47.933,0,1,1,49.343-47.915,1.409,1.409,0,0,1-1.408,1.414h-2.9l7.314,8.886,7.318-8.886h-2.9a1.409,1.409,0,0,1-1.408-1.414,53.948,53.948,0,1,0-103.657,21.005Zm-2.6-43.1a56.769,56.769,0,0,1,109.055,20.688h4.5a1.408,1.408,0,0,1,1.085,2.305l-10.3,12.516a1.407,1.407,0,0,1-2.177,0l-10.3-12.516a1.4,1.4,0,0,1-.189-1.5,1.415,1.415,0,0,1,1.274-.809h4.458a45.115,45.115,0,1,0-45.093,46.527,1.412,1.412,0,0,1,1.413,1.409v8.836a1.413,1.413,0,0,1-1.413,1.408,56.8,56.8,0,0,1-52.3-78.867" transform="translate(-626.042 -311.003)" fill="#f9fafa"/><path d="M726.24,426.764v3.788h3.223v-3.788a1.409,1.409,0,0,1,1.186-1.394,17.43,17.43,0,0,0,7.437-3.085,1.411,1.411,0,0,1,1.82.149l2.682,2.678,2.276-2.276-2.677-2.678a1.416,1.416,0,0,1-.15-1.824,17.565,17.565,0,0,0,3.085-7.437,1.407,1.407,0,0,1,1.394-1.186H750.3v-3.223h-3.788a1.408,1.408,0,0,1-1.394-1.186,17.559,17.559,0,0,0-3.085-7.437,1.417,1.417,0,0,1,.15-1.825l2.677-2.677-2.276-2.276-2.682,2.677a1.41,1.41,0,0,1-1.82.15,17.43,17.43,0,0,0-7.437-3.085,1.409,1.409,0,0,1-1.186-1.394v-3.788H726.24v3.788a1.407,1.407,0,0,1-1.184,1.394,17.435,17.435,0,0,0-7.439,3.085,1.415,1.415,0,0,1-1.824-.15l-2.679-2.677-2.276,2.276,2.678,2.677a1.418,1.418,0,0,1,.148,1.825,17.429,17.429,0,0,0-3.085,7.438,1.408,1.408,0,0,1-1.393,1.186H705.4v3.223h3.789a1.407,1.407,0,0,1,1.393,1.186,17.435,17.435,0,0,0,3.085,7.438,1.417,1.417,0,0,1-.148,1.824l-2.678,2.678,2.276,2.276,2.679-2.678a1.417,1.417,0,0,1,1.824-.149,17.435,17.435,0,0,0,7.439,3.085A1.407,1.407,0,0,1,726.24,426.764Zm-2.821,5.2v-4.032a20.362,20.362,0,0,1-6.452-2.677l-2.856,2.856a1.413,1.413,0,0,1-1.993,0l-4.274-4.274a1.408,1.408,0,0,1,0-1.993l2.856-2.856a20.419,20.419,0,0,1-2.677-6.451h-4.032a1.409,1.409,0,0,1-1.413-1.409v-6.045a1.412,1.412,0,0,1,1.413-1.413h4.032a20.408,20.408,0,0,1,2.677-6.451l-2.856-2.856a1.408,1.408,0,0,1,0-1.993l4.274-4.274a1.41,1.41,0,0,1,1.993,0l2.856,2.856a20.365,20.365,0,0,1,6.452-2.678v-4.03a1.411,1.411,0,0,1,1.408-1.414h6.045a1.416,1.416,0,0,1,1.413,1.414v4.03a20.407,20.407,0,0,1,6.451,2.678l2.856-2.856a1.41,1.41,0,0,1,1.993,0l4.274,4.274a1.408,1.408,0,0,1,0,1.993L745,397.214a20.409,20.409,0,0,1,2.678,6.451h4.032a1.416,1.416,0,0,1,1.413,1.413v6.045a1.412,1.412,0,0,1-1.413,1.409h-4.032A20.372,20.372,0,0,1,745,418.983l2.856,2.856a1.41,1.41,0,0,1,0,1.993l-4.274,4.274a1.413,1.413,0,0,1-1.993,0l-2.856-2.856a20.4,20.4,0,0,1-6.451,2.677v4.032a1.413,1.413,0,0,1-1.413,1.414h-6.045a1.409,1.409,0,0,1-1.408-1.414" transform="translate(-624.38 -304.344)" fill="#f9fafa"/><path d="M725.065,414.628a9.317,9.317,0,1,0-9.318-9.318A9.328,9.328,0,0,0,725.065,414.628Zm0-21.456a12.139,12.139,0,1,1-12.139,12.138,12.151,12.151,0,0,1,12.139-12.138" transform="translate(-621.593 -301.556)" fill="#00efeb"/><path d="M701,458.2a18.685,18.685,0,1,0-18.688-18.685A18.7,18.7,0,0,0,701,458.2Zm0-40.19a21.51,21.51,0,1,1-15.207,6.3,21.357,21.357,0,0,1,15.207-6.3" transform="translate(-564.442 -294.864)" fill="#f9fafa"/><path d="M690.444,447.775a13.2,13.2,0,0,0,7.993,3.818v-1.959a1.411,1.411,0,1,1,2.822,0v1.959a13.3,13.3,0,0,0,11.811-11.811h-1.959a1.411,1.411,0,1,1,0-2.822h1.959a13.313,13.313,0,0,0-11.811-11.812v1.964a1.411,1.411,0,0,1-2.822,0v-1.964a13.3,13.3,0,0,0-11.812,11.812h1.959a1.411,1.411,0,1,1,0,2.822h-1.959A13.222,13.222,0,0,0,690.444,447.775Zm9.406-25.517a16.11,16.11,0,1,1-11.4,4.716,16.024,16.024,0,0,1,11.4-4.716" transform="translate(-563.294 -293.72)" fill="#00efeb"/><path d="M700.291,435.974V430.4a1.411,1.411,0,0,1,2.822,0v6.158a1.416,1.416,0,0,1-.413,1l-4.979,4.974a1.4,1.4,0,0,1-1.993,0,1.411,1.411,0,0,1,0-1.993l4.562-4.562" transform="translate(-565.147 -291.905)" fill="#f9fafa"/></svg>