<svg xmlns="http://www.w3.org/2000/svg" xmlns:xlink="http://www.w3.org/1999/xlink" width="52.848" height="60.332" viewBox="0 0 52.848 60.332"><defs><clipPath id="a"><path d="M704.25,387h16.358v48.654H704.25Zm0,0" transform="translate(-704.25 -387)" fill="#10355b"/></clipPath><clipPath id="b"><path d="M726,387h16.358v48.654H726Zm0,0" transform="translate(-726 -387)" fill="#10355b"/></clipPath></defs><g transform="translate(-704.25 -387)"><path d="M726.472,398.557a4.515,4.515,0,0,1-.354,1.763,4.6,4.6,0,0,1-2.49,2.5,4.65,4.65,0,0,1-3.526,0,4.639,4.639,0,0,1-2.5-2.5,4.619,4.619,0,0,1,1-5.033,4.476,4.476,0,0,1,1.493-1,4.588,4.588,0,0,1,3.526,0,4.476,4.476,0,0,1,1.493,1,4.633,4.633,0,0,1,1,1.5A4.522,4.522,0,0,1,726.472,398.557Zm0,0" transform="translate(8.816 4.702)" fill="#10355b"/><path d="M708.375,396.511a1.3,1.3,0,0,1,1.015.092l10.925,5.7.289-.55-10.932-5.7a1.929,1.929,0,0,0-1.48-.124,1.879,1.879,0,0,0-1.141.956,1.946,1.946,0,0,0,.825,2.627l11.482,5.991.282-.545-11.482-5.989a1.33,1.33,0,0,1-.564-1.8A1.339,1.339,0,0,1,708.375,396.511Zm0,0" transform="translate(1.747 5.988)" fill="#10355b"/><path d="M706.344,406.243a1.906,1.906,0,0,0,1.867,1.559,2.05,2.05,0,0,0,.336-.025l10.6-1.921-.092-.512-10.6,1.928a1.388,1.388,0,0,1-.492-2.733l10.833-1.96-.092-.505-10.833,1.96A1.912,1.912,0,0,0,706.344,406.243Zm0,0" transform="translate(1.399 10.216)" fill="#10355b"/><path d="M720.935,407l-8.409,8.7a1.436,1.436,0,0,1-2.025.034,1.41,1.41,0,0,1-.433-1.01,1.431,1.431,0,0,1,.4-1.022l9.377-9.7-.3-.289-9.365,9.7a1.824,1.824,0,0,0-.525,1.317,1.847,1.847,0,0,0,.564,1.3,1.82,1.82,0,0,0,1.278.517,1.876,1.876,0,0,0,1.33-.557l8.4-8.7Zm0,0" transform="translate(3.664 11.325)" fill="#10355b"/><g transform="translate(704.25 387)" clip-path="url(#a)"><path d="M718.012,434.536l.25-.446a26.122,26.122,0,0,1-1.265-45l.151,1.73,3.085-3.788-4.862.426,1.4,1.141a26.662,26.662,0,0,0,1.245,45.934Zm0,0" transform="translate(-704.25 -386.976)" fill="#10355b"/></g><path d="M740.291,391.074a1.64,1.64,0,0,0-2.241.591l-8.612,14.772h-6.724L714.1,391.665a1.637,1.637,0,1,0-2.824,1.658l9.266,15.886v32.97a2.53,2.53,0,1,0,5.06,0V423.652h.95v18.527a2.533,2.533,0,1,0,5.067,0v-32.97l9.266-15.886A1.648,1.648,0,0,0,740.291,391.074Zm0,0" transform="translate(4.605 2.61)" fill="#10355b"/><path d="M737.383,395.928a1.954,1.954,0,0,0-1.488.124l-10.93,5.7.289.55,10.93-5.7a1.325,1.325,0,0,1,1.01-.092,1.333,1.333,0,0,1,.216,2.458l-11.482,5.989.282.545,11.482-5.991a1.956,1.956,0,0,0,.832-2.627A1.917,1.917,0,0,0,737.383,395.928Zm0,0" transform="translate(14.039 5.988)" fill="#10355b"/><path d="M736.984,407.8a1.856,1.856,0,0,0,1.074-.334,1.9,1.9,0,0,0-.74-3.434l-10.833-1.96-.092.505,10.833,1.96a1.391,1.391,0,0,1,.891.577,1.389,1.389,0,0,1-.347,1.926,1.414,1.414,0,0,1-1.035.23l-10.6-1.928-.092.512,10.6,1.921A2.187,2.187,0,0,0,736.984,407.8Zm0,0" transform="translate(14.767 10.216)" fill="#10355b"/><path d="M733.179,416.542a1.848,1.848,0,0,0,1.324-3.132l-9.372-9.7-.3.289,9.372,9.7a1.414,1.414,0,0,1,.406,1.022,1.434,1.434,0,0,1-2.463.976l-8.4-8.7-.3.289,8.4,8.7A1.861,1.861,0,0,0,733.179,416.542Zm0,0" transform="translate(13.014 11.325)" fill="#10355b"/><g transform="translate(740.74 387)" clip-path="url(#b)"><path d="M729.691,388.6l1.4-1.141-4.857-.426,3.087,3.788.144-1.73a26.122,26.122,0,0,1-1.265,45l.25.446a26.662,26.662,0,0,0,1.245-45.934Zm0,0" transform="translate(-725.844 -386.976)" fill="#10355b"/></g></g></svg>