<svg xmlns="http://www.w3.org/2000/svg" xmlns:xlink="http://www.w3.org/1999/xlink" width="45.621" height="50.91" viewBox="0 0 45.621 50.91"><defs><clipPath id="a"><path d="M616.5,289.5h45.621v39.119H616.5Zm0,0" transform="translate(-616.5 -289.5)" fill="#10355b"/></clipPath><clipPath id="b"><path d="M662,389h25.565v28.981H662Zm0,0" transform="translate(-662 -389)" fill="#10355b"/></clipPath></defs><g transform="translate(-616.5 -289.5)"><g transform="translate(616.5 289.5)" clip-path="url(#a)"><path d="M657.052,289.5H621.569a5.084,5.084,0,0,0-5.069,5.091V323.44a5.085,5.085,0,0,0,5.069,5.091H624.1a.849.849,0,0,0,0-1.7h-2.534a3.385,3.385,0,0,1-3.379-3.394V294.591a3.385,3.385,0,0,1,3.379-3.395h35.483a3.385,3.385,0,0,1,3.379,3.395V323.44a3.385,3.385,0,0,1-3.379,3.394h-2.534a.849.849,0,0,0,0,1.7h2.534a5.085,5.085,0,0,0,5.069-5.091V294.591A5.084,5.084,0,0,0,657.052,289.5Zm0,0" transform="translate(-616.5 -289.5)" fill="#10355b"/></g><path d="M641.133,324.383l1.74-4.667,1.741,4.667a.847.847,0,0,0,.794.551.879.879,0,0,0,.3-.051.853.853,0,0,0,.5-1.094L643.667,317a.848.848,0,0,0-1.589,0l-2.534,6.788a.849.849,0,0,0,1.589.6Zm0,0" transform="translate(-17.924 -21.01)" fill="#10355b"/><path d="M678.677,316.449a.85.85,0,0,0-.845.849v4.243a3.38,3.38,0,1,0,6.759,0V317.3a.845.845,0,1,0-1.69,0v4.243a1.689,1.689,0,1,1-3.379,0V317.3A.85.85,0,0,0,678.677,316.449Zm0,0" transform="translate(-47.815 -21.01)" fill="#10355b"/><path d="M718.7,324.934a4.243,4.243,0,0,0,0-8.485h-1.69a.849.849,0,0,0-.845.849v6.788a.848.848,0,0,0,.845.848Zm-.845-6.788h.845a2.546,2.546,0,0,1,0,5.091h-.845Zm0,0" transform="translate(-77.702 -21.01)" fill="#10355b"/><path d="M756.19,324.086V317.3a.845.845,0,1,0-1.69,0v6.788a.845.845,0,1,0,1.69,0Zm0,0" transform="translate(-107.586 -21.01)" fill="#10355b"/><path d="M773.212,324.934a.849.849,0,0,0,.845-.848v-5.94h1.69a.848.848,0,0,0,0-1.7h-5.069a.848.848,0,0,0,0,1.7h1.689v5.94A.849.849,0,0,0,773.212,324.934Zm0,0" transform="translate(-119.539 -21.01)" fill="#10355b"/><path d="M644.177,368.2h32.1a.848.848,0,0,0,0-1.7h-32.1a.848.848,0,0,0,0,1.7Zm0,0" transform="translate(-20.918 -60.03)" fill="#10355b"/><g transform="translate(626.528 311.429)" clip-path="url(#b)"><path d="M687.249,393.829l-11.828-4.217a.811.811,0,0,0-.567,0l-11.827,4.217a.85.85,0,0,0-.566.8v9.664c0,6.771,3.912,11.429,11.625,13.83l.8.246a.972.972,0,0,0,.506,0l.8-.246c7.713-2.41,11.625-7.059,11.625-13.83v-9.664a.85.85,0,0,0-.566-.8Zm-1.124,10.462c0,5.94-3.506,10.055-10.433,12.21l-.549.169-.549-.169c-6.919-2.164-10.433-6.271-10.433-12.21v-9.07l10.982-3.912,10.982,3.912Zm0,0" transform="translate(-662.359 -389.438)" fill="#10355b"/></g><path d="M695.834,408.147l-8.448-3.1a.86.86,0,0,0-.583,0l-8.449,3.1a.852.852,0,0,0-.557.8V416.3c0,5.261,2.956,8.765,9.04,10.716a.866.866,0,0,0,.253.043.83.83,0,0,0,.254-.043c6.082-1.952,9.04-5.464,9.04-10.716v-7.356a.848.848,0,0,0-.558-.8Zm-3.9,5.073-5.635,5.94a.837.837,0,0,1-.608.262.821.821,0,0,1-.608-.262l-2.813-2.97a.844.844,0,1,1,1.217-1.171l2.2,2.324,5.018-5.295a.842.842,0,1,1,1.217,1.163Zm0,0" transform="translate(-47.788 -90.044)" fill="#10355b"/></g></svg>