<svg id="Groupe_974" data-name="Groupe 974" xmlns="http://www.w3.org/2000/svg" width="60" height="45" viewBox="0 0 60 45">
  <g id="Groupe_973" data-name="Groupe 973" transform="translate(45 29.5)">
    <rect id="Rectangle_287" data-name="Rectangle 287" width="15" height="1.5" fill="#707070"/>
    <rect id="Rectangle_289" data-name="Rectangle 289" width="15" height="1.5" transform="translate(0 3.5)" fill="#707070"/>
  </g>
  <g id="Rectangle_90" data-name="Rectangle 90" transform="translate(0 0)" fill="#f9f9f9" stroke="#707070" stroke-width="0.5">
    <path d="M7,0H39a7,7,0,0,1,7,7V45a0,0,0,0,1,0,0H0a0,0,0,0,1,0,0V7A7,7,0,0,1,7,0Z" stroke="none"/>
    <path d="M7,.25H39A6.75,6.75,0,0,1,45.75,7V44.5a.25.25,0,0,1-.25.25H.5a.25.25,0,0,1-.25-.25V7A6.75,6.75,0,0,1,7,.25Z" fill="none"/>
  </g>
  <rect id="Rectangle_290" data-name="Rectangle 290" width="15" height="2" transform="translate(45 31)" fill="#f9f9f9"/>
</svg>
