<svg xmlns="http://www.w3.org/2000/svg" xmlns:xlink="http://www.w3.org/1999/xlink" width="87.75" height="87.508" viewBox="0 0 87.75 87.508"><defs><clipPath id="a"><path d="M1.078,32h87.75V89H1.078Zm0,0" fill="#10355b"/></clipPath><clipPath id="b"><path d="M1.078,1.492H42V40H1.078Zm0,0" fill="#10355b"/></clipPath><clipPath id="c"><path d="M47,1.492H88.828V40H47Zm0,0" fill="#10355b"/></clipPath></defs><g transform="translate(-1.078 -1.492)"><g clip-path="url(#a)"><path d="M84.27,55.074H58.891a1.412,1.412,0,0,1-1.41-1.41v-1.41h28.2v1.41A1.412,1.412,0,0,1,84.27,55.074ZM74.4,60.715H68.762v-2.82H74.4ZM58.891,35.332H84.27a1.415,1.415,0,0,1,1.41,1.41V49.434H57.48V36.742A1.415,1.415,0,0,1,58.891,35.332Zm-14.1,50.762a12.682,12.682,0,0,1-4.23-24.641v3.074a9.871,9.871,0,1,0,8.461,0V61.453a12.682,12.682,0,0,1-4.23,24.641Zm-1.41-29.609a1.41,1.41,0,1,1,2.82,0v14.1a1.41,1.41,0,1,1-2.82,0Zm1.41,18.332a4.231,4.231,0,0,0,4.23-4.23v-2.8a7.051,7.051,0,1,1-8.461,0v2.8A4.231,4.231,0,0,0,44.789,74.816ZM3.9,53.664A12.689,12.689,0,1,1,16.59,66.355,12.708,12.708,0,0,1,3.9,53.664ZM84.27,32.516H58.891a4.23,4.23,0,0,0-4.23,4.227V53.664a4.231,4.231,0,0,0,4.23,4.23h7.051v2.82h-2.82v2.82h7.047v7.051A1.414,1.414,0,0,1,68.762,72H60.234A15.568,15.568,0,0,0,49.02,58.488v-2a4.23,4.23,0,1,0-8.461,0v2A15.573,15.573,0,0,0,29.344,72H19.41A1.415,1.415,0,0,1,18,70.586V69.1a15.512,15.512,0,1,0-2.82,0v1.484a4.231,4.231,0,0,0,4.231,4.23h9.941a15.5,15.5,0,0,0,30.875,0h8.535a4.23,4.23,0,0,0,4.227-4.23V63.535h7.051v-2.82h-2.82v-2.82H84.27a4.231,4.231,0,0,0,4.23-4.23V36.742a4.23,4.23,0,0,0-4.23-4.227" fill="#10355b"/></g><g clip-path="url(#b)"><path d="M5.309,4.313h14.1a1.415,1.415,0,0,1,1.41,1.41v1.41H3.9V5.723A1.412,1.412,0,0,1,5.309,4.313ZM3.9,26.875V9.953H20.82V26.875ZM19.41,32.516H5.309a1.415,1.415,0,0,1-1.41-1.41V29.7H20.82v1.41A1.417,1.417,0,0,1,19.41,32.516Zm-14.1,2.816h14.1a4.233,4.233,0,0,0,4.23-4.227V19.824h14.1a1.412,1.412,0,0,1,1.41,1.41V39.563h2.82V21.234A4.231,4.231,0,0,0,37.738,17h-14.1V5.723a4.234,4.234,0,0,0-4.23-4.23H5.309a4.231,4.231,0,0,0-4.23,4.23V31.105a4.23,4.23,0,0,0,4.23,4.227" fill="#10355b"/></g><path d="M15.18,59.3a1.41,1.41,0,1,1,1.41,1.41A1.412,1.412,0,0,1,15.18,59.3Zm5.641,0a4.23,4.23,0,1,0-4.23,4.23,4.231,4.231,0,0,0,4.23-4.23" fill="#10355b"/><path d="M21.574,54.32l1.992-2a9.881,9.881,0,0,0-13.957,0l2,2a7.054,7.054,0,0,1,9.969,0" fill="#10355b"/><path d="M25.563,50.332l1.992-1.992a15.52,15.52,0,0,0-21.934,0l2,1.992a12.708,12.708,0,0,1,17.945,0" fill="#10355b"/><path d="M39.148,50.844h2.82v-2.82h-2.82v2.82" fill="#10355b"/><path d="M41.969,42.383h-2.82V45.2h2.82v-2.82" fill="#10355b"/><path d="M50.43,48.023h-2.82v2.82h2.82v-2.82" fill="#10355b"/><path d="M50.43,42.383h-2.82V45.2h2.82v-2.82" fill="#10355b"/><g clip-path="url(#c)"><path d="M70.5,5.023a19.187,19.187,0,0,0-1.059,3.52H65.609A11.266,11.266,0,0,1,70.5,5.023Zm12.691,3.52H79.355A19.2,19.2,0,0,0,78.3,5.023,11.289,11.289,0,0,1,83.191,8.543ZM78.3,26.164a19.294,19.294,0,0,0,1.055-3.52h3.836A11.352,11.352,0,0,1,78.3,26.164Zm-12.691-3.52h3.832a19.281,19.281,0,0,0,1.059,3.52A11.329,11.329,0,0,1,65.609,22.645ZM68.789,17c.031.945.1,1.894.207,2.82H63.953A10.9,10.9,0,0,1,63.219,17Zm0-2.82h-5.57a10.859,10.859,0,0,1,.734-2.82H69C68.891,12.289,68.82,13.234,68.789,14.184Zm16.793,0h-5.57c-.031-.949-.105-1.895-.207-2.82h5.043A11.024,11.024,0,0,1,85.582,14.184ZM80.012,17h5.57a11.066,11.066,0,0,1-.734,2.82H79.8C79.906,18.9,79.98,17.949,80.012,17Zm-8.18,2.82c-.1-.867-.187-1.8-.227-2.82h5.586c-.039,1.019-.121,1.953-.227,2.82ZM74.4,26.875c-.437,0-1.387-1.445-2.059-4.23h4.121C75.789,25.43,74.84,26.875,74.4,26.875Zm2.566-15.512c.105.863.188,1.8.227,2.82H71.605c.039-1.02.125-1.957.227-2.82ZM74.4,4.313c.441,0,1.391,1.445,2.063,4.23H72.34C73.012,5.758,73.961,4.313,74.4,4.313ZM50.43,18.414A1.412,1.412,0,0,1,51.84,17h8.531a14.1,14.1,0,1,0,0-2.82H51.84a4.231,4.231,0,0,0-4.23,4.231V39.563h2.82V18.414" fill="#10355b"/></g></g></svg>