<svg xmlns="http://www.w3.org/2000/svg" xmlns:xlink="http://www.w3.org/1999/xlink" width="86.25" height="86.25" viewBox="0 0 86.25 86.25"><defs><clipPath id="a"><path d="M22,1.969H68V44H22Zm0,0" fill="#10355b"/></clipPath><clipPath id="b"><path d="M22,46H68V88.219H22Zm0,0" fill="#10355b"/></clipPath><clipPath id="c"><path d="M46,22H88.219V68H46Zm0,0" fill="#10355b"/></clipPath><clipPath id="d"><path d="M1.969,22H44V68H1.969Zm0,0" fill="#10355b"/></clipPath></defs><g transform="translate(-1.969 -1.969)"><path d="M35.824,42.223a1.8,1.8,0,0,1-2.469.629c-6.012-3.574-9.613-8.719-10.551-15.02.531-.051,1.07-.074,1.609-.074a16.184,16.184,0,0,1,2.047.125c.9,4.973,3.828,8.953,8.734,11.871a1.8,1.8,0,0,1,.629,2.469" fill="#10355b"/><g clip-path="url(#a)"><path d="M64.246,41.734a1.8,1.8,0,0,1-1.8,1.7c-.031,0-.066,0-.1,0l-5.613-.316a1.8,1.8,0,0,1-1.7-1.9l.313-5.609a1.8,1.8,0,1,1,3.6.2l-.074,1.316a18.833,18.833,0,1,0-32.418-16.09c-.68-.059-1.359-.086-2.047-.086-.535,0-1.074.016-1.6.059A22.44,22.44,0,1,1,61.34,39.766l1.211.07a1.8,1.8,0,0,1,1.7,1.9" fill="#10355b"/></g><path d="M53.531,47.574A1.808,1.808,0,0,1,56,46.918c6.266,3.633,10.141,8.961,11.168,15.242-.527.051-1.055.074-1.586.074a16.683,16.683,0,0,1-2.078-.129c-1.223-6.137-5.57-9.9-9.312-12.07a1.8,1.8,0,0,1-.656-2.461" fill="#10355b"/><g clip-path="url(#b)"><path d="M65.578,69.039c.527,0,1.055-.016,1.578-.055A22.817,22.817,0,0,1,60.738,81.32,22.344,22.344,0,0,1,29.047,49.813l-1.277-.125a1.8,1.8,0,1,1,.344-3.586l5.59.535A1.8,1.8,0,0,1,35.324,48.6L34.789,54.2A1.8,1.8,0,0,1,33,55.828c-.062,0-.117,0-.176-.008A1.813,1.813,0,0,1,31.2,53.852l.117-1.2A18.823,18.823,0,0,0,45,84.418c8.9,0,16.824-6.914,18.512-15.469.684.063,1.375.09,2.07.09" fill="#10355b"/></g><path d="M47.137,33.355c3.574-6.016,8.727-9.613,15.02-10.551a15.768,15.768,0,0,1,.078,1.609,16.273,16.273,0,0,1-.125,2.047c-4.973.9-8.957,3.832-11.875,8.734a1.8,1.8,0,1,1-3.1-1.84" fill="#10355b"/><g clip-path="url(#c)"><path d="M88.02,45a22.428,22.428,0,0,1-37.8,16.348l-.07,1.207a1.8,1.8,0,0,1-1.8,1.7.885.885,0,0,1-.1,0,1.794,1.794,0,0,1-1.7-1.895l.313-5.613a1.8,1.8,0,0,1,1.9-1.7l5.609.313a1.8,1.8,0,0,1-.2,3.6l-1.316-.07a18.835,18.835,0,1,0,16.09-32.422c.059-.68.086-1.363.086-2.047,0-.539-.016-1.074-.055-1.6A22.472,22.472,0,0,1,88.02,45" fill="#10355b"/></g><path d="M43.07,56c-3.629,6.266-8.957,10.141-15.242,11.168-.047-.527-.07-1.055-.07-1.586a15.925,15.925,0,0,1,.129-2.078c6.133-1.227,9.9-5.574,12.063-9.312A1.8,1.8,0,0,1,43.07,56" fill="#10355b"/><g clip-path="url(#d)"><path d="M43.891,28.113l-.539,5.594a1.8,1.8,0,0,1-1.793,1.629,1.424,1.424,0,0,1-.176-.012l-5.59-.535a1.8,1.8,0,0,1,.344-3.59l1.2.117A18.82,18.82,0,0,0,5.574,45c0,8.9,6.91,16.824,15.465,18.512-.062.684-.09,1.371-.09,2.07,0,.531.016,1.059.059,1.582A22.871,22.871,0,0,1,8.664,60.738,22.347,22.347,0,0,1,40.18,29.047L40.3,27.77a1.8,1.8,0,0,1,3.59.344" fill="#10355b"/></g></g></svg>