<svg xmlns="http://www.w3.org/2000/svg" xmlns:xlink="http://www.w3.org/1999/xlink" width="1133.48" height="796.758" viewBox="0 0 1133.48 796.758"><defs><clipPath id="a"><path d="M600,329H1640.664V954.552H600Zm0,0" transform="translate(0 0)"/></clipPath><clipPath id="b"><path d="M669.26,317.25,1683.074,426.9l-71.491,673.08L597.746,990.33Zm0,0" transform="translate(-597.746 -317.25)"/></clipPath></defs><g transform="matrix(0.985, 0.174, -0.174, 0.985, -425.128, -428.19)" opacity="0.25" clip-path="url(#a)"><g transform="translate(590.018 276.498)" clip-path="url(#b)"><g clip-path="url(#b)"><g clip-path="url(#b)"><path d="M1009.073,343.584c-205,48.311-369.927,218.608-402.5,441.635A538.519,538.519,0,0,0,607.82,949.5l1.714-.4a521.214,521.214,0,0,1-.779-161.991q2.75-18.036,6.66-35.589a1062.508,1062.508,0,0,0,122.178,25.974,703.138,703.138,0,0,0,10.743,140.155l1.244-.277a679.888,679.888,0,0,1-10.274-139.618q51.194,7.728,103.978,10.581,35.292,1.857,70.092,1.394c3.7,29.289,8.427,58.471,14.118,87.3l.726-.174c-5.69-28.762-10.416-57.931-14.047-87.148a1062.214,1062.214,0,0,0,213.513-24.419l24.422,104.534L1129.4,764.9a1059.347,1059.347,0,0,0,194.8-63.181c8.339,26.077,15.947,52.886,22.7,80.218l.726-.156c-6.767-27.368-14.374-54.249-22.677-80.375a1072.461,1072.461,0,0,0,144.178-76.415,682.075,682.075,0,0,1,44.129,119.244l1.333-.313a702.245,702.245,0,0,0-44.022-119.874,1080.651,1080.651,0,0,0,89.984-63.708,519.446,519.446,0,0,1,74.365,156.3l1.78-.4c-55.354-195.016-219.031-349.308-430.742-380.777a523.113,523.113,0,0,0-156.432.246c-4.322.559-8.6,1.22-12.869,1.971a84.268,84.268,0,0,0-9.738,1.85c-.261.054-.5.156-.762.21-2.267.491-4.548.961-6.8,1.5-.452.107-.881.246-1.333.348-2.976.648-5.983,1.273-8.941,1.975Zm17.107,5.147c1.3-.264,2.595-.523,3.893-.786l14.755,63.011a714.54,714.54,0,0,1-96.87,13.49C968.16,383.744,994.836,357.547,1026.18,348.731Zm12.523-2.444c.8-.139,1.59-.246,2.369-.384,22.23-2.27,46.48,3.646,72.258,18.78a219.185,219.185,0,0,1,27.19,19.1,713.742,713.742,0,0,1-84.329,24.7c-1.28.295-2.56.541-3.839.822Zm-50.062,13.23c-17.922,14.924-33.523,36.948-46.236,65.258-20.41,1.278-40.772,1.644-60.979,1.153C913.394,396.309,949.547,373.794,988.641,359.518Zm90.573-17.645a317.013,317.013,0,0,1,89.971,10.138c9.446,2.444,18.785,5.308,28.023,8.516q-25.142,11.6-51.378,21.331a232.513,232.513,0,0,0-33.957-25.062A151.453,151.453,0,0,0,1079.214,341.873ZM934.447,376.327a334.97,334.97,0,0,0-62.776,49.325c-9.583-.366-19.1-.943-28.611-1.676a532.873,532.873,0,0,1,91.388-47.667Zm206.335-38.154a530.726,530.726,0,0,1,66.235,5.268c6.333.907,12.625,1.957,18.874,3.074q-9.891,5.127-20,9.964a349.872,349.872,0,0,0-37.969-12.391C1158.823,341.68,1149.775,339.759,1140.782,338.173ZM834.047,429.964q15.6,1.435,31.326,2.181a407.234,407.234,0,0,0-59.212,80.182q-28.8-4.216-57.033-10.5a533.527,533.527,0,0,1,84.9-71.845Zm402.635-81.389a522.642,522.642,0,0,1,121.953,40.63c-15.291,10.125-30.963,19.794-46.98,28.869-30.379-24.137-62.949-43.824-97.216-58.154Q1225.671,354.417,1236.682,348.575Zm-362.244,84c.018-.014.053,0,.053-.014q32.249,1.1,64.884-.751c-10.535,25.2-18.923,54.995-24.874,88.824a794.234,794.234,0,0,1-102.942-7.56A396.122,396.122,0,0,1,874.438,432.578Zm331.87-68.748c35.635,13.508,69.485,32.707,101,56.688a787.056,787.056,0,0,1-91.716,43.672c-20.481-30.563-42-56.657-64.122-77.166Q1179.523,376.5,1206.308,363.829ZM944.619,431.478a721.179,721.179,0,0,0,101.7-13.927L1067.3,507.2q-37.676,7.017-76.65,10.469-36.946,3.224-73.378,2.985C923.845,486.357,933.114,456.438,944.619,431.478Zm201.906-42.69c22.988,19.843,45.338,45.728,66.563,76.429a787.411,787.411,0,0,1-139.821,40.826l-19.529-90.133c1.262-.277,2.524-.523,3.786-.8A724.727,724.727,0,0,0,1146.525,388.789ZM746.17,504.909q28.8,6.26,58.282,10.384c-19.928,35.679-35.932,75.786-47.33,119.579A907.945,907.945,0,0,1,666.239,615.2,528.43,528.43,0,0,1,746.17,504.909Zm615.493-114.253a518.576,518.576,0,0,1,101.347,64.718q-32.508,25.241-67.36,47.578a521.9,521.9,0,0,0-81.938-83.221Q1338.231,405.965,1361.664,390.657ZM809.8,516.008a803.616,803.616,0,0,0,104.27,7.158c-6.293,36.756-9.7,78.176-9.857,123.627A910.38,910.38,0,0,1,760.1,635.377C772.121,591.517,788.966,551.477,809.8,516.008Zm499.642-93.882a506.5,506.5,0,0,1,83.758,82.416,907.293,907.293,0,0,1-119.566,64.177c-17.594-37.806-36.689-72.434-56.842-102.716A805.742,805.742,0,0,0,1309.44,422.126ZM916.822,523.148c23.559,0,47.308-.961,71.217-3.056,27.035-2.355,53.6-6.072,79.741-10.978l27.456,117.452q-32.1,6.83-65.079,11.448a917.461,917.461,0,0,1-124.512,8.744C906.132,601.168,909.971,559.716,916.822,523.148Zm297.528-56.184c20.57,29.968,40.063,64.472,57.985,102.3a904.525,904.525,0,0,1-173.122,56.447L1073.7,507.979A805.11,805.11,0,0,0,1214.35,466.965ZM663.918,619.653a929.074,929.074,0,0,0,92.15,19.285,621.344,621.344,0,0,0-17.594,116.384c-.363,6.282-.607,12.533-.8,18.8A1044.469,1044.469,0,0,1,616.3,747.413,523.666,523.666,0,0,1,663.918,619.653Zm801.794-162.1a522.116,522.116,0,0,1,91.609,98.283,1067.174,1067.174,0,0,1-88.824,63.971,633.838,633.838,0,0,0-70.978-114.588Q1432.732,482.863,1465.712,457.555Zm-706.686,181.8a921.053,921.053,0,0,0,145.166,10.523q0,32.386,2.214,67.358c1.488,23.23,3.72,46.563,6.607,69.83q-32.721.315-65.872-1.448a1059.2,1059.2,0,0,1-107.7-11.255c.208-5.675.434-11.38.78-17.073A604.289,604.289,0,0,1,759.026,639.358ZM1395.067,506.83a614.436,614.436,0,0,1,71.978,113.9,1057.161,1057.161,0,0,1-143.231,77.251,1119.433,1119.433,0,0,0-49.212-127.17A925.467,925.467,0,0,0,1395.067,506.83ZM905.591,649.863a937.077,937.077,0,0,0,121.642-8.919q34.747-4.839,68.485-12.181l31.309,133.922A1038.525,1038.525,0,0,1,913.81,787.037c-2.75-22.551-4.845-45.156-6.244-67.671Q905.335,683.214,905.591,649.863ZM1273.3,571.374a1076.942,1076.942,0,0,1,49.766,126.942,1038.719,1038.719,0,0,1-194.276,63.971l-29.1-134.364a927.368,927.368,0,0,0,173.622-56.568Zm0,0" transform="translate(-586.993 -274.045)" fill="#ccc"/></g></g></g></g></svg>