<svg xmlns="http://www.w3.org/2000/svg" width="1100.688" height="362.448" viewBox="0 0 1100.688 362.448"><path d="M8554.519,15118.623h-3.239c-.425-.941-.786-1.737-1.137-2.5-1.713.938-3.131,1.709-4.6,2.5h-13.253c5.042-2.726,10.132-5.522,15.126-8.316a604.836,604.836,0,0,0-83.479-131.054c-28.079,14.916-57.216,28.762-86.6,41.152a722.5,722.5,0,0,1,42.167,98.218h-2.444a702.967,702.967,0,0,0-42.817-96.86c-23.93,10-48.593,19.231-73.3,27.446-24.735,8.222-50.164,15.638-75.578,22.042,3.958,15.364,7.712,31.3,11.159,47.372h-1.363c-3.507-15.926-7.334-31.734-11.377-46.989l.021-.02c-16.737,4.194-33.794,8.022-50.7,11.379-17.006,3.377-34.335,6.372-51.505,8.9-17.273,2.544-34.852,4.684-52.248,6.36-17.528,1.688-35.333,2.953-52.922,3.757l.585,16.612h-4.4l-.844-16.44c-15.067.626-30.18.942-44.917.942-11.628,0-23.347-.2-34.831-.586-23.346-.788-46.976-2.378-70.231-4.725-22.884-2.31-46.044-5.418-68.837-9.239-1.8,9.817-3.512,19.928-5.088,30.048h-1.434c1.527-10.183,3.191-20.379,4.942-30.307-27.541-4.671-55.17-10.506-82.121-17.343-26.743-6.785-53.51-14.732-79.557-23.622a692.125,692.125,0,0,0-27.949,71.271h-2.751a713.137,713.137,0,0,1,27.445-72.339c-16.861-5.815-33.911-12.207-50.674-19-16.449-6.661-33.071-13.889-49.4-21.48a618.157,618.157,0,0,0-68.757,112.815h-3.786a627.3,627.3,0,0,1,90.8-144.006,618.565,618.565,0,0,1,122.133-111.05,609.62,609.62,0,0,1,145.141-73.79,594.421,594.421,0,0,1,159.827-32.223l0-.02c2.618-.162,5.271-.271,7.837-.378q1.327-.054,2.65-.111c.276-.015.551-.042.818-.068h.013c.243-.024.494-.049.746-.063,1.958-.127,3.96-.208,5.9-.287l.1,0q.99-.04,1.98-.081a4.247,4.247,0,0,0,.437-.041l.027,0c.154-.021.293-.039.436-.045,2.453-.183,4.9-.275,7.273-.275,1.361,0,2.737.031,4.09.092h.855c4.885,0,9.486.1,14.067.3a589.669,589.669,0,0,1,176.568,30.843,593.151,593.151,0,0,1,216.965,129.7,605.761,605.761,0,0,1,43.085,44.789,613.642,613.642,0,0,1,38.18,48.82c11.82,16.8,22.941,34.434,33.054,52.4,10.093,17.929,19.415,36.606,27.706,55.513Zm-723.231-173.283h0c-15.321,41.121-27.983,88.115-37.636,139.679,23.249,4.05,46.941,7.342,70.417,9.785,23.775,2.474,47.951,4.141,71.855,4.953,11.578.4,23.37.6,35.047.6h.01c13.45,0,27.143-.266,40.7-.791l-7.205-140.3c-4.459.063-8.987.095-13.458.095h-.033c-26.439,0-52.922-1.13-78.715-3.357-26.521-2.274-53.767-5.862-80.979-10.662Zm347.108-5.3h0c-27.173,5.691-54.949,10.185-82.556,13.355-27.894,3.2-56.312,5.137-84.463,5.745l4.963,140.229a1027.1,1027.1,0,0,0,206.781-30.356c-12.688-47.432-27.735-90.825-44.724-128.974Zm-466.432-24.191c-31.125,37.1-58.123,79.879-80.244,127.146,25.87,9.029,52.415,17.113,78.9,24.027,26.751,6.984,54.142,12.958,81.412,17.755,9.216-51.28,21.377-98.372,36.146-139.964-19.684-3.541-39.5-7.793-58.9-12.636-19.17-4.786-38.453-10.279-57.312-16.329h0Zm582.811-8.363h0c-18.51,6.51-37.373,12.484-56.067,17.757-18.953,5.346-38.254,10.118-57.366,14.185,16.444,38.379,31.029,81.857,43.351,129.227,25.1-6.389,50.37-13.862,75.1-22.216,24.4-8.244,48.9-17.554,72.812-27.671-22.522-41.388-48.707-78.829-77.826-111.281Zm-652.36-17.037a616.258,616.258,0,0,0-112.525,110.714c16.014,7.6,32.389,14.856,48.668,21.577,16.447,6.79,33.238,13.212,49.905,19.087,21.478-47.453,47.592-90.471,77.615-127.858-21.666-7.094-43.085-15.008-63.663-23.52Zm717.658-8.7h0c-19.175,8.414-39.358,16.434-59.99,23.836,28.313,32.875,53.752,70.5,75.612,111.841,29.092-12.414,57.905-26.28,85.639-41.215a593.914,593.914,0,0,0-101.261-94.462Zm-478.862-36.118c-18.258,26.69-34.714,59.3-48.913,96.931,27.677,5.028,55.738,8.787,83.4,11.171,25.459,2.2,51.4,3.309,77.107,3.309,3.833,0,7.7-.024,11.507-.073l-5.531-107.089c-9.837.353-19.779.53-29.549.53-14.743,0-29.648-.4-44.3-1.2-14.564-.793-29.275-2-43.725-3.576h0Zm236.476-8.833h0c-17.34,3.2-34.956,5.864-52.356,7.932-17.707,2.1-35.674,3.642-53.4,4.569-.807.04-1.624.068-2.414.1-.66.022-1.342.046-2.022.077l3.79,107.357c28.02-.575,56.281-2.486,84-5.68,27.437-3.161,55.041-7.659,82.046-13.369-18.029-40.121-38.094-74.1-59.638-100.982Zm-315.866-3.872h-.009a.025.025,0,0,0-.016,0c-31.31,21.791-60.665,48.674-87.249,79.9,18.53,6.05,37.559,11.57,56.556,16.406,19.08,4.856,38.619,9.147,58.073,12.754,13.476-37.4,28.97-70.047,46.05-97.02-24.663-2.893-49.348-6.946-73.368-12.048a.009.009,0,0,1-.008,0l-.013,0-.005,0h-.01Zm388.376-12.889h0c-21.7,6.105-44.1,11.4-66.573,15.721,20.453,27.46,39.542,61.557,56.736,101.342,19.056-4.095,38.173-8.854,56.818-14.146s37.33-11.263,55.516-17.74c-31.158-34.3-65.643-62.955-102.5-85.177Zm-433.45,1.854h0l-.023.012a615.265,615.265,0,0,0-110.347,65.584c20.293,8.517,41.23,16.394,62.227,23.41a474.828,474.828,0,0,1,83.049-80.268c-11.575-2.617-23.319-5.558-34.906-8.738Zm470.813-13.321c-8.669,2.9-17.631,5.71-27.4,8.6a445.4,445.4,0,0,1,51.354,39.121,503.963,503.963,0,0,1,46.574,46.982c19.311-7.012,39.113-15.017,58.856-23.793a592.927,592.927,0,0,0-129.388-70.907Zm-233.015-41.834c-.832.026-1.679.049-2.5.072l-.512.014-.774.021-.765.021c-18.41,1.925-36.61,9.031-54.093,21.121-17.333,11.986-33.988,28.889-49.5,50.236a808.384,808.384,0,0,0,83.179,4.306h.011c9.583,0,19.289-.174,28.85-.516l-3.9-75.276Zm10.076-.184,2.645,75.054c.6-.028,1.2-.049,1.789-.069l.192-.007c.822-.028,1.672-.058,2.517-.1,16.789-.881,33.788-2.312,50.526-4.253,16.508-1.914,33.208-4.377,49.635-7.321a252.851,252.851,0,0,0-26.817-27.334c-21.97-18.994-44.568-30.645-67.168-34.628a103.735,103.735,0,0,0-10.569-1.307h-.146c-.442,0-.911-.009-1.289-.016-.406-.007-.867-.016-1.315-.016Zm-59.169,5.226c-46.8,8.575-92.025,27.049-134.425,54.909,22.881,4.621,46.11,8.259,69.041,10.808a262.485,262.485,0,0,1,31.5-39.009,167.39,167.39,0,0,1,33.88-26.708Zm105.775-2.233h0a154.186,154.186,0,0,1,16.912,10.3,194.268,194.268,0,0,1,16.921,13.332,267.482,267.482,0,0,1,33.244,35.524c20.572-3.843,41.531-8.642,62.294-14.265-10.041-5.67-20.1-10.836-29.9-15.353a361.31,361.31,0,0,0-87.859-27.7C8058.986,14770.707,8055.079,14770.087,8051.227,14769.546Zm-170.33,10.729a608.476,608.476,0,0,0-112.772,36.537c11.11,2.873,21.561,5.364,31.949,7.615a398.68,398.68,0,0,1,39.57-24.757,375.075,375.075,0,0,1,41.249-19.376l0-.02Zm240.552-2.727h0c10.543,3.872,20.169,7.86,29.429,12.191a397.373,397.373,0,0,1,40.335,21.779c8.111-2.314,16.383-4.825,24.584-7.46-7.573-2.8-14.335-5.189-20.673-7.287-12.022-3.979-24.391-7.628-36.765-10.846-12.078-3.141-24.5-5.96-36.912-8.379Z" transform="translate(-7453.83 -14756.175)" fill="#ccc"/></svg>