<svg xmlns="http://www.w3.org/2000/svg" xmlns:xlink="http://www.w3.org/1999/xlink" width="71.595" height="55.402" viewBox="0 0 71.595 55.402"><defs><clipPath id="a"><path d="M674.25,369h71.6v40.688h-71.6Zm0,0" transform="translate(-674.25 -369)" fill="#10355b"/></clipPath></defs><g transform="translate(-674.25 -369)"><path d="M732.4,400.461c-.244-.574-.513-1.137-.813-1.687s-.624-1.082-.975-1.6a17.932,17.932,0,0,0-1.124-1.5q-.6-.719-1.265-1.379t-1.394-1.247c-.486-.391-.987-.761-1.509-1.1s-1.058-.66-1.611-.951-1.116-.553-1.693-.788a19.25,19.25,0,0,0-3.579-1.055,17.94,17.94,0,0,0-1.85-.26c-.62-.058-1.24-.082-1.864-.08s-1.247.043-1.865.11a18.014,18.014,0,0,0-1.847.29,18.256,18.256,0,0,0-1.806.468,18.63,18.63,0,0,0-1.754.648,18.07,18.07,0,0,0-1.682.813q-.82.45-1.6.978c-.513.351-1.012.728-1.488,1.128s-.938.825-1.376,1.271a18.517,18.517,0,0,0-1.244,1.4q-.587.734-1.1,1.516t-.948,1.614c-.29.556-.55,1.121-.786,1.7s-.437,1.171-.614,1.77a18.649,18.649,0,0,0-.441,1.822c-.116.614-.2,1.235-.26,1.855s-.082,1.25-.079,1.874.043,1.25.107,1.873.162,1.238.287,1.853.281,1.216.467,1.815.4,1.183.642,1.761.513,1.137.81,1.687.624,1.085.972,1.6.725,1.018,1.125,1.5.818.941,1.262,1.382.908.852,1.394,1.246a18.221,18.221,0,0,0,1.507,1.106c.523.346,1.057.66,1.608.954s1.118.553,1.7.789,1.164.443,1.761.621,1.2.324,1.815.443a18.6,18.6,0,0,0,1.849.26,17.87,17.87,0,0,0,1.865.08c.624,0,1.244-.04,1.865-.1s1.235-.162,1.846-.287a18.33,18.33,0,0,0,1.81-.468c.592-.186,1.179-.4,1.751-.645.171-.07.34-.146.507-.223a.584.584,0,0,0,.364-.572.621.621,0,0,0-.076-.3.631.631,0,0,0-.211-.226.619.619,0,0,0-.293-.1.651.651,0,0,0-.306.055,17.449,17.449,0,0,1-4.08,1.311,10.982,10.982,0,0,0,1.809-2.534c.33.021.66.049.987.076a.635.635,0,0,0,.3-.052.6.6,0,0,0,.242-.193.626.626,0,0,0,.117-.285.618.618,0,0,0-.031-.305l-.005-.016a.57.57,0,0,0-.526-.4c-.165-.016-.33-.028-.5-.04.074-.162.144-.327.211-.5a28.605,28.605,0,0,0,1.61-5.752,28.355,28.355,0,0,0,5.722-1.62,12.9,12.9,0,0,0,4.217-2.622,17.712,17.712,0,0,1-2.753,6.69.6.6,0,0,0-.024.673.639.639,0,0,0,.22.223.587.587,0,0,0,.3.092.617.617,0,0,0,.306-.067.633.633,0,0,0,.239-.211c.116-.174.232-.352.345-.532v-1.7a1.7,1.7,0,0,1,.128-.651,1.663,1.663,0,0,1,.367-.553,1.632,1.632,0,0,1,.547-.369,1.677,1.677,0,0,1,.648-.135,19.415,19.415,0,0,0,1.229-7.143,19.464,19.464,0,0,0-1.492-7.091Zm-20.833-10.12a10.394,10.394,0,0,0-1.6,2.146c-1.219-.08-2.393-.186-3.512-.321A17.453,17.453,0,0,1,711.568,390.342ZM704.78,393.2c1.424.214,2.955.382,4.566.5-.135.284-.263.581-.386.886a28.83,28.83,0,0,0-1.613,5.753,28.535,28.535,0,0,0-5.719,1.62,12.9,12.9,0,0,0-4.217,2.623A17.927,17.927,0,0,1,704.78,393.2Zm-6.422,12.2a11.771,11.771,0,0,1,3.747-2.283,26.535,26.535,0,0,1,5.03-1.467,43.705,43.705,0,0,0-.428,5.5h-9.49A4.111,4.111,0,0,1,698.359,405.4Zm-1.207,3h9.555a43.246,43.246,0,0,0,.43,5.758,26.766,26.766,0,0,1-5.03-1.464,11.841,11.841,0,0,1-3.747-2.283A3.933,3.933,0,0,1,697.151,408.406Zm.26,2.83a12.9,12.9,0,0,0,4.217,2.622,28.352,28.352,0,0,0,5.722,1.62,28.692,28.692,0,0,0,1.61,5.755c.067.168.138.336.211.5-1.724.128-3.347.315-4.847.556A17.914,17.914,0,0,1,697.411,411.236Zm8.472,12.091q1.838-.243,3.876-.382a10.889,10.889,0,0,0,1.809,2.534A17.5,17.5,0,0,1,705.884,423.327Zm8.368,2.381a4,4,0,0,1-1.868-1.183,9.1,9.1,0,0,1-1.235-1.66c1.018-.052,2.054-.08,3.1-.088Zm0-4.185c-1.268.009-2.524.049-3.747.12-.135-.282-.263-.578-.388-.887a26.916,26.916,0,0,1-1.458-5.065,43.312,43.312,0,0,0,5.593.434Zm0-6.654a41.084,41.084,0,0,1-5.819-.48,42.068,42.068,0,0,1-.48-5.984h6.3Zm0-7.721h-6.3a42.1,42.1,0,0,1,.477-5.725,41.981,41.981,0,0,1,5.819-.48Zm0-7.458a43.317,43.317,0,0,0-5.593.434,27.156,27.156,0,0,1,1.458-5.065q.275-.678.577-1.275c1.165.061,2.357.1,3.558.107Zm0-7.052c-.966-.009-1.922-.034-2.861-.077a8.539,8.539,0,0,1,.993-1.271,4.035,4.035,0,0,1,1.868-1.185Zm18.281,14.509h-9.491a43.484,43.484,0,0,0-.427-5.5,26.766,26.766,0,0,1,5.03,1.464,11.883,11.883,0,0,1,3.747,2.283,4.138,4.138,0,0,1,1.14,1.751Zm-9.239-14.983q-1.683.2-3.518.321a10.419,10.419,0,0,0-1.6-2.149A17.5,17.5,0,0,1,723.293,392.166Zm-7.794-2.06a4.028,4.028,0,0,1,1.865,1.185,8.523,8.523,0,0,1,1,1.271c-.938.043-1.9.067-2.861.077Zm0,3.787c1.2-.009,2.4-.046,3.558-.107q.3.6.577,1.275a26.917,26.917,0,0,1,1.458,5.065,42.761,42.761,0,0,0-5.593-.431Zm0,7.054a41.078,41.078,0,0,1,5.819.48,41.531,41.531,0,0,1,.474,5.725H715.5Zm1.865,23.578a4.024,4.024,0,0,1-1.865,1.186V422.78c1.045.005,2.084.037,3.1.085A8.963,8.963,0,0,1,717.364,424.525Zm2.271-3.768c-.125.308-.254.6-.388.887-1.223-.067-2.479-.107-3.744-.12v-5.4a43.221,43.221,0,0,0,5.59-.434A26.849,26.849,0,0,1,719.635,420.757Zm1.684-6.364a42.024,42.024,0,0,1-5.819.48v-6.467h6.3A42.177,42.177,0,0,1,721.318,414.393Zm-.528-19.809c-.126-.306-.254-.6-.386-.883,1.611-.117,3.142-.285,4.57-.5a17.915,17.915,0,0,1,7.363,11.379,12.845,12.845,0,0,0-4.214-2.623,28.41,28.41,0,0,0-5.722-1.62A28.755,28.755,0,0,0,720.79,394.584Zm10.6,15.829a11.73,11.73,0,0,1-3.744,2.283,26.6,26.6,0,0,1-5.03,1.467,44.324,44.324,0,0,0,.43-5.758H732.6a3.94,3.94,0,0,1-1.21,2.011Zm0,0" transform="translate(-4.697 -4.311)" fill="#10355b"/><g transform="translate(674.25 369)" clip-path="url(#a)"><path d="M743.342,394.23a10.141,10.141,0,0,0-5.612-2.809,10.764,10.764,0,0,0-.657-5.153c-.042-.11-.085-.22-.132-.326a.584.584,0,0,0-.581-.386.618.618,0,0,0-.523.282.615.615,0,0,0-.1.287.655.655,0,0,0,.046.306,9.43,9.43,0,0,1,.624,5.425.631.631,0,0,0,.119.489.622.622,0,0,0,.437.245c4.4.415,7.7,3.732,7.7,7.708a7.338,7.338,0,0,1-2.5,5.465,9.066,9.066,0,0,1-6.119,2.292h-5.89a.6.6,0,0,0-.382.131.611.611,0,0,0-.217.34l0,.012a.635.635,0,0,0-.006.282.588.588,0,0,0,.116.25.608.608,0,0,0,.489.239h5.894a10.315,10.315,0,0,0,6.956-2.617,9,9,0,0,0,2.128-2.864,8.2,8.2,0,0,0,.786-3.53A8.553,8.553,0,0,0,743.342,394.23ZM734.164,383.5a.582.582,0,0,0,.4-1,18.3,18.3,0,0,0-2.552-2.176,13.4,13.4,0,0,0-3.487-1.5,12.864,12.864,0,0,0-1.931-3.613,14.179,14.179,0,0,0-3.253-3.115,15.376,15.376,0,0,0-4.187-2.041,16.342,16.342,0,0,0-9.576-.034,15.328,15.328,0,0,0-4.108,1.944,14.1,14.1,0,0,0-3.234,2.974,13.058,13.058,0,0,0-1.9,3.225,16.364,16.364,0,0,0-10.154.465,14.949,14.949,0,0,0-4.731,2.894,13.459,13.459,0,0,0-3.206,4.313,12.263,12.263,0,0,0-1.18,5.3c0,.229.006.462.019.694a10.043,10.043,0,0,0-3.585,2.075,8.987,8.987,0,0,0-2.131,2.864,8.325,8.325,0,0,0,0,7.061A8.988,8.988,0,0,0,677.5,406.7a10.307,10.307,0,0,0,6.956,2.617h5.89a.6.6,0,0,0,.272-.064.566.566,0,0,0,.217-.174.6.6,0,0,0,.117-.254.62.62,0,0,0,0-.279l0-.012a.62.62,0,0,0-.22-.34.6.6,0,0,0-.38-.131h-5.89c-4.756,0-8.625-3.481-8.625-7.76a7.337,7.337,0,0,1,2.5-5.462,8.886,8.886,0,0,1,3.576-1.95.629.629,0,0,0,.455-.667c-.034-.358-.052-.725-.052-1.085,0-6.789,6.122-12.311,13.647-12.311a14.908,14.908,0,0,1,4.563.7.6.6,0,0,0,.468-.034.6.6,0,0,0,.311-.351c1.813-5.126,7.039-8.567,13.005-8.567,6.083,0,11.483,3.683,13.134,8.958a.585.585,0,0,0,.449.419,11.986,11.986,0,0,1,5.847,3.362A.562.562,0,0,0,734.164,383.5Zm0,0" transform="translate(-674.323 -369.07)" fill="#10355b"/></g><path d="M735.222,436.152H732.23a.813.813,0,0,1-.315-.064.789.789,0,0,1-.269-.181.831.831,0,0,1-.242-.584V430.1h-.81a.834.834,0,0,1-.214-.027.784.784,0,0,1-.2-.082.827.827,0,0,1-.3-.3.806.806,0,0,1-.082-.2.839.839,0,0,1,.082-.629l3.12-5.426a.824.824,0,0,1,1.431,0l3.12,5.426a.814.814,0,0,1,.082.2.766.766,0,0,1,0,.428.81.81,0,0,1-.584.587.817.817,0,0,1-.214.027h-.789v5.227a.812.812,0,0,1-.064.318.831.831,0,0,1-.446.447A.805.805,0,0,1,735.222,436.152Zm-2.567-1.253H734.8v-5.227a.833.833,0,0,1,.064-.318.792.792,0,0,1,.181-.266.749.749,0,0,1,.266-.18.8.8,0,0,1,.318-.064h.48l-2.39-4.154-2.387,4.154h.5a.807.807,0,0,1,.318.064.757.757,0,0,1,.266.18.8.8,0,0,1,.18.266.817.817,0,0,1,.064.318ZM736.473,429.479Zm0,0" transform="translate(-12.078 -11.75)" fill="#10355b"/><path d="M743.716,436.152a.773.773,0,0,1-.716-.416l-3.12-5.425a.807.807,0,0,1-.082-.2.851.851,0,0,1,0-.428.741.741,0,0,1,.082-.2.82.82,0,0,1,.131-.174.915.915,0,0,1,.171-.131.815.815,0,0,1,.2-.083.85.85,0,0,1,.214-.027h.81V423.84a.806.806,0,0,1,.064-.315.765.765,0,0,1,.178-.269.834.834,0,0,1,.269-.18.788.788,0,0,1,.315-.064h2.992a.8.8,0,0,1,.315.064.822.822,0,0,1,.268.18.811.811,0,0,1,.178.269.791.791,0,0,1,.064.315v5.227h.789a.85.85,0,0,1,.214.027.816.816,0,0,1,.2.083,1.031,1.031,0,0,1,.171.131.822.822,0,0,1,.131.174.741.741,0,0,1,.082.2.851.851,0,0,1,0,.428.807.807,0,0,1-.082.2l-3.12,5.425A.773.773,0,0,1,743.716,436.152Zm-2.387-5.832,2.387,4.153,2.39-4.153h-.483a.847.847,0,0,1-.584-.242.88.88,0,0,1-.178-.269.83.83,0,0,1-.064-.318v-5.227h-2.142v5.227a.875.875,0,0,1-.064.318.847.847,0,0,1-.18.269.783.783,0,0,1-.266.178.821.821,0,0,1-.318.064ZM746.836,430.32Zm0,0" transform="translate(-14.253 -11.75)" fill="#10355b"/></g></svg>