<svg xmlns="http://www.w3.org/2000/svg" xmlns:xlink="http://www.w3.org/1999/xlink" width="85" height="69.439" viewBox="0 0 85 69.439"><defs><clipPath id="a"><path d="M.375,8.852H57.446V76.72H.375Zm0,0" transform="translate(-0.375 -8.852)" fill="#10355b"/></clipPath><clipPath id="b"><path d="M53,70H69.416v6.7H53Zm0,0" transform="translate(-53 -70)" fill="#10355b"/></clipPath><clipPath id="c"><path d="M82,37h7.823v3.078H82Zm0,0" transform="translate(-82 -37)" fill="#10355b"/></clipPath></defs><g transform="translate(-0.375 -8.852)"><g transform="translate(0.375 8.852)" clip-path="url(#a)"><path d="M51.005,64.363l-3.872-1.7a1.033,1.033,0,0,0-.838,0l-5.27,2.365a1.031,1.031,0,0,0-.557.621l-2.593,8.032L32,73.858,28.926,66a1.034,1.034,0,0,0-.593-.589l-5.4-2.044a1.025,1.025,0,0,0-.834.044l-7.523,3.847L10.29,63.233l3.4-7.727a1.041,1.041,0,0,0,0-.834L11.32,49.414a1.014,1.014,0,0,0-.625-.557L2.647,46.268,2.475,40.4l7.875-3.066a1.013,1.013,0,0,0,.589-.593l2.052-5.387a1.026,1.026,0,0,0-.048-.834L9.087,23.015l4.036-4.276,7.743,3.395a1.057,1.057,0,0,0,.834,0l5.27-2.365a1.029,1.029,0,0,0,.557-.621l2.593-8.032L36,10.935l3.07,7.863a1.017,1.017,0,0,0,.593.585l5.4,2.048a1.026,1.026,0,0,0,.834-.048l7.527-3.844,1.779,1.675a1.028,1.028,0,1,0,1.411-1.495l-2.309-2.172a1.035,1.035,0,0,0-1.174-.164L45.37,19.352l-4.549-1.723L37.655,9.517a1.031,1.031,0,0,0-.99-.653l-7.33.216a1.028,1.028,0,0,0-.946.713l-2.677,8.288-4.441,1.988-7.988-3.5a1.027,1.027,0,0,0-1.158.236L7.1,22.133a1.03,1.03,0,0,0-.168,1.17l3.98,7.747L9.18,35.591,1.052,38.75a1.033,1.033,0,0,0-.657.986l.22,7.318A1.032,1.032,0,0,0,1.324,48l8.3,2.669,1.992,4.421,0,.008L8.118,63.069a1.028,1.028,0,0,0,.236,1.158l5.338,5.018a1.036,1.036,0,0,0,1.174.168l7.763-3.972,4.549,1.727,3.166,8.112a1.031,1.031,0,0,0,.958.653h.032l7.33-.22a1.029,1.029,0,0,0,.95-.709l2.673-8.288,4.441-1.988,3.455,1.515a1.026,1.026,0,1,0,.822-1.88Zm0,0" transform="translate(-0.375 -8.851)" fill="#10355b"/></g><path d="M23.493,32.364a13.967,13.967,0,0,1,17.514-2.128,1.026,1.026,0,1,0,1.1-1.731,16.206,16.206,0,0,0-2.89-1.443A15.95,15.95,0,0,0,18.636,36.3,15.91,15.91,0,0,0,27.89,56.84a15.975,15.975,0,0,0,16.184-2.914,1.027,1.027,0,1,0-1.355-1.543,13.915,13.915,0,0,1-14.1,2.537,13.87,13.87,0,0,1-5.126-22.556Zm0,0" transform="translate(-1.345 0.446)" fill="#10355b"/><path d="M78.983,44.183a18.272,18.272,0,0,0,.437-3.972,18.081,18.081,0,1,0-36.163,0A18.031,18.031,0,0,0,49.514,53.87a10.173,10.173,0,0,1,3.543,7.707,3.169,3.169,0,0,0,3.166,3.158H66.447a3.163,3.163,0,0,0,3.162-3.158,10.187,10.187,0,0,1,3.543-7.707,18.081,18.081,0,0,0,4.569-6.02A17.561,17.561,0,0,0,78.983,44.183Zm-2.805,2.942a16.332,16.332,0,0,1-4.136,5.451,11.88,11.88,0,0,0-4.136,9,1.449,1.449,0,0,1-1.447,1.447H56.227a1.449,1.449,0,0,1-1.447-1.447,11.88,11.88,0,0,0-4.136-9,16.74,16.74,0,0,1-2.353-2.5,16.525,16.525,0,0,1-1.787-2.95,16.368,16.368,0,1,1,29.674,0Zm0,0" transform="translate(-5.456 0.346)" fill="#10355b"/><path d="M66.877,65.324H55.266a1.87,1.87,0,1,0,0,3.739H66.877a1.87,1.87,0,1,0,0-3.739Zm0,0" transform="translate(-3.311 1.468)" fill="#10355b"/><g transform="translate(49.648 71.59)" clip-path="url(#b)"><path d="M66.877,70.512H55.266a1.868,1.868,0,1,0,0,3.735h1.3c0,1.351,2.088,2.441,4.669,2.441S65.9,75.594,65.9,74.247h.97a1.868,1.868,0,1,0,0-3.735Zm0,0" transform="translate(-52.99 -69.987)" fill="#10355b"/></g><g transform="translate(77.552 37.732)" clip-path="url(#c)"><path d="M88.528,37.211H83.314a1.283,1.283,0,1,0,0,2.565h5.214a1.283,1.283,0,1,0,0-2.565Zm0,0" transform="translate(-81.999 -36.995)" fill="#10355b"/></g><path d="M76.548,24.943a1.28,1.28,0,0,0,.91-.377l3.687-3.679a1.282,1.282,0,1,0-1.816-1.812l-3.691,3.679a1.283,1.283,0,0,0,.91,2.188Zm0,0" transform="translate(-4.623 0.256)" fill="#10355b"/><path d="M61.072,20.15a1.287,1.287,0,0,0,1.287-1.283V13.661a1.285,1.285,0,0,0-2.569,0v5.206A1.284,1.284,0,0,0,61.072,20.15Zm0,0" transform="translate(-2.955 0.092)" fill="#10355b"/><path d="M77.708,53.279a1.282,1.282,0,0,0-1.816,1.812l3.687,3.683A1.284,1.284,0,1,0,81.4,56.958Zm0,0" transform="translate(-4.617 1.145)" fill="#10355b"/><path d="M56.816,32.005a.592.592,0,0,1-.108.453.6.6,0,0,1-.4.244.609.609,0,1,1,.257-1.094A.573.573,0,0,1,56.816,32.005Zm0,0" transform="translate(-2.685 0.589)" fill="#10355b"/><path d="M58,42.713a.582.582,0,0,1-.136.445.574.574,0,0,1-.409.22.591.591,0,0,1-.449-.136.574.574,0,0,1-.22-.409.591.591,0,0,1,.136-.449.6.6,0,0,1,.413-.22.611.611,0,0,1,.665.549Zm0,0" transform="translate(-2.742 0.866)" fill="#10355b"/><path d="M55.19,39.381a.607.607,0,0,1-.329.794.6.6,0,0,1-.469,0,.577.577,0,0,1-.329-.329.554.554,0,0,1,0-.465.584.584,0,0,1,.329-.333.608.608,0,0,1,.8.333Zm0,0" transform="translate(-2.608 0.784)" fill="#10355b"/><path d="M51.491,37.6a.59.59,0,0,1,.18.433.575.575,0,0,1-.18.429.6.6,0,0,1-.862,0,.575.575,0,0,1-.18-.429.612.612,0,0,1,1.042-.433Zm0,0" transform="translate(-2.434 0.743)" fill="#10355b"/><path d="M61.171,46.63a.591.591,0,0,1-.108.453.6.6,0,0,1-.4.244.609.609,0,1,1,.257-1.094A.572.572,0,0,1,61.171,46.63Zm0,0" transform="translate(-2.897 0.969)" fill="#10355b"/><path d="M57.218,46.332a.575.575,0,0,1-.18.429.59.59,0,0,1-.433.18.609.609,0,0,1,0-1.218.591.591,0,0,1,.433.18A.575.575,0,0,1,57.218,46.332Zm0,0" transform="translate(-2.704 0.959)" fill="#10355b"/><path d="M61.546,38.249a.6.6,0,0,1-.4.757.571.571,0,0,1-.465-.044.612.612,0,0,1-.252-.826.6.6,0,0,1,.361-.3.615.615,0,0,1,.762.409Zm0,0" transform="translate(-2.916 0.753)" fill="#10355b"/><path d="M53.258,45.937a.575.575,0,0,1-.18.429.59.59,0,0,1-.433.18.616.616,0,0,1-.609-.609.609.609,0,0,1,.609-.609.6.6,0,0,1,.433.176A.59.59,0,0,1,53.258,45.937Zm0,0" transform="translate(-2.511 0.948)" fill="#10355b"/><path d="M58.226,35.626a.575.575,0,0,1,.18.429.59.59,0,0,1-.18.433.609.609,0,0,1-1.042-.433.609.609,0,0,1,1.042-.429Zm0,0" transform="translate(-2.762 0.691)" fill="#10355b"/><path d="M59.872,38.662a1.42,1.42,0,0,1,1.423-1.419,1.584,1.584,0,0,1,.309.032V29.011c-.3-.068-.605-.124-.918-.168V34.61l-1.355,1.014a1.4,1.4,0,0,1,.136.605,1.419,1.419,0,1,1-.685-1.214l1.09-.814V28.755c-.268-.02-.537-.032-.81-.032a11.76,11.76,0,0,0-2.032.18v1.984a1.426,1.426,0,1,1-.814-.12V29.079a11.318,11.318,0,0,0-4.2,2.076h.132v3.807l3.254,1.619v2.012a1.423,1.423,0,1,1-.818-.124V37.083l-3.25-1.619V31.741c-.112.1-.22.2-.325.309a11.258,11.258,0,0,0-3.074,5.595h1.908a1.426,1.426,0,1,1-.12.814H47.792a11.452,11.452,0,0,0-.116,1.623c0,.409.024.814.064,1.214h4.168l1.627,1.623h2.689a1.422,1.422,0,1,1,.124.814H53.2l-1.627-1.623H47.856A11.3,11.3,0,0,0,50.73,47.82l.778-.778a1.425,1.425,0,1,1,.573.573l-.778.773a11.306,11.306,0,0,0,6.124,2.934V49.17l-1.05-1.046a1.424,1.424,0,1,1,1.074-.076l.794.79v2.573c.269.02.537.028.814.028a11.643,11.643,0,0,0,2.541-.281V48.409a1.443,1.443,0,0,1-.717.192,1.421,1.421,0,1,1,.717-2.645v-5.9a1.544,1.544,0,0,1-.309.032A1.427,1.427,0,0,1,59.872,38.662Zm0,0" transform="translate(-2.877 0.517)" fill="#10355b"/><path d="M65.331,44.877A5.4,5.4,0,0,0,66,44.549a4.931,4.931,0,0,0-3.234-9.114v1.587a3.364,3.364,0,1,1,0,6.577V45.19A4.976,4.976,0,0,0,65.331,44.877Zm0,0" transform="translate(-3.273 0.69)" fill="#10355b"/><path d="M74.958,38.4l-2.26-.822-.589-1.439,1.05-2.16a.8.8,0,0,0-.148-.89L71,31.061a.785.785,0,0,0-.89-.16l-2.176,1.014-1.439-.6-.79-2.264a.786.786,0,0,0-.733-.525l-2.212-.012v1.563l1.651.008.721,2.076a.8.8,0,0,0,.437.461l2.076.87a.76.76,0,0,0,.633-.012l1.992-.93L71.5,33.794l-.958,1.976a.776.776,0,0,0-.016.633l.846,2.084a.793.793,0,0,0,.461.441l2.068.745-.012,1.751-2.076.725a.786.786,0,0,0-.465.433l-.874,2.072a.791.791,0,0,0,.012.633l.934,1.988-1.246,1.23-1.984-.954a.776.776,0,0,0-.633-.02l-2.088.85a.786.786,0,0,0-.441.457L64.281,50.9l-1.519-.012v1.563l2.064.012a.778.778,0,0,0,.741-.517l.818-2.252,1.443-.589,2.164,1.046a.8.8,0,0,0,.741-.032.824.824,0,0,0,.148-.116L72.918,48a.777.777,0,0,0,.16-.886L72.06,44.936l.605-1.431,2.268-.79a.786.786,0,0,0,.525-.733l.016-2.854A.774.774,0,0,0,74.958,38.4Zm0,0" transform="translate(-3.711 0.511)" fill="#10355b"/></g></svg>