<svg xmlns="http://www.w3.org/2000/svg" xmlns:xlink="http://www.w3.org/1999/xlink" width="929.836" height="910.248" viewBox="0 0 929.836 910.248"><defs><clipPath id="a"><path d="M543,284.25h712.28V882.877H543Zm0,0" transform="translate(-543 -284.25)" fill="#f9f9f9"/></clipPath></defs><g transform="translate(126.65 -549.713) rotate(38)" opacity="0.2"><g transform="translate(529.058 284.25)" clip-path="url(#a)"><path d="M855.924,505.89q22.818-18.736,46-36.785t46.683-35.459c31.37-23.169,63.2-45.421,95.625-66.288,16.229-10.418,32.591-20.537,49.159-30.112s33.342-18.67,50.406-26.9c8.535-4.115,17.143-8.007,25.844-11.581a271.082,271.082,0,0,1,26.467-9.4c4.477-1.306,9-2.449,13.557-3.339a90.281,90.281,0,0,1,13.834-1.715,53.259,53.259,0,0,1,7.03.166,34.944,34.944,0,0,1,7.024,1.336,22.678,22.678,0,0,1,6.77,3.262,17.607,17.607,0,0,1,5.525,6.217,22.414,22.414,0,0,1,2.658,8.6,35.8,35.8,0,0,1,.236,4.511q-.037,2.223-.284,4.435a64.013,64.013,0,0,1-1.608,8.522q-1.063,4.124-2.482,8.073a146.5,146.5,0,0,1-6.463,15.145c-2.373,4.881-4.928,9.625-7.583,14.223-5.321,9.248-11.057,18.088-17,26.687s-12.107,16.972-18.42,25.145c-12.619,16.355-25.781,32.061-39.244,47.35s-27.224,30.162-41.223,44.685c-27.989,29.059-56.843,56.839-86.253,83.679q-22.074,20.116-44.549,39.514T942.287,664q-45.745,37.442-92.929,72.138-23.6,17.312-47.616,33.773t-48.457,31.914q-24.462,15.453-49.452,29.609c-16.679,9.4-33.546,18.3-50.713,26.337-8.576,4.028-17.246,7.813-26,11.261a270.025,270.025,0,0,1-26.633,9.052c-4.5,1.24-9.04,2.325-13.644,3.158a92.54,92.54,0,0,1-13.894,1.52,55.48,55.48,0,0,1-7.032-.27,35.781,35.781,0,0,1-7.03-1.435,27.336,27.336,0,0,1-3.461-1.374,21.976,21.976,0,0,1-3.3-2,17.972,17.972,0,0,1-5.486-6.294,22.668,22.668,0,0,1-2.585-8.636,38.78,38.78,0,0,1,.127-8.919,62.8,62.8,0,0,1,1.679-8.453c.732-2.732,1.584-5.394,2.553-8.009a145.981,145.981,0,0,1,6.574-15.007c2.413-4.824,5.006-9.5,7.7-14.08,5.375-9.112,11.2-17.875,17.206-26.377s12.24-16.749,18.61-24.815c12.728-16.181,25.987-31.7,39.543-46.8s27.438-29.755,41.492-44.155C707.655,637.4,736.6,609.863,766.062,583.2q22.095-20,44.6-39.311T855.924,505.89Zm0,0q-22.831,18.751-45.292,38.091-22.461,19.361-44.484,39.477C736.8,610.26,707.978,638,680.046,667q-20.951,21.744-41.121,44.569c-13.416,15.242-26.532,30.9-39.095,47.176q-9.425,12.215-18.309,24.991c-5.9,8.539-11.58,17.3-16.829,26.414-2.617,4.561-5.131,9.219-7.442,13.983a142.564,142.564,0,0,0-6.273,14.687c-.906,2.518-1.695,5.074-2.373,7.7a57.025,57.025,0,0,0-1.489,7.883c-.149,1.316-.23,2.632-.252,3.959a31.9,31.9,0,0,0,.2,3.884,18.066,18.066,0,0,0,2.161,7.01,14.319,14.319,0,0,0,4.508,5.044,18.849,18.849,0,0,0,2.861,1.666,23.035,23.035,0,0,0,3.081,1.17,32.72,32.72,0,0,0,6.5,1.222,49.732,49.732,0,0,0,6.685.164,88.652,88.652,0,0,0,13.43-1.676c4.461-.87,8.907-2.022,13.32-3.282a269.411,269.411,0,0,0,26.209-9.325c8.638-3.525,17.19-7.407,25.686-11.5,16.978-8.192,33.687-17.245,50.209-26.8s32.843-19.647,49.034-30.035c32.363-20.827,64.143-43.049,95.458-66.171s62.166-47.233,92.558-72.148q22.809-18.676,45.259-37.995t44.533-39.254c29.409-26.617,58.3-54.117,86.38-82.8,14.022-14.369,27.872-28.982,41.389-44.048s26.728-30.519,39.393-46.6c6.322-8.056,12.516-16.256,18.491-24.689s11.713-17.091,17.034-26.107c2.655-4.511,5.2-9.12,7.567-13.837a141.277,141.277,0,0,0,6.384-14.573c.93-2.479,1.733-5.024,2.436-7.62a56.76,56.76,0,0,0,1.559-7.833c.157-1.306.26-2.615.293-3.941a32.163,32.163,0,0,0-.166-3.872,18.185,18.185,0,0,0-2.088-7.04,14.41,14.41,0,0,0-4.469-5.114,19.174,19.174,0,0,0-2.853-1.723,23.409,23.409,0,0,0-3.091-1.229,32.961,32.961,0,0,0-6.517-1.326,50.119,50.119,0,0,0-6.707-.253,88.285,88.285,0,0,0-13.5,1.482c-4.484.8-8.953,1.879-13.39,3.108a273.868,273.868,0,0,0-26.358,8.956c-8.695,3.388-17.317,7.184-25.846,11.184-17.078,8.016-33.907,16.885-50.515,26.25s-33.08,19.248-49.333,29.542c-32.553,20.557-64.475,42.573-95.908,65.589q-23.575,17.3-46.772,35.305T855.924,505.89Zm0,0" transform="translate(-542.134 -284.232)" fill="#f9f9f9"/></g><path d="M885.5,367.109q24.354,0,48.709.172t48.689.537q48.669.728,97.177,2.314,24.207.832,48.346,1.953c16.084.768,32.09,1.66,47.984,2.766q11.92.829,23.716,1.844c7.848.685,15.642,1.452,23.3,2.361,3.824.454,7.619.944,11.337,1.492q5.631.813,10.883,1.846c1.77.349,3.468.729,5.11,1.137q2.493.618,4.64,1.361a17.138,17.138,0,0,1,3.663,1.692q1.551.974,1.573,2.063c.007.728-.489,1.417-1.509,2.07a12.083,12.083,0,0,1-1.637.9c-.614.282-1.278.551-2,.808q-2.118.752-4.613,1.383-2.442.624-5.082,1.161-5.231,1.054-10.854,1.893c-3.711.561-7.5,1.067-11.316,1.537-7.641.938-15.426,1.735-23.269,2.451s-15.769,1.356-23.694,1.934q-23.831,1.732-47.984,2.918-24.123,1.225-48.367,2.095-48.5,1.765-97.266,2.5-24.368.386-48.754.584t-48.765.19q-48.773,0-97.547-.769-24.355-.387-48.69-1T690.7,407.81q-24.25-.879-48.375-2.094c-16.068-.819-32.088-1.763-47.983-2.921q-11.922-.865-23.694-1.929c-7.85-.718-15.623-1.515-23.247-2.45-3.824-.47-7.612-.976-11.318-1.54q-5.617-.835-10.861-1.893c-1.761-.358-3.453-.745-5.089-1.162-1.662-.42-3.215-.884-4.642-1.389q-1.068-.383-1.991-.806a12.522,12.522,0,0,1-1.642-.906c-1.013-.651-1.516-1.343-1.5-2.07s.531-1.419,1.566-2.068a17.408,17.408,0,0,1,3.67-1.692c1.44-.5,2.992-.949,4.67-1.361,1.643-.409,3.341-.788,5.109-1.137q5.252-1.034,10.883-1.848c3.725-.549,7.513-1.036,11.337-1.493,7.66-.906,15.454-1.672,23.3-2.361s15.769-1.287,23.709-1.844c15.894-1.1,31.9-2,47.984-2.764s32.2-1.4,48.353-1.953q48.459-1.641,97.169-2.314,24.333-.366,48.7-.535T885.5,367.109Zm0,0q-24.365,0-48.718.19t-48.682.587q-48.647.789-97.085,2.495-24.207.88-48.249,2.093c-16.027.819-31.99,1.754-47.8,2.907q-11.858.863-23.555,1.92c-7.78.714-15.5,1.5-23.032,2.426-3.766.47-7.492.962-11.126,1.512s-7.15,1.155-10.541,1.839c-1.676.34-3.292.71-4.836,1.106s-2.963.815-4.278,1.28c-.635.231-1.229.47-1.782.723a11.028,11.028,0,0,0-1.412.779c-.832.53-1.244,1.092-1.229,1.685s.44,1.153,1.292,1.679a11.682,11.682,0,0,0,1.433.772q.84.373,1.8.71,1.981.687,4.3,1.26c1.559.387,3.181.747,4.858,1.081q5.1,1,10.575,1.792c3.641.535,7.367,1.016,11.142,1.466,7.549.893,15.272,1.652,23.064,2.334s15.664,1.289,23.562,1.835c15.811,1.1,31.782,1.99,47.8,2.753s32.111,1.4,48.228,1.949q48.365,1.639,96.994,2.312,48.6.728,97.268.7,24.322,0,48.646-.175t48.62-.532q48.6-.725,97-2.31,24.2-.828,48.228-1.947c16.027-.768,31.984-1.656,47.8-2.755q11.858-.825,23.569-1.833c7.8-.682,15.517-1.441,23.066-2.336,3.774-.447,7.5-.931,11.141-1.465s7.172-1.123,10.575-1.792q2.517-.5,4.858-1.083,2.316-.571,4.305-1.257c.644-.226,1.245-.461,1.8-.71a11.169,11.169,0,0,0,1.441-.772c.853-.526,1.286-1.088,1.3-1.681s-.406-1.157-1.238-1.687a10.688,10.688,0,0,0-1.412-.779c-.551-.253-1.147-.492-1.782-.722q-1.97-.7-4.278-1.283-2.327-.594-4.837-1.105-5.094-1.024-10.546-1.837c-3.636-.553-7.361-1.054-11.121-1.513-7.542-.926-15.257-1.716-23.038-2.428s-15.649-1.345-23.554-1.918c-15.81-1.15-31.775-2.092-47.8-2.909s-32.117-1.5-48.249-2.088q-48.406-1.759-97.093-2.5-24.322-.389-48.682-.586T885.5,367.109Zm0,0" transform="translate(0 196.1)" fill="#f9f9f9"/></g></svg>