<svg xmlns="http://www.w3.org/2000/svg" xmlns:xlink="http://www.w3.org/1999/xlink" width="55.79" height="49.376" viewBox="0 0 55.79 49.376"><defs><clipPath id="a"><path d="M604.5,303h55.79v49.376H604.5Zm0,0" transform="translate(-604.5 -303)" fill="#10355b"/></clipPath></defs><g transform="translate(-604.5 -303)"><path d="M724,449.562c2.459-.77,4.895-1.66,7.27-2.659.7-.289,1.4-.59,2.087-.9a.432.432,0,0,0,.156-.59.445.445,0,0,0-.591-.156c-.3.132-.59.265-.891.4-.145.061-.29.132-.434.193-.06.024-.133.06-.193.084-.037.012-.073.036-.121.048a.168.168,0,0,1-.072.024c-.591.252-1.194.493-1.8.734-1.194.469-2.387.914-3.594,1.324-.686.228-1.374.457-2.061.673a.437.437,0,0,0-.3.53A.458.458,0,0,0,724,449.562Zm0,0" transform="translate(-90.15 -107.786)" fill="#10355b"/><path d="M743.448,453.222a.511.511,0,0,0,.252-.193.538.538,0,0,0,.048-.336.428.428,0,0,0-.531-.3c-2.507,1.047-5,2.1-7.511,3.152-.7.289-1.411.589-2.11.877a.513.513,0,0,0-.253.193.545.545,0,0,0-.048.337.429.429,0,0,0,.531.3c2.508-1.047,5-2.1,7.512-3.152C742.037,453.812,742.736,453.511,743.448,453.222Zm0,0" transform="translate(-97.615 -113.214)" fill="#10355b"/><path d="M754.82,460.342a.431.431,0,1,0-.229-.83l-7.994,2.923c-.759.277-1.519.554-2.267.83a.431.431,0,1,0,.23.83l7.993-2.923C753.313,460.9,754.072,460.619,754.82,460.342Zm0,0" transform="translate(-105.744 -118.614)" fill="#10355b"/><path d="M758.4,470.09a.431.431,0,0,0-.157.589.446.446,0,0,0,.591.157c2.195-1.035,4.389-2.057,6.583-3.093.615-.288,1.241-.578,1.857-.866a.431.431,0,0,0,.156-.589.443.443,0,0,0-.59-.157c-2.194,1.034-4.389,2.057-6.583,3.092C759.647,469.512,759.031,469.8,758.4,470.09Zm0,0" transform="translate(-116.49 -123.609)" fill="#10355b"/><path d="M690.788,413.3C690.654,413.3,690.715,413.313,690.788,413.3Zm0,0" transform="translate(-65.343 -83.604)" fill="#10355b"/><path d="M684.809,413.477c.036.012.072.012.108.024h.012C684.832,413.464,684.809,413.464,684.809,413.477Zm0,0" transform="translate(-60.871 -83.731)" fill="#10355b"/><g transform="translate(604.5 303)" clip-path="url(#a)"><path d="M660.185,341.766c-2.073-1.011-4.148-2.009-6.221-3.02-1.025-.494-2.037-.986-3.062-1.492a7.93,7.93,0,0,0,2.194-2.009,9.449,9.449,0,0,0,1.411-3.369,27.789,27.789,0,0,0,.554-3.754c.133-1.528.241-3.056.266-4.6q.018-1.1-.073-2.2a4.537,4.537,0,0,0-.193-1.2,4.3,4.3,0,0,0-1.1-1.529,15.874,15.874,0,0,0-4.2-2.6,43.7,43.7,0,0,0-5.5-2.106,28.8,28.8,0,0,0-4.7-1.119,7.023,7.023,0,0,0-1.327-.084c-.337.024-.663.061-.989.109l-1.036.145c-.616-1.156-1.17-2.347-1.7-3.549-.157-.361-.314-.722-.471-1.095-.47-1.107-.916-2.238-1.325-3.369a.648.648,0,0,0-.3-.386.708.708,0,0,0-.494-.06l-1.652.253c-.157-.385-.325-.782-.482-1.167a.682.682,0,0,0-.3-.385.644.644,0,0,0-.495-.061q-3.961,1.028-7.982,1.793c-1.338.252-2.677.481-4.027.7-.675.109-1.35.2-2.037.3l-.507.072c-.036,0-.072.012-.12.012l-.289.036c-.338.048-.675.084-1.013.132-1.519.181-3.039.338-4.57.47a.662.662,0,0,0-.554.324.687.687,0,0,0,0,.649c.132.29.265.565.4.855-.712.12-1.411.252-2.123.372a.625.625,0,0,0-.422.373.614.614,0,0,0,.036.578c.652,1.19,1.254,2.394,1.857,3.6.615,1.227,1.23,2.467,1.857,3.694.217.421.434.83.651,1.251a14.034,14.034,0,0,0-1.929.626,6.843,6.843,0,0,0-1.868,1.071,5.164,5.164,0,0,0-.374.36.537.537,0,0,0-.072.085,4.114,4.114,0,0,0-.616,1.047,6.241,6.241,0,0,0-.385,1.936,24.217,24.217,0,0,0-.024,2.647c.036,1.239.1,2.478.109,3.73.024,1.323-.073,2.646.072,3.958a6.82,6.82,0,0,0,1.483,3.791,12.975,12.975,0,0,0,3.291,2.526c2.773,1.721,5.534,3.429,8.307,5.149a16.676,16.676,0,0,0,3.93,1.962,7.974,7.974,0,0,0,4.534-.1c1.375-.4,2.713-.987,4.039-1.516q1.792,1.138,3.618,2.238,2.351,1.444,4.69,2.888c.844.529,1.7,1.059,2.532,1.588a.632.632,0,0,0,.651,0q3.527-1.841,7.041-3.682t7.042-3.682c1.314-.685,2.64-1.383,3.954-2.07A.647.647,0,0,0,660.185,341.766Zm-36.1,4.44h-.132c.048-1.2.109-2.395.168-3.6.073-1.492.145-2.984.217-4.488.024-.421.036-.842.061-1.251h.048a14.915,14.915,0,0,0,5.123-.963c1.7-.565,3.376-1.2,5.052-1.817,3.231-1.179,6.463-2.394,9.646-3.693,3.207-1.311,6.378-2.731,9.489-4.259.061-.024.121-.06.17-.084q-.055.939-.145,1.877a25.3,25.3,0,0,1-.482,3.429,8.629,8.629,0,0,1-1.255,3.165,6.092,6.092,0,0,1-1.241,1.251c-.169.132-.362.252-.543.373.06-1.311.121-2.634.181-3.945a.653.653,0,0,0-.82-.626c-1.17.433-2.339.878-3.509,1.311s-2.363.878-3.557,1.324c-1.241.457-2.472.927-3.713,1.383-1.339.493-2.665,1-4,1.492-1.459.542-2.917,1.083-4.377,1.637-.193.072-.373.144-.566.2a.7.7,0,0,0-.483.626c-.036,1.576-.072,3.152-.072,4.728v.421a30.028,30.028,0,0,1-3.207,1.167A6.823,6.823,0,0,1,624.087,346.206Zm-9.73-4.825c-1.35-.843-2.7-1.673-4.051-2.515a10.653,10.653,0,0,1-2.966-2.346,5.967,5.967,0,0,1-1.048-3.381c-.073-1.311,0-2.635-.036-3.946q-.037-1.136-.073-2.274c2.942,1.877,5.835,3.839,8.789,5.691,1.483.939,2.978,1.877,4.546,2.683a13.923,13.923,0,0,0,3.593,1.4c-.023.7-.061,1.383-.1,2.082l-.892-1a.438.438,0,0,0-.615,0,.447.447,0,0,0,0,.614c.446.493.88.987,1.327,1.479a.607.607,0,0,0,.109.085v.036c-.012.361-.037.71-.048,1.07l-1.5-1.6a.434.434,0,0,0-.615.614c.688.734,1.363,1.467,2.05,2.2-.025.444-.048.9-.06,1.347-.024-.012-.048-.036-.072-.048-.253-.2-.507-.422-.76-.638a16.633,16.633,0,0,1-1.386-1.383c-.253-.277-.495-.565-.724-.854a.436.436,0,0,0-.615,0,.447.447,0,0,0,0,.614,18,18,0,0,0,2.821,2.839c.229.181.458.36.687.53-.024.444-.036.9-.061,1.347-.193-.048-.386-.109-.591-.168a18.445,18.445,0,0,1-3.664-1.95C617.057,343.054,615.707,342.224,614.357,341.381Zm-5.51-31.715c.941,2.021,1.917,4.031,2.858,6.04.313.662.627,1.336.927,2l-1.193.289c-.566-1.047-1.1-2.106-1.64-3.176-.616-1.227-1.23-2.467-1.857-3.694l-.616-1.191c.483-.084.977-.168,1.459-.265A.054.054,0,0,0,608.847,309.666Zm22.811-3.838c.35.927.712,1.829,1.085,2.743.507,1.2,1.025,2.395,1.591,3.562.169.349.338.7.519,1.034l-1.049.181h-.036c-1.025-2.454-2.014-4.932-3.014-7.387C631.056,305.925,631.358,305.877,631.658,305.829Zm.121,6.052c.229.565.47,1.143.711,1.708q-1.609.288-3.219.614c-1.736.337-3.472.686-5.208,1.034-1.76.361-3.509.722-5.257,1.107-1.568.337-3.135.685-4.7,1.034-.061.012-.109.024-.168.036-.012-.024-.012-.036-.024-.06-1.254-2.707-2.556-5.39-3.834-8.1-.218-.47-.446-.939-.663-1.42q3.67-.344,7.318-.891c2.7-.409,5.4-.914,8.078-1.491,1.326-.289,2.641-.6,3.955-.939C629.79,306.96,630.767,309.426,631.779,311.881ZM611.2,319.388a.268.268,0,0,0,.132-.036c.471-.12.953-.229,1.423-.337,3.039-.71,6.077-1.372,9.127-2.009,3.352-.7,6.7-1.384,10.067-2.009,1.3-.241,2.617-.481,3.931-.7l1.434-.217h.012a.589.589,0,0,1,.145-.012l.277-.036c.145-.012.3-.037.446-.037a7.324,7.324,0,0,1,1.146.048h.072c.073.012.145.025.229.037.157.024.314.047.482.084.362.072.736.144,1.1.228a42,42,0,0,1,5.088,1.553c.459.168.9.336,1.351.529a2.876,2.876,0,0,1,.289.12.46.46,0,0,0,.1.036c.048.024.108.048.156.073.205.084.41.18.628.276a23.6,23.6,0,0,1,2.327,1.191c.337.2.675.409,1,.637a4.366,4.366,0,0,1,.373.277c-.036-.024.121.1.146.12l.217.181a5.125,5.125,0,0,1,.518.506c-1.314.578-2.628,1.155-3.943,1.709a.7.7,0,0,0-.108.048l-.073.036c-.1.036-.193.084-.289.12-.205.084-.422.181-.627.265l-1.23.5c-.844.349-1.688.686-2.543,1.035-3.4,1.36-6.824,2.659-10.3,3.838-1.507.506-3.014,1-4.545,1.431a34.031,34.031,0,0,1-3.618.855c-.121.024-.229.036-.35.061h-.036a1.031,1.031,0,0,0-.193.024c-.205.024-.411.036-.627.048a3.791,3.791,0,0,1-.531,0,.234.234,0,0,1-.085-.012h.012c-.012,0-.012,0-.024-.012h-.037c-.011,0-.036-.011-.048-.011s-.011-.012-.011-.012c-.109-.024-.241-.036-.35-.048a14.492,14.492,0,0,1-2.327-.734c-.037-.012-.073-.036-.121-.048,0,0-.084-.036-.109-.048a2.5,2.5,0,0,1-.265-.12c-.217-.1-.446-.205-.664-.3-.434-.205-.856-.422-1.277-.638-3.823-2-7.367-4.5-11.021-6.786-.181-.12-.374-.229-.555-.349a6.919,6.919,0,0,1,.639-.361l.4-.18a1.84,1.84,0,0,1,.181-.073l.29-.108c.289-.109.59-.205.891-.289C610.354,319.6,610.776,319.5,611.2,319.388Zm-5.052,5.98a17.585,17.585,0,0,1,.061-2.118c.011-.084.011-.156.023-.24,0-.037.012-.073.012-.109.024-.156.06-.313.1-.469a2.023,2.023,0,0,1,.109-.361.958.958,0,0,0,.059-.168.378.378,0,0,1,.048-.1c.024-.036.037-.084.061-.12,3.569,2.19,6.993,4.6,10.646,6.653a27.493,27.493,0,0,0,5.173,2.37c.314.1.652.192.977.276-.084,1.468-.181,2.936-.266,4.4a11.548,11.548,0,0,1-1.989-.71,41.917,41.917,0,0,1-4.521-2.551c-3.243-2-6.391-4.138-9.6-6.2C606.738,325.74,606.448,325.548,606.147,325.368Zm18.555,5.786a6.687,6.687,0,0,0,.844-.06,24.463,24.463,0,0,0,3.484-.7c1.471-.385,2.918-.83,4.365-1.311,3.472-1.143,6.884-2.418,10.284-3.766,3.28-1.288,6.523-2.635,9.754-4.055.168-.072.325-.144.495-.216,0,.048.011.1.011.144.061.71.085,1.431.085,2.154,0,.409-.012.805-.024,1.215-2.93,1.468-5.932,2.864-8.946,4.115-3.111,1.3-6.27,2.5-9.441,3.669-1.675.626-3.364,1.24-5.039,1.841a21.533,21.533,0,0,1-4.835,1.324,7.894,7.894,0,0,1-1.3.048C624.521,334.1,624.617,332.622,624.7,331.154Zm33.567,11.118a6.761,6.761,0,0,1-.712-.037c-.205-.011-.4-.036-.6-.06-.012,0-.1-.012-.109-.012-.048-.012-.084-.012-.133-.024-.1-.012-.2-.037-.3-.048a13.405,13.405,0,0,1-2.364-.638.425.425,0,0,0-.531.3.438.438,0,0,0,.3.529,13.577,13.577,0,0,0,3.232.758c-.41.216-.832.433-1.242.65-.832-.181-1.652-.361-2.484-.542a.431.431,0,1,0-.229.83l1.52.325-2.135,1.119q-3.526,1.839-7.041,3.681c-1.205.626-2.4,1.252-3.6,1.878-1.411-.9-2.845-1.781-4.268-2.66q-2.351-1.444-4.69-2.887c-.735-.457-1.482-.927-2.218-1.383,0-.975.012-1.961.036-2.936.012-.373.012-.746.025-1.119,1.314-.493,2.64-.986,3.954-1.48,1.339-.5,2.677-1,4.015-1.5,1.241-.47,2.5-.927,3.737-1.4.41-.157.82-.3,1.23-.458,2.061,1,4.111,2,6.173,3s4.123,2.009,6.185,3.008C656.773,341.537,657.52,341.911,658.268,342.272Zm-9.32-5.968c-.385-.193-.784-.373-1.17-.565-.82-.4-1.627-.794-2.448-1.191.23-.084.459-.168.676-.252,1.024-.385,2.049-.77,3.074-1.143C649.044,334.2,649,335.257,648.948,336.3Zm0,0" transform="translate(-604.77 -303.074)" fill="#10355b"/></g><path d="M698.363,421.37a1.773,1.773,0,0,0,1.664.048,1.952,1.952,0,0,0,1-1.2,1.765,1.765,0,0,0,.012-.938,1.424,1.424,0,0,0-.578-.746,1.97,1.97,0,0,0-1.519-.2,1.922,1.922,0,0,0-1.254.878A1.634,1.634,0,0,0,698.363,421.37Zm.506-1.24a.369.369,0,0,1-.048-.1c-.011-.024-.011-.06-.024-.084v-.06c0-.012.012-.024.012-.037s.023-.036.036-.06.048-.048.061-.061.036-.024.06-.036a.5.5,0,0,1,.109-.061,1.084,1.084,0,0,1,.266-.072.79.79,0,0,1,.241,0l.132.036c.012.012.036.012.048.025l.012.011.012.012c0,.012,0,.024.011.024v.1c-.011.036-.011.06-.024.1a.225.225,0,0,0-.025.084c-.023.036-.036.072-.059.109l.024-.025-.024.025v.011c-.012.024-.037.048-.048.048l-.012.012c-.025.024-.048.036-.073.061-.049.023-.084.048-.133.072l-.132.036h-.1c-.037-.012-.085-.024-.121-.036s-.061-.036-.084-.048c.012.012.023.012.036.025l-.036-.037a.081.081,0,0,1-.036-.036A.1.1,0,0,1,698.869,420.13Zm0,0" transform="translate(-70.495 -87.365)" fill="#10355b"/><path d="M703.387,426.213c.012.011.024.023.036.036l.012.012C703.4,426.213,703.387,426.2,703.387,426.213Zm0,0" transform="translate(-74.952 -93.387)" fill="#10355b"/><path d="M706.263,425.788l.048-.048v-.012C706.263,425.775,706.251,425.788,706.263,425.788Zm0,0" transform="translate(-77.129 -93.022)" fill="#10355b"/><path d="M787.164,365.8c.41.265.82.53,1.23.782a.435.435,0,0,0,.591-.156.444.444,0,0,0-.157-.59c-.41-.265-.82-.53-1.23-.782a.434.434,0,0,0-.591.156A.444.444,0,0,0,787.164,365.8Zm0,0" transform="translate(-138.293 -46.988)" fill="#10355b"/><path d="M633.923,330.42a.432.432,0,1,0-.747.433c.289.493.59,1,.879,1.492a.432.432,0,0,0,.748-.433C634.513,331.419,634.212,330.925,633.923,330.42Zm0,0" transform="translate(-21.692 -20.622)" fill="#10355b"/></g></svg>