<svg xmlns="http://www.w3.org/2000/svg" xmlns:xlink="http://www.w3.org/1999/xlink" width="41.934" height="22.95" viewBox="0 0 41.934 22.95"><defs><linearGradient id="a" x1="0.5" x2="0.5" y2="1" gradientUnits="objectBoundingBox"><stop offset="0" stop-color="#10355b"/><stop offset="1" stop-color="#030b12"/></linearGradient><clipPath id="as"><path d="M0,0H6.608V5.406H0ZM0,0" fill="url(#a)"/></clipPath><clipPath id="at"><path d="M0,21.667,21.667,0,43.334,21.667,21.667,43.334Zm0,0" transform="translate(0 0)" fill="url(#a)"/></clipPath><clipPath id="au"><path d="M0,21.667,21.667,0,43.334,21.667,21.667,43.334Zm0,0" fill="url(#a)"/></clipPath><clipPath id="ax"><path d="M0,0H7.481V.819H0ZM0,0" transform="translate(0 0)" fill="url(#a)"/></clipPath><clipPath id="bc"><path d="M0,0H5.679V14.417H0ZM0,0" transform="translate(0 0)" fill="url(#a)"/></clipPath><clipPath id="bh"><path d="M0,0H4.259V1.693H0ZM0,0" transform="translate(0 0)" fill="url(#a)"/></clipPath><clipPath id="br"><path d="M0,0H12.615V23.809H0ZM0,0" transform="translate(0 0)" fill="url(#a)"/></clipPath><clipPath id="bw"><path d="M0,0H.819V7.263H0ZM0,0" transform="translate(0 0)" fill="url(#a)"/></clipPath><clipPath id="cb"><path d="M0,0H.765V5.024H0ZM0,0" transform="translate(0 0)" fill="url(#a)"/></clipPath><clipPath id="cg"><path d="M0,0H.765V5.188H0ZM0,0" transform="translate(0 0)" fill="url(#a)"/></clipPath><clipPath id="cl"><path d="M0,0H.819V5.188H0ZM0,0" transform="translate(0 0)" fill="url(#a)"/></clipPath></defs><g transform="translate(2612.072 -1345.153) rotate(90)"><g transform="translate(1346.355 2569.861) rotate(2)"><g transform="translate(7.927 0)" clip-path="url(#as)"><g transform="translate(-18.372 -0.001)" clip-path="url(#at)"><g transform="translate(0 0)" clip-path="url(#au)"><g clip-path="url(#au)"><path d="M.339,3.818l-.013.022c-.046.077-.094.156-.139.235l-.027.044C.106,4.208.053,4.3,0,4.393a5.847,5.847,0,0,0,3.28,1,5.85,5.85,0,0,0,3.28-1l0-.008L6.55,4.376q-.072-.126-.144-.25l-.041-.069c-.038-.064-.076-.129-.114-.192L6.21,3.8q-.15-.248-.3-.481L5.872,3.26c-.038-.06-.077-.118-.115-.176-.013-.021-.027-.042-.041-.062-.045-.068-.09-.135-.135-.2L5.57,2.8l-.149-.215-.033-.047-.114-.162-.039-.054-.123-.168-.02-.028L4.95,1.94l-.027-.035-.112-.147-.037-.047-.11-.141L4.64,1.539c-.044-.057-.089-.112-.132-.165L4.49,1.352,4.38,1.218l-.033-.039-.1-.118L4.224,1.03,4.105.891A.079.079,0,0,1,4.1.88l-.1-.119L3.963.728,3.879.634,3.853.6l-.2-.216L3.631.362,3.563.29,3.54.265,3.464.187,3.457.179,3.383.1,3.36.08,3.281,0A20.594,20.594,0,0,0,.339,3.818Zm0,0" transform="translate(18.387 0.002)" fill="url(#a)"/></g></g></g></g><g transform="translate(7.49 29.543)" clip-path="url(#ax)"><g transform="translate(-17.935 -29.544)" clip-path="url(#at)"><g transform="translate(0 0)" clip-path="url(#au)"><g clip-path="url(#au)"><path d="M6.9,0H0V.776H7.4V0H6.9Zm0,0" transform="translate(17.966 29.546)" fill="url(#a)"/></g></g></g></g><g transform="translate(0 20.041)" clip-path="url(#bc)"><g transform="translate(-11.382 -20.042)" clip-path="url(#at)"><g transform="translate(0 0)" clip-path="url(#au)"><g clip-path="url(#au)"><path d="M5.641,6.829A31.269,31.269,0,0,1,3.633,0,9.989,9.989,0,0,0,.611,4.337c-1.018,2.875-.763,6.234.755,10C1.758,12.264,2.857,8.274,5.641,6.829Zm0,0" transform="translate(11.39 20.086)" fill="url(#a)"/></g></g></g></g><g transform="translate(9.07 31.018)" clip-path="url(#bh)"><g transform="translate(-19.518 -31.019)" clip-path="url(#at)"><g transform="translate(0 0)" clip-path="url(#au)"><g clip-path="url(#au)"><path d="M0,0H4.221V1.6H0ZM0,0" transform="translate(19.556 31.053)" fill="url(#a)"/></g></g></g></g><g transform="translate(16.782 20.041)" clip-path="url(#bc)"><g transform="translate(-26.29 -20.042)" clip-path="url(#at)"><g transform="translate(0 0)" clip-path="url(#au)"><g clip-path="url(#au)"><path d="M0,6.829c2.783,1.445,3.882,5.435,4.275,7.507,1.518-3.764,1.773-7.123.754-10A9.991,9.991,0,0,0,2.009,0,31.305,31.305,0,0,1,0,6.829Zm0,0" transform="translate(26.302 20.086)" fill="url(#a)"/></g></g></g></g><g transform="translate(4.923 5.024)" clip-path="url(#br)"><g transform="translate(-15.368 -5.025)" clip-path="url(#at)"><g transform="translate(0 0)" clip-path="url(#au)"><g clip-path="url(#au)"><path d="M2.646,0A23.287,23.287,0,0,0,.259,14.328,30.426,30.426,0,0,0,2.45,21.914c.263.614.554,1.239.862,1.864h5.93c.31-.626.6-1.252.862-1.863h0a30.4,30.4,0,0,0,2.191-7.587A23.285,23.285,0,0,0,9.908,0,6.565,6.565,0,0,1,6.277,1.084,6.567,6.567,0,0,1,2.646,0ZM8.066,11.09a2.531,2.531,0,1,1,0-3.579A2.533,2.533,0,0,1,8.066,11.09Zm0,0" transform="translate(15.39 5.038)" fill="url(#a)"/></g></g></g></g><g transform="translate(10.821 34.567)" clip-path="url(#bw)"><g transform="translate(-21.266 -34.568)" clip-path="url(#at)"><g transform="translate(0 0)" clip-path="url(#au)"><g clip-path="url(#au)"><path d="M.365,0A.365.365,0,0,0,0,.365V6.824a.365.365,0,1,0,.731,0V.365A.365.365,0,0,0,.365,0Zm0,0" transform="translate(21.301 34.62)" fill="url(#a)"/></g></g></g></g><g transform="translate(13.568 34.567)" clip-path="url(#cb)"><g transform="translate(-23.778 -34.568)" clip-path="url(#at)"><g transform="translate(0 0)" clip-path="url(#au)"><g clip-path="url(#au)"><path d="M.365,0A.365.365,0,0,0,0,.365V4.583a.365.365,0,1,0,.731,0V.365A.365.365,0,0,0,.365,0Zm0,0" transform="translate(23.78 34.62)" fill="url(#a)"/></g></g></g></g><g transform="translate(16.257 32.547)" clip-path="url(#cg)"><g transform="translate(-26.235 -32.548)" clip-path="url(#at)"><g transform="translate(0 0)" clip-path="url(#au)"><g clip-path="url(#au)"><path d="M0,.366v4.42a.365.365,0,1,0,.731,0V.366A.365.365,0,1,0,0,.366Zm0,0" transform="translate(26.258 32.55)" fill="url(#a)"/></g></g></g></g><g transform="translate(5.381 32.547)" clip-path="url(#cl)"><g transform="translate(-16.296 -32.548)" clip-path="url(#at)"><g transform="translate(0 0)" clip-path="url(#au)"><g clip-path="url(#au)"><path d="M.731.366A.366.366,0,1,0,0,.366v4.42a.366.366,0,0,0,.731,0Zm0,0" transform="translate(16.345 32.55)" fill="url(#a)"/></g></g></g></g><g transform="translate(8.129 34.567)" clip-path="url(#cb)"><g transform="translate(-18.808 -34.568)" clip-path="url(#at)"><g transform="translate(0 0)" clip-path="url(#au)"><g clip-path="url(#au)"><path d="M.731,4.583V.366A.365.365,0,1,0,0,.366V4.583a.365.365,0,0,0,.731,0Zm0,0" transform="translate(18.823 34.62)" fill="url(#a)"/></g></g></g></g></g></g></svg>