<svg xmlns="http://www.w3.org/2000/svg" xmlns:xlink="http://www.w3.org/1999/xlink" width="71.717" height="58.465" viewBox="0 0 71.717 58.465"><defs><clipPath id="a"><path d="M605,311.25h71.717v58.465H605Zm0,0" transform="translate(-605 -311.25)" fill="#10355b"/></clipPath></defs><g transform="translate(-605 -311.25)"><path d="M641.831,395.382a1.711,1.711,0,0,0-1.654.1l-7.731,4.949a1.7,1.7,0,0,0,1.835,2.87l6.932-4.437,9.379,4.495a1.7,1.7,0,0,0,2-.4L663.256,391.1l4.358,3.717a1.7,1.7,0,0,0,2.391-.178l2.479-2.854a1.7,1.7,0,1,0-2.571-2.234l-1.371,1.578-4.336-3.7a1.7,1.7,0,0,0-2.373.157l-10.918,12.148-9.083-4.353" transform="translate(-18.348 -52.146)" fill="#10355b"/><path d="M632.742,360.439a1.7,1.7,0,0,0,.708,2.3l10.307,5.464a1.7,1.7,0,0,0,2.207-.549l4.183-6.178,4.222,7.793a1.7,1.7,0,0,0,3-1.624L651.8,357.388a1.707,1.707,0,0,0-1.413-.89,1.74,1.74,0,0,0-1.495.747l-4.9,7.234-8.955-4.747a1.7,1.7,0,0,0-2.3.708" transform="translate(-18.955 -31.138)" fill="#10355b"/><path d="M744.34,415.475l-4.89,4.5-4.985-2.962a1.7,1.7,0,0,0-2.141.329l-6.432,7.208-3.664-6.759a1.7,1.7,0,1,0-2.994,1.624l4.817,8.889a1.7,1.7,0,0,0,1.3.88,1.826,1.826,0,0,0,.2.012,1.708,1.708,0,0,0,1.272-.569l7.112-7.969,4.869,2.894a1.7,1.7,0,0,0,2.023-.211l5.824-5.359a1.7,1.7,0,1,0-2.307-2.507" transform="translate(-78.472 -71.416)" fill="#10355b"/><g transform="translate(605 311.25)" clip-path="url(#a)"><path d="M676.775,363.755a1.553,1.553,0,0,0-.093-.3c0-.006,0-.012,0-.018a1.783,1.783,0,0,0-.16-.295.231.231,0,0,1-.022-.027,1.707,1.707,0,0,0-.19-.228l0-.006-4.063-4a1.7,1.7,0,1,0-2.39,2.429l1.1,1.082H612.683V317.114l1.083,1.1a1.7,1.7,0,1,0,2.427-2.388l-4-4.063-.007-.006a1.7,1.7,0,0,0-2.414,0l-.007.006-4,4.063a1.7,1.7,0,1,0,2.427,2.388l1.083-1.1v4.827h-2.039a1.278,1.278,0,0,0,0,2.556h2.039v5.961h-2.039a1.277,1.277,0,1,0,0,2.554h2.039v5.961h-2.039a1.278,1.278,0,0,0,0,2.556h2.039v5.96h-2.039a1.278,1.278,0,0,0,0,2.555h2.039V356h-2.039a1.278,1.278,0,0,0,0,2.555h2.039v5.535a1.7,1.7,0,0,0,1.7,1.7h59.968l-1.1,1.083a1.7,1.7,0,1,0,2.39,2.428l4.063-4a.033.033,0,0,0,0-.006,1.638,1.638,0,0,0,.195-.235.142.142,0,0,0,.017-.021,1.692,1.692,0,0,0,.16-.295s0-.011,0-.017a1.553,1.553,0,0,0,.093-.3,1.689,1.689,0,0,0,0-.677" transform="translate(-605.191 -311.253)" fill="#10355b"/></g><path d="M752.667,337.323l4.043-4.652a1.7,1.7,0,0,1,2.093-.383l5.5,2.961a1.7,1.7,0,1,1-1.615,3l-4.3-2.315-3.15,3.624a1.7,1.7,0,0,1-2.571-2.234Zm-7.1-2.258h1.452a11.243,11.243,0,0,0,9.873,9.875v1.452a1.278,1.278,0,0,0,2.555,0v-1.452a11.244,11.244,0,0,0,9.874-9.875h1.452a1.277,1.277,0,1,0,0-2.554h-1.452a11.242,11.242,0,0,0-9.874-9.875v-1.453a1.278,1.278,0,0,0-2.555,0v1.453a11.241,11.241,0,0,0-9.873,9.875h-1.452a1.277,1.277,0,1,0,0,2.554" transform="translate(-95.854 -5.957)" fill="#10355b"/></g></svg>