<svg xmlns="http://www.w3.org/2000/svg" xmlns:xlink="http://www.w3.org/1999/xlink" width="220" height="247.668" viewBox="0 0 220 247.668"><defs><linearGradient id="a" x1="0.5" x2="0.5" y2="1" gradientUnits="objectBoundingBox"><stop offset="0" stop-color="#10355b"/><stop offset="1" stop-color="#030b12"/></linearGradient><clipPath id="b"><path d="M617.25,289.5h220V537.168h-220Zm0,0" transform="translate(0 0)" fill="url(#a)"/></clipPath></defs><g transform="translate(-617.25 -289.5)" opacity="0.62" clip-path="url(#b)"><path d="M816.612,289.52l-14.694,4.906,20.49,61.393,14.695-4.9Zm-83.743,86.327a2.919,2.919,0,1,1-2.921,2.921A2.92,2.92,0,0,1,732.869,375.847Zm-73.338-6.593-14.694,4.906,4.906,14.69,14.695-4.9ZM797.393,309.7,664.124,354.181l2.1,6.292h0a4.6,4.6,0,0,1,.81,1.464,4.525,4.525,0,0,1,.231,1.671h0l6.746,20.217h0a4.564,4.564,0,0,1,.81,1.46,4.641,4.641,0,0,1,.23,1.675h0l1.755,5.263,39.135-13.061h0a16.874,16.874,0,0,1,30.4-10.148l63.73-21.272ZM632.116,364.864l-14.694,4.9v0l12.7,38.043,14.694-4.906Zm97.047,42.849v48.4H713.029Zm7.106,0,16.134,48.4H736.269Zm-3.4-38.971a10.029,10.029,0,0,0-4.529,18.975h0L680.111,532.39a3.554,3.554,0,0,0,2.249,4.495,3.6,3.6,0,0,0,1.125.181,3.558,3.558,0,0,0,3.371-2.429l23.806-71.42h18.5v70.295a3.553,3.553,0,1,0,7.106,0V463.216h18.5v0l23.806,71.415a3.559,3.559,0,0,0,3.371,2.429,3.6,3.6,0,0,0,1.125-.181,3.555,3.555,0,0,0,2.25-4.495L737.138,387.843h0a10.028,10.028,0,0,0-4.265-19.1Zm0,0" transform="translate(0.013 0.002)" fill="url(#a)"/></g></svg>