<svg xmlns="http://www.w3.org/2000/svg" xmlns:xlink="http://www.w3.org/1999/xlink" width="65.722" height="73.919" viewBox="0 0 65.722 73.919"><defs><clipPath id="a"><path d="M703,289.5h34.24v15.84H703Zm0,0" transform="translate(-703 -289.5)" fill="#10355b"/></clipPath><clipPath id="b"><path d="M692,400h41.8v27.16H692Zm0,0" transform="translate(-692 -400)" fill="#10355b"/></clipPath><clipPath id="c"><path d="M656.309,419.645h32.344v32.273H656.309Zm0,0" transform="translate(-656.309 -419.645)" fill="#10355b"/></clipPath><clipPath id="d"><path d="M617.25,423h26.48v26.56H617.25Zm0,0" transform="translate(-617.25 -423)" fill="#10355b"/></clipPath></defs><g transform="translate(-617.25 -289.5)"><g transform="translate(644.69 289.5)" clip-path="url(#a)"><path d="M704.9,304.326a.771.771,0,0,1-1.537-.114,15.326,15.326,0,0,1,1.224-5.006,14.419,14.419,0,0,1,2.8-4.212,17.381,17.381,0,0,1,11.735-5.155,19.668,19.668,0,0,1,7.32,1,16.89,16.89,0,0,1,6.25,3.712,14.565,14.565,0,0,1,4.52,10.005.769.769,0,1,1-1.536.077,13.053,13.053,0,0,0-4.045-8.969,15.338,15.338,0,0,0-5.682-3.369,18.139,18.139,0,0,0-6.749-.918,15.856,15.856,0,0,0-10.7,4.679,12.924,12.924,0,0,0-2.509,3.768,13.756,13.756,0,0,0-1.1,4.506" transform="translate(-703.243 -289.711)" fill="#10355b"/></g><path d="M716.773,319.283v-3.843c0-5.27,3.3-8.636,7.525-10.106a15.868,15.868,0,0,1,10.2,0c4.225,1.47,7.525,4.836,7.525,10.106v3.843c0,.01,0,.083-.006.286a13.991,13.991,0,0,1-4.027,9.791,12.371,12.371,0,0,1-8.649,3.706c-.043,0-.02,0-.2-.005a12.308,12.308,0,0,1-8.853-4.215A14.184,14.184,0,0,1,716.773,319.283Zm1.544-3.843v3.843a12.664,12.664,0,0,0,3.13,8.541,10.76,10.76,0,0,0,7.726,3.7c.055,0,.006,0,.172,0a10.832,10.832,0,0,0,7.563-3.255,12.467,12.467,0,0,0,3.576-8.725v-4.1c0-4.5-2.846-7.387-6.489-8.655a14.413,14.413,0,0,0-9.191,0c-3.642,1.268-6.487,4.153-6.487,8.655" transform="translate(-67.676 -10.195)" fill="#10355b"/><g transform="translate(641.17 324.859)" clip-path="url(#b)"><path d="M704.149,427.059a.771.771,0,1,1,0-1.541h28.078L731.2,410.307c-.3-4.475-3.144-5.172-6.932-6.1a35.216,35.216,0,0,1-5.53-1.7l-1.811-.765c-.129.087-.255.179-.38.275a7.476,7.476,0,0,0-.717.636l-2.675,2.691a.769.769,0,0,1-1.084.006l-2.754-2.691a7.383,7.383,0,0,0-.72-.619c-.13-.1-.257-.19-.385-.275l-1.816.744a36.738,36.738,0,0,1-5.434,1.646c-3.843.938-6.719,1.64-7.022,6.157l-.375,5.579a.771.771,0,0,1-1.538-.1l.375-5.577c.379-5.64,3.727-6.458,8.2-7.549a35.678,35.678,0,0,0,5.21-1.572l2.149-.881a.767.767,0,0,1,.74.04c.269.167.545.351.826.564a8.979,8.979,0,0,1,.87.751l2.206,2.156,2.136-2.151a9.066,9.066,0,0,1,.869-.767c.293-.226.565-.413.825-.578v0a.767.767,0,0,1,.71-.059l2.191.925a34.065,34.065,0,0,0,5.3,1.626c4.415,1.083,7.726,1.9,8.1,7.492l1.074,15.987a.615.615,0,0,1,.006.1.771.771,0,0,1-.771.77h-28.9" transform="translate(-692.02 -400.068)" fill="#10355b"/></g><path d="M700.649,335.131h-1.48a1.487,1.487,0,0,0-1.481,1.479v3.452a.834.834,0,0,0,.829.828h2.132Zm-1.48-1.541h2.251a.772.772,0,0,1,.771.771v7.3a.772.772,0,0,1-.771.771h-2.9a2.377,2.377,0,0,1-2.371-2.37V336.61a3.028,3.028,0,0,1,3.024-3.02" transform="translate(-53.649 -29.981)" fill="#10355b"/><path d="M798.2,333.59h2.25a3.027,3.027,0,0,1,3.024,3.02v3.452a2.377,2.377,0,0,1-2.371,2.37h-2.9a.772.772,0,0,1-.771-.771v-7.3A.771.771,0,0,1,798.2,333.59Zm2.25,1.541h-1.479v5.759H801.1a.832.832,0,0,0,.585-.244.823.823,0,0,0,.243-.584V336.61a1.485,1.485,0,0,0-1.48-1.479" transform="translate(-122.523 -29.981)" fill="#10355b"/><path d="M760.252,363.669a.771.771,0,1,1,0-1.541h9.255c1.912,0,2.912-.3,3.389-.979.513-.735.584-2.05.584-3.976a.772.772,0,0,1,1.544,0c0,2.216-.106,3.765-.869,4.856-.8,1.144-2.171,1.64-4.647,1.64h-9.255" transform="translate(-96.717 -45.494)" fill="#10355b"/><path d="M751.674,372.811h-1.26a.264.264,0,0,0-.19.077l0,0a.275.275,0,0,0,0,.38l0,0a.262.262,0,0,0,.19.076h1.26a.263.263,0,0,0,.189-.076l0,0a.275.275,0,0,0,0-.38l0,0A.265.265,0,0,0,751.674,372.811Zm-1.26-1.541h1.26a1.806,1.806,0,0,1,1.276.531l0,0h0a1.8,1.8,0,0,1,0,2.551l0,.005a1.814,1.814,0,0,1-1.275.529h-1.26a1.8,1.8,0,0,1-1.278-.531l0,0v0a1.8,1.8,0,0,1,0-2.55l0,0a1.8,1.8,0,0,1,1.276-.53" transform="translate(-89.32 -55.604)" fill="#10355b"/><g transform="translate(629.749 331.146)" clip-path="url(#c)"><path d="M677.159,420.108a9.248,9.248,0,0,1,4.814.049.77.77,0,0,1,.368,1.3l-6.156,6.15,4.69,4.688,6.156-6.151h0a.761.761,0,0,1,.334-.2.774.774,0,0,1,.953.53,9.228,9.228,0,0,1,.057,4.843,9.191,9.191,0,0,1-6.447,6.546,9.274,9.274,0,0,1-4.273.153l-12.547,12.535a5.09,5.09,0,0,1-7.2-7.195l12.546-12.534a9.258,9.258,0,0,1,.153-4.269,9.191,9.191,0,0,1,6.552-6.442Zm3.064,1.28a7.733,7.733,0,0,0-2.677.206,7.652,7.652,0,0,0-5.5,9.284.767.767,0,0,1-.2.731L659,444.442a3.547,3.547,0,0,0,5.018,5.015l12.846-12.833a.772.772,0,0,1,.771-.193,7.713,7.713,0,0,0,3.884-.052,7.638,7.638,0,0,0,5.576-8.125l-5.313,5.309a1.279,1.279,0,0,1-1.81,0h0l-5.06-5.055c-.02-.021-.04-.042-.057-.064a1.274,1.274,0,0,1,.057-1.745h0l5.314-5.309" transform="translate(-656.386 -419.759)" fill="#10355b"/></g><path d="M680.048,471.418a.771.771,0,0,1,1.09,1.09l-9.944,9.934a.77.77,0,0,1-1.09-1.089l9.944-9.935" transform="translate(-35.787 -123.552)" fill="#10355b"/><path d="M649.532,450.04a3.879,3.879,0,1,0,1.136,2.743A3.873,3.873,0,0,0,649.532,450.04Zm-2.744-2.677a5.422,5.422,0,1,1-3.836,1.588,5.418,5.418,0,0,1,3.836-1.588" transform="translate(-16.397 -107.348)" fill="#10355b"/><g transform="translate(617.25 332.219)" clip-path="url(#d)"><path d="M630.689,448.039a.771.771,0,1,1,0,1.541H629.1a.772.772,0,0,1-.77-.711l-.424-2.642a9.737,9.737,0,0,1-1.275-.43,10.015,10.015,0,0,1-1.207-.6l-2.221,1.6a.772.772,0,0,1-1-.079h0l-1.961-1.961a.77.77,0,0,1-.055-1.028l1.584-2.185a10.042,10.042,0,0,1-.6-1.207,9.677,9.677,0,0,1-.43-1.273l-2.706-.432a.77.77,0,0,1-.649-.759h0v-2.772a.769.769,0,0,1,.711-.768l2.645-.424a9.643,9.643,0,0,1,.43-1.274,10.02,10.02,0,0,1,.6-1.206l-1.607-2.219a.77.77,0,0,1,.079-1h0l1.961-1.96a.772.772,0,0,1,1.03-.055l2.189,1.583a10.162,10.162,0,0,1,1.207-.6,9.907,9.907,0,0,1,1.275-.429l.434-2.7a.769.769,0,0,1,.76-.647v0h2.774a.77.77,0,0,1,.769.711l.424,2.641a10.139,10.139,0,0,1,1.276.43,10.3,10.3,0,0,1,1.208.6l2.22-1.606a.771.771,0,0,1,1,.08h0l1.961,1.96a.77.77,0,0,1,.055,1.029l-1.583,2.186a10.3,10.3,0,0,1,.6,1.206,9.891,9.891,0,0,1,.43,1.274l2.706.433a.768.768,0,1,1-.243,1.517l-3.182-.51a.767.767,0,0,1-.665-.606,8.368,8.368,0,0,0-.469-1.518,8.585,8.585,0,0,0-.746-1.407h0a.767.767,0,0,1,.021-.873l1.524-2.1-1.034-1.032-2.083,1.507a.772.772,0,0,1-.9.036,8.473,8.473,0,0,0-2.928-1.214.77.77,0,0,1-.6-.634l-.411-2.561h-1.464l-.406,2.53a.771.771,0,0,1-.608.665,8.389,8.389,0,0,0-1.519.469,8.493,8.493,0,0,0-1.41.745.771.771,0,0,1-.874-.021l-2.105-1.523-1.034,1.032,1.509,2.082a.767.767,0,0,1,.036.894,8.5,8.5,0,0,0-1.216,2.926.766.766,0,0,1-.632.6l-2.564.411v1.462l2.532.405a.768.768,0,0,1,.664.607,8.6,8.6,0,0,0,.469,1.517,8.488,8.488,0,0,0,.749,1.408h0a.773.773,0,0,1-.02.874l-1.525,2.1,1.034,1.033,2.084-1.508a.772.772,0,0,1,.9-.036,8.642,8.642,0,0,0,1.409.746,8.541,8.541,0,0,0,1.52.468.769.769,0,0,1,.6.632l.411,2.563h.938" transform="translate(-617.343 -423.279)" fill="#10355b"/></g></g></svg>