<svg xmlns="http://www.w3.org/2000/svg" xmlns:xlink="http://www.w3.org/1999/xlink" width="70.716" height="70.716" viewBox="0 0 70.716 70.716"><defs><clipPath id="a"><path d="M604.5,289.5h70.716v70.716H604.5Zm0,0" fill="#10355b"/></clipPath></defs><g transform="translate(-604.5 -289.5)" clip-path="url(#a)"><path d="M619.863,289.5a7.687,7.687,0,1,0,7.685,7.687A7.709,7.709,0,0,0,619.863,289.5Zm26.134,0v3.075H630.624v3.074h41.507v39.97h-39.97v3.074h13.066l-8.454,16.91h3.074l7.687-15.372,7.687,15.372H658.3l-8.455-16.91h23.828a1.54,1.54,0,0,0,1.538-1.537V294.112a1.541,1.541,0,0,0-1.538-1.538h-24.6V289.5Zm-26.134,3.075a4.612,4.612,0,1,1-4.613,4.612A4.591,4.591,0,0,1,619.863,292.575Zm-6.918,13.835a8.476,8.476,0,0,0-8.456,8.456v18.927a1.1,1.1,0,0,0,0,.192v.1a1.509,1.509,0,0,0,.048.433,4.626,4.626,0,0,0,4.564,4.179,4.526,4.526,0,0,0,1.537-.288v16.43a5.368,5.368,0,0,0,9.224,3.746,5.367,5.367,0,0,0,9.223-3.746v-39.2H646a4.613,4.613,0,0,0,.1-9.225H624.474a1.528,1.528,0,0,0-1.394.865l-3.218,6.438-3.219-6.438a1.527,1.527,0,0,0-1.393-.865Zm0,3.074h1.344l4.181,8.36a1.536,1.536,0,0,0,2.786,0l4.179-8.36h20.706a1.541,1.541,0,0,1-.145,3.074H627.548a1.54,1.54,0,0,0-1.536,1.538v40.739a2.313,2.313,0,0,1-4.613.239V338.693a1.54,1.54,0,0,0-1.681-1.585,1.61,1.61,0,0,0-.193.049,1.539,1.539,0,0,0-1.2,1.537v15.853a1.056,1.056,0,0,0,0,.193v.336a2.313,2.313,0,0,1-4.613-.239V318.709a1.537,1.537,0,1,0-3.074,0v15.372a1.539,1.539,0,0,1-3.075.1v-.1a1.139,1.139,0,0,0,0-.288V314.866A5.358,5.358,0,0,1,612.945,309.484Zm0,0" transform="translate(0.01)" fill="#10355b"/></g></svg>