<svg xmlns="http://www.w3.org/2000/svg" xmlns:xlink="http://www.w3.org/1999/xlink" width="206.889" height="121.047" viewBox="0 0 206.889 121.047"><defs><clipPath id="a"><path d="M644.25,289.5H745.283V496.389H644.25Zm0,0" transform="translate(-644.25 -289.5)" fill="#10355b"/></clipPath><clipPath id="b"><path d="M759,347h35.446v35.687H759Zm0,0" transform="translate(-759 -347)" fill="#10355b"/></clipPath></defs><g transform="translate(-289.5 765.297) rotate(-90)"><path d="M694.622,505.807h27.831a3.481,3.481,0,1,0,0-6.963H694.622a3.481,3.481,0,0,0,0,6.963Zm0,0" transform="translate(-11.852 -23.343)" fill="#10355b"/><path d="M698.1,307.419a3.449,3.449,0,0,1-.263,1.334,3.474,3.474,0,0,1-3.214,2.147,3.486,3.486,0,1,1,3.477-3.481Zm0,0" transform="translate(-9.814 -0.512)" fill="#10355b"/><path d="M712.529,307.419a3.482,3.482,0,0,1-4.811,3.218,3.409,3.409,0,0,1-1.127-.757,3.336,3.336,0,0,1-.753-1.127,3.452,3.452,0,0,1,0-2.668,3.337,3.337,0,0,1,.753-1.127,3.481,3.481,0,0,1,3.791-.757,3.473,3.473,0,0,1,2.147,3.218Zm0,0" transform="translate(-12.834 -0.512)" fill="#10355b"/><path d="M726.959,307.419a3.522,3.522,0,0,1-.264,1.334,3.526,3.526,0,0,1-1.884,1.884,3.487,3.487,0,1,1,1.127-5.678,3.405,3.405,0,0,1,.757,1.127A3.514,3.514,0,0,1,726.959,307.419Zm0,0" transform="translate(-15.854 -0.512)" fill="#10355b"/><path d="M701.965,460.189a13.923,13.923,0,0,0,13.918,13.926h55.662a13.923,13.923,0,0,0,13.918-13.926v-55.7a13.922,13.922,0,0,0-13.918-13.925H715.883a13.922,13.922,0,0,0-13.918,13.925Zm6.959-55.7a6.968,6.968,0,0,1,6.959-6.963h55.662a6.967,6.967,0,0,1,6.959,6.963v55.7a6.967,6.967,0,0,1-6.959,6.963H715.883a6.967,6.967,0,0,1-6.959-6.963Zm0,0" transform="translate(-27.125 -14.726)" fill="#10355b"/><path d="M737,381.551a13.679,13.679,0,0,0,13.673-13.681V346.493A13.678,13.678,0,0,0,737,332.813H715.638a13.678,13.678,0,0,0-13.673,13.68V367.87a13.679,13.679,0,0,0,13.673,13.681ZM708.924,367.87V346.493a6.723,6.723,0,0,1,6.714-6.718H737a6.723,6.723,0,0,1,6.714,6.718V367.87A6.723,6.723,0,0,1,737,374.588H715.638A6.723,6.723,0,0,1,708.924,367.87Zm0,0" transform="translate(-16.378 -5.356)" fill="#10355b"/><g transform="translate(644.25 289.5)" clip-path="url(#a)"><path d="M655.3,496.389h78.238c6.1,0,11.05-5.79,11.05-12.93v-19.4H649.825V321.827h89.192v13.168c.733-.147,5.574-.238,5.574-.238V302.431c0-7.141-4.947-12.931-11.05-12.931H655.3c-6.107,0-11.054,5.79-11.054,12.931V483.459C644.25,490.6,649.2,496.389,655.3,496.389Zm-5.479-193.958c0-3.565,2.457-6.465,5.479-6.465h78.238c3.018,0,5.475,2.9,5.475,6.465v12.93H649.825Zm0,168.1h89.192v12.931c0,3.565-2.457,6.465-5.475,6.465H655.3c-3.021,0-5.479-2.9-5.479-6.465Zm0,0" transform="translate(-644.25 -289.5)" fill="#10355b"/></g><g transform="translate(729.851 340.243)" clip-path="url(#b)"><path d="M759.68,357.023V372.29a9.766,9.766,0,0,0,9.762,9.773H784.7a9.77,9.77,0,0,0,9.766-9.773V357.023a9.77,9.77,0,0,0-9.766-9.773H769.442A9.766,9.766,0,0,0,759.68,357.023Zm27.831,0V372.29A2.813,2.813,0,0,1,784.7,375.1H769.442a2.815,2.815,0,0,1-2.807-2.811V357.023a2.814,2.814,0,0,1,2.807-2.811H784.7A2.812,2.812,0,0,1,787.511,357.023Zm0,0" transform="translate(-759.024 -347.009)" fill="#10355b"/></g><path d="M668.446,390.563a9.767,9.767,0,0,0-9.766,9.773V415.6a9.767,9.767,0,0,0,9.766,9.773H683.7a9.77,9.77,0,0,0,9.766-9.773V400.336a9.77,9.77,0,0,0-9.766-9.773Zm18.065,9.773V415.6a2.813,2.813,0,0,1-2.807,2.812H668.446a2.812,2.812,0,0,1-2.807-2.812V400.336a2.812,2.812,0,0,1,2.807-2.811H683.7A2.813,2.813,0,0,1,686.511,400.336Zm0,0" transform="translate(-0.512 -11.838)" fill="#10355b"/></g></svg>