<svg xmlns="http://www.w3.org/2000/svg" width="55.515" height="60.62" viewBox="0 0 55.515 60.62"><g transform="translate(-624.036 -291.761)"><path d="M643.258,310.837s24.347-13.508,27.713-9.611,9.326,18.7,9.326,18.7l7.77,20.261-17.1,11.171s-.259,12.988-9.848,1.818l-5.96-21.3-7.5-17.144Zm0,0" transform="translate(-13.644 -6.218)" fill="#10355b"/><path d="M627.594,345.179s-1.3-5.715,2.849-6.753,5.438,4.156,5.438,4.156S633.814,349.854,627.594,345.179Zm0,0" transform="translate(-2.389 -33.027)" fill="#c49455"/><path d="M734.973,442.054l-.521,4.156-1.029,2.079s.518,1.032,3.886-1.033,10.361-5.2,10.361-5.2l7.252-5.2,1.813-4.935-.779-3.641Zm0,0" transform="translate(-77.646 -96.912)" fill="#10355b"/><path d="M632.869,341.22c.177,2.572-2.231,5.089-4.85,4.235a3.578,3.578,0,0,1-1.54-5.936c1.939-2,4.557-.947,6.159.865,1.839,2.083,2.828,4.876,3.874,7.406a165.533,165.533,0,0,1,6.455,18.7c.85,3.037,1.486,6.131,2.333,9.165a13.7,13.7,0,0,0,4.323,7.149c2,1.647,4.866,2.622,6.908.509,1.438-1.484,2.489-4.518.868-6.207a.491.491,0,0,0-.814.475c.408,1.866-.065,4.606-2.114,5.356-1.233.451-2.62-.31-3.582-1.032a10.531,10.531,0,0,1-2.773-3.184c-1.616-2.828-2.02-6.307-2.817-9.425q-1.3-5.1-2.955-10.1-1.605-4.864-3.528-9.621a49.059,49.059,0,0,0-3.968-8.537c-1.309-2.006-3.217-3.949-5.766-4a5.139,5.139,0,0,0-5.031,4.643,5,5,0,0,0,5.145,5.2,4.75,4.75,0,0,0,4.227-5.738.292.292,0,0,0-.571.078Zm0,0" transform="translate(0 -32.141)" fill="#f4d8a8"/><path d="M729.768,447.53a71.972,71.972,0,0,0,13.153-5.935c2.058-1.14,4.116-2.319,6.042-3.653a13.43,13.43,0,0,0,4.54-4.729,6.329,6.329,0,0,0-.423-6.928c-.482-.589-1.469.18-1.051.814,2.7,4.111-1.137,7.96-4.448,10.115A123.087,123.087,0,0,1,736.1,443.8c-2.159,1.1-4.345,2.193-6.562,3.163-.317.138-.091.662.236.559Zm0,0" transform="translate(-74.777 -95.341)" fill="#e2c08f"/><path d="M680.27,337.409c-1.652-5.087-3.719-10.047-5.659-15.027s-3.922-9.984-5.879-14.975c-1.408-3.585-3.025-8.1-7.211-9.139a11.192,11.192,0,0,0-6.656.848c-2.334.9-4.589,2.047-6.865,3.1-5.188,2.374-10.346,4.814-15.277,7.695a.708.708,0,0,0,.713,1.222c4.191-2.423,8.539-4.554,12.934-6.592,2.2-1.032,4.423-2.03,6.632-3.049,2.084-.968,4.289-2.061,6.633-2.121,4.629-.122,6.411,4.474,7.836,8.092q2.817,7.148,5.656,14.286c2.13,5.319,4.135,10.719,6.553,15.919.154.333.7.1.588-.248Zm0,0" transform="translate(-5.923 -4.465)" fill="#f4d8a8"/><path d="M731.874,480.7c2.735-.927,3.641-4.6,2.1-6.928a.508.508,0,0,0-.132-.145.5.5,0,0,0-.557-.03.48.48,0,0,0-.146.129.5.5,0,0,0-.1.372.509.509,0,0,0,.062.186,4.533,4.533,0,0,1,.452,3.423,5.636,5.636,0,0,1-1.911,2.587c-.185.147.014.479.236.4Zm0,0" transform="translate(-76.328 -129.026)" fill="#e2c08f"/><path d="M629.965,347.235a8.036,8.036,0,0,1,3.17-.785,5.393,5.393,0,0,1,3.3,1.225c.3.25.735-.181.434-.435a5.775,5.775,0,0,0-3.528-1.351,4.617,4.617,0,0,0-3.49,1.161c-.069.076,0,.228.107.186Zm0,0" transform="translate(-4.107 -38.419)" fill="#b27c3b"/><path d="M630.638,344.73c.991-.61,1.714-1.284,2.967-1.234a3.534,3.534,0,0,1,2.781,1.673.283.283,0,0,0,.087.088.316.316,0,0,0,.116.046.31.31,0,0,0,.124,0,.306.306,0,0,0,.112-.054.311.311,0,0,0,.08-.1.289.289,0,0,0,.036-.119.3.3,0,0,0-.076-.231l-.124-.147a.209.209,0,0,0-.2-.055.212.212,0,0,0-.148.147l-.036.185.558-.074a4.007,4.007,0,0,0-1.353-1.383,3.922,3.922,0,0,0-.885-.406,4.013,4.013,0,0,0-.958-.179c-1.175-.063-2.81.51-3.245,1.712a.1.1,0,0,0,.041.118.106.106,0,0,0,.124.009Zm0,0" transform="translate(-4.566 -36.288)" fill="#b27c3b"/><path d="M629.431,348.572a4.468,4.468,0,0,1,3.327-.878,8.138,8.138,0,0,1,1.843.5,4.438,4.438,0,0,0,1.658.565.163.163,0,0,0,.112-.276,4.181,4.181,0,0,0-1.864-.946,6.742,6.742,0,0,0-2.17-.433,3.578,3.578,0,0,0-3.051,1.326c-.059.086.06.209.146.147Zm0,0" transform="translate(-3.715 -39.282)" fill="#b27c3b"/><path d="M629.512,344.785a3.945,3.945,0,0,1,3.3-2.34,3.576,3.576,0,0,1,3.349,2.345c.122.33.653.187.529-.147a4.051,4.051,0,0,0-3.774-2.711,3.783,3.783,0,0,0-3.6,2.771c-.023.113.133.193.194.083Zm0,0" transform="translate(-3.748 -35.613)" fill="#b27c3b"/><path d="M633.576,345.227a2.958,2.958,0,0,1,1.94-.136v-.468c-.511.119-1.029.241-1.532.356l.179.427a3.12,3.12,0,0,1,1.7-.359l-.064-.467a6.809,6.809,0,0,1-2.742.205v.466c1.154-.052,2.308-.112,3.46-.193l-.069-.509c-.233.085-.937-.274-.847.353.03.2.214.266.371.35a6.727,6.727,0,0,0,1.336.569.2.2,0,0,0,.22-.12.2.2,0,0,0,.007-.134.2.2,0,0,0-.08-.108,6.316,6.316,0,0,0-1.362-.672c-.147.149.147.282.231.3a.469.469,0,0,0,.258-.038c.268-.084.235-.528-.069-.51q-1.731.1-3.46.246a.222.222,0,0,0-.163.068.234.234,0,0,0,0,.33.222.222,0,0,0,.163.068,7.257,7.257,0,0,0,2.865-.215.231.231,0,0,0,.131-.1.228.228,0,0,0,.035-.161.238.238,0,0,0-.077-.146.231.231,0,0,0-.153-.06,3.592,3.592,0,0,0-1.934.432c-.241.127-.071.485.179.427.511-.117,1.028-.227,1.538-.339a.245.245,0,0,0,0-.469,2.256,2.256,0,0,0-2.2.383.133.133,0,0,0,.128.222Zm0,0" transform="translate(-6.235 -37.433)" fill="#b27c3b"/><path d="M651.647,351.129a.818.818,0,0,1,.484.331.154.154,0,0,0,.19.076.156.156,0,0,0,.126-.161.57.57,0,0,0-.236-.526.132.132,0,0,0-.172,0,.134.134,0,0,0-.049.167c.023.067.048.133.077.2a1.027,1.027,0,0,1,.048.2l.284-.164a1.187,1.187,0,0,0-.725-.295c-.1-.009-.121.147-.024.177Zm0,0" transform="translate(-19.555 -41.922)" fill="#b27c3b"/><path d="M651.647,351.655c-.019.138.088.24.188.323a.545.545,0,0,0,.433.147.15.15,0,0,0,.09-.1.139.139,0,0,0,0-.068.135.135,0,0,0-.029-.062,1.137,1.137,0,0,0-.334-.147c-.1-.046-.186-.128-.294-.126a.046.046,0,0,0-.05.039Zm0,0" transform="translate(-19.597 -42.491)" fill="#b27c3b"/><path d="M651.341,350.7a2.149,2.149,0,0,0,.641.416.2.2,0,0,0,.171.009.183.183,0,0,0,.071-.05.192.192,0,0,0,.043-.076.989.989,0,0,0,.03-.526c-.03-.134-.119-.333-.28-.341-.136,0-.138.161-.127.257a1.364,1.364,0,0,1,0,.507l.239-.136a2.144,2.144,0,0,0-.734-.192.072.072,0,0,0-.07.049.071.071,0,0,0,.016.084Zm0,0" transform="translate(-19.366 -41.438)" fill="#b27c3b"/><path d="M650.939,347.716c.459-.772-.569-2-1.313-2.143a.066.066,0,0,0-.074.1c.179.335.548.53.788.819a2.249,2.249,0,0,1,.42,1.2.1.1,0,0,0,.178.024Zm0,0" transform="translate(-18.106 -38.196)" fill="#b27c3b"/><path d="M629.169,349.57a7.846,7.846,0,0,1,3.208-1.023,6.051,6.051,0,0,1,1.679.118,9.533,9.533,0,0,0,1.337.312.184.184,0,0,0,.128-.31c-.775-.793-2.335-.836-3.367-.738A5.154,5.154,0,0,0,629,349.346a.136.136,0,0,0,0,.178A.134.134,0,0,0,629.169,349.57Zm0,0" transform="translate(-3.498 -39.844)" fill="#b27c3b"/><path d="M629.433,350.258c.127-.125.239-.265.365-.392s.277-.22.337-.389a.142.142,0,0,0-.027-.118A.138.138,0,0,0,630,349.3a.669.669,0,0,0-.511.295,1.045,1.045,0,0,0-.294.53.146.146,0,0,0,.236.137Zm0,0" transform="translate(-3.662 -40.843)" fill="#b27c3b"/><path d="M687.065,340.947c-.45-.982-.529-2.393.587-2.96,1.005-.51,1.494.493,2.175.994,1.29.949,2.242-.35,2.678-1.474a2.566,2.566,0,0,1,1.989-1.634c.913-.264,1.825-.528,2.726-.838s1.786-.644,2.66-1.012a10.271,10.271,0,0,0,2.456-1.25c.174-.137-.017-.4-.2-.35a30.709,30.709,0,0,0-3.2,1.306,31.569,31.569,0,0,1-3.044.991,15.677,15.677,0,0,0-2.8.783,2.875,2.875,0,0,0-1.441,1.769c-.184.491-.441,1.247-1.1,1.134-.359-.06-.661-.4-.949-.6a1.975,1.975,0,0,0-1.852-.351c-1.6.539-1.629,2.378-.972,3.661.1.2.383.024.294-.172Zm0,0" transform="translate(-44.244 -28.86)" fill="#dbdbdb"/><path d="M700.041,365.849a1.874,1.874,0,0,1,.882-1.968,1.507,1.507,0,0,1,2.005.867.4.4,0,0,0,.106.12.406.406,0,0,0,.144.07.4.4,0,0,0,.16.009.386.386,0,0,0,.151-.052c1.057-.792.788-2.032,1.352-3.086.175-.325.468-.68.882-.589.346.074.613.4.882.607a1.651,1.651,0,0,0,1.47.388c.546-.182.4-.6.536-1.079s.379-.8.936-.737a3.105,3.105,0,0,0,.817.108c1.383-.182,2.02-2.448,3.5-2.1.2.045.35-.258.147-.345a1.513,1.513,0,0,0-1.677.273c-.655.491-1.258,1.642-2.167,1.629-.665-.008-1.087-.408-1.677.1a2.631,2.631,0,0,0-.677,1.727l.172-.295c-.651.295-1.448-.892-2.046-1.066a1.453,1.453,0,0,0-1.4.355c-1.02.94-.516,2.632-1.557,3.482l.644.083a2.328,2.328,0,0,0-2.845-1.05,2.054,2.054,0,0,0-1.093,2.654.177.177,0,0,0,.089.074.183.183,0,0,0,.116.007.183.183,0,0,0,.135-.173Zm0,0" transform="translate(-53.578 -46.957)" fill="#f9f9f9"/><path d="M715.5,393.686c-.05-.766-.161-1.791.5-2.343s1.223.09,1.875.218c1.159.229,2.336-.865,3.234-1.442,1.223-.787,2.413-1.621,3.625-2.433q.908-.6,1.8-1.229a8.037,8.037,0,0,0,1.635-1.285.1.1,0,0,0,.014-.124.1.1,0,0,0-.114-.049,8.38,8.38,0,0,0-1.948,1.032q-1.117.68-2.221,1.38c-1.433.908-2.874,1.8-4.295,2.725a4.485,4.485,0,0,1-1.029.589,1.859,1.859,0,0,1-1.244-.139,1.609,1.609,0,0,0-1.348.073c-1.11.637-1.028,1.987-.825,3.071a.17.17,0,0,0,.071.1.172.172,0,0,0,.117.026.175.175,0,0,0,.151-.168Zm0,0" transform="translate(-64.59 -66.181)" fill="#f9f9f9"/><path d="M720.393,420.185c.11-.936.23-2.126,1.135-2.653s1.565.255,2.244.718c1.05.715,1.911.286,2.453-.775a3.845,3.845,0,0,1,1.6-1.722c.72-.422,1.5-.746,2.255-1.1.9-.423,1.781-.874,2.668-1.314.857-.424,1.749-.643,2.626-.992.2-.078.272-.442,0-.482a4.574,4.574,0,0,0-2.428.557c-.977.419-1.953.848-2.917,1.3-1.557.737-3.442,1.381-4.241,3.042-.175.361-.312.92-.681,1.144-.414.252-.847-.057-1.185-.285a3.234,3.234,0,0,0-1.726-.825c-1.753,0-2.134,2.032-2.184,3.382-.009.252.353.239.382,0Zm0,0" transform="translate(-68.127 -85.235)" fill="#f9f9f9"/><path d="M736.958,440.344a66.268,66.268,0,0,0,10.776-5.978c3.527-2.211,6.959-4.6,10.316-7.075.711-.525.017-1.731-.7-1.2-3.318,2.46-6.714,4.785-10.181,7.029q-2.538,1.647-5.125,3.217c-1.8,1.088-3.647,2.141-5.347,3.382-.281.205-.127.768.259.618Zm0,0" transform="translate(-79.869 -95.259)" fill="#e2c08f"/><path d="M757.892,357.5a10.022,10.022,0,0,1-2.4-3.51,14.949,14.949,0,0,1-.565-4.145.637.637,0,0,0-.046-.22.625.625,0,0,0-.119-.189.658.658,0,0,0-.177-.138.628.628,0,0,0-.213-.068.648.648,0,0,0-.223.009.654.654,0,0,0-.206.086.651.651,0,0,0-.268.35,7.007,7.007,0,0,0,.551,4.851,7.852,7.852,0,0,0,3.1,3.718.472.472,0,0,0,.57-.738Zm0,0" transform="translate(-91.85 -40.788)" fill="#e04c19"/><path d="M754.735,350.838a8.765,8.765,0,0,0,2.276,5.821.81.81,0,0,0,1.265-.98,44.565,44.565,0,0,1-2.631-4.966C755.477,350.256,754.7,350.271,754.735,350.838Zm0,0" transform="translate(-92.774 -41.617)" fill="#e04c19"/><path d="M761.347,342.656a22.034,22.034,0,0,1-1.258-5.879,19.286,19.286,0,0,1-.018-2.929c.069-.916.465-2.038.108-2.916a.547.547,0,0,0-.9-.238c-.758.691-.763,1.941-.834,2.9a17,17,0,0,0,.068,3.31,15.446,15.446,0,0,0,2.085,6.07C760.824,343.362,761.512,343.106,761.347,342.656Zm0,0" transform="translate(-95.371 -27.527)" fill="#e04c19"/><path d="M761,332.14a7.9,7.9,0,0,0,1.358,4.85c.548.757,1.788.084,1.281-.75a13.474,13.474,0,0,1-1.834-4.209c-.1-.463-.8-.344-.806.109Zm0,0" transform="translate(-97.221 -28.377)" fill="#e04c19"/><path d="M765.451,322.467c-.1-1.838-.282-3.677-.223-5.52.027-.884.091-1.769.2-2.64a15.56,15.56,0,0,0,.418-2.877.731.731,0,0,0-1.352-.367,7.4,7.4,0,0,0-.652,2.83,20.032,20.032,0,0,0-.164,2.913,15.637,15.637,0,0,0,1.046,5.759c.147.353.756.362.736-.1Zm0,0" transform="translate(-99.117 -13.45)" fill="#e04c19"/><path d="M768.1,311.769a12.562,12.562,0,0,0-.324,3.616,6.1,6.1,0,0,0,.984,3.3c.337.427.987.045,1-.417a17.4,17.4,0,0,0-.523-3.083,17.893,17.893,0,0,1-.248-3.3.456.456,0,0,0-.893-.121Zm0,0" transform="translate(-102.012 -13.968)" fill="#e04c19"/><path d="M772.243,313.181a23.588,23.588,0,0,1,.451-4.195c.129-.657.329-1.29.5-1.937a2.267,2.267,0,0,0,.08-1.6.327.327,0,0,0-.368-.147c-1.177.363-1.45,2.541-1.608,3.572a11.383,11.383,0,0,0,.2,4.407.381.381,0,0,0,.745-.1Zm0,0" transform="translate(-104.439 -9.605)" fill="#e04c19"/><path d="M775.622,308.183a14.618,14.618,0,0,1,.571-2.466c.228-.7.707-1.536.48-2.278a.524.524,0,0,0-.118-.21.518.518,0,0,0-.2-.138.527.527,0,0,0-.237-.039.512.512,0,0,0-.23.068c-.782.375-.986,1.526-1.089,2.311a9.408,9.408,0,0,0,.058,2.752A.4.4,0,0,0,775.622,308.183Zm0,0" transform="translate(-106.966 -8.014)" fill="#e04c19"/><path d="M776.831,299.981a9.206,9.206,0,0,1,2.032-4.319,7.906,7.906,0,0,1,1.716-1.577,9.457,9.457,0,0,0,1.976-1.3c.264-.295.211-.917-.262-.992-1.8-.284-3.591,1.533-4.592,2.835a8.309,8.309,0,0,0-1.677,5.244c0,.442.736.582.806.109Zm0,0" transform="translate(-107.886 0)" fill="#e04c19"/><path d="M789.071,294.2c-.411,1-.718,2.021-1.1,3.031s-.926,1.931-1.225,2.948a.669.669,0,0,0,1.11.648,9.138,9.138,0,0,0,1.564-3.067,9.58,9.58,0,0,0,.631-3.43.5.5,0,0,0-.982-.135Zm0,0" transform="translate(-115.48 -1.481)" fill="#e04c19"/><path d="M785.589,310.007a5.777,5.777,0,0,0,1.689-1.065,12.824,12.824,0,0,0,1.732-1.622l-1.043-.613a6.407,6.407,0,0,1-.539,1.111c-.148.351-.313.743-.482,1.113-.33.716-.692,1.415-1.069,2.106-.357.654-.735,1.291-1.117,1.935a3.806,3.806,0,0,0-.735,2.048.35.35,0,0,0,.039.15.334.334,0,0,0,.1.119.361.361,0,0,0,.141.064.354.354,0,0,0,.154,0,3.26,3.26,0,0,0,1.659-1.432,17.3,17.3,0,0,0,1.262-2.155c.371-.725.7-1.475,1.01-2.224.166-.4.331-.812.473-1.224a10.085,10.085,0,0,1,.249-1.124c.255-.5-.311-1.259-.856-.858a13.977,13.977,0,0,0-1.764,1.63,5.86,5.86,0,0,0-1.233,1.72c-.077.187.146.388.326.328Zm0,0" transform="translate(-113.56 -10.263)" fill="#e04c19"/><path d="M784.4,331.24c.628-.6,1.266-1.2,1.88-1.816a4.241,4.241,0,0,0,1.323-1.87.4.4,0,0,0-.485-.486,4.106,4.106,0,0,0-1.7,1.513c-.56.714-1.1,1.446-1.645,2.171C783.486,331.126,784.083,331.546,784.4,331.24Zm0,0" transform="translate(-113.332 -25.048)" fill="#e04c19"/><path d="M784.789,324.464a31.637,31.637,0,0,1-2.368,4.275,16.935,16.935,0,0,1-1.451,1.941,16.9,16.9,0,0,0-1.592,1.892c-.4.63.378,1.3.978.982a10.7,10.7,0,0,0,3.443-3.866,13.645,13.645,0,0,0,1.807-4.879c.083-.459-.6-.846-.818-.346Zm0,0" transform="translate(-110.189 -23.046)" fill="#e04c19"/><path d="M780.764,350.232a3.96,3.96,0,0,0,4.263-1.541.807.807,0,0,0,0-.814.728.728,0,0,0-.288-.3.721.721,0,0,0-.406-.1c-.5.01-.78.476-1.128.764a5.744,5.744,0,0,1-2.438,1.242.392.392,0,0,0,0,.749Zm0,0" transform="translate(-111.056 -39.549)" fill="#e04c19"/><path d="M777.7,349.072c-1.09,1.248-1.911,2.692-2.909,4.007-.491.644-1.019,1.262-1.544,1.877a13.71,13.71,0,0,0-1.723,2.01.9.9,0,0,0,1.226,1.229,7.6,7.6,0,0,0,1.866-1.865,22.682,22.682,0,0,0,1.572-2.138,13.017,13.017,0,0,0,2.184-4.725c.065-.359-.383-.723-.672-.392Zm0,0" transform="translate(-104.609 -40.59)" fill="#e04c19"/><path d="M774.773,371.77c1.883-.261,3.968-1.448,4.59-3.359.169-.518-.493-.808-.85-.5-.613.534-1.129,1.163-1.774,1.666a9.976,9.976,0,0,1-2.2,1.326.436.436,0,0,0-.156.079.451.451,0,0,0-.114.131.438.438,0,0,0-.054.167.428.428,0,0,0,.013.174.446.446,0,0,0,.078.156.458.458,0,0,0,.131.115.451.451,0,0,0,.34.042Zm0,0" transform="translate(-106.595 -53.966)" fill="#e04c19"/><path d="M773.729,367.952a13.855,13.855,0,0,1-2.833,2.559,31.816,31.816,0,0,0-3.125,1.994.611.611,0,0,0,.426,1.033,6.546,6.546,0,0,0,3.618-1.829,12.262,12.262,0,0,0,2.581-3.243c.236-.4-.353-.9-.667-.516Zm0,0" transform="translate(-101.903 -53.983)" fill="#e04c19"/><path d="M754.916,373.71a5.964,5.964,0,0,0,2.249,2.654c.735.472,2.6,1.408,3.339.52.859-1.031-1.26-1.442-1.8-1.662a8.449,8.449,0,0,1-3.023-2.1c-.4-.442-.971.118-.763.589Zm0,0" transform="translate(-92.87 -57.642)" fill="#e04c19"/><path d="M765.5,325.932a37.938,37.938,0,0,0-.011-5.707,30.478,30.478,0,0,1,.633-5.825,28.289,28.289,0,0,1,1.694-5.5c.389-.907.858-1.778,1.223-2.693.175-.442.366-.873.544-1.312.19-.467.234-.976.422-1.433.175-.423-.427-.672-.709-.413a14.158,14.158,0,0,0-1.276,1.074c-.318.364-.616.755-.9,1.142a13.01,13.01,0,0,0-1.425,2.667,30.709,30.709,0,0,0-1.918,5.939,28.326,28.326,0,0,0-.588,6.107c.019,1.978.122,4.383,1.2,6.1.256.407,1.029.408,1.123-.147Zm0,0" transform="translate(-98.769 -7.94)" fill="#e04c19"/><path d="M778.874,331.859a12.859,12.859,0,0,0,1.26-3.663c.359-1.238.681-2.486,1-3.736s.572-2.52.811-3.79c.124-.658.278-1.312.417-1.966a6.219,6.219,0,0,0,.295-1.892.681.681,0,0,0-1.258-.341,5.816,5.816,0,0,0-.671,1.78c-.2.64-.373,1.285-.576,1.917-.409,1.276-.785,2.555-1.083,3.863s-.587,2.617-.8,3.939a11.83,11.83,0,0,0-.4,3.752c.087.514.768.483,1.013.133Zm0,0" transform="translate(-109.155 -17.313)" fill="#e04c19"/><path d="M776.83,331.79a45.361,45.361,0,0,0,1.974-6.5l-1.267-.172a15.539,15.539,0,0,1-.976,4.486l1.028.283a30.647,30.647,0,0,0,.736-3.537c.273-1.224.545-2.446.864-3.659a67.766,67.766,0,0,1,2.267-7.02c.3-.8-.971-1.14-1.273-.351a67.572,67.572,0,0,0-2.3,7.154c-.3,1.168-.589,2.344-.807,3.53a17.254,17.254,0,0,0-.53,3.741.535.535,0,0,0,1.044.147,20.454,20.454,0,0,0,1.242-4.771c.1-.737-1.092-.865-1.267-.172a45.375,45.375,0,0,0-1.37,6.759c-.038.4.511.393.642.086Zm0,0" transform="translate(-108.003 -16.405)" fill="#e04c19"/><path d="M783.692,352.178c.262-1,.515-1.98.692-3l-1.277-.172.009,1.545c0,.884,1.242.835,1.333,0,.05-.454.112-.912.137-1.369a8.121,8.121,0,0,0-.138-1.095.4.4,0,0,0-.774-.105,7.468,7.468,0,0,0-.381,1.113c-.074.482-.122.971-.176,1.456h1.334l-.043-1.545c-.019-.7-1.161-.928-1.276-.172-.163,1.074-.246,2.139-.319,3.224a.451.451,0,0,0,.882.119Zm0,0" transform="translate(-112.705 -39.708)" fill="#e04c19"/><path d="M790.306,333.572a5.264,5.264,0,0,0,.6-1.033,3.34,3.34,0,0,0,.408-1.138.574.574,0,0,0-.971-.4,3.088,3.088,0,0,0-.549.976,5.116,5.116,0,0,0-.4,1.06c-.1.477.545,1,.913.534Zm0,0" transform="translate(-117.369 -27.742)" fill="#e04c19"/><path d="M768.581,320.252c.115-.9.312-1.76.383-2.666.065-.842.161-1.683.264-2.523a47.8,47.8,0,0,1,.907-5.168,44.923,44.923,0,0,1,1.444-4.852c.293-.834.622-1.662.933-2.493a5.8,5.8,0,0,0,.679-2.381.406.406,0,0,0-.605-.347,4.312,4.312,0,0,0-1.323,1.915,26.792,26.792,0,0,0-1.068,2.506,47,47,0,0,0-2.523,10.421c-.115.924-.177,1.857-.216,2.787a16.937,16.937,0,0,0,.218,2.8.463.463,0,0,0,.134.323.458.458,0,0,0,.147.1.457.457,0,0,0,.63-.422Zm0,0" transform="translate(-101.799 -5.678)" fill="#e04c19"/><path d="M768.456,315.625c.976-2.505,1.587-5.158,2.462-7.7.882-2.581,1.911-5.125,3-7.627.318-.737-.754-1.383-1.088-.638-1.146,2.556-2.15,5.158-3.063,7.8a41.178,41.178,0,0,0-2.2,8.044c-.069.551.724.561.893.121Zm0,0" transform="translate(-101.875 -5.37)" fill="#e04c19"/><path d="M768.465,322.535c.272-.727.575-1.4.8-2.15s.441-1.46.648-2.192a1.274,1.274,0,0,0-2.317-.98,14.9,14.9,0,0,0-1.695,6.66,1.242,1.242,0,0,0,2.429.33c.94-3.063,2.013-6.085,2.94-9.154s1.731-6.17,2.461-9.285c.359-1.54-1.887-2.654-2.655-1.122a36.707,36.707,0,0,0-3.481,11.055l2.6.354a32.319,32.319,0,0,1,1.486-7.566c.378-1.231.819-2.436,1.238-3.654.381-1.111,1.19-2.638.717-3.771a.794.794,0,0,0-1.138-.465c-.747.348-.937.868-1.252,1.595-.262.6-.53,1.208-.776,1.821-.512,1.274-.938,2.6-1.342,3.91a37.478,37.478,0,0,0-1.582,8.13c-.113,1.475,2.352,1.837,2.6.354a35.63,35.63,0,0,1,3.43-10.294l-2.655-1.121c-.759,3.112-1.557,6.208-2.364,9.315s-1.591,6.219-2.619,9.242l2.428.328a13.488,13.488,0,0,1,1.409-5.379l-2.362-.64c-.089.748-.157,1.5-.238,2.248s-.059,1.486-.086,2.248c-.03.835,1.11.884,1.371.186Zm0,0" transform="translate(-100.698 -6.203)" fill="#e04c19"/><path d="M785.7,298.1a14.139,14.139,0,0,0-1.542,3.14c-.346.973-.9,2.224-.614,3.267a.391.391,0,0,0,.046.106.41.41,0,0,0,.07.089.4.4,0,0,0,.091.069.443.443,0,0,0,.106.044.458.458,0,0,0,.227,0,.418.418,0,0,0,.105-.043.423.423,0,0,0,.091-.07,7.668,7.668,0,0,0,1.176-2.964c.349-1.114.684-2.2.97-3.331a.4.4,0,0,0-.23-.468.379.379,0,0,0-.278-.01A.386.386,0,0,0,785.7,298.1Zm0,0" transform="translate(-113.167 -4.362)" fill="#e04c19"/><path d="M770.849,333.844c.071-2.751.015-5.5.161-8.254a76.293,76.293,0,0,1,.806-7.813,64.988,64.988,0,0,1,1.652-7.541c.746-2.631,1.679-5.2,2.5-7.812a.323.323,0,0,0-.588-.249c-2.55,4.708-3.851,10.163-4.662,15.429a66.232,66.232,0,0,0-.677,16.232.4.4,0,0,0,.8,0Zm0,0" transform="translate(-103.47 -7.282)" fill="#7f4205"/><path d="M760.206,356.671a8.818,8.818,0,0,0,2.61,4.542c.07.055.2-.017.138-.108a17.343,17.343,0,0,1-2.579-4.482.088.088,0,0,0-.041-.053.089.089,0,0,0-.121.034A.084.084,0,0,0,760.206,356.671Zm0,0" transform="translate(-96.656 -45.996)" fill="#7f4205"/><path d="M764.354,343.646a6.651,6.651,0,0,0,1.809,4.762.069.069,0,0,0,.1,0,.07.07,0,0,0,.02-.1,10,10,0,0,1-1.668-4.669.131.131,0,0,0-.13-.13.131.131,0,0,0-.131.13Zm0,0" transform="translate(-99.601 -36.738)" fill="#7f4205"/><path d="M770.39,328.832a7.3,7.3,0,0,0,.786,3.787c.054.1.222.032.185-.078a10.682,10.682,0,0,1-.781-3.709.092.092,0,0,0-.027-.067.1.1,0,0,0-.134,0,.092.092,0,0,0-.027.067Zm0,0" transform="translate(-103.883 -26.248)" fill="#7f4205"/><path d="M775.622,314.567a6.5,6.5,0,0,0,.42,3.3c.051.113.222.031.194-.083a9.939,9.939,0,0,1-.376-3.214c.011-.147-.222-.147-.237,0Zm0,0" transform="translate(-107.568 -16.109)" fill="#7f4205"/><path d="M781.754,327.371a5.789,5.789,0,0,0,2.281-3.2.077.077,0,0,0-.147-.04,6.925,6.925,0,0,1-2.22,3.1c-.085.064,0,.212.085.147Zm0,0" transform="translate(-111.867 -22.941)" fill="#7f4205"/><path d="M779.334,348.228a7.179,7.179,0,0,0,1.774-2.411c.039-.1-.109-.147-.16-.067a15.142,15.142,0,0,1-1.764,2.327.1.1,0,0,0,.146.147Zm0,0" transform="translate(-110.107 -38.295)" fill="#7f4205"/><path d="M775.641,361.454a8.657,8.657,0,0,0,2.783-4.908c.02-.147-.2-.16-.25-.034a12.505,12.505,0,0,1-2.7,4.77.121.121,0,0,0-.03.084.124.124,0,0,0,.118.118.121.121,0,0,0,.084-.029Zm0,0" transform="translate(-107.472 -45.901)" fill="#7f4205"/></g></svg>