<svg id="_24" data-name="24" xmlns="http://www.w3.org/2000/svg" xmlns:xlink="http://www.w3.org/1999/xlink" width="33.369" height="40.265" viewBox="0 0 33.369 40.265">
  <defs>
    <clipPath id="clip-path">
      <path id="Tracé_140" data-name="Tracé 140" d="M660,8h10.71v5.2H660Zm0,0" transform="translate(-660 -8)" fill="#10355b"/>
    </clipPath>
    <clipPath id="clip-path-2">
      <path id="Tracé_139" data-name="Tracé 139" d="M323.578,28.841,358.7,7.984l35.119,20.856L358.7,49.7Zm0,0" transform="translate(-323.578 -7.984)" fill="#10355b"/>
    </clipPath>
    <clipPath id="clip-path-5">
      <path id="Tracé_145" data-name="Tracé 145" d="M652,549h12.126v.788H652Zm0,0" transform="translate(-652 -549)" fill="#10355b"/>
    </clipPath>
    <clipPath id="clip-path-9">
      <path id="Tracé_150" data-name="Tracé 150" d="M532,375h9.205v13.877H532Zm0,0" transform="translate(-532 -375)" fill="#10355b"/>
    </clipPath>
    <clipPath id="clip-path-13">
      <path id="Tracé_155" data-name="Tracé 155" d="M681,576h6.9v1.63H681Zm0,0" transform="translate(-681 -576)" fill="#10355b"/>
    </clipPath>
    <clipPath id="clip-path-17">
      <path id="Tracé_160" data-name="Tracé 160" d="M805,375h9.205v13.877H805Zm0,0" transform="translate(-805 -375)" fill="#10355b"/>
    </clipPath>
    <clipPath id="clip-path-21">
      <path id="Tracé_165" data-name="Tracé 165" d="M605,100h20.446v22.918H605Zm0,0" transform="translate(-605 -100)" fill="#10355b"/>
    </clipPath>
    <clipPath id="clip-path-25">
      <path id="Tracé_170" data-name="Tracé 170" d="M713,641h1.328v6.991H713Zm0,0" transform="translate(-713 -641)" fill="#10355b"/>
    </clipPath>
    <clipPath id="clip-path-29">
      <path id="Tracé_175" data-name="Tracé 175" d="M759,641h1.239v4.836H759Zm0,0" transform="translate(-759 -641)" fill="#10355b"/>
    </clipPath>
    <clipPath id="clip-path-33">
      <path id="Tracé_180" data-name="Tracé 180" d="M804,604h1.239v4.994H804Zm0,0" transform="translate(-804 -604)" fill="#10355b"/>
    </clipPath>
    <clipPath id="clip-path-37">
      <path id="Tracé_185" data-name="Tracé 185" d="M622,604h1.328v4.994H622Zm0,0" transform="translate(-622 -604)" fill="#10355b"/>
    </clipPath>
    <clipPath id="clip-path-41">
      <path id="Tracé_190" data-name="Tracé 190" d="M668,641h1.239v4.836H668Zm0,0" transform="translate(-668 -641)" fill="#10355b"/>
    </clipPath>
  </defs>
  <g id="Groupe_59" data-name="Groupe 59" transform="translate(11.33)" clip-path="url(#clip-path)">
    <g id="Groupe_58" data-name="Groupe 58" transform="translate(-29.778 -0.001)" clip-path="url(#clip-path-2)">
      <g id="Groupe_57" data-name="Groupe 57" clip-path="url(#clip-path-2)">
        <g id="Groupe_56" data-name="Groupe 56" clip-path="url(#clip-path-2)">
          <path id="Tracé_136" data-name="Tracé 136" d="M660.826,11.7l-.022.021c-.075.075-.152.15-.226.226l-.043.043c-.085.087-.171.175-.257.264a14.46,14.46,0,0,0,5.317.958,14.471,14.471,0,0,0,5.316-.958l-.008-.008-.008-.009q-.117-.122-.234-.24l-.067-.067c-.061-.062-.123-.124-.185-.185l-.065-.064q-.244-.239-.488-.463l-.061-.056c-.062-.058-.125-.114-.186-.169-.022-.02-.044-.04-.066-.059-.074-.066-.146-.13-.219-.194l-.017-.016-.241-.207-.054-.045-.185-.156-.063-.052-.2-.162-.033-.026-.23-.184-.044-.034-.181-.141-.059-.045-.178-.136-.04-.03c-.072-.055-.144-.108-.215-.159l-.029-.022-.177-.129-.054-.038-.159-.114-.041-.029-.193-.134-.016-.01-.168-.114-.047-.032-.136-.091-.042-.028L666.2,8.4l-.04-.026-.11-.069-.039-.024-.122-.076L665.88,8.2l-.12-.073-.037-.023-.129-.077A26.107,26.107,0,0,0,660.826,11.7Zm0,0" transform="translate(-630.475 -8.021)" fill="#10355b"/>
        </g>
      </g>
    </g>
  </g>
  <g id="Groupe_63" data-name="Groupe 63" transform="translate(10.621 28.438)" clip-path="url(#clip-path-5)">
    <g id="Groupe_62" data-name="Groupe 62" transform="translate(-29.069 -28.438)" clip-path="url(#clip-path-2)">
      <g id="Groupe_61" data-name="Groupe 61" transform="translate(0 0)" clip-path="url(#clip-path-2)">
        <g id="Groupe_60" data-name="Groupe 60" clip-path="url(#clip-path-2)">
          <path id="Tracé_141" data-name="Tracé 141" d="M663.761,549.039H652.583v.747h11.993v-.747h-.814Zm0,0" transform="translate(-623.461 -520.599)" fill="#10355b"/>
        </g>
      </g>
    </g>
  </g>
  <g id="Groupe_67" data-name="Groupe 67" transform="translate(0 19.291)" clip-path="url(#clip-path-9)">
    <g id="Groupe_66" data-name="Groupe 66" transform="translate(-18.448 -19.292)" clip-path="url(#clip-path-2)">
      <g id="Groupe_65" data-name="Groupe 65" transform="translate(0 0)" clip-path="url(#clip-path-2)">
        <g id="Groupe_64" data-name="Groupe 64" clip-path="url(#clip-path-2)">
          <path id="Tracé_146" data-name="Tracé 146" d="M541.3,382.378a21.981,21.981,0,0,1-3.256-6.573,11.746,11.746,0,0,0-4.9,4.175c-1.65,2.767-1.237,6,1.223,9.624A10.732,10.732,0,0,1,541.3,382.378Zm0,0" transform="translate(-513.698 -356.471)" fill="#10355b"/>
        </g>
      </g>
    </g>
  </g>
  <g id="Groupe_71" data-name="Groupe 71" transform="translate(13.188 29.857)" clip-path="url(#clip-path-13)">
    <g id="Groupe_70" data-name="Groupe 70" transform="translate(-31.636 -29.858)" clip-path="url(#clip-path-2)">
      <g id="Groupe_69" data-name="Groupe 69" transform="translate(0 0)" clip-path="url(#clip-path-2)">
        <g id="Groupe_68" data-name="Groupe 68" clip-path="url(#clip-path-2)">
          <path id="Tracé_151" data-name="Tracé 151" d="M681.691,576.633h6.841v1.544h-6.841Zm0,0" transform="translate(-649.994 -546.742)" fill="#10355b"/>
        </g>
      </g>
    </g>
  </g>
  <g id="Groupe_75" data-name="Groupe 75" transform="translate(24.164 19.291)" clip-path="url(#clip-path-17)">
    <g id="Groupe_74" data-name="Groupe 74" transform="translate(-42.612 -19.292)" clip-path="url(#clip-path-2)">
      <g id="Groupe_73" data-name="Groupe 73" transform="translate(0 0)" clip-path="url(#clip-path-2)">
        <g id="Groupe_72" data-name="Groupe 72" clip-path="url(#clip-path-2)">
          <path id="Tracé_156" data-name="Tracé 156" d="M805.223,382.378a10.736,10.736,0,0,1,6.929,7.226c2.46-3.623,2.873-6.857,1.223-9.624a11.747,11.747,0,0,0-4.9-4.175A22.006,22.006,0,0,1,805.223,382.378Zm0,0" transform="translate(-762.591 -356.471)" fill="#10355b"/>
        </g>
      </g>
    </g>
  </g>
  <g id="Groupe_79" data-name="Groupe 79" transform="translate(6.461 4.836)" clip-path="url(#clip-path-21)">
    <g id="Groupe_78" data-name="Groupe 78" transform="translate(-24.909 -4.837)" clip-path="url(#clip-path-2)">
      <g id="Groupe_77" data-name="Groupe 77" transform="translate(0 0)" clip-path="url(#clip-path-2)">
        <g id="Groupe_76" data-name="Groupe 76" clip-path="url(#clip-path-2)">
          <path id="Tracé_161" data-name="Tracé 161" d="M609.686,100.234c-2.659,3-5.344,7.735-3.869,13.791a21.263,21.263,0,0,0,3.551,7.3c.426.591.9,1.193,1.4,1.794h9.612c.5-.6.972-1.205,1.4-1.794h0a21.247,21.247,0,0,0,3.55-7.3c1.476-6.056-1.21-10.791-3.869-13.791a17.122,17.122,0,0,1-11.771,0Zm8.786,10.675a6.26,6.26,0,0,1-5.8,0c-1.6-.95-1.6-2.5,0-3.445a6.263,6.263,0,0,1,5.8,0C620.072,108.414,620.071,109.96,618.472,110.909Zm0,0" transform="translate(-580.453 -95.385)" fill="#10355b"/>
        </g>
      </g>
    </g>
  </g>
  <g id="Groupe_83" data-name="Groupe 83" transform="translate(16.021 33.274)" clip-path="url(#clip-path-25)">
    <g id="Groupe_82" data-name="Groupe 82" transform="translate(-34.469 -33.274)" clip-path="url(#clip-path-2)">
      <g id="Groupe_81" data-name="Groupe 81" transform="translate(0 0)" clip-path="url(#clip-path-2)">
        <g id="Groupe_80" data-name="Groupe 80" clip-path="url(#clip-path-2)">
          <path id="Tracé_166" data-name="Tracé 166" d="M714.24,641.945c-.327,0-.592.157-.592.352v6.217c0,.194.265.352.592.352a.836.836,0,0,0,.419-.1.3.3,0,0,0,.173-.249V642.3C714.833,642.1,714.568,641.945,714.24,641.945Zm0,0" transform="translate(-679.122 -608.621)" fill="#10355b"/>
        </g>
      </g>
    </g>
  </g>
  <g id="Groupe_87" data-name="Groupe 87" transform="translate(20.092 33.274)" clip-path="url(#clip-path-29)">
    <g id="Groupe_86" data-name="Groupe 86" transform="translate(-38.54 -33.274)" clip-path="url(#clip-path-2)">
      <g id="Groupe_85" data-name="Groupe 85" transform="translate(0 0)" clip-path="url(#clip-path-2)">
        <g id="Groupe_84" data-name="Groupe 84" clip-path="url(#clip-path-2)">
          <path id="Tracé_171" data-name="Tracé 171" d="M759.623,641.945c-.327,0-.592.157-.592.352v4.06c0,.194.265.352.592.352a.834.834,0,0,0,.419-.1.3.3,0,0,0,.174-.249V642.3C760.216,642.1,759.95,641.945,759.623,641.945Zm0,0" transform="translate(-720.488 -608.621)" fill="#10355b"/>
        </g>
      </g>
    </g>
  </g>
  <g id="Groupe_91" data-name="Groupe 91" transform="translate(24.075 31.329)" clip-path="url(#clip-path-33)">
    <g id="Groupe_90" data-name="Groupe 90" transform="translate(-42.523 -31.329)" clip-path="url(#clip-path-2)">
      <g id="Groupe_89" data-name="Groupe 89" transform="translate(0 0)" clip-path="url(#clip-path-2)">
        <g id="Groupe_88" data-name="Groupe 88" clip-path="url(#clip-path-2)">
          <path id="Tracé_176" data-name="Tracé 176" d="M804.414,604.391v4.255c0,.194.265.352.592.352a.836.836,0,0,0,.419-.1.305.305,0,0,0,.173-.249v-4.255c0-.194-.265-.352-.592-.352S804.414,604.2,804.414,604.391Zm0,0" transform="translate(-761.854 -572.707)" fill="#10355b"/>
        </g>
      </g>
    </g>
  </g>
  <g id="Groupe_95" data-name="Groupe 95" transform="translate(7.966 31.329)" clip-path="url(#clip-path-37)">
    <g id="Groupe_94" data-name="Groupe 94" transform="translate(-26.414 -31.329)" clip-path="url(#clip-path-2)">
      <g id="Groupe_93" data-name="Groupe 93" transform="translate(0 0)" clip-path="url(#clip-path-2)">
        <g id="Groupe_92" data-name="Groupe 92" clip-path="url(#clip-path-2)">
          <path id="Tracé_181" data-name="Tracé 181" d="M624.068,604.391c0-.194-.265-.352-.592-.352s-.593.158-.593.352v4.255c0,.194.265.352.592.352a.834.834,0,0,0,.419-.1.305.305,0,0,0,.174-.249Zm0,0" transform="translate(-596.391 -572.707)" fill="#10355b"/>
        </g>
      </g>
    </g>
  </g>
  <g id="Groupe_99" data-name="Groupe 99" transform="translate(12.038 33.274)" clip-path="url(#clip-path-41)">
    <g id="Groupe_98" data-name="Groupe 98" transform="translate(-30.486 -33.274)" clip-path="url(#clip-path-2)">
      <g id="Groupe_97" data-name="Groupe 97" transform="translate(0 0)" clip-path="url(#clip-path-2)">
        <g id="Groupe_96" data-name="Groupe 96" clip-path="url(#clip-path-2)">
          <path id="Tracé_186" data-name="Tracé 186" d="M669.451,646.353v-4.06c0-.194-.265-.352-.592-.352s-.593.158-.592.352v4.06c0,.194.265.352.592.352a.833.833,0,0,0,.419-.1A.3.3,0,0,0,669.451,646.353Zm0,0" transform="translate(-637.757 -608.617)" fill="#10355b"/>
        </g>
      </g>
    </g>
  </g>
</svg>
