<svg xmlns="http://www.w3.org/2000/svg" xmlns:xlink="http://www.w3.org/1999/xlink" width="33.369" height="40.265" viewBox="0 0 33.369 40.265"><defs><clipPath id="a"><path d="M660,8h10.71v5.2H660Zm0,0" transform="translate(-660 -8)" fill="#f9f9f9"/></clipPath><clipPath id="b"><path d="M323.578,28.841,358.7,7.984l35.119,20.856L358.7,49.7Zm0,0" transform="translate(-323.578 -7.984)" fill="#f9f9f9"/></clipPath><clipPath id="e"><path d="M652,549h12.126v.788H652Zm0,0" transform="translate(-652 -549)" fill="#f9f9f9"/></clipPath><clipPath id="i"><path d="M532,375h9.205v13.877H532Zm0,0" transform="translate(-532 -375)" fill="#f9f9f9"/></clipPath><clipPath id="m"><path d="M681,576h6.9v1.63H681Zm0,0" transform="translate(-681 -576)" fill="#f9f9f9"/></clipPath><clipPath id="q"><path d="M805,375h9.205v13.877H805Zm0,0" transform="translate(-805 -375)" fill="#f9f9f9"/></clipPath><clipPath id="u"><path d="M605,100h20.446v22.918H605Zm0,0" transform="translate(-605 -100)" fill="#f9f9f9"/></clipPath><clipPath id="y"><path d="M713,641h1.328v6.991H713Zm0,0" transform="translate(-713 -641)" fill="#f9f9f9"/></clipPath><clipPath id="ac"><path d="M759,641h1.239v4.836H759Zm0,0" transform="translate(-759 -641)" fill="#f9f9f9"/></clipPath><clipPath id="ag"><path d="M804,604h1.239v4.994H804Zm0,0" transform="translate(-804 -604)" fill="#f9f9f9"/></clipPath><clipPath id="ak"><path d="M622,604h1.328v4.994H622Zm0,0" transform="translate(-622 -604)" fill="#f9f9f9"/></clipPath><clipPath id="ao"><path d="M668,641h1.239v4.836H668Zm0,0" transform="translate(-668 -641)" fill="#f9f9f9"/></clipPath></defs><g transform="translate(11.33)" clipPath="url(#a)"><g transform="translate(-29.778 -0.001)" clipPath="url(#b)"><g clipPath="url(#b)"><g clipPath="url(#b)"><path d="M660.826,11.7l-.022.021c-.075.075-.152.15-.226.226l-.043.043c-.085.087-.171.175-.257.264a14.46,14.46,0,0,0,5.317.958,14.471,14.471,0,0,0,5.316-.958l-.008-.008-.008-.009q-.117-.122-.234-.24l-.067-.067c-.061-.062-.123-.124-.185-.185l-.065-.064q-.244-.239-.488-.463l-.061-.056c-.062-.058-.125-.114-.186-.169-.022-.02-.044-.04-.066-.059-.074-.066-.146-.13-.219-.194l-.017-.016-.241-.207-.054-.045-.185-.156-.063-.052-.2-.162-.033-.026-.23-.184-.044-.034-.181-.141-.059-.045-.178-.136-.04-.03c-.072-.055-.144-.108-.215-.159l-.029-.022-.177-.129-.054-.038-.159-.114-.041-.029-.193-.134-.016-.01-.168-.114-.047-.032-.136-.091-.042-.028L666.2,8.4l-.04-.026-.11-.069-.039-.024-.122-.076L665.88,8.2l-.12-.073-.037-.023-.129-.077A26.107,26.107,0,0,0,660.826,11.7Zm0,0" transform="translate(-630.475 -8.021)" fill="#f9f9f9"/></g></g></g></g><g transform="translate(10.621 28.438)" clipPath="url(#e)"><g transform="translate(-29.069 -28.438)" clipPath="url(#b)"><g transform="translate(0 0)" clipPath="url(#b)"><g clipPath="url(#b)"><path d="M663.761,549.039H652.583v.747h11.993v-.747h-.814Zm0,0" transform="translate(-623.461 -520.599)" fill="#f9f9f9"/></g></g></g></g><g transform="translate(0 19.291)" clipPath="url(#i)"><g transform="translate(-18.448 -19.292)" clipPath="url(#b)"><g transform="translate(0 0)" clipPath="url(#b)"><g clipPath="url(#b)"><path d="M541.3,382.378a21.981,21.981,0,0,1-3.256-6.573,11.746,11.746,0,0,0-4.9,4.175c-1.65,2.767-1.237,6,1.223,9.624A10.732,10.732,0,0,1,541.3,382.378Zm0,0" transform="translate(-513.698 -356.471)" fill="#f9f9f9"/></g></g></g></g><g transform="translate(13.188 29.857)" clipPath="url(#m)"><g transform="translate(-31.636 -29.858)" clipPath="url(#b)"><g transform="translate(0 0)" clipPath="url(#b)"><g clipPath="url(#b)"><path d="M681.691,576.633h6.841v1.544h-6.841Zm0,0" transform="translate(-649.994 -546.742)" fill="#f9f9f9"/></g></g></g></g><g transform="translate(24.164 19.291)" clipPath="url(#q)"><g transform="translate(-42.612 -19.292)" clipPath="url(#b)"><g transform="translate(0 0)" clipPath="url(#b)"><g clipPath="url(#b)"><path d="M805.223,382.378a10.736,10.736,0,0,1,6.929,7.226c2.46-3.623,2.873-6.857,1.223-9.624a11.747,11.747,0,0,0-4.9-4.175A22.006,22.006,0,0,1,805.223,382.378Zm0,0" transform="translate(-762.591 -356.471)" fill="#f9f9f9"/></g></g></g></g><g transform="translate(6.461 4.836)" clipPath="url(#u)"><g transform="translate(-24.909 -4.837)" clipPath="url(#b)"><g transform="translate(0 0)" clipPath="url(#b)"><g clipPath="url(#b)"><path d="M609.686,100.234c-2.659,3-5.344,7.735-3.869,13.791a21.263,21.263,0,0,0,3.551,7.3c.426.591.9,1.193,1.4,1.794h9.612c.5-.6.972-1.205,1.4-1.794h0a21.247,21.247,0,0,0,3.55-7.3c1.476-6.056-1.21-10.791-3.869-13.791a17.122,17.122,0,0,1-11.771,0Zm8.786,10.675a6.26,6.26,0,0,1-5.8,0c-1.6-.95-1.6-2.5,0-3.445a6.263,6.263,0,0,1,5.8,0C620.072,108.414,620.071,109.96,618.472,110.909Zm0,0" transform="translate(-580.453 -95.385)" fill="#f9f9f9"/></g></g></g></g><g transform="translate(16.021 33.274)" clipPath="url(#y)"><g transform="translate(-34.469 -33.274)" clipPath="url(#b)"><g transform="translate(0 0)" clipPath="url(#b)"><g clipPath="url(#b)"><path d="M714.24,641.945c-.327,0-.592.157-.592.352v6.217c0,.194.265.352.592.352a.836.836,0,0,0,.419-.1.3.3,0,0,0,.173-.249V642.3C714.833,642.1,714.568,641.945,714.24,641.945Zm0,0" transform="translate(-679.122 -608.621)" fill="#f9f9f9"/></g></g></g></g><g transform="translate(20.092 33.274)" clipPath="url(#ac)"><g transform="translate(-38.54 -33.274)" clipPath="url(#b)"><g transform="translate(0 0)" clipPath="url(#b)"><g clipPath="url(#b)"><path d="M759.623,641.945c-.327,0-.592.157-.592.352v4.06c0,.194.265.352.592.352a.834.834,0,0,0,.419-.1.3.3,0,0,0,.174-.249V642.3C760.216,642.1,759.95,641.945,759.623,641.945Zm0,0" transform="translate(-720.488 -608.621)" fill="#f9f9f9"/></g></g></g></g><g transform="translate(24.075 31.329)" clipPath="url(#ag)"><g transform="translate(-42.523 -31.329)" clipPath="url(#b)"><g transform="translate(0 0)" clipPath="url(#b)"><g clipPath="url(#b)"><path d="M804.414,604.391v4.255c0,.194.265.352.592.352a.836.836,0,0,0,.419-.1.305.305,0,0,0,.173-.249v-4.255c0-.194-.265-.352-.592-.352S804.414,604.2,804.414,604.391Zm0,0" transform="translate(-761.854 -572.707)" fill="#f9f9f9"/></g></g></g></g><g transform="translate(7.966 31.329)" clipPath="url(#ak)"><g transform="translate(-26.414 -31.329)" clipPath="url(#b)"><g transform="translate(0 0)" clipPath="url(#b)"><g clipPath="url(#b)"><path d="M624.068,604.391c0-.194-.265-.352-.592-.352s-.593.158-.593.352v4.255c0,.194.265.352.592.352a.834.834,0,0,0,.419-.1.305.305,0,0,0,.174-.249Zm0,0" transform="translate(-596.391 -572.707)" fill="#f9f9f9"/></g></g></g></g><g transform="translate(12.038 33.274)" clipPath="url(#ao)"><g transform="translate(-30.486 -33.274)" clipPath="url(#b)"><g transform="translate(0 0)" clipPath="url(#b)"><g clipPath="url(#b)"><path d="M669.451,646.353v-4.06c0-.194-.265-.352-.592-.352s-.593.158-.592.352v4.06c0,.194.265.352.592.352a.833.833,0,0,0,.419-.1A.3.3,0,0,0,669.451,646.353Zm0,0" transform="translate(-637.757 -608.617)" fill="#f9f9f9"/></g></g></g></g></svg>