<svg xmlns="http://www.w3.org/2000/svg" width="75.483" height="74.646" viewBox="0 0 75.483 74.646"><g transform="translate(-605.693 -291.781)"><path d="M641.386,292.544a3.133,3.133,0,0,1,4.1,0l6.029,5.209a3.129,3.129,0,0,0,2.491.73l7.893-1.128a3.128,3.128,0,0,1,3.446,2.21l2.25,7.636a3.126,3.126,0,0,0,1.7,1.959l7.252,3.31a3.123,3.123,0,0,1,1.7,3.719L676,323.827a3.12,3.12,0,0,0,.369,2.566l4.308,6.7a3.118,3.118,0,0,1-.583,4.046l-6.023,5.216a3.117,3.117,0,0,0-1.08,2.357l0,7.96a3.125,3.125,0,0,1-2.682,3.09l-7.893,1.137a3.127,3.127,0,0,0-2.183,1.4l-4.314,6.695a3.132,3.132,0,0,1-3.93,1.152l-7.255-3.3a3.125,3.125,0,0,0-2.6,0l-7.255,3.3a3.13,3.13,0,0,1-3.929-1.152l-4.316-6.695a3.127,3.127,0,0,0-2.183-1.4l-7.893-1.137a3.126,3.126,0,0,1-2.682-3.09l0-7.96a3.12,3.12,0,0,0-1.078-2.357l-6.024-5.216a3.119,3.119,0,0,1-.583-4.046l4.308-6.7a3.12,3.12,0,0,0,.369-2.566l-2.242-7.639a3.122,3.122,0,0,1,1.7-3.719l7.252-3.31a3.123,3.123,0,0,0,1.7-1.959l2.25-7.636a3.128,3.128,0,0,1,3.446-2.21l7.893,1.128a3.13,3.13,0,0,0,2.491-.73Zm0,0" fill="#10355b"/><path d="M679.134,378a2.35,2.35,0,0,1,3.318.044l7.332,7.52a.782.782,0,0,0,1.252-.181l10.356-19.62a2.345,2.345,0,0,1,4.151,2.184l-10.355,19.62a5.48,5.48,0,0,1-8.767,1.265l-7.332-7.52A2.338,2.338,0,0,1,679.134,378Zm0,0" transform="translate(-48.722 -48.719)" fill="#fff" fillRule="evenodd"/></g></svg>