<svg xmlns="http://www.w3.org/2000/svg" xmlns:xlink="http://www.w3.org/1999/xlink" width="86.717" height="102.533" viewBox="0 0 86.717 102.533"><defs><clipPath id="a"><path d="M668,289.5h53.708V392.033H668Zm0,0" transform="translate(-668 -289.5)" fill="#f9f9f9"/></clipPath><clipPath id="b"><path d="M701,315h54.823v81.893H701Zm0,0" transform="translate(-701 -315)" fill="#f9f9f9"/></clipPath></defs><g transform="translate(-629.144 -289.5)"><g transform="translate(646.391 289.5)" clip-path="url(#a)"><path d="M721.4,324.1H699.717L717.2,289.5H689.236L668.1,341.4h21.153l-17.876,50.628L721.4,324.1" transform="translate(-668.057 -289.5)" fill="#f9f9f9"/></g><g transform="translate(661.038 300.819)" clip-path="url(#b)"><path d="M701.047,395.245l3.324-4.515a38.15,38.15,0,0,0,25.971-70.993l2.341-4.624a43.331,43.331,0,0,1-31.636,80.132" transform="translate(-701.026 -315.063)" fill="#f9f9f9"/></g><path d="M661.605,306.992l-2.531,6.237a38.134,38.134,0,0,0-5.208,69l-1.748,4.952a43.33,43.33,0,0,1,9.488-80.186" transform="translate(0 -9.728)" fill="#f9f9f9"/></g></svg>