<svg xmlns="http://www.w3.org/2000/svg" xmlns:xlink="http://www.w3.org/1999/xlink" width="85.619" height="85.619" viewBox="0 0 85.619 85.619"><defs><linearGradient id="a" x1="0.5" x2="0.5" y2="1" gradientUnits="objectBoundingBox"><stop offset="0" stopColor="#10355b"/><stop offset="1" stopColor="#030b12"/></linearGradient><clipPath id="b"><path d="M604.5,289.5h85.619v85.619H604.5Zm0,0" transform="translate(-604.5 -289.5)" fill="url(#a)"/></clipPath></defs><g transform="translate(-604.5 -289.5)"><g transform="translate(604.5 289.5)" clipPath="url(#b)"><path d="M647.31,372.339a40.03,40.03,0,1,1,40.03-40.03A40.077,40.077,0,0,1,647.31,372.339Zm0-82.839a42.81,42.81,0,1,0,42.81,42.81,42.858,42.858,0,0,0-42.81-42.81" transform="translate(-604.5 -289.5)" fill="url(#a)"/></g><path d="M741.832,365.684l-5.075,4.9-3.33,3.207-.1.1H738.2c-.112.46-.148.611-.219.913a18.455,18.455,0,0,1-1.228,3.621,18.137,18.137,0,0,1-1.158,2.118,18.405,18.405,0,0,1-2.172,2.794,17.726,17.726,0,0,1-4.742,3.569,16.271,16.271,0,0,1-9.883,1.646c-.269-.04-.617-.069-.69.216s.268.408.5.484a22.249,22.249,0,0,0,11.232.759c.78-.177,1.468-.346,2.13-.533.492-.139.979-.294,1.458-.473a18.989,18.989,0,0,0,2.567-1.161.092.092,0,0,1,.02-.012q.377-.206.743-.423a18.955,18.955,0,0,0,9.411-13.314.662.662,0,0,1,.065-.2h4.1l-8.5-8.2" transform="translate(-71.496 -47.947)" fill="url(#a)"/><path d="M698.041,341.119a6.525,6.525,0,0,1,12.788,1.447,6.438,6.438,0,0,1-.243,2.147,6.613,6.613,0,0,1-.466,1.18,6.524,6.524,0,0,1-12.079-4.774Zm-3.336,1.447a9.784,9.784,0,0,0,.039,1.3,9.523,9.523,0,0,0,.427,2.02l-.007,0-.731.618-1.891,1.6,1.086,2.231,3.462-1.082a9.474,9.474,0,0,0,2.294,1.911c.151.092.31.181.467.264l-.279,3.311,2.348.81,1.6-3.058c.145.014.292.023.437.027a9.548,9.548,0,0,0,3.324-.463l2.224,2.626,1.963-.957.266-.128-.119-.381-.961-3.084a9.544,9.544,0,0,0,2.175-2.759l3.308.278.561-1.63.251-.718-3.058-1.6a9.075,9.075,0,0,0,.027-1.139,9.443,9.443,0,0,0-.42-2.474l2.527-2.176-1.4-2.531-1.284.454-1.869.665a9.335,9.335,0,0,0-.821-.817,9.211,9.211,0,0,0-1.553-1.107c-.125-.074-.255-.143-.387-.21l.259-3.444-2.78-.8-1.514,3.179c-.059,0-.12,0-.181,0a9.535,9.535,0,0,0-3.01.424l-2.176-2.529-2.528,1.4,1.116,3.155a9.468,9.468,0,0,0-2.131,2.756l-3.444-.258-.8,2.781,3.178,1.514v.014" transform="translate(-54.771 -25.57)" fill="url(#a)"/><path d="M688.841,392.286H650.585V367.011H661.7v-3.327H650.239a2.987,2.987,0,0,0-2.981,2.984V392.63a2.992,2.992,0,0,0,2.981,2.986h17.973v4.044a17.273,17.273,0,0,0-4.517.828c-1.549.542-2.51,1.293-2.51,2.123,0,1.653,3.82,3,8.529,3s8.528-1.342,8.528-3c0-.647-.582-1.245-1.567-1.733a15.1,15.1,0,0,0-5.461-1.218v-4.044h17.973a2.97,2.97,0,0,0,1.42-.362,3,3,0,0,0,1.053-.957,2.972,2.972,0,0,0,.511-1.666v-3.938a21.278,21.278,0,0,1-3.33,1.4v2.191" transform="translate(-26.91 -46.688)" fill="url(#a)"/><path d="M669.795,406.141a.087.087,0,0,0,.043-.077v-1.92a.087.087,0,0,0-.13-.074l-7.028,4.058a.086.086,0,0,0,0,.149l7.028,4.059a.087.087,0,0,0,.13-.075v-1.92a.086.086,0,0,0-.043-.074l-3.441-1.99a.086.086,0,0,1,0-.149l3.441-1.988" transform="translate(-36.589 -72.098)" fill="url(#a)"/><path d="M701.508,410.267a.086.086,0,0,0-.043.074v1.92a.087.087,0,0,0,.13.075l7.028-4.059a.085.085,0,0,0,0-.149L701.6,404.07a.087.087,0,0,0-.13.074v1.92a.087.087,0,0,0,.043.077l3.444,1.988a.086.086,0,0,1,0,.149l-3.444,1.99" transform="translate(-61.025 -72.098)" fill="url(#a)"/><path d="M683.664,411.287l1.823-.025,4.183-11.3h-1.812l-4.193,11.322" transform="translate(-49.822 -69.522)" fill="url(#a)"/></g></svg>