<svg xmlns="http://www.w3.org/2000/svg" xmlns:xlink="http://www.w3.org/1999/xlink" width="108.789" height="110.038" viewBox="0 0 108.789 110.038"><defs><clipPath id="a"><path d="M620,290.063H728.789v56.213H620Zm0,0" transform="translate(-620 -290.063)"/></clipPath><clipPath id="b"><path d="M620,290.063h81.666v44.855H620Zm0,0" transform="translate(-620 -290.063)"/></clipPath><clipPath id="c"><path d="M637,290.063h57.328V323.02H637Zm0,0" transform="translate(-637 -290.063)"/></clipPath><clipPath id="d"><path d="M625,471H728.651v26.67H625Zm0,0" transform="translate(-625 -471)"/></clipPath></defs><g transform="translate(-620 -290.063)"><path d="M714.508,375.832h6.329v33.623h-6.329Zm0,0" transform="translate(-43.219 -45.459)" fill="#3b4346"/><g transform="translate(620 290.063)" clip-path="url(#a)"><path d="M620.578,334.056a11.831,11.831,0,0,0,11.841,11.831h80.859a15.547,15.547,0,0,0,0-31.094c-.236,0-.468,0-.683.021a15.555,15.555,0,0,0-15.5-14.2,14.934,14.934,0,0,0-6.7,1.538,20.517,20.517,0,0,0-39.221,8.385,15.507,15.507,0,0,0-20.135,11.793A11.805,11.805,0,0,0,620.578,334.056Zm0,0" transform="translate(-620.265 -290.063)" fill="#dbd7d9"/></g><path d="M660.919,348.887h3.416a8.851,8.851,0,0,1,2.292.252,4.18,4.18,0,0,1,1.726.936,6.586,6.586,0,0,1,2.02,5.271,10.5,10.5,0,0,1-.195,2.142,6.458,6.458,0,0,1-.621,1.73,5.294,5.294,0,0,1-1.088,1.382,4.452,4.452,0,0,1-1.145.758,4.334,4.334,0,0,1-1.319.391,10.126,10.126,0,0,1-1.612.116h-3.416a2.272,2.272,0,0,1-1.088-.216.953.953,0,0,1-.465-.6,4.554,4.554,0,0,1-.116-1.031V350.5a1.393,1.393,0,0,1,1.609-1.614Zm1.01,2.081v8.795h1.98c.427,0,.777-.019,1.029-.038a2.958,2.958,0,0,0,.777-.175,2.348,2.348,0,0,0,.678-.389c.875-.739,1.321-2.024,1.321-3.834a5.649,5.649,0,0,0-.583-2.879,2.574,2.574,0,0,0-1.416-1.225,6.989,6.989,0,0,0-2.057-.254Zm0,0" transform="translate(-17.973 -30.406)" fill="#115876"/><path d="M690.086,360.6h-4.718a3.22,3.22,0,0,0,.33,1.458,2.4,2.4,0,0,0,.856.955,2.247,2.247,0,0,0,1.183.31,3.5,3.5,0,0,0,.8-.1,2.509,2.509,0,0,0,.7-.313,3.663,3.663,0,0,0,.621-.467c.195-.173.427-.389.738-.68a.8.8,0,0,1,.524-.156.968.968,0,0,1,.6.2.735.735,0,0,1,.232.584,1.523,1.523,0,0,1-.251.758,3.124,3.124,0,0,1-.777.837,4.274,4.274,0,0,1-1.3.661,5.65,5.65,0,0,1-1.8.273A4.82,4.82,0,0,1,684.2,363.6a4.983,4.983,0,0,1-1.282-3.6,5.912,5.912,0,0,1,.31-1.984,4.593,4.593,0,0,1,.934-1.576,4.18,4.18,0,0,1,1.493-1.012,5.406,5.406,0,0,1,1.98-.351,4.647,4.647,0,0,1,2.427.6,3.844,3.844,0,0,1,1.513,1.538,4.12,4.12,0,0,1,.5,1.927,1.232,1.232,0,0,1-.523,1.187A3.174,3.174,0,0,1,690.086,360.6Zm-4.718-1.363h4.369a3.035,3.035,0,0,0-.661-1.849,2,2,0,0,0-1.515-.623,1.946,1.946,0,0,0-1.475.623A3.053,3.053,0,0,0,685.368,359.238Zm0,0" transform="translate(-28.771 -33.502)" fill="#115876"/><path d="M703.8,356.643l1.941,5.489,2.1-5.721a3.2,3.2,0,0,1,.486-.974.879.879,0,0,1,.718-.292,1.03,1.03,0,0,1,.776.313,1,1,0,0,1,.332.718,1.462,1.462,0,0,1-.06.369,3.353,3.353,0,0,1-.135.41c-.059.135-.116.273-.175.427l-2.309,5.762c-.059.154-.156.369-.254.621a2.534,2.534,0,0,1-.349.643,1.623,1.623,0,0,1-.467.429,1.465,1.465,0,0,1-.678.156,1.268,1.268,0,0,1-.816-.235,1.821,1.821,0,0,1-.448-.505c-.1-.2-.252-.545-.484-1.109l-2.292-5.683a3.953,3.953,0,0,1-.154-.427,3.419,3.419,0,0,1-.135-.429,1.528,1.528,0,0,1-.059-.389.946.946,0,0,1,.156-.486,1.349,1.349,0,0,1,.408-.41,1.175,1.175,0,0,1,.581-.156.865.865,0,0,1,.816.35A3.955,3.955,0,0,1,703.8,356.643Zm0,0" transform="translate(-37.192 -33.538)" fill="#115876"/><path d="M726.343,348.488a6.935,6.935,0,0,1,3.457.818,5.33,5.33,0,0,1,2.193,2.334,8.066,8.066,0,0,1,.737,3.543,8.72,8.72,0,0,1-.408,2.743,5.96,5.96,0,0,1-1.221,2.14,5.407,5.407,0,0,1-2,1.381,6.959,6.959,0,0,1-2.717.488,7.035,7.035,0,0,1-2.719-.488,5.467,5.467,0,0,1-2-1.381,6.119,6.119,0,0,1-1.223-2.14,9.165,9.165,0,0,1,.019-5.468,5.914,5.914,0,0,1,1.242-2.121A5.432,5.432,0,0,1,723.686,349,6.466,6.466,0,0,1,726.343,348.488Zm3.729,6.655a6.015,6.015,0,0,0-.467-2.469,3.311,3.311,0,0,0-1.32-1.576,3.7,3.7,0,0,0-1.96-.545,3.6,3.6,0,0,0-1.455.292,3.114,3.114,0,0,0-1.145.856,3.731,3.731,0,0,0-.756,1.441,6.286,6.286,0,0,0-.273,1.984,7.139,7.139,0,0,0,.273,2,4.257,4.257,0,0,0,.776,1.479,3.173,3.173,0,0,0,1.164.875,3.514,3.514,0,0,0,1.436.291,3.557,3.557,0,0,0,1.844-.5,3.426,3.426,0,0,0,1.34-1.557A5.291,5.291,0,0,0,730.072,355.143Zm0,0" transform="translate(-45.734 -30.214)" fill="#115876"/><path d="M749.513,356.472v.292a4.487,4.487,0,0,1,1.418-1.226,3.549,3.549,0,0,1,1.649-.39,3.878,3.878,0,0,1,3.533,2.258,6.108,6.108,0,0,1,.542,2.626,6.248,6.248,0,0,1-.31,2.043,4.744,4.744,0,0,1-.853,1.557,3.835,3.835,0,0,1-1.3.974,3.748,3.748,0,0,1-1.61.329,3.383,3.383,0,0,1-1.728-.408,4.84,4.84,0,0,1-1.34-1.227v3.621c0,1.069-.388,1.595-1.164,1.595a.91.91,0,0,1-.893-.409,2.518,2.518,0,0,1-.214-1.207V356.472a1.552,1.552,0,0,1,.292-1.031.986.986,0,0,1,.816-.332,1.065,1.065,0,0,1,.835.351A1.355,1.355,0,0,1,749.513,356.472Zm4.737,3.5a4.094,4.094,0,0,0-.292-1.635,2.342,2.342,0,0,0-.816-1.05,2,2,0,0,0-1.145-.37,2.162,2.162,0,0,0-1.688.778,4.147,4.147,0,0,0,0,4.553,2.127,2.127,0,0,0,1.688.8,1.882,1.882,0,0,0,1.107-.35,2.275,2.275,0,0,0,.816-1.05A3.9,3.9,0,0,0,754.25,359.974Zm0,0" transform="translate(-58.181 -33.637)" fill="#115876"/><path d="M775.522,361.783a2.78,2.78,0,0,1-1.921,2.783,6.254,6.254,0,0,1-2.312.369,5.894,5.894,0,0,1-2.233-.388,3.517,3.517,0,0,1-1.377-.993,2.057,2.057,0,0,1-.446-1.207.912.912,0,0,1,.292-.68.964.964,0,0,1,.719-.292.776.776,0,0,1,.581.195,1.9,1.9,0,0,1,.389.524,2.3,2.3,0,0,0,2.309,1.284,1.9,1.9,0,0,0,1.185-.329.913.913,0,0,0,.465-.739.994.994,0,0,0-.484-.934,5.979,5.979,0,0,0-1.593-.564,15.079,15.079,0,0,1-2.017-.642,3.375,3.375,0,0,1-1.242-.9,2.086,2.086,0,0,1-.467-1.382,2.356,2.356,0,0,1,.427-1.363,3.007,3.007,0,0,1,1.283-1.031,4.962,4.962,0,0,1,2.036-.389,6.545,6.545,0,0,1,1.69.195,4.389,4.389,0,0,1,1.242.526,2.677,2.677,0,0,1,.756.72,1.408,1.408,0,0,1,.254.778.935.935,0,0,1-.273.68,1.125,1.125,0,0,1-.8.273,1.025,1.025,0,0,1-.64-.214,3.986,3.986,0,0,1-.6-.642,1.952,1.952,0,0,0-.64-.564,2.388,2.388,0,0,0-2.1.059.777.777,0,0,0-.427.7.733.733,0,0,0,.31.623,3.131,3.131,0,0,0,.854.408c.349.1.854.235,1.475.389a7.221,7.221,0,0,1,1.825.664,2.913,2.913,0,0,1,1.067.893A1.766,1.766,0,0,1,775.522,361.783Zm0,0" transform="translate(-67.325 -33.519)" fill="#115876"/><g transform="translate(620 290.063)" clip-path="url(#b)"><path d="M701.41,301.31a15.125,15.125,0,0,0-4.521-.682,14.835,14.835,0,0,0-6.678,1.538,20.459,20.459,0,0,0-39.134,8.366,15.442,15.442,0,0,0-20.07,11.793,11.817,11.817,0,0,0-10.4,12.414l.057.057h50.471a30.3,30.3,0,0,0,30.261-30.333V301.31Zm0,0" transform="translate(-620.268 -290.063)" fill="rgba(255,255,255,0.15)"/></g><g transform="translate(629.194 290.063)" clip-path="url(#c)"><path d="M694.017,296.542a20.412,20.412,0,0,0-35.329,13.99,15.442,15.442,0,0,0-20.07,11.793,11.221,11.221,0,0,0-1.458.31h33.7A23.215,23.215,0,0,0,694.036,299.4v-2.86Zm0,0" transform="translate(-637.074 -290.063)" fill="rgba(255,255,255,0.15)"/></g><path d="M643.91,452.9h83.045v13.056H643.91Zm0,0" transform="translate(-10.979 -84.175)" fill="#3b4346"/><path d="M643.91,452.9h49.053v13.056H643.91Zm0,0" transform="translate(-10.979 -84.175)" fill="rgba(255,255,255,0.1)"/><path d="M643.91,452.9h24.517v13.056H643.91Zm0,0" transform="translate(-10.979 -84.175)" fill="rgba(255,255,255,0.1)"/><g transform="translate(622.302 373.431)" clip-path="url(#d)"><path d="M728.459,476.042v17.725a4.262,4.262,0,0,1-4.265,4.261H629.726a4.261,4.261,0,0,1-4.265-4.261V476.042a4.262,4.262,0,0,1,4.265-4.261h94.468A4.264,4.264,0,0,1,728.459,476.042Zm0,0" transform="translate(-625.211 -471.359)" fill="#54b8ea"/></g><path d="M647.284,492.358a4.271,4.271,0,1,1-4.271-4.28A4.3,4.3,0,0,1,647.284,492.358Zm0,0" transform="translate(-8.606 -102.83)" fill="#115876"/><path d="M682.852,492.358a4.271,4.271,0,1,0,4.271-4.28A4.3,4.3,0,0,0,682.852,492.358Zm0,0" transform="translate(-28.74 -102.83)" fill="#fdd9b7"/><path d="M660.813,492.358a4.27,4.27,0,1,0,4.271-4.28A4.3,4.3,0,0,0,660.813,492.358Zm0,0" transform="translate(-18.662 -102.83)" fill="#f15853"/><path d="M794.582,482.359h3.688v14.786h-3.688Zm0,0" transform="translate(-79.81 -100.204)" fill="#115876"/><path d="M780.621,482.359h3.688v14.786h-3.688Zm0,0" transform="translate(-73.4 -100.204)" fill="#115876"/><path d="M766.7,482.359h3.689v14.786H766.7Zm0,0" transform="translate(-67.091 -100.204)" fill="#115876"/><path d="M752.734,482.359h3.687v14.786h-3.687Zm0,0" transform="translate(-60.706 -100.204)" fill="#115876"/><path d="M738.809,482.359H742.5v14.786h-3.686Zm0,0" transform="translate(-54.337 -100.204)" fill="#115876"/><path d="M724.844,482.359h3.688v14.786h-3.688Zm0,0" transform="translate(-47.95 -100.204)" fill="#115876"/><path d="M715.8,471.781H629.728a4.263,4.263,0,0,0-4.267,4.261v16.4H700.04A15.747,15.747,0,0,0,715.8,476.7Zm0,0" transform="translate(-2.508 -95.347)" fill="rgba(255,255,255,0.15)"/><path d="M701.186,471.781H629.712a4.255,4.255,0,0,0-4.25,4.261v10.236h61.262A14.492,14.492,0,0,0,701.186,471.781Zm0,0" transform="translate(-2.508 -95.347)" fill="rgba(255,255,255,0.15)"/><path d="M728.462,413.874V431.6a4.263,4.263,0,0,1-4.266,4.261h-94.47a4.262,4.262,0,0,1-4.265-4.261V413.874a4.262,4.262,0,0,1,4.265-4.261H724.2A4.252,4.252,0,0,1,728.462,413.874Zm0,0" transform="translate(-2.508 -62.728)" fill="#54b8ea"/><path d="M647.284,429.975a4.271,4.271,0,1,1-4.271-4.28A4.3,4.3,0,0,1,647.284,429.975Zm0,0" transform="translate(-8.606 -69.813)" fill="#115876"/><path d="M682.852,429.975a4.271,4.271,0,1,0,4.271-4.28A4.3,4.3,0,0,0,682.852,429.975Zm0,0" transform="translate(-28.74 -69.813)" fill="#fdd9b7"/><path d="M660.813,429.975a4.27,4.27,0,1,0,4.271-4.28A4.3,4.3,0,0,0,660.813,429.975Zm0,0" transform="translate(-18.662 -69.813)" fill="#f15853"/><path d="M794.582,420.191h3.688V434.98h-3.688Zm0,0" transform="translate(-79.81 -67.387)" fill="#115876"/><path d="M780.621,420.191h3.688V434.98h-3.688Zm0,0" transform="translate(-73.4 -67.387)" fill="#115876"/><path d="M766.7,420.191h3.689V434.98H766.7Zm0,0" transform="translate(-67.091 -67.387)" fill="#115876"/><path d="M752.734,420.191h3.687V434.98h-3.687Zm0,0" transform="translate(-60.706 -67.387)" fill="#115876"/><path d="M738.809,420.191H742.5V434.98h-3.686Zm0,0" transform="translate(-54.337 -67.387)" fill="#115876"/><path d="M724.844,420.191h3.688V434.98h-3.688Zm0,0" transform="translate(-47.95 -67.387)" fill="#115876"/><path d="M715.8,409.578H629.728a4.263,4.263,0,0,0-4.267,4.261v16.4H700.04A15.748,15.748,0,0,0,715.8,414.5Zm0,0" transform="translate(-2.508 -62.288)" fill="rgba(255,255,255,0.15)"/><path d="M701.186,409.578H629.712a4.255,4.255,0,0,0-4.25,4.261v10.234h61.262A14.477,14.477,0,0,0,701.186,409.578Zm0,0" transform="translate(-2.508 -61.873)" fill="rgba(255,255,255,0.15)"/></g></svg>