<svg xmlns="http://www.w3.org/2000/svg" xmlns:xlink="http://www.w3.org/1999/xlink" width="166.255" height="105.88" viewBox="0 0 166.255 105.88"><defs><clipPath id="a"><path d="M604.5,455H770.755v4.662H604.5Zm0,0" transform="translate(-604.5 -455)"/></clipPath><clipPath id="b"><path d="M777.164,380.379h30.785v59.807H777.164Zm0,0" transform="translate(-777.164 -380.379)"/></clipPath><clipPath id="c"><path d="M806.386,380.379H778.728a1.559,1.559,0,0,0-1.564,1.555v56.7a1.559,1.559,0,0,0,1.564,1.555h27.658a1.559,1.559,0,0,0,1.564-1.555v-56.7a1.559,1.559,0,0,0-1.564-1.555m-18.206,2.912h8.754c.674-.086.578-.979.578-.979v-.7a.737.737,0,0,1,.244-.573h7.981a1.49,1.49,0,0,1,1.494,1.484V438.05a1.49,1.49,0,0,1-1.494,1.482H779.375a1.487,1.487,0,0,1-1.491-1.482V382.521a1.488,1.488,0,0,1,1.491-1.484h7.984a.737.737,0,0,1,.244.573v.7s-.078.879.578.979" transform="translate(-777.164 -380.379)"/></clipPath><clipPath id="d"><path d="M806.386,380.379H778.728a1.56,1.56,0,0,0-1.564,1.555v56.7a1.56,1.56,0,0,0,1.564,1.555h27.658a1.559,1.559,0,0,0,1.564-1.555v-56.7a1.559,1.559,0,0,0-1.564-1.555m-18.2,2.912h8.751c.674-.086.578-.979.578-.979v-.7a.737.737,0,0,1,.244-.573h7.984a1.489,1.489,0,0,1,1.492,1.484V438.05a1.489,1.489,0,0,1-1.492,1.482H779.375a1.487,1.487,0,0,1-1.491-1.482V382.521a1.488,1.488,0,0,1,1.491-1.484h7.984a.737.737,0,0,1,.244.573v.7s-.078.879.581.979" transform="translate(-777.164 -380.379)"/></clipPath><linearGradient id="e" x1="-14.712" y1="-3.707" x2="-14.693" y2="-3.707" gradientUnits="objectBoundingBox"><stop offset="0" stop-color="#0b0b0c"/><stop offset="0.004" stop-color="#0b0b0d"/><stop offset="0.008" stop-color="#0c0c0e"/><stop offset="0.012" stop-color="#0d0c0f"/><stop offset="0.016" stop-color="#0e0d10"/><stop offset="0.02" stop-color="#0e0e11"/><stop offset="0.023" stop-color="#0f0f12"/><stop offset="0.027" stop-color="#101013"/><stop offset="0.031" stop-color="#101014"/><stop offset="0.035" stop-color="#111115"/><stop offset="0.039" stop-color="#111216"/><stop offset="0.043" stop-color="#121317"/><stop offset="0.047" stop-color="#131318"/><stop offset="0.051" stop-color="#131418"/><stop offset="0.055" stop-color="#141519"/><stop offset="0.059" stop-color="#14151a"/><stop offset="0.063" stop-color="#15161b"/><stop offset="0.066" stop-color="#15161c"/><stop offset="0.07" stop-color="#16171d"/><stop offset="0.074" stop-color="#17181e"/><stop offset="0.078" stop-color="#18191f"/><stop offset="0.082" stop-color="#181920"/><stop offset="0.086" stop-color="#191a21"/><stop offset="0.09" stop-color="#191b22"/><stop offset="0.094" stop-color="#1a1c23"/><stop offset="0.098" stop-color="#1b1c24"/><stop offset="0.102" stop-color="#1c1d25"/><stop offset="0.105" stop-color="#1c1e26"/><stop offset="0.109" stop-color="#1d1e27"/><stop offset="0.113" stop-color="#1e1f28"/><stop offset="0.117" stop-color="#1e2029"/><stop offset="0.121" stop-color="#1f202a"/><stop offset="0.125" stop-color="#1f212b"/><stop offset="0.129" stop-color="#20222c"/><stop offset="0.133" stop-color="#21232d"/><stop offset="0.141" stop-color="#21232d"/><stop offset="0.145" stop-color="#22252f"/><stop offset="0.148" stop-color="#232630"/><stop offset="0.152" stop-color="#242731"/><stop offset="0.156" stop-color="#252732"/><stop offset="0.16" stop-color="#252833"/><stop offset="0.164" stop-color="#262834"/><stop offset="0.168" stop-color="#262935"/><stop offset="0.172" stop-color="#272a36"/><stop offset="0.176" stop-color="#272b37"/><stop offset="0.18" stop-color="#282b38"/><stop offset="0.184" stop-color="#292c39"/><stop offset="0.188" stop-color="#2a2d3a"/><stop offset="0.191" stop-color="#2b2d3b"/><stop offset="0.195" stop-color="#2b2e3c"/><stop offset="0.199" stop-color="#2c2f3d"/><stop offset="0.203" stop-color="#2c303e"/><stop offset="0.207" stop-color="#2d303f"/><stop offset="0.211" stop-color="#2e3140"/><stop offset="0.215" stop-color="#2e3141"/><stop offset="0.219" stop-color="#2f3242"/><stop offset="0.223" stop-color="#2f3343"/><stop offset="0.227" stop-color="#303443"/><stop offset="0.23" stop-color="#303544"/><stop offset="0.234" stop-color="#313545"/><stop offset="0.238" stop-color="#323646"/><stop offset="0.242" stop-color="#333747"/><stop offset="0.246" stop-color="#333848"/><stop offset="0.25" stop-color="#343849"/><stop offset="0.254" stop-color="#35394a"/><stop offset="0.258" stop-color="#353a4b"/><stop offset="0.262" stop-color="#363a4c"/><stop offset="0.266" stop-color="#373b4d"/><stop offset="0.27" stop-color="#383b4e"/><stop offset="0.273" stop-color="#383c4f"/><stop offset="0.277" stop-color="#393d50"/><stop offset="0.281" stop-color="#393e51"/><stop offset="0.285" stop-color="#3a3f52"/><stop offset="0.289" stop-color="#3a3f53"/><stop offset="0.293" stop-color="#3b4054"/><stop offset="0.297" stop-color="#3c4155"/><stop offset="0.305" stop-color="#3b4054"/><stop offset="0.313" stop-color="#3b4053"/><stop offset="0.316" stop-color="#3a3f53"/><stop offset="0.32" stop-color="#3a3f53"/><stop offset="0.324" stop-color="#3a3e52"/><stop offset="0.328" stop-color="#3a3e52"/><stop offset="0.336" stop-color="#393e52"/><stop offset="0.34" stop-color="#393d51"/><stop offset="0.344" stop-color="#393d50"/><stop offset="0.348" stop-color="#393d50"/><stop offset="0.352" stop-color="#383d4f"/><stop offset="0.355" stop-color="#383c4f"/><stop offset="0.359" stop-color="#373c4e"/><stop offset="0.363" stop-color="#373b4e"/><stop offset="0.367" stop-color="#373b4e"/><stop offset="0.371" stop-color="#373b4d"/><stop offset="0.375" stop-color="#363b4d"/><stop offset="0.379" stop-color="#363a4c"/><stop offset="0.383" stop-color="#363a4c"/><stop offset="0.391" stop-color="#363a4c"/><stop offset="0.395" stop-color="#35394a"/><stop offset="0.398" stop-color="#35394a"/><stop offset="0.402" stop-color="#34394a"/><stop offset="0.406" stop-color="#34384a"/><stop offset="0.414" stop-color="#343849"/><stop offset="0.418" stop-color="#333848"/><stop offset="0.422" stop-color="#333748"/><stop offset="0.43" stop-color="#333747"/><stop offset="0.434" stop-color="#323747"/><stop offset="0.438" stop-color="#323646"/><stop offset="0.441" stop-color="#313646"/><stop offset="0.445" stop-color="#313546"/><stop offset="0.453" stop-color="#313546"/><stop offset="0.457" stop-color="#303545"/><stop offset="0.461" stop-color="#303444"/><stop offset="0.465" stop-color="#303444"/><stop offset="0.469" stop-color="#303443"/><stop offset="0.473" stop-color="#2f3343"/><stop offset="0.477" stop-color="#2f3342"/><stop offset="0.48" stop-color="#2f3242"/><stop offset="0.484" stop-color="#2f3241"/><stop offset="0.492" stop-color="#2e3241"/><stop offset="0.5" stop-color="#2e3140"/><stop offset="0.504" stop-color="#2d313f"/><stop offset="0.508" stop-color="#2d313f"/><stop offset="0.512" stop-color="#2d303f"/><stop offset="0.516" stop-color="#2d303e"/><stop offset="0.52" stop-color="#2c2f3d"/><stop offset="0.523" stop-color="#2c2f3d"/><stop offset="0.527" stop-color="#2c2f3d"/><stop offset="0.531" stop-color="#2b2f3d"/><stop offset="0.539" stop-color="#2b2e3c"/><stop offset="0.543" stop-color="#2b2e3b"/><stop offset="0.547" stop-color="#2a2e3b"/><stop offset="0.551" stop-color="#2a2d3a"/><stop offset="0.555" stop-color="#2a2d3a"/><stop offset="0.563" stop-color="#2a2d3a"/><stop offset="0.57" stop-color="#292c39"/><stop offset="0.578" stop-color="#282c39"/><stop offset="0.582" stop-color="#282b38"/><stop offset="0.586" stop-color="#282a37"/><stop offset="0.59" stop-color="#272a37"/><stop offset="0.594" stop-color="#272a36"/><stop offset="0.602" stop-color="#272a36"/><stop offset="0.605" stop-color="#262935"/><stop offset="0.609" stop-color="#262934"/><stop offset="0.613" stop-color="#252834"/><stop offset="0.617" stop-color="#252834"/><stop offset="0.621" stop-color="#252733"/><stop offset="0.625" stop-color="#252733"/><stop offset="0.629" stop-color="#242732"/><stop offset="0.633" stop-color="#242732"/><stop offset="0.641" stop-color="#242731"/><stop offset="0.645" stop-color="#232630"/><stop offset="0.648" stop-color="#232630"/><stop offset="0.656" stop-color="#232530"/><stop offset="0.66" stop-color="#22242f"/><stop offset="0.664" stop-color="#22242f"/><stop offset="0.668" stop-color="#22242e"/><stop offset="0.672" stop-color="#22242e"/><stop offset="0.676" stop-color="#21232d"/><stop offset="0.68" stop-color="#21232d"/><stop offset="0.688" stop-color="#21232d"/><stop offset="0.691" stop-color="#20222c"/><stop offset="0.695" stop-color="#20222c"/><stop offset="0.699" stop-color="#20212c"/><stop offset="0.703" stop-color="#20212b"/><stop offset="0.711" stop-color="#1f212b"/><stop offset="0.719" stop-color="#1f202a"/><stop offset="0.727" stop-color="#1e2029"/><stop offset="0.73" stop-color="#1e1f28"/><stop offset="0.734" stop-color="#1d1f28"/><stop offset="0.738" stop-color="#1d1f27"/><stop offset="0.742" stop-color="#1d1e27"/><stop offset="0.746" stop-color="#1d1e26"/><stop offset="0.75" stop-color="#1c1e26"/><stop offset="0.758" stop-color="#1c1e25"/><stop offset="0.762" stop-color="#1c1d25"/><stop offset="0.766" stop-color="#1b1d24"/><stop offset="0.77" stop-color="#1b1d23"/><stop offset="0.773" stop-color="#1b1c23"/><stop offset="0.777" stop-color="#1a1c23"/><stop offset="0.781" stop-color="#1a1b23"/><stop offset="0.789" stop-color="#1a1b22"/><stop offset="0.793" stop-color="#191a21"/><stop offset="0.797" stop-color="#191a21"/><stop offset="0.805" stop-color="#191a20"/><stop offset="0.809" stop-color="#181920"/><stop offset="0.813" stop-color="#18191f"/><stop offset="0.816" stop-color="#17181f"/><stop offset="0.82" stop-color="#17181f"/><stop offset="0.828" stop-color="#17181f"/><stop offset="0.832" stop-color="#16171e"/><stop offset="0.836" stop-color="#16171d"/><stop offset="0.844" stop-color="#16171d"/><stop offset="0.848" stop-color="#15161c"/><stop offset="0.852" stop-color="#15161b"/><stop offset="0.855" stop-color="#15151b"/><stop offset="0.859" stop-color="#15151b"/><stop offset="0.867" stop-color="#14151a"/><stop offset="0.875" stop-color="#141419"/><stop offset="0.883" stop-color="#131418"/><stop offset="0.891" stop-color="#131318"/><stop offset="0.895" stop-color="#131317"/><stop offset="0.898" stop-color="#121217"/><stop offset="0.902" stop-color="#121216"/><stop offset="0.906" stop-color="#111216"/><stop offset="0.914" stop-color="#111215"/><stop offset="0.922" stop-color="#111114"/><stop offset="0.926" stop-color="#101114"/><stop offset="0.93" stop-color="#101013"/><stop offset="0.938" stop-color="#101013"/><stop offset="0.941" stop-color="#0f0f13"/><stop offset="0.945" stop-color="#0f0f12"/><stop offset="0.953" stop-color="#0e0e12"/><stop offset="0.957" stop-color="#0e0e11"/><stop offset="0.961" stop-color="#0e0e10"/><stop offset="0.965" stop-color="#0d0d10"/><stop offset="0.969" stop-color="#0d0d0f"/><stop offset="0.977" stop-color="#0d0d0f"/><stop offset="0.98" stop-color="#0c0c0e"/><stop offset="0.984" stop-color="#0c0c0e"/><stop offset="0.992" stop-color="#0c0b0d"/><stop offset="0.996" stop-color="#0b0b0c"/><stop offset="1" stop-color="#0b0b0c"/></linearGradient></defs><g transform="translate(-604.5 -327.004)"><path d="M767.263,400.079c0,1.138-1.2,2.063-2.673,2.063H628.226c-1.477,0-2.675-.924-2.675-2.062V329.066c0-1.138,1.2-2.062,2.675-2.062H764.59c1.477,0,2.673.924,2.673,2.063v71.012" transform="translate(-8.783 0)" fill="#12191f"/><path d="M766.865,401.124h-138.9V333.176h138.9v67.948" transform="translate(-9.79 -2.575)" fill="#050606"/><path d="M766.59,400.917H629.613V335.109H766.59v65.808" transform="translate(-10.477 -3.382)" fill="#fff"/><path d="M766.59,443.547V441.2H629.613v2.352H766.59" transform="translate(-10.477 -36.395)" fill="#b8d2da"/><path d="M766.59,370.956V345.32H629.613v25.636H766.59" transform="translate(-10.477 -7.642)" fill="#3f399b"/><path d="M629.613,345.32v25.636h54.193L667.228,345.32H629.613" transform="translate(-10.477 -7.642)" fill="#494eaa"/><path d="M660.177,363.107a4.165,4.165,0,1,1-4.193,4.164A4.18,4.18,0,0,1,660.177,363.107Zm-5.807,9.555h11.615a1.594,1.594,0,0,0,1.6-1.589v-7.6a1.6,1.6,0,0,0-1.6-1.589H654.37a1.6,1.6,0,0,0-1.6,1.589v7.6a1.594,1.594,0,0,0,1.6,1.589" transform="translate(-12.712 -10.755)" fill="#fff"/><path d="M663.043,367.293v4.473l3.695-2.238Zm0,0" transform="translate(-16.182 -12.743)" fill="#fff"/><path d="M802.656,363.5v4.451l2.841-2.225-2.841-2.226" transform="translate(-51.042 -11.543)" fill="#fff"/><path d="M765.454,392.761H636.488v-1.4H765.454v1.4" transform="translate(-13.346 -20.58)" fill="#b8d2da"/><path d="M707.832,401.139,709,402.3a8.422,8.422,0,0,1,11.84,0l1.17-1.161a10.087,10.087,0,0,0-14.178,0" transform="translate(-27.296 -22.561)" fill="#b8d2da"/><path d="M710.77,405.243l1.17,1.161a5.986,5.986,0,0,1,8.414,0l1.168-1.161a7.646,7.646,0,0,0-10.752,0" transform="translate(-28.522 -24.145)" fill="#b8d2da"/><path d="M721.026,409.5a5.167,5.167,0,0,0-7.265,0l1.168,1.161a3.506,3.506,0,0,1,4.929,0l1.168-1.163" transform="translate(-29.77 -25.791)" fill="#b8d2da"/><path d="M717.488,414.208a1.46,1.46,0,1,0,1.459-1.45,1.456,1.456,0,0,0-1.459,1.45" transform="translate(-31.325 -27.279)" fill="#b8d2da"/><path d="M775.618,400.974a3.638,3.638,0,1,1-3.663,3.638A3.649,3.649,0,0,1,775.618,400.974Zm-5.072,8.346H780.69a1.392,1.392,0,0,0,1.4-1.389v-6.639a1.391,1.391,0,0,0-1.4-1.386H770.546a1.393,1.393,0,0,0-1.4,1.386v6.639a1.394,1.394,0,0,0,1.4,1.389" transform="translate(-43.75 -22.613)" fill="#b8d2da"/><path d="M778.121,404.629v3.906l3.226-1.954Zm0,0" transform="translate(-48.079 -24.604)" fill="#b8d2da"/><path d="M657.929,401.023a1.586,1.586,0,1,1,1.585,1.575A1.58,1.58,0,0,1,657.929,401.023Zm5.079,2.682a4.068,4.068,0,0,0,0-4.325,4.135,4.135,0,0,0-5.673-1.307,4.073,4.073,0,0,0-1.316,5.632l3.495,5.568,3.494-5.568" transform="translate(-13.811 -21.623)" fill="#b8d2da"/><path d="M716.081,420.12H704.633v-.53h11.448v.53" transform="translate(-26.791 -29.693)" fill="#b8d2da"/><path d="M731.439,420.12h-5.47v-.53h5.47v.53" transform="translate(-33.341 -29.693)" fill="#b8d2da"/><path d="M727.159,427.122H715.711v-.528h11.448v.528" transform="translate(-29.755 -31.939)" fill="#b8d2da"/><path d="M710.1,427.122h-5.471v-.528H710.1v.528" transform="translate(-27.484 -31.939)" fill="#b8d2da"/><path d="M709.017,430.624h-4.384v-.53h4.384v.53" transform="translate(-27.604 -33.061)" fill="#b8d2da"/><path d="M720.528,430.624h-6.29v-.53h6.29v.53" transform="translate(-30.021 -33.061)" fill="#b8d2da"/><path d="M709.017,423.622h-4.384v-.528h4.384v.528" transform="translate(-27.604 -30.817)" fill="#b8d2da"/><path d="M717.668,423.622h-4.305v-.528h4.305v.528" transform="translate(-30.02 -30.817)" fill="#b8d2da"/><path d="M729.9,423.622h-7.619v-.528H729.9v.528" transform="translate(-32.044 -30.817)" fill="#b8d2da"/><path d="M716.081,433.237H704.633v-.53h11.448v.53" transform="translate(-26.791 -33.899)" fill="#b8d2da"/><path d="M731.439,433.237h-5.47v-.53h5.47v.53" transform="translate(-33.341 -33.899)" fill="#b8d2da"/><path d="M709.017,436.739h-4.384v-.528h4.384v.528" transform="translate(-27.604 -35.023)" fill="#b8d2da"/><path d="M717.668,436.739h-4.305v-.528h4.305v.528" transform="translate(-30.02 -35.023)" fill="#b8d2da"/><path d="M727.167,436.739h-4.886v-.528h4.886v.528" transform="translate(-32.404 -35.023)" fill="#b8d2da"/><path d="M776.335,420.12H764.887v-.53h11.448v.53" transform="translate(-42.912 -29.693)" fill="#b8d2da"/><path d="M791.693,420.12h-5.47v-.53h5.47v.53" transform="translate(-49.879 -29.693)" fill="#b8d2da"/><path d="M787.413,427.124H775.965v-.53h11.448v.53" transform="translate(-45.876 -31.939)" fill="#b8d2da"/><path d="M770.357,427.122h-5.47v-.528h5.47v.528" transform="translate(-44.023 -31.939)" fill="#b8d2da"/><path d="M769.271,430.624h-4.384v-.53h4.384v.53" transform="translate(-44.214 -33.061)" fill="#b8d2da"/><path d="M780.784,430.624h-6.292v-.53h6.292v.53" transform="translate(-46.504 -33.061)" fill="#b8d2da"/><path d="M769.271,423.622h-4.384v-.528h4.384v.528" transform="translate(-44.214 -30.817)" fill="#b8d2da"/><path d="M777.92,423.622h-4.307v-.528h4.307v.528" transform="translate(-46.633 -30.817)" fill="#b8d2da"/><path d="M790.154,423.624h-7.619v-.53h7.619v.53" transform="translate(-48.437 -30.816)" fill="#b8d2da"/><path d="M776.335,433.237H764.887v-.53h11.448v.53" transform="translate(-42.912 -33.899)" fill="#b8d2da"/><path d="M791.693,433.237h-5.47v-.53h5.47v.53" transform="translate(-49.879 -33.899)" fill="#b8d2da"/><path d="M769.271,436.739h-4.384v-.528h4.384v.528" transform="translate(-44.214 -35.023)" fill="#b8d2da"/><path d="M777.92,436.739h-4.307v-.528h4.307v.528" transform="translate(-46.633 -35.023)" fill="#b8d2da"/><path d="M787.422,436.739h-4.883v-.528h4.883v.528" transform="translate(-48.983 -35.023)" fill="#b8d2da"/><path d="M658.546,420.12H647.1v-.53h11.448v.53" transform="translate(-11.397 -29.693)" fill="#b8d2da"/><path d="M673.906,420.12h-5.468v-.53h5.468v.53" transform="translate(-17.55 -29.693)" fill="#b8d2da"/><path d="M669.626,427.122H658.18v-.528h11.446v.528" transform="translate(-14.362 -31.939)" fill="#b8d2da"/><path d="M652.568,427.122H647.1v-.528h5.47v.528" transform="translate(-11.692 -31.939)" fill="#b8d2da"/><path d="M651.482,430.624H647.1v-.53h4.384v.53" transform="translate(-11.743 -33.061)" fill="#b8d2da"/><path d="M663,430.624H656.7v-.53H663v.53" transform="translate(-14.281 -33.061)" fill="#b8d2da"/><path d="M651.482,423.622H647.1v-.528h4.384v.528" transform="translate(-11.743 -30.817)" fill="#b8d2da"/><path d="M660.135,423.622h-4.307v-.528h4.307v.528" transform="translate(-14.154 -30.817)" fill="#b8d2da"/><path d="M672.365,423.622h-7.619v-.528h7.619v.528" transform="translate(-16.391 -30.817)" fill="#b8d2da"/><path d="M658.546,433.237H647.1v-.53h11.448v.53" transform="translate(-11.397 -33.899)" fill="#b8d2da"/><path d="M673.906,433.237h-5.468v-.53h5.468v.53" transform="translate(-17.55 -33.899)" fill="#b8d2da"/><path d="M651.482,436.739H647.1v-.528h4.384v.528" transform="translate(-11.743 -35.023)" fill="#b8d2da"/><path d="M660.135,436.739h-4.307v-.528h4.307v.528" transform="translate(-14.154 -35.023)" fill="#b8d2da"/><path d="M669.632,436.739h-4.886v-.528h4.886v.528" transform="translate(-16.575 -35.023)" fill="#b8d2da"/><path d="M720.355,340.864v-5.755h.291v5.755h-.291" transform="translate(-32.437 -3.382)" fill="#b8d2da"/><path d="M739.035,340.864v-5.755h.294v5.755h-.294" transform="translate(-37.667 -3.382)" fill="#b8d2da"/><path d="M775.262,340.864v-5.755h.294v5.755h-.294" transform="translate(-47.81 -3.382)" fill="#b8d2da"/><path d="M756.684,340.864v-5.755h.291v5.755h-.291" transform="translate(-42.609 -3.382)" fill="#b8d2da"/><path d="M714.277,340.766h1.846l-.924,1.074Zm0,0" transform="translate(-30.559 -5.742)" fill="#b8d2da"/><path d="M750.734,340.766h1.844l-.922,1.074Zm0,0" transform="translate(-40.708 -5.742)" fill="#b8d2da"/><path d="M750.734,340.766h1.844l-.922,1.074Zm0,0" transform="translate(-40.708 -5.742)" fill="#b8d2da"/><path d="M750.734,340.766h1.844l-.922,1.074Zm0,0" transform="translate(-40.708 -5.742)" fill="#b8d2da"/><path d="M750.734,340.766h1.844l-.922,1.074Zm0,0" transform="translate(-40.708 -5.742)" fill="#b8d2da"/><path d="M750.734,340.766h1.844l-.922,1.074Zm0,0" transform="translate(-40.708 -5.742)" fill="#b8d2da"/><path d="M734.066,340.766h1.844l-.922,1.074Zm0,0" transform="translate(-36.068 -5.742)" fill="#b8d2da"/><path d="M734.066,340.766h1.844l-.922,1.074Zm0,0" transform="translate(-36.068 -5.742)" fill="#b8d2da"/><path d="M734.066,340.766h1.844l-.922,1.074Zm0,0" transform="translate(-36.068 -5.742)" fill="#b8d2da"/><path d="M734.066,340.766h1.844l-.922,1.074Zm0,0" transform="translate(-36.068 -5.742)" fill="#b8d2da"/><path d="M734.066,340.766h1.844l-.922,1.074Zm0,0" transform="translate(-36.068 -5.742)" fill="#b8d2da"/><path d="M770.824,340.766h1.844l-.922,1.074Zm0,0" transform="translate(-46.301 -5.742)" fill="#b8d2da"/><path d="M770.824,340.766h1.844l-.922,1.074Zm0,0" transform="translate(-46.301 -5.742)" fill="#b8d2da"/><path d="M770.824,340.766h1.844l-.922,1.074Zm0,0" transform="translate(-46.301 -5.742)" fill="#b8d2da"/><path d="M770.824,340.766h1.844l-.922,1.074Zm0,0" transform="translate(-46.301 -5.742)" fill="#b8d2da"/><path d="M770.824,340.766h1.844l-.922,1.074Zm0,0" transform="translate(-46.301 -5.742)" fill="#b8d2da"/><path d="M805.872,340.7a.408.408,0,0,1-.41.407h-1.621a.411.411,0,0,1-.412-.407v-1.61a.411.411,0,0,1,.412-.407h1.621a.407.407,0,0,1,.41.407v1.61" transform="translate(-51.365 -4.873)" fill="#b8d2da"/><path d="M805.195,339.07a.546.546,0,0,0-.1,1.084v.15h-.038v.787h.273l0-.787H805.3v-.15a.546.546,0,0,0-.1-1.084h0m0,.977a.432.432,0,0,1-.432-.432.428.428,0,0,1,.43-.428h0a.43.43,0,1,1,0,.86" transform="translate(-51.873 -5.034)" fill="#84aebc"/><path d="M805.072,339.965a.431.431,0,1,1,.435-.43A.434.434,0,0,1,805.072,339.965Zm.551-.43a.55.55,0,1,0-.649.537v.15h-.041v.79h.273l0-.79h-.041l0-.15a.547.547,0,0,0,.453-.537" transform="translate(-51.821 -5)" fill="#fff"/><path d="M778.527,341.108h14.019v-2.424H778.527v2.424" transform="translate(-40.975 -4.873)" fill="#fff"/><path d="M778.43,341.015v.129h14.151v-2.684H778.3v2.684h.129v-.129h.132v-2.293h13.757v2.163H778.43v.13h0" transform="translate(-40.881 -4.78)" fill="#b8d2da"/><path d="M688.121,425.017V396.781h.294v28.236h-.294" transform="translate(-23.412 -19.401)" fill="#b8d2da"/><path d="M751.367,425.017V396.781h.291v28.236h-.291" transform="translate(-41.12 -19.401)" fill="#b8d2da"/><path d="M629.613,370.956V345.32h14.574Zm0,0" transform="translate(-10.477 -7.642)" fill="#b72399"/><g transform="translate(604.5 416.566)" clip-path="url(#a)"><path d="M609.957,459.674a5.529,5.529,0,0,1-1.948-.441l-2.671-.922c-.643-.287-.6-.69-.6-.69V456.7c0-.779,1.119-.769,1.119-.769h163.66s1.122-.009,1.122.769v.922s.047.4-.6.69l-2.671.922a5.528,5.528,0,0,1-1.948.441H609.957" transform="translate(-604.568 -455.388)" fill="#cfcece"/></g><path d="M713.479,455.93h-9.1l.706,1.559a1.03,1.03,0,0,0,.812.647h15.171a1.03,1.03,0,0,0,.813-.647l.7-1.559h-9.1" transform="translate(-25.854 -38.822)" fill="#434648"/><g transform="translate(736.758 373.077)" clip-path="url(#b)"><g clip-path="url(#c)"><g clip-path="url(#d)"><path d="M777.164,440.186V380.379h30.785v59.807Zm0,0" transform="translate(-777.164 -380.379)" fill="url(#e)"/></g></g></g><path d="M806.254,381.508H798.27a.735.735,0,0,0-.241.573v.7s.093.893-.58.979h-8.754c-.656-.1-.578-.979-.578-.979v-.7a.736.736,0,0,0-.244-.573h-7.984a1.488,1.488,0,0,0-1.491,1.484v55.529A1.487,1.487,0,0,0,779.889,440h26.364a1.487,1.487,0,0,0,1.491-1.482V382.992a1.488,1.488,0,0,0-1.491-1.484" transform="translate(-40.921 -7.773)" fill="#fff"/><path d="M804.636,382.86a.366.366,0,0,1-.367.364h-6.743a.364.364,0,1,1,0-.729h6.743a.364.364,0,0,1,.367.364" transform="translate(-48.749 -17.785)" fill="#231f20"/><path d="M778.4,473.777v3.24a1.489,1.489,0,0,0,1.491,1.482h26.364a1.487,1.487,0,0,0,1.491-1.482v-3.24H778.4" transform="translate(-40.921 -46.268)" fill="#363d4e"/><path d="M778.4,396.051v11.954h29.413V396.051H778.4" transform="translate(-40.921 -21.18)" fill="#6975c2"/><path d="M778.4,406.508v5.86h29.413v-5.86H778.4" transform="translate(-40.921 -25.016)" fill="#6562b7"/><path d="M788.477,393.69v-2.6h.132v2.6h-.132" transform="translate(-51.54 -20.406)" fill="#bdbcbc"/><path d="M796.922,393.69v-2.6h.134v2.6h-.134" transform="translate(-48.649 -20.406)" fill="#bdbcbc"/><path d="M813.309,393.69v-2.6h.132v2.6h-.132" transform="translate(-55.486 -20.406)" fill="#bdbcbc"/><path d="M804.9,393.69v-2.6h.135v2.6H804.9" transform="translate(-51.979 -20.406)" fill="#bdbcbc"/><path d="M785.727,393.645h.833l-.417.487Zm0,0" transform="translate(-50.64 -21.375)" fill="#bdbcbc"/><path d="M802.219,393.645h.833l-.416.487-.417-.487" transform="translate(-50.86 -21.375)" fill="#bdbcbc"/><path d="M802.219,393.645h.833l-.416.487-.417-.487" transform="translate(-50.86 -21.375)" fill="#bdbcbc"/><path d="M802.219,393.645h.833l-.416.487-.417-.487" transform="translate(-50.86 -21.375)" fill="#bdbcbc"/><path d="M802.219,393.645h.833l-.416.487-.417-.487" transform="translate(-50.86 -21.375)" fill="#bdbcbc"/><path d="M802.219,393.645h.833l-.416.487-.417-.487" transform="translate(-50.86 -21.375)" fill="#bdbcbc"/><path d="M794.676,393.645h.833l-.416.485-.417-.485" transform="translate(-47.712 -21.375)" fill="#bdbcbc"/><path d="M794.676,393.645h.833l-.416.485-.417-.485" transform="translate(-47.712 -21.375)" fill="#bdbcbc"/><path d="M794.676,393.645h.833l-.416.485-.417-.485" transform="translate(-47.712 -21.375)" fill="#bdbcbc"/><path d="M794.676,393.645h.833l-.416.485-.417-.485" transform="translate(-47.712 -21.375)" fill="#bdbcbc"/><path d="M794.676,393.645h.833l-.416.485-.417-.485" transform="translate(-47.712 -21.375)" fill="#bdbcbc"/><path d="M811.3,393.645h.833l-.414.487-.419-.487" transform="translate(-54.648 -21.375)" fill="#bdbcbc"/><path d="M811.3,393.645h.833l-.414.487-.419-.487" transform="translate(-54.648 -21.375)" fill="#bdbcbc"/><path d="M811.3,393.645h.833l-.414.487-.419-.487" transform="translate(-54.648 -21.375)" fill="#bdbcbc"/><path d="M811.3,393.645h.833l-.414.487-.419-.487" transform="translate(-54.648 -21.375)" fill="#bdbcbc"/><path d="M811.3,393.645h.833l-.414.487-.419-.487" transform="translate(-54.648 -21.375)" fill="#bdbcbc"/><path d="M827.155,393.616a.183.183,0,0,1-.184.184h-.733a.185.185,0,0,1-.186-.184v-.729a.186.186,0,0,1,.186-.185h.733a.184.184,0,0,1,.184.185v.729" transform="translate(-60.802 -21.03)" fill="#87d8f7"/><path d="M826.846,392.879a.247.247,0,0,0-.043.49v.068h-.018v.357h.125v-.357h-.018v-.068a.247.247,0,0,0-.044-.49h0m0,.442h0a.195.195,0,1,1,0-.389.195.195,0,1,1,0,.389" transform="translate(-61.031 -21.099)" fill="#588ba2"/><path d="M826.791,393.282a.195.195,0,1,1,0-.389.2.2,0,0,1,.2.2A.2.2,0,0,1,826.791,393.282Zm.25-.193a.249.249,0,0,0-.5,0,.251.251,0,0,0,.205.244v.066h-.019v.357h.125V393.4h-.018v-.066a.249.249,0,0,0,.2-.244" transform="translate(-61.008 -21.087)" fill="#fff"/><path d="M814.785,393.8h6.343v-1.1h-6.343v1.1" transform="translate(-56.102 -21.03)" fill="#fff"/><path d="M814.723,393.74v.084h6.427v-1.265h-6.513v1.265h.086v-.084h.084V392.73h6.172v.924h-6.256v.086h0" transform="translate(-56.04 -20.972)" fill="#bdbcbc"/><path d="M810.95,404.2h-8.9v-.173h8.9v.173" transform="translate(-50.788 -24.731)" fill="#fff"/><path d="M822.9,404.2h-4.254v-.173H822.9v.173" transform="translate(-57.712 -24.731)" fill="#fff"/><path d="M819.57,406.368h-8.906v-.173h8.906v.173" transform="translate(-54.383 -25.427)" fill="#fff"/><path d="M806.306,406.368h-4.255v-.173h4.255v.173" transform="translate(-50.789 -25.427)" fill="#fff"/><path d="M805.459,407.452h-3.408v-.171h3.408v.171" transform="translate(-50.789 -25.776)" fill="#fff"/><path d="M814.126,407.452h-5.291v-.171h5.291v.171" transform="translate(-53.62 -25.776)" fill="#fff"/><path d="M805.459,405.284h-3.408v-.171h3.408v.171" transform="translate(-50.789 -25.08)" fill="#fff"/><path d="M812.187,405.282h-3.351v-.173h3.351v.173" transform="translate(-53.62 -25.078)" fill="#fff"/><path d="M821.454,405.284H815.18v-.171h6.274v.171" transform="translate(-56.267 -25.08)" fill="#fff"/><path d="M807.72,409.6a.709.709,0,0,1-.712.706H802.65a.707.707,0,1,1,0-1.413h4.358a.709.709,0,0,1,.712.707" transform="translate(-50.742 -26.183)" fill="#3bbec5"/><path d="M807.272,408.977a.8.8,0,0,1,.05.284c0,.389-.273.4-.612.4h-3.761c-.339,0-.615-.009-.615-.4a.834.834,0,0,1,.052-.284.706.706,0,0,0,.264,1.363h4.358a.706.706,0,0,0,.264-1.363" transform="translate(-50.742 -26.215)" fill="#4397c6"/><path d="M784.9,401.173l-1.833-.551.444-1.455,1.832.553Zm1.065-2.466h-3.517a.28.28,0,0,0-.28.278v2.37a.278.278,0,0,0,.28.278h3.517a.276.276,0,0,0,.277-.278v-2.37a.277.277,0,0,0-.277-.278" transform="translate(-49.036 -22.807)" fill="#fff"/><path d="M783.32,403.316v.677l.738-.677Zm0,0" transform="translate(-49.985 -24.462)" fill="#fff"/><path d="M784.945,401.246l.751-.747-.911-.121Zm0,0" transform="translate(-50.362 -23.505)" fill="#fff"/><path d="M786.069,401.4l-.2.2-.455-.453.2-.193.453.451" transform="translate(-50.587 -23.704)" fill="#fff"/><path d="M807.133,417.816H782.508v-.246h24.625v.246" transform="translate(-42.636 -29.072)" fill="#bdbcbc"/><path d="M795.689,431.347h-8.232v-8.175h8.232v8.175" transform="translate(-44.701 -29.984)" fill="#87d8f7"/><path d="M809.584,423.967h-6.076v-.346h6.076v.346" transform="translate(-51.397 -31.004)" fill="#b8d2da"/><path d="M817.735,423.967h-2.9v-.346h2.9v.346" transform="translate(-56.122 -31.004)" fill="#b8d2da"/><path d="M815.463,427.682h-6.076v-.346h6.076v.346" transform="translate(-53.85 -32.196)" fill="#b8d2da"/><path d="M806.41,427.682h-2.9v-.346h2.9v.346" transform="translate(-51.397 -32.196)" fill="#b8d2da"/><path d="M805.835,429.541h-2.327v-.346h2.327v.346" transform="translate(-51.397 -32.793)" fill="#b8d2da"/><path d="M811.943,429.541H808.6v-.346h3.338v.346" transform="translate(-53.524 -32.793)" fill="#b8d2da"/><path d="M805.835,425.824h-2.327v-.344h2.327v.344" transform="translate(-51.397 -31.601)" fill="#b8d2da"/><path d="M810.427,425.826h-2.286v-.346h2.286v.346" transform="translate(-53.33 -31.601)" fill="#b8d2da"/><path d="M816.917,425.826h-4.046v-.346h4.046v.346" transform="translate(-55.303 -31.601)" fill="#b8d2da"/><path d="M809.584,430.926h-6.076v-.344h6.076v.344" transform="translate(-51.397 -33.238)" fill="#b8d2da"/><path d="M817.735,430.928h-2.9v-.346h2.9v.346" transform="translate(-56.122 -33.238)" fill="#b8d2da"/><path d="M815.463,434.643h-6.076V434.3h6.076v.346" transform="translate(-53.85 -34.43)" fill="#b8d2da"/><path d="M806.41,434.643h-2.9V434.3h2.9v.346" transform="translate(-51.397 -34.43)" fill="#b8d2da"/><path d="M805.835,436.5h-2.327v-.346h2.327v.346" transform="translate(-51.397 -35.027)" fill="#b8d2da"/><path d="M811.943,436.5H808.6v-.346h3.338v.346" transform="translate(-53.524 -35.027)" fill="#b8d2da"/><path d="M805.835,432.785h-2.327v-.344h2.327v.344" transform="translate(-51.397 -33.835)" fill="#b8d2da"/><path d="M810.427,432.787h-2.286v-.346h2.286v.346" transform="translate(-53.33 -33.835)" fill="#b8d2da"/><path d="M816.917,432.787h-4.046v-.346h4.046v.346" transform="translate(-55.303 -33.835)" fill="#b8d2da"/><path d="M795.689,448.6h-8.232v-8.175h8.232V448.6" transform="translate(-44.701 -35.362)" fill="#87d8f7"/><path d="M809.584,441.217h-6.076v-.346h6.076v.346" transform="translate(-51.397 -36.54)" fill="#b8d2da"/><path d="M817.735,441.217h-2.9v-.346h2.9v.346" transform="translate(-56.122 -36.54)" fill="#b8d2da"/><path d="M815.463,444.932h-6.076v-.346h6.076v.346" transform="translate(-53.85 -37.732)" fill="#b8d2da"/><path d="M806.41,444.932h-2.9v-.346h2.9v.346" transform="translate(-51.397 -37.732)" fill="#b8d2da"/><path d="M805.835,446.791h-2.327v-.346h2.327v.346" transform="translate(-51.397 -38.329)" fill="#b8d2da"/><path d="M811.943,446.791H808.6v-.346h3.338v.346" transform="translate(-53.524 -38.329)" fill="#b8d2da"/><path d="M805.835,443.076h-2.327v-.346h2.327v.346" transform="translate(-51.397 -37.136)" fill="#b8d2da"/><path d="M810.427,443.076h-2.286v-.346h2.286v.346" transform="translate(-53.33 -37.136)" fill="#b8d2da"/><path d="M816.917,443.076h-4.046v-.346h4.046v.346" transform="translate(-55.303 -37.136)" fill="#b8d2da"/><path d="M809.584,448.178h-6.076v-.346h6.076v.346" transform="translate(-51.397 -38.774)" fill="#b8d2da"/><path d="M817.735,448.178h-2.9v-.346h2.9v.346" transform="translate(-56.122 -38.774)" fill="#b8d2da"/><path d="M815.463,451.893h-6.076v-.346h6.076v.346" transform="translate(-53.85 -39.966)" fill="#b8d2da"/><path d="M806.41,451.893h-2.9v-.346h2.9v.346" transform="translate(-51.397 -39.966)" fill="#b8d2da"/><path d="M805.835,453.752h-2.327v-.346h2.327v.346" transform="translate(-51.397 -37.769)" fill="#b8d2da"/><path d="M811.943,453.752H808.6v-.346h3.338v.346" transform="translate(-53.524 -37.769)" fill="#b8d2da"/><path d="M805.835,450.037h-2.327v-.346h2.327v.346" transform="translate(-51.397 -39.37)" fill="#b8d2da"/><path d="M810.427,450.037h-2.286v-.346h2.286v.346" transform="translate(-53.33 -39.37)" fill="#b8d2da"/><path d="M816.917,450.037h-4.046v-.346h4.046v.346" transform="translate(-55.303 -39.37)" fill="#b8d2da"/><path d="M795.689,465.847h-8.232v-8.175h8.232v8.175" transform="translate(-44.701 -39.549)" fill="#87d8f7"/><path d="M809.584,458.467h-6.076v-.346h6.076v.346" transform="translate(-51.397 -39.737)" fill="#b8d2da"/><path d="M817.735,458.467h-2.9v-.346h2.9v.346" transform="translate(-56.122 -39.737)" fill="#b8d2da"/><path d="M815.463,462.182h-6.076v-.346h6.076v.346" transform="translate(-53.85 -41.286)" fill="#b8d2da"/><path d="M806.41,462.182h-2.9v-.346h2.9v.346" transform="translate(-51.397 -41.286)" fill="#b8d2da"/><path d="M805.835,464.041h-2.327V463.7h2.327v.346" transform="translate(-51.397 -42.062)" fill="#b8d2da"/><path d="M811.943,464.041H808.6V463.7h3.338v.346" transform="translate(-53.524 -42.062)" fill="#b8d2da"/><path d="M805.835,460.324h-2.327v-.344h2.327v.344" transform="translate(-51.397 -40.512)" fill="#b8d2da"/><path d="M810.427,460.324h-2.286v-.344h2.286v.344" transform="translate(-53.33 -40.512)" fill="#b8d2da"/><path d="M816.917,460.324h-4.046v-.344h4.046v.344" transform="translate(-55.303 -40.512)" fill="#b8d2da"/><path d="M809.584,465.428h-6.076v-.346h6.076v.346" transform="translate(-51.397 -42.641)" fill="#b8d2da"/><path d="M817.735,465.428h-2.9v-.346h2.9v.346" transform="translate(-56.122 -42.641)" fill="#b8d2da"/><path d="M815.463,469.143h-6.076V468.8h6.076v.346" transform="translate(-53.85 -44.191)" fill="#b8d2da"/><path d="M806.41,469.143h-2.9V468.8h2.9v.346" transform="translate(-51.397 -44.191)" fill="#b8d2da"/><path d="M805.835,471h-2.327v-.346h2.327V471" transform="translate(-51.397 -44.966)" fill="#b8d2da"/><path d="M811.943,471H808.6v-.346h3.338V471" transform="translate(-53.524 -44.966)" fill="#b8d2da"/><path d="M805.835,467.285h-2.327v-.344h2.327v.344" transform="translate(-51.397 -43.416)" fill="#b8d2da"/><path d="M810.427,467.285h-2.286v-.344h2.286v.344" transform="translate(-53.33 -43.416)" fill="#b8d2da"/><path d="M816.917,467.285h-4.046v-.344h4.046v.344" transform="translate(-55.303 -43.416)" fill="#b8d2da"/><path d="M778.422,479.563a1.485,1.485,0,0,0,1.477,1.35h26.364a1.484,1.484,0,0,0,1.477-1.35H778.422" transform="translate(-40.931 -48.682)" fill="#6975c2"/><path d="M785.227,476.155h21.456v-.346H785.227" transform="translate(-43.77 -47.116)" fill="#fff"/><path d="M792.5,477.784h3.476v-.346H792.5" transform="translate(-46.806 -47.796)" fill="#fff"/><path d="M799.23,477.784h3.476v-.346H799.23" transform="translate(-49.612 -47.796)" fill="#fff"/><path d="M805.953,477.784h1.175v-.346h-1.175" transform="translate(-52.417 -47.796)" fill="#fff"/><path d="M808.8,477.784h3.479v-.346H808.8" transform="translate(-53.604 -47.796)" fill="#fff"/></g></svg>